<svg class="theme-light" xmlns="http://www.w3.org/2000/svg" width="2400" height="1250" viewBox="0 0 2400 1250" role="img" shape-rendering="geometricPrecision"><defs><filter id="shadow" x="-20%" y="-20%" width="140%" height="150%"><feDropShadow dx="0" dy="4" stdDeviation="6" flood-color="#0f172a" flood-opacity=".14"/></filter></defs><rect width="100%" height="100%" fill="#f8fafc"/><rect x="0" y="0" width="2400" height="112" fill="#0f172a"/><text x="70" y="56" fill="#f8fafc" font-family="Inter,Segoe UI,sans-serif" font-size="30" font-weight="700">LLDP discovered topology</text><text x="70" y="84" fill="#94a3b8" font-family="Inter,Segoe UI,sans-serif" font-size="15"></text><text x="2330" y="66" text-anchor="end" fill="#38bdf8" font-family="ui-monospace,SFMono-Regular,monospace" font-size="14">NETWORK DIAGRAM</text><g id="ring-background"><rect x="42" y="197" width="2316" height="950" rx="24" fill="#eff6ff" stroke="#dbeafe"/><ellipse cx="1435" cy="690" rx="700" ry="385" fill="none" stroke="#cbd5e1" stroke-width="2" stroke-dasharray="8 8"/><text x="1435" y="675" text-anchor="middle" fill="#334155" font-family="Inter,Segoe UI,sans-serif" font-size="23" font-weight="750">NETWORK DIAGRAM</text><text x="1435" y="705" text-anchor="middle" fill="#64748b" font-family="ui-monospace,SFMono-Regular,monospace" font-size="13">4-NODE RESILIENT RING</text><text x="78" y="235" fill="#64748b" font-family="Inter,Segoe UI,sans-serif" font-size="12" font-weight="700" letter-spacing="1.8">RING TOPOLOGY</text><path d="M78 250 H410" stroke="#cbd5e1" stroke-width="1"/></g><g id="links"><g id="link-1" data-netdiag-kind="link"><path d="M 1575.0 305.0 H 1629.0 L 1941.0 667.0 H 1995.0" fill="none" stroke="#334155" stroke-width="2.2" stroke-linecap="round" stroke-linejoin="round"  opacity=".86"/><circle cx="1575.0" cy="305.0" r="3.2" fill="#ffffff" stroke="#334155" stroke-width="2"/><circle cx="1995.0" cy="667.0" r="3.2" fill="#ffffff" stroke="#334155" stroke-width="2"/></g><g id="link-2" data-netdiag-kind="link"><path d="M 1295.0 305.0 H 1241.0 L 929.0 667.0 H 875.0" fill="none" stroke="#334155" stroke-width="2.2" stroke-linecap="round" stroke-linejoin="round"  opacity=".86"/><circle cx="1295.0" cy="305.0" r="3.2" fill="#ffffff" stroke="#334155" stroke-width="2"/><circle cx="875.0" cy="667.0" r="3.2" fill="#ffffff" stroke="#334155" stroke-width="2"/></g><g id="link-3" data-netdiag-kind="link"><path d="M 1995.0 713.0 H 1941.0 L 1629.0 1075.0 H 1575.0" fill="none" stroke="#334155" stroke-width="2.2" stroke-linecap="round" stroke-linejoin="round"  opacity=".86"/><circle cx="1995.0" cy="713.0" r="3.2" fill="#ffffff" stroke="#334155" stroke-width="2"/><circle cx="1575.0" cy="1075.0" r="3.2" fill="#ffffff" stroke="#334155" stroke-width="2"/></g><g id="link-4" data-netdiag-kind="link"><path d="M 1295.0 1075.0 H 1241.0 L 929.0 713.0 H 875.0" fill="none" stroke="#334155" stroke-width="2.2" stroke-linecap="round" stroke-linejoin="round"  opacity=".86"/><circle cx="1295.0" cy="1075.0" r="3.2" fill="#ffffff" stroke="#334155" stroke-width="2"/><circle cx="875.0" cy="713.0" r="3.2" fill="#ffffff" stroke="#334155" stroke-width="2"/></g></g><g id="nodes"><g id="r1" data-netdiag-kind="node" filter="url(#shadow)"><rect x="1295.0" y="264.0" width="280.0" height="82.0" rx="14" fill="#ffffff" stroke="#0878b9" stroke-width="2"/><rect x="1295.0" y="264.0" width="8" height="82.0" rx="4" fill="#0878b9"/><g class="device-icon device-icon-router" transform="translate(1335.0 305.0)" stroke="#0878b9" fill="none" stroke-width="1.6" stroke-linecap="round" stroke-linejoin="round"><ellipse cx="0" cy="0" rx="27" ry="18" fill="#0878b9" fill-opacity=".12"/><ellipse cx="0" cy="0" rx="27" ry="18"/><path d="M-14 0h28M8-6l6 6-6 6M14 0H-14M-8-6l-6 6 6 6"/><path d="M0-13v26M-6-7l6-6 6 6M-6 7l6 6 6-6"/></g><text class="node-title" x="1373.0" y="298.0" fill="#0f172a" font-family="Inter,Segoe UI,Arial,sans-serif" font-size="15" font-weight="700">R1</text><text x="1373.0" y="319.0" fill="#64748b" font-family="ui-monospace,SFMono-Regular,monospace" font-size="11">ROUTER</text></g><g id="r2" data-netdiag-kind="node" filter="url(#shadow)"><rect x="1995.0" y="649.0" width="280.0" height="82.0" rx="14" fill="#ffffff" stroke="#0878b9" stroke-width="2"/><rect x="1995.0" y="649.0" width="8" height="82.0" rx="4" fill="#0878b9"/><g class="device-icon device-icon-router" transform="translate(2035.0 690.0)" stroke="#0878b9" fill="none" stroke-width="1.6" stroke-linecap="round" stroke-linejoin="round"><ellipse cx="0" cy="0" rx="27" ry="18" fill="#0878b9" fill-opacity=".12"/><ellipse cx="0" cy="0" rx="27" ry="18"/><path d="M-14 0h28M8-6l6 6-6 6M14 0H-14M-8-6l-6 6 6 6"/><path d="M0-13v26M-6-7l6-6 6 6M-6 7l6 6 6-6"/></g><text class="node-title" x="2073.0" y="683.0" fill="#0f172a" font-family="Inter,Segoe UI,Arial,sans-serif" font-size="15" font-weight="700">R2</text><text x="2073.0" y="704.0" fill="#64748b" font-family="ui-monospace,SFMono-Regular,monospace" font-size="11">ROUTER</text></g><g id="r3" data-netdiag-kind="node" filter="url(#shadow)"><rect x="1295.0" y="1034.0" width="280.0" height="82.0" rx="14" fill="#ffffff" stroke="#0878b9" stroke-width="2"/><rect x="1295.0" y="1034.0" width="8" height="82.0" rx="4" fill="#0878b9"/><g class="device-icon device-icon-router" transform="translate(1335.0 1075.0)" stroke="#0878b9" fill="none" stroke-width="1.6" stroke-linecap="round" stroke-linejoin="round"><ellipse cx="0" cy="0" rx="27" ry="18" fill="#0878b9" fill-opacity=".12"/><ellipse cx="0" cy="0" rx="27" ry="18"/><path d="M-14 0h28M8-6l6 6-6 6M14 0H-14M-8-6l-6 6 6 6"/><path d="M0-13v26M-6-7l6-6 6 6M-6 7l6 6 6-6"/></g><text class="node-title" x="1373.0" y="1068.0" fill="#0f172a" font-family="Inter,Segoe UI,Arial,sans-serif" font-size="15" font-weight="700">R3</text><text x="1373.0" y="1089.0" fill="#64748b" font-family="ui-monospace,SFMono-Regular,monospace" font-size="11">ROUTER</text></g><g id="r4" data-netdiag-kind="node" filter="url(#shadow)"><rect x="595.0" y="649.0" width="280.0" height="82.0" rx="14" fill="#ffffff" stroke="#0878b9" stroke-width="2"/><rect x="595.0" y="649.0" width="8" height="82.0" rx="4" fill="#0878b9"/><g class="device-icon device-icon-router" transform="translate(635.0 690.0)" stroke="#0878b9" fill="none" stroke-width="1.6" stroke-linecap="round" stroke-linejoin="round"><ellipse cx="0" cy="0" rx="27" ry="18" fill="#0878b9" fill-opacity=".12"/><ellipse cx="0" cy="0" rx="27" ry="18"/><path d="M-14 0h28M8-6l6 6-6 6M14 0H-14M-8-6l-6 6 6 6"/><path d="M0-13v26M-6-7l6-6 6 6M-6 7l6 6 6-6"/></g><text class="node-title" x="673.0" y="683.0" fill="#0f172a" font-family="Inter,Segoe UI,Arial,sans-serif" font-size="15" font-weight="700">R4</text><text x="673.0" y="704.0" fill="#64748b" font-family="ui-monospace,SFMono-Regular,monospace" font-size="11">ROUTER</text></g></g><g id="link-annotations" pointer-events="none"><g id="link-annotation-1" class="link-annotation"><rect class="interface-label-badge" x="1578.7" y="349.7" width="78.4" height="21.0" rx="5.0" fill="#ffffff" stroke="#cbd5e1" stroke-width="1"/><text class="interface-label-text" x="1617.8" y="365.7" text-anchor="middle" fill="#334155" font-family="ui-monospace,SFMono-Regular,monospace" font-size="11" font-weight="650">Te0/0/0/0</text><rect class="interface-label-badge" x="1889.5" y="617.6" width="78.4" height="21.0" rx="5.0" fill="#ffffff" stroke="#cbd5e1" stroke-width="1"/><text class="interface-label-text" x="1928.6" y="633.6" text-anchor="middle" fill="#334155" font-family="ui-monospace,SFMono-Regular,monospace" font-size="11" font-weight="650">Te0/0/0/0</text></g><g id="link-annotation-2" class="link-annotation"><rect class="interface-label-badge" x="1189.5" y="322.4" width="78.4" height="21.0" rx="5.0" fill="#ffffff" stroke="#cbd5e1" stroke-width="1"/><text class="interface-label-text" x="1228.6" y="338.4" text-anchor="middle" fill="#334155" font-family="ui-monospace,SFMono-Regular,monospace" font-size="11" font-weight="650">Te0/0/0/1</text><rect class="interface-label-badge" x="878.7" y="590.3" width="78.4" height="21.0" rx="5.0" fill="#ffffff" stroke="#cbd5e1" stroke-width="1"/><text class="interface-label-text" x="917.8" y="606.3" text-anchor="middle" fill="#334155" font-family="ui-monospace,SFMono-Regular,monospace" font-size="11" font-weight="650">Te0/0/0/1</text></g><g id="link-annotation-3" class="link-annotation"><rect class="interface-label-badge" x="1879.0" y="739.5" width="78.4" height="21.0" rx="5.0" fill="#ffffff" stroke="#cbd5e1" stroke-width="1"/><text class="interface-label-text" x="1918.1" y="755.5" text-anchor="middle" fill="#334155" font-family="ui-monospace,SFMono-Regular,monospace" font-size="11" font-weight="650">Te0/0/0/1</text><rect class="interface-label-badge" x="1578.7" y="998.3" width="78.4" height="21.0" rx="5.0" fill="#ffffff" stroke="#cbd5e1" stroke-width="1"/><text class="interface-label-text" x="1617.8" y="1014.3" text-anchor="middle" fill="#334155" font-family="ui-monospace,SFMono-Regular,monospace" font-size="11" font-weight="650">Te0/0/0/0</text></g><g id="link-annotation-4" class="link-annotation"><rect class="interface-label-badge" x="1213.0" y="998.3" width="78.4" height="21.0" rx="5.0" fill="#ffffff" stroke="#cbd5e1" stroke-width="1"/><text class="interface-label-text" x="1252.2" y="1014.3" text-anchor="middle" fill="#334155" font-family="ui-monospace,SFMono-Regular,monospace" font-size="11" font-weight="650">Te0/0/0/1</text><rect class="interface-label-badge" x="912.7" y="739.5" width="78.4" height="21.0" rx="5.0" fill="#ffffff" stroke="#cbd5e1" stroke-width="1"/><text class="interface-label-text" x="951.9" y="755.5" text-anchor="middle" fill="#334155" font-family="ui-monospace,SFMono-Regular,monospace" font-size="11" font-weight="650">Te0/0/0/0</text></g></g></svg>