<svg class="theme-light" xmlns="http://www.w3.org/2000/svg" width="3015" height="1545" viewBox="0 0 3015 1545" role="img" shape-rendering="geometricPrecision"><defs><filter id="shadow" x="-20%" y="-20%" width="140%" height="150%"><feDropShadow dx="0" dy="4" stdDeviation="6" flood-color="#0f172a" flood-opacity=".14"/></filter></defs><rect width="100%" height="100%" fill="#f8fafc"/><rect x="0" y="0" width="3015" height="112" fill="#0f172a"/><text x="70" y="56" fill="#f8fafc" font-family="Inter,Segoe UI,sans-serif" font-size="30" font-weight="700">Regional Campus WAN over DWDM</text><text x="70" y="84" fill="#94a3b8" font-family="Inter,Segoe UI,sans-serif" font-size="15">Multiple campus LANs routed across protected optical circuits</text><text x="2945" y="66" text-anchor="end" fill="#38bdf8" font-family="ui-monospace,SFMono-Regular,monospace" font-size="14">WAN + DWDM</text><rect x="42" y="197.0" width="2931.0" height="250.0" rx="20" fill="#f5f3ff" stroke="#e2e8f0"/><rect x="42" y="517.0" width="2931.0" height="250.0" rx="20" fill="#eff6ff" stroke="#e2e8f0"/><rect x="42" y="837.0" width="2931.0" height="250.0" rx="20" fill="#eff6ff" stroke="#e2e8f0"/><rect x="42" y="1157.0" width="2931.0" height="250.0" rx="20" fill="#eff6ff" stroke="#e2e8f0"/><g id="row-headings"><g class="row-heading row-heading-dwdm"><path d="M78 250.0 H410" stroke="#cbd5e1" stroke-width="1"/><text x="78" y="235.0" fill="#64748b" font-family="Inter,Segoe UI,sans-serif" font-size="12" font-weight="700" letter-spacing="1.8">DWDM LAYER · 1 DEVICES</text></g><g class="row-heading row-heading-edge-router"><path d="M78 570.0 H410" stroke="#cbd5e1" stroke-width="1"/><text x="78" y="555.0" fill="#64748b" font-family="Inter,Segoe UI,sans-serif" font-size="12" font-weight="700" letter-spacing="1.8">EDGE ROUTER LAYER · 3 DEVICES</text></g><g class="row-heading row-heading-core-switch"><path d="M78 890.0 H410" stroke="#cbd5e1" stroke-width="1"/><text x="78" y="875.0" fill="#64748b" font-family="Inter,Segoe UI,sans-serif" font-size="12" font-weight="700" letter-spacing="1.8">CORE SWITCH LAYER · 3 DEVICES</text></g><g class="row-heading row-heading-access-switch"><path d="M78 1210.0 H410" stroke="#cbd5e1" stroke-width="1"/><text x="78" y="1195.0" fill="#64748b" font-family="Inter,Segoe UI,sans-serif" font-size="12" font-weight="700" letter-spacing="1.8">ACCESS SWITCH LAYER · 4 DEVICES</text></g></g><g id="links"><g id="link-1" data-netdiag-kind="link"><path d="M 1670.0 359.0 V 411.4 L 1670.0 544.6 V 597.0" fill="none" stroke="#c026d3" stroke-width="2.2" stroke-linecap="round" stroke-linejoin="round" stroke-dasharray="10 5" opacity=".86"/><circle cx="1670.0" cy="359.0" r="3.2" fill="#ffffff" stroke="#c026d3" stroke-width="2"/><circle cx="1670.0" cy="597.0" r="3.2" fill="#ffffff" stroke="#c026d3" stroke-width="2"/></g><g id="link-2" data-netdiag-kind="link"><path d="M 1552.0 359.0 V 411.4 L 870.0 544.6 V 597.0" fill="none" stroke="#c026d3" stroke-width="2.2" stroke-linecap="round" stroke-linejoin="round" stroke-dasharray="10 5" opacity=".86"/><circle cx="1552.0" cy="359.0" r="3.2" fill="#ffffff" stroke="#c026d3" stroke-width="2"/><circle cx="870.0" cy="597.0" r="3.2" fill="#ffffff" stroke="#c026d3" stroke-width="2"/></g><g id="link-3" data-netdiag-kind="link"><path d="M 1788.0 359.0 V 411.4 L 2470.0 544.6 V 597.0" fill="none" stroke="#c026d3" stroke-width="2.2" stroke-linecap="round" stroke-linejoin="round" stroke-dasharray="10 5" opacity=".86"/><circle cx="1788.0" cy="359.0" r="3.2" fill="#ffffff" stroke="#c026d3" stroke-width="2"/><circle cx="2470.0" cy="597.0" r="3.2" fill="#ffffff" stroke="#c026d3" stroke-width="2"/></g><g id="link-4" data-netdiag-kind="link"><path d="M 1670.0 679.0 V 731.4 L 1670.0 864.6 V 917.0" fill="none" stroke="#334155" stroke-width="2.2" stroke-linecap="round" stroke-linejoin="round"  opacity=".86"/><circle cx="1670.0" cy="679.0" r="3.2" fill="#ffffff" stroke="#334155" stroke-width="2"/><circle cx="1670.0" cy="917.0" r="3.2" fill="#ffffff" stroke="#334155" stroke-width="2"/></g><g id="link-5" data-netdiag-kind="link"><path d="M 870.0 679.0 V 731.4 L 870.0 864.6 V 917.0" fill="none" stroke="#334155" stroke-width="2.2" stroke-linecap="round" stroke-linejoin="round"  opacity=".86"/><circle cx="870.0" cy="679.0" r="3.2" fill="#ffffff" stroke="#334155" stroke-width="2"/><circle cx="870.0" cy="917.0" r="3.2" fill="#ffffff" stroke="#334155" stroke-width="2"/></g><g id="link-6" data-netdiag-kind="link"><path d="M 2470.0 679.0 V 731.4 L 2470.0 864.6 V 917.0" fill="none" stroke="#334155" stroke-width="2.2" stroke-linecap="round" stroke-linejoin="round"  opacity=".86"/><circle cx="2470.0" cy="679.0" r="3.2" fill="#ffffff" stroke="#334155" stroke-width="2"/><circle cx="2470.0" cy="917.0" r="3.2" fill="#ffffff" stroke="#334155" stroke-width="2"/></g><g id="link-7" data-netdiag-kind="link"><path d="M 1542.0 999.0 V 1051.4 L 1370.0 1184.6 V 1237.0" fill="none" stroke="#334155" stroke-width="2.2" stroke-linecap="round" stroke-linejoin="round"  opacity=".86"/><circle cx="1542.0" cy="999.0" r="3.2" fill="#ffffff" stroke="#334155" stroke-width="2"/><circle cx="1370.0" cy="1237.0" r="3.2" fill="#ffffff" stroke="#334155" stroke-width="2"/></g><g id="link-8" data-netdiag-kind="link"><path d="M 1798.0 999.0 V 1051.4 L 1970.0 1184.6 V 1237.0" fill="none" stroke="#334155" stroke-width="2.2" stroke-linecap="round" stroke-linejoin="round"  opacity=".86"/><circle cx="1798.0" cy="999.0" r="3.2" fill="#ffffff" stroke="#334155" stroke-width="2"/><circle cx="1970.0" cy="1237.0" r="3.2" fill="#ffffff" stroke="#334155" stroke-width="2"/></g><g id="link-9" data-netdiag-kind="link"><path d="M 870.0 999.0 V 1051.4 L 770.0 1184.6 V 1237.0" fill="none" stroke="#334155" stroke-width="2.2" stroke-linecap="round" stroke-linejoin="round"  opacity=".86"/><circle cx="870.0" cy="999.0" r="3.2" fill="#ffffff" stroke="#334155" stroke-width="2"/><circle cx="770.0" cy="1237.0" r="3.2" fill="#ffffff" stroke="#334155" stroke-width="2"/></g><g id="link-10" data-netdiag-kind="link"><path d="M 2470.0 999.0 V 1051.4 L 2570.0 1184.6 V 1237.0" fill="none" stroke="#334155" stroke-width="2.2" stroke-linecap="round" stroke-linejoin="round"  opacity=".86"/><circle cx="2470.0" cy="999.0" r="3.2" fill="#ffffff" stroke="#334155" stroke-width="2"/><circle cx="2570.0" cy="1237.0" r="3.2" fill="#ffffff" stroke="#334155" stroke-width="2"/></g></g><g id="nodes"><g id="east-access" data-netdiag-kind="node" filter="url(#shadow)"><rect x="620.0" y="1237.0" width="300.0" height="82.0" rx="14" fill="#ffffff" stroke="#0878b9" stroke-width="2"/><rect x="620.0" y="1237.0" width="8" height="82.0" rx="4" fill="#0878b9"/><g class="device-icon device-icon-access-switch" transform="translate(660.0 1278.0)" stroke="#0878b9" fill="none" stroke-width="1.6" stroke-linecap="round" stroke-linejoin="round"><path d="M-28 -9 -9 -20 28 -9 9 2Z" fill="#0878b9" fill-opacity=".14"/><path d="M-28 -9 9 2 28 -9v12L9 15-28 4Z" fill="#0878b9" fill-opacity=".07"/><path d="M-28 -9 -9 -20 28 -9 9 2Z"/><path d="M-28 -9v13L9 15 28 3v-12M9 2v13"/><path d="M-19 -4 3 3M-19 1 3 8"/><rect x="-15.5" y="-4.5" width="3.5" height="2.7" rx=".5"/><rect x="-10" y="-2.8" width="3.5" height="2.7" rx=".5"/><rect x="-4.5" y="-1.1" width="3.5" height="2.7" rx=".5"/><rect x="1" y=".6" width="3.5" height="2.7" rx=".5"/><circle cx="-20" cy="1.5" r="1.4"/><circle cx="-15" cy="3.2" r="1.4"/><circle cx="-10" cy="4.9" r="1.4"/><path d="M11 -10h9M12 -6h6"/></g><text class="node-title" x="698.0" y="1271.0" fill="#0f172a" font-family="Inter,Segoe UI,Arial,sans-serif" font-size="15" font-weight="700">East Access</text><text x="698.0" y="1292.0" fill="#64748b" font-family="ui-monospace,SFMono-Regular,monospace" font-size="11">ACCESS-SWITCH</text></g><g id="east-core" data-netdiag-kind="node" filter="url(#shadow)"><rect x="720.0" y="917.0" width="300.0" height="82.0" rx="14" fill="#ffffff" stroke="#0878b9" stroke-width="2"/><rect x="720.0" y="917.0" width="8" height="82.0" rx="4" fill="#0878b9"/><g class="device-icon device-icon-core-switch" transform="translate(760.0 958.0)" stroke="#0878b9" fill="none" stroke-width="1.6" stroke-linecap="round" stroke-linejoin="round"><path d="M-28 -9 -9 -20 28 -9 9 2Z" fill="#0878b9" fill-opacity=".14"/><path d="M-28 -9 9 2 28 -9v12L9 15-28 4Z" fill="#0878b9" fill-opacity=".07"/><path d="M-28 -9 -9 -20 28 -9 9 2Z"/><path d="M-28 -9v13L9 15 28 3v-12M9 2v13"/><path d="M-19 -4 3 3M-19 1 3 8"/><rect x="-15.5" y="-4.5" width="3.5" height="2.7" rx=".5"/><rect x="-10" y="-2.8" width="3.5" height="2.7" rx=".5"/><rect x="-4.5" y="-1.1" width="3.5" height="2.7" rx=".5"/><rect x="1" y=".6" width="3.5" height="2.7" rx=".5"/><circle cx="-20" cy="1.5" r="1.4"/><circle cx="-15" cy="3.2" r="1.4"/><circle cx="-10" cy="4.9" r="1.4"/><path d="M11 -10h9M12 -6h6"/></g><text class="node-title" x="798.0" y="951.0" fill="#0f172a" font-family="Inter,Segoe UI,Arial,sans-serif" font-size="15" font-weight="700">East Core Switch</text><text x="798.0" y="972.0" fill="#64748b" font-family="ui-monospace,SFMono-Regular,monospace" font-size="11">CORE-SWITCH</text></g><g id="east-router" data-netdiag-kind="node" filter="url(#shadow)"><rect x="730.0" y="597.0" width="280.0" height="82.0" rx="14" fill="#fffbeb" stroke="#d97706" stroke-width="2"/><rect x="730.0" y="597.0" width="8" height="82.0" rx="4" fill="#d97706"/><g class="device-icon device-icon-router" transform="translate(770.0 638.0)" stroke="#d97706" fill="none" stroke-width="1.6" stroke-linecap="round" stroke-linejoin="round"><ellipse cx="0" cy="0" rx="27" ry="18" fill="#d97706" fill-opacity=".12"/><ellipse cx="0" cy="0" rx="27" ry="18"/><path d="M-14 0h28M8-6l6 6-6 6M14 0H-14M-8-6l-6 6 6 6"/><path d="M0-13v26M-6-7l6-6 6 6M-6 7l6 6 6-6"/></g><text class="node-title" x="808.0" y="631.0" fill="#0f172a" font-family="Inter,Segoe UI,Arial,sans-serif" font-size="15" font-weight="700">East L3 Router</text><text x="808.0" y="652.0" fill="#64748b" font-family="ui-monospace,SFMono-Regular,monospace" font-size="11">EDGE-ROUTER</text></g><g id="hq-access-01" data-netdiag-kind="node" filter="url(#shadow)"><rect x="1220.0" y="1237.0" width="300.0" height="82.0" rx="14" fill="#ffffff" stroke="#0878b9" stroke-width="2"/><rect x="1220.0" y="1237.0" width="8" height="82.0" rx="4" fill="#0878b9"/><g class="device-icon device-icon-access-switch" transform="translate(1260.0 1278.0)" stroke="#0878b9" fill="none" stroke-width="1.6" stroke-linecap="round" stroke-linejoin="round"><path d="M-28 -9 -9 -20 28 -9 9 2Z" fill="#0878b9" fill-opacity=".14"/><path d="M-28 -9 9 2 28 -9v12L9 15-28 4Z" fill="#0878b9" fill-opacity=".07"/><path d="M-28 -9 -9 -20 28 -9 9 2Z"/><path d="M-28 -9v13L9 15 28 3v-12M9 2v13"/><path d="M-19 -4 3 3M-19 1 3 8"/><rect x="-15.5" y="-4.5" width="3.5" height="2.7" rx=".5"/><rect x="-10" y="-2.8" width="3.5" height="2.7" rx=".5"/><rect x="-4.5" y="-1.1" width="3.5" height="2.7" rx=".5"/><rect x="1" y=".6" width="3.5" height="2.7" rx=".5"/><circle cx="-20" cy="1.5" r="1.4"/><circle cx="-15" cy="3.2" r="1.4"/><circle cx="-10" cy="4.9" r="1.4"/><path d="M11 -10h9M12 -6h6"/></g><text class="node-title" x="1298.0" y="1271.0" fill="#0f172a" font-family="Inter,Segoe UI,Arial,sans-serif" font-size="15" font-weight="700">HQ Access 01</text><text x="1298.0" y="1292.0" fill="#64748b" font-family="ui-monospace,SFMono-Regular,monospace" font-size="11">ACCESS-SWITCH</text></g><g id="hq-access-02" data-netdiag-kind="node" filter="url(#shadow)"><rect x="1820.0" y="1237.0" width="300.0" height="82.0" rx="14" fill="#ffffff" stroke="#0878b9" stroke-width="2"/><rect x="1820.0" y="1237.0" width="8" height="82.0" rx="4" fill="#0878b9"/><g class="device-icon device-icon-access-switch" transform="translate(1860.0 1278.0)" stroke="#0878b9" fill="none" stroke-width="1.6" stroke-linecap="round" stroke-linejoin="round"><path d="M-28 -9 -9 -20 28 -9 9 2Z" fill="#0878b9" fill-opacity=".14"/><path d="M-28 -9 9 2 28 -9v12L9 15-28 4Z" fill="#0878b9" fill-opacity=".07"/><path d="M-28 -9 -9 -20 28 -9 9 2Z"/><path d="M-28 -9v13L9 15 28 3v-12M9 2v13"/><path d="M-19 -4 3 3M-19 1 3 8"/><rect x="-15.5" y="-4.5" width="3.5" height="2.7" rx=".5"/><rect x="-10" y="-2.8" width="3.5" height="2.7" rx=".5"/><rect x="-4.5" y="-1.1" width="3.5" height="2.7" rx=".5"/><rect x="1" y=".6" width="3.5" height="2.7" rx=".5"/><circle cx="-20" cy="1.5" r="1.4"/><circle cx="-15" cy="3.2" r="1.4"/><circle cx="-10" cy="4.9" r="1.4"/><path d="M11 -10h9M12 -6h6"/></g><text class="node-title" x="1898.0" y="1271.0" fill="#0f172a" font-family="Inter,Segoe UI,Arial,sans-serif" font-size="15" font-weight="700">HQ Access 02</text><text x="1898.0" y="1292.0" fill="#64748b" font-family="ui-monospace,SFMono-Regular,monospace" font-size="11">ACCESS-SWITCH</text></g><g id="hq-core" data-netdiag-kind="node" filter="url(#shadow)"><rect x="1520.0" y="917.0" width="300.0" height="82.0" rx="14" fill="#ffffff" stroke="#0878b9" stroke-width="2"/><rect x="1520.0" y="917.0" width="8" height="82.0" rx="4" fill="#0878b9"/><g class="device-icon device-icon-core-switch" transform="translate(1560.0 958.0)" stroke="#0878b9" fill="none" stroke-width="1.6" stroke-linecap="round" stroke-linejoin="round"><path d="M-28 -9 -9 -20 28 -9 9 2Z" fill="#0878b9" fill-opacity=".14"/><path d="M-28 -9 9 2 28 -9v12L9 15-28 4Z" fill="#0878b9" fill-opacity=".07"/><path d="M-28 -9 -9 -20 28 -9 9 2Z"/><path d="M-28 -9v13L9 15 28 3v-12M9 2v13"/><path d="M-19 -4 3 3M-19 1 3 8"/><rect x="-15.5" y="-4.5" width="3.5" height="2.7" rx=".5"/><rect x="-10" y="-2.8" width="3.5" height="2.7" rx=".5"/><rect x="-4.5" y="-1.1" width="3.5" height="2.7" rx=".5"/><rect x="1" y=".6" width="3.5" height="2.7" rx=".5"/><circle cx="-20" cy="1.5" r="1.4"/><circle cx="-15" cy="3.2" r="1.4"/><circle cx="-10" cy="4.9" r="1.4"/><path d="M11 -10h9M12 -6h6"/></g><text class="node-title" x="1598.0" y="951.0" fill="#0f172a" font-family="Inter,Segoe UI,Arial,sans-serif" font-size="15" font-weight="700">HQ Core Switch</text><text x="1598.0" y="972.0" fill="#64748b" font-family="ui-monospace,SFMono-Regular,monospace" font-size="11">CORE-SWITCH</text></g><g id="hq-router" data-netdiag-kind="node" filter="url(#shadow)"><rect x="1530.0" y="597.0" width="280.0" height="82.0" rx="14" fill="#fffbeb" stroke="#d97706" stroke-width="2"/><rect x="1530.0" y="597.0" width="8" height="82.0" rx="4" fill="#d97706"/><g class="device-icon device-icon-router" transform="translate(1570.0 638.0)" stroke="#d97706" fill="none" stroke-width="1.6" stroke-linecap="round" stroke-linejoin="round"><ellipse cx="0" cy="0" rx="27" ry="18" fill="#d97706" fill-opacity=".12"/><ellipse cx="0" cy="0" rx="27" ry="18"/><path d="M-14 0h28M8-6l6 6-6 6M14 0H-14M-8-6l-6 6 6 6"/><path d="M0-13v26M-6-7l6-6 6 6M-6 7l6 6 6-6"/></g><text class="node-title" x="1608.0" y="631.0" fill="#0f172a" font-family="Inter,Segoe UI,Arial,sans-serif" font-size="15" font-weight="700">HQ L3 Router</text><text x="1608.0" y="652.0" fill="#64748b" font-family="ui-monospace,SFMono-Regular,monospace" font-size="11">EDGE-ROUTER</text></g><g id="metro-dwdm" data-netdiag-kind="node" filter="url(#shadow)"><rect x="1530.0" y="277.0" width="280.0" height="82.0" rx="14" fill="#ffffff" stroke="#7c3aed" stroke-width="2"/><rect x="1530.0" y="277.0" width="8" height="82.0" rx="4" fill="#7c3aed"/><g class="device-icon device-icon-dwdm" transform="translate(1570.0 318.0)" stroke="#7c3aed" fill="none" stroke-width="1.6" stroke-linecap="round" stroke-linejoin="round"><rect x="-27" y="-18" width="54" height="36" rx="6" fill="#7c3aed" fill-opacity=".10" stroke="#7c3aed"/><path d="M-21-9c8 0 8 7 16 7s8-7 16-7 8 7 16 7M-21 2c8 0 8 7 16 7s8-7 16-7 8 7 16 7" stroke="#7c3aed"/></g><text class="node-title" x="1608.0" y="311.0" fill="#0f172a" font-family="Inter,Segoe UI,Arial,sans-serif" font-size="15" font-weight="700">Metro DWDM Ring</text><text x="1608.0" y="332.0" fill="#64748b" font-family="ui-monospace,SFMono-Regular,monospace" font-size="11">DWDM</text></g><g id="west-access" data-netdiag-kind="node" filter="url(#shadow)"><rect x="2420.0" y="1237.0" width="300.0" height="82.0" rx="14" fill="#ffffff" stroke="#0878b9" stroke-width="2"/><rect x="2420.0" y="1237.0" width="8" height="82.0" rx="4" fill="#0878b9"/><g class="device-icon device-icon-access-switch" transform="translate(2460.0 1278.0)" stroke="#0878b9" fill="none" stroke-width="1.6" stroke-linecap="round" stroke-linejoin="round"><path d="M-28 -9 -9 -20 28 -9 9 2Z" fill="#0878b9" fill-opacity=".14"/><path d="M-28 -9 9 2 28 -9v12L9 15-28 4Z" fill="#0878b9" fill-opacity=".07"/><path d="M-28 -9 -9 -20 28 -9 9 2Z"/><path d="M-28 -9v13L9 15 28 3v-12M9 2v13"/><path d="M-19 -4 3 3M-19 1 3 8"/><rect x="-15.5" y="-4.5" width="3.5" height="2.7" rx=".5"/><rect x="-10" y="-2.8" width="3.5" height="2.7" rx=".5"/><rect x="-4.5" y="-1.1" width="3.5" height="2.7" rx=".5"/><rect x="1" y=".6" width="3.5" height="2.7" rx=".5"/><circle cx="-20" cy="1.5" r="1.4"/><circle cx="-15" cy="3.2" r="1.4"/><circle cx="-10" cy="4.9" r="1.4"/><path d="M11 -10h9M12 -6h6"/></g><text class="node-title" x="2498.0" y="1271.0" fill="#0f172a" font-family="Inter,Segoe UI,Arial,sans-serif" font-size="15" font-weight="700">West Access</text><text x="2498.0" y="1292.0" fill="#64748b" font-family="ui-monospace,SFMono-Regular,monospace" font-size="11">ACCESS-SWITCH</text></g><g id="west-core" data-netdiag-kind="node" filter="url(#shadow)"><rect x="2320.0" y="917.0" width="300.0" height="82.0" rx="14" fill="#ffffff" stroke="#0878b9" stroke-width="2"/><rect x="2320.0" y="917.0" width="8" height="82.0" rx="4" fill="#0878b9"/><g class="device-icon device-icon-core-switch" transform="translate(2360.0 958.0)" stroke="#0878b9" fill="none" stroke-width="1.6" stroke-linecap="round" stroke-linejoin="round"><path d="M-28 -9 -9 -20 28 -9 9 2Z" fill="#0878b9" fill-opacity=".14"/><path d="M-28 -9 9 2 28 -9v12L9 15-28 4Z" fill="#0878b9" fill-opacity=".07"/><path d="M-28 -9 -9 -20 28 -9 9 2Z"/><path d="M-28 -9v13L9 15 28 3v-12M9 2v13"/><path d="M-19 -4 3 3M-19 1 3 8"/><rect x="-15.5" y="-4.5" width="3.5" height="2.7" rx=".5"/><rect x="-10" y="-2.8" width="3.5" height="2.7" rx=".5"/><rect x="-4.5" y="-1.1" width="3.5" height="2.7" rx=".5"/><rect x="1" y=".6" width="3.5" height="2.7" rx=".5"/><circle cx="-20" cy="1.5" r="1.4"/><circle cx="-15" cy="3.2" r="1.4"/><circle cx="-10" cy="4.9" r="1.4"/><path d="M11 -10h9M12 -6h6"/></g><text class="node-title" x="2398.0" y="951.0" fill="#0f172a" font-family="Inter,Segoe UI,Arial,sans-serif" font-size="15" font-weight="700">West Core Switch</text><text x="2398.0" y="972.0" fill="#64748b" font-family="ui-monospace,SFMono-Regular,monospace" font-size="11">CORE-SWITCH</text></g><g id="west-router" data-netdiag-kind="node" filter="url(#shadow)"><rect x="2330.0" y="597.0" width="280.0" height="82.0" rx="14" fill="#fffbeb" stroke="#d97706" stroke-width="2"/><rect x="2330.0" y="597.0" width="8" height="82.0" rx="4" fill="#d97706"/><g class="device-icon device-icon-router" transform="translate(2370.0 638.0)" stroke="#d97706" fill="none" stroke-width="1.6" stroke-linecap="round" stroke-linejoin="round"><ellipse cx="0" cy="0" rx="27" ry="18" fill="#d97706" fill-opacity=".12"/><ellipse cx="0" cy="0" rx="27" ry="18"/><path d="M-14 0h28M8-6l6 6-6 6M14 0H-14M-8-6l-6 6 6 6"/><path d="M0-13v26M-6-7l6-6 6 6M-6 7l6 6 6-6"/></g><text class="node-title" x="2408.0" y="631.0" fill="#0f172a" font-family="Inter,Segoe UI,Arial,sans-serif" font-size="15" font-weight="700">West L3 Router</text><text x="2408.0" y="652.0" fill="#64748b" font-family="ui-monospace,SFMono-Regular,monospace" font-size="11">EDGE-ROUTER</text></g></g><g id="link-annotations" pointer-events="none"><g id="link-annotation-1" class="link-annotation"><rect class="interface-label-badge" x="1626.2" y="373.9" width="51.5" height="21.0" rx="5.0" fill="#ffffff" stroke="#cbd5e1" stroke-width="1"/><text class="interface-label-text" x="1652.0" y="389.9" text-anchor="middle" fill="#334155" font-family="ui-monospace,SFMono-Regular,monospace" font-size="11" font-weight="650">Wave1</text><rect class="interface-label-badge" x="1626.2" y="550.1" width="51.5" height="21.0" rx="5.0" fill="#ffffff" stroke="#cbd5e1" stroke-width="1"/><text class="interface-label-text" x="1652.0" y="566.1" text-anchor="middle" fill="#334155" font-family="ui-monospace,SFMono-Regular,monospace" font-size="11" font-weight="650">Te0/0</text><rect class="label-mask" x="1590.5" y="434.0" width="158.9" height="23" rx="5" fill="#f8fafc" stroke="#f8fafc" stroke-width="4"/><text x="1670.0" y="450.0" text-anchor="middle" fill="#c026d3" font-family="ui-monospace,SFMono-Regular,monospace" font-size="11" font-weight="500">CID DWDM-HQ-001 · 10G</text></g><g id="link-annotation-2" class="link-annotation"><rect class="interface-label-badge" x="1472.1" y="387.6" width="51.5" height="21.0" rx="5.0" fill="#ffffff" stroke="#cbd5e1" stroke-width="1"/><text class="interface-label-text" x="1497.9" y="403.6" text-anchor="middle" fill="#334155" font-family="ui-monospace,SFMono-Regular,monospace" font-size="11" font-weight="650">Wave2</text><rect class="interface-label-badge" x="891.4" y="501.1" width="51.5" height="21.0" rx="5.0" fill="#ffffff" stroke="#cbd5e1" stroke-width="1"/><text class="interface-label-text" x="917.2" y="517.1" text-anchor="middle" fill="#334155" font-family="ui-monospace,SFMono-Regular,monospace" font-size="11" font-weight="650">Te0/0</text><rect class="label-mask" x="1124.8" y="453.0" width="172.3" height="23" rx="5" fill="#f8fafc" stroke="#f8fafc" stroke-width="4"/><text x="1211.0" y="469.0" text-anchor="middle" fill="#c026d3" font-family="ui-monospace,SFMono-Regular,monospace" font-size="11" font-weight="500">CID DWDM-EAST-014 · 10G</text></g><g id="link-annotation-3" class="link-annotation"><rect class="interface-label-badge" x="1809.4" y="422.9" width="51.5" height="21.0" rx="5.0" fill="#ffffff" stroke="#cbd5e1" stroke-width="1"/><text class="interface-label-text" x="1835.2" y="438.9" text-anchor="middle" fill="#334155" font-family="ui-monospace,SFMono-Regular,monospace" font-size="11" font-weight="650">Wave3</text><rect class="interface-label-badge" x="2390.1" y="536.4" width="51.5" height="21.0" rx="5.0" fill="#ffffff" stroke="#cbd5e1" stroke-width="1"/><text class="interface-label-text" x="2415.9" y="552.4" text-anchor="middle" fill="#334155" font-family="ui-monospace,SFMono-Regular,monospace" font-size="11" font-weight="650">Te0/0</text><rect class="label-mask" x="2097.4" y="472.0" width="172.3" height="23" rx="5" fill="#f8fafc" stroke="#f8fafc" stroke-width="4"/><text x="2183.6" y="488.0" text-anchor="middle" fill="#c026d3" font-family="ui-monospace,SFMono-Regular,monospace" font-size="11" font-weight="500">CID DWDM-WEST-027 · 10G</text></g><g id="link-annotation-4" class="link-annotation"><rect class="interface-label-badge" x="1626.2" y="693.9" width="51.5" height="21.0" rx="5.0" fill="#ffffff" stroke="#cbd5e1" stroke-width="1"/><text class="interface-label-text" x="1652.0" y="709.9" text-anchor="middle" fill="#334155" font-family="ui-monospace,SFMono-Regular,monospace" font-size="11" font-weight="650">Gi0/1</text><rect class="interface-label-badge" x="1619.5" y="870.1" width="65.0" height="21.0" rx="5.0" fill="#ffffff" stroke="#cbd5e1" stroke-width="1"/><text class="interface-label-text" x="1652.0" y="886.1" text-anchor="middle" fill="#334155" font-family="ui-monospace,SFMono-Regular,monospace" font-size="11" font-weight="650">Eth1/49</text><rect class="label-mask" x="1647.6" y="754.0" width="44.8" height="23" rx="5" fill="#f8fafc" stroke="#f8fafc" stroke-width="4"/><text x="1670.0" y="770.0" text-anchor="middle" fill="#334155" font-family="ui-monospace,SFMono-Regular,monospace" font-size="11" font-weight="500">OSPF</text></g><g id="link-annotation-5" class="link-annotation"><rect class="interface-label-badge" x="826.2" y="693.9" width="51.5" height="21.0" rx="5.0" fill="#ffffff" stroke="#cbd5e1" stroke-width="1"/><text class="interface-label-text" x="852.0" y="709.9" text-anchor="middle" fill="#334155" font-family="ui-monospace,SFMono-Regular,monospace" font-size="11" font-weight="650">Gi0/1</text><rect class="interface-label-badge" x="819.5" y="870.1" width="65.0" height="21.0" rx="5.0" fill="#ffffff" stroke="#cbd5e1" stroke-width="1"/><text class="interface-label-text" x="852.0" y="886.1" text-anchor="middle" fill="#334155" font-family="ui-monospace,SFMono-Regular,monospace" font-size="11" font-weight="650">Eth1/49</text><rect class="label-mask" x="847.6" y="773.0" width="44.8" height="23" rx="5" fill="#f8fafc" stroke="#f8fafc" stroke-width="4"/><text x="870.0" y="789.0" text-anchor="middle" fill="#334155" font-family="ui-monospace,SFMono-Regular,monospace" font-size="11" font-weight="500">OSPF</text></g><g id="link-annotation-6" class="link-annotation"><rect class="interface-label-badge" x="2426.2" y="693.9" width="51.5" height="21.0" rx="5.0" fill="#ffffff" stroke="#cbd5e1" stroke-width="1"/><text class="interface-label-text" x="2452.0" y="709.9" text-anchor="middle" fill="#334155" font-family="ui-monospace,SFMono-Regular,monospace" font-size="11" font-weight="650">Gi0/1</text><rect class="interface-label-badge" x="2419.5" y="870.1" width="65.0" height="21.0" rx="5.0" fill="#ffffff" stroke="#cbd5e1" stroke-width="1"/><text class="interface-label-text" x="2452.0" y="886.1" text-anchor="middle" fill="#334155" font-family="ui-monospace,SFMono-Regular,monospace" font-size="11" font-weight="650">Eth1/49</text><rect class="label-mask" x="2447.6" y="792.0" width="44.8" height="23" rx="5" fill="#f8fafc" stroke="#f8fafc" stroke-width="4"/><text x="2470.0" y="808.0" text-anchor="middle" fill="#334155" font-family="ui-monospace,SFMono-Regular,monospace" font-size="11" font-weight="500">OSPF</text></g><g id="link-annotation-7" class="link-annotation"><rect class="interface-label-badge" x="1494.9" y="1024.9" width="58.3" height="21.0" rx="5.0" fill="#ffffff" stroke="#cbd5e1" stroke-width="1"/><text class="interface-label-text" x="1524.0" y="1040.9" text-anchor="middle" fill="#334155" font-family="ui-monospace,SFMono-Regular,monospace" font-size="11" font-weight="650">Eth1/1</text><rect class="interface-label-badge" x="1319.5" y="1179.1" width="65.0" height="21.0" rx="5.0" fill="#ffffff" stroke="#cbd5e1" stroke-width="1"/><text class="interface-label-text" x="1352.0" y="1195.1" text-anchor="middle" fill="#334155" font-family="ui-monospace,SFMono-Regular,monospace" font-size="11" font-weight="650">Eth1/49</text><rect class="label-mask" x="1450.7" y="1074.0" width="38.1" height="23" rx="5" fill="#f8fafc" stroke="#f8fafc" stroke-width="4"/><text x="1469.8" y="1090.0" text-anchor="middle" fill="#334155" font-family="ui-monospace,SFMono-Regular,monospace" font-size="11" font-weight="500">10G</text></g><g id="link-annotation-8" class="link-annotation"><rect class="interface-label-badge" x="1750.9" y="1024.9" width="58.3" height="21.0" rx="5.0" fill="#ffffff" stroke="#cbd5e1" stroke-width="1"/><text class="interface-label-text" x="1780.0" y="1040.9" text-anchor="middle" fill="#334155" font-family="ui-monospace,SFMono-Regular,monospace" font-size="11" font-weight="650">Eth1/2</text><rect class="interface-label-badge" x="1919.5" y="1179.1" width="65.0" height="21.0" rx="5.0" fill="#ffffff" stroke="#cbd5e1" stroke-width="1"/><text class="interface-label-text" x="1952.0" y="1195.1" text-anchor="middle" fill="#334155" font-family="ui-monospace,SFMono-Regular,monospace" font-size="11" font-weight="650">Eth1/49</text><rect class="label-mask" x="1864.9" y="1093.0" width="38.1" height="23" rx="5" fill="#f8fafc" stroke="#f8fafc" stroke-width="4"/><text x="1884.0" y="1109.0" text-anchor="middle" fill="#334155" font-family="ui-monospace,SFMono-Regular,monospace" font-size="11" font-weight="500">10G</text></g><g id="link-annotation-9" class="link-annotation"><rect class="interface-label-badge" x="822.9" y="1018.3" width="58.3" height="21.0" rx="5.0" fill="#ffffff" stroke="#cbd5e1" stroke-width="1"/><text class="interface-label-text" x="852.0" y="1034.3" text-anchor="middle" fill="#334155" font-family="ui-monospace,SFMono-Regular,monospace" font-size="11" font-weight="650">Eth1/1</text><rect class="interface-label-badge" x="719.5" y="1185.7" width="65.0" height="21.0" rx="5.0" fill="#ffffff" stroke="#cbd5e1" stroke-width="1"/><text class="interface-label-text" x="752.0" y="1201.7" text-anchor="middle" fill="#334155" font-family="ui-monospace,SFMono-Regular,monospace" font-size="11" font-weight="650">Eth1/49</text><rect class="label-mask" x="792.9" y="1112.0" width="38.1" height="23" rx="5" fill="#f8fafc" stroke="#f8fafc" stroke-width="4"/><text x="812.0" y="1128.0" text-anchor="middle" fill="#334155" font-family="ui-monospace,SFMono-Regular,monospace" font-size="11" font-weight="500">10G</text></g><g id="link-annotation-10" class="link-annotation"><rect class="interface-label-badge" x="2422.9" y="1018.3" width="58.3" height="21.0" rx="5.0" fill="#ffffff" stroke="#cbd5e1" stroke-width="1"/><text class="interface-label-text" x="2452.0" y="1034.3" text-anchor="middle" fill="#334155" font-family="ui-monospace,SFMono-Regular,monospace" font-size="11" font-weight="650">Eth1/1</text><rect class="interface-label-badge" x="2519.5" y="1185.7" width="65.0" height="21.0" rx="5.0" fill="#ffffff" stroke="#cbd5e1" stroke-width="1"/><text class="interface-label-text" x="2552.0" y="1201.7" text-anchor="middle" fill="#334155" font-family="ui-monospace,SFMono-Regular,monospace" font-size="11" font-weight="650">Eth1/49</text><rect class="label-mask" x="2492.9" y="1074.0" width="38.1" height="23" rx="5" fill="#f8fafc" stroke="#f8fafc" stroke-width="4"/><text x="2512.0" y="1090.0" text-anchor="middle" fill="#334155" font-family="ui-monospace,SFMono-Regular,monospace" font-size="11" font-weight="500">10G</text></g></g></svg>