<svg xmlns="http://www.w3.org/2000/svg" width="2400" height="1545" viewBox="0 0 2400 1545" role="img"><defs><filter id="shadow" x="-20%" y="-20%" width="140%" height="150%"><feDropShadow dx="0" dy="4" stdDeviation="6" flood-color="#0f172a" flood-opacity=".14"/></filter></defs><rect width="100%" height="100%" fill="#f8fafc"/><rect x="0" y="0" width="2400" height="112" fill="#0f172a"/><text x="70" y="56" fill="#f8fafc" font-family="Inter,Segoe UI,sans-serif" font-size="30" font-weight="700">Regional Campus WAN over DWDM</text><text x="70" y="84" fill="#94a3b8" font-family="Inter,Segoe UI,sans-serif" font-size="15">Multiple campus LANs routed across protected optical circuits</text><text x="2330" y="66" text-anchor="end" fill="#38bdf8" font-family="ui-monospace,SFMono-Regular,monospace" font-size="14">WAN + DWDM</text><rect x="42" y="197.0" width="2316.0" height="250.0" rx="20" fill="#f5f3ff" stroke="#e2e8f0"/><rect x="42" y="517.0" width="2316.0" height="250.0" rx="20" fill="#eff6ff" stroke="#e2e8f0"/><rect x="42" y="837.0" width="2316.0" height="250.0" rx="20" fill="#eff6ff" stroke="#e2e8f0"/><rect x="42" y="1157.0" width="2316.0" height="250.0" rx="20" fill="#eff6ff" stroke="#e2e8f0"/><g id="row-headings"><g class="row-heading row-heading-dwdm"><path d="M78 250.0 H410" stroke="#cbd5e1" stroke-width="1"/><text x="78" y="235.0" fill="#64748b" font-family="Inter,Segoe UI,sans-serif" font-size="12" font-weight="700" letter-spacing="1.8">DWDM LAYER · 1 DEVICES</text></g><g class="row-heading row-heading-edge-router"><path d="M78 570.0 H410" stroke="#cbd5e1" stroke-width="1"/><text x="78" y="555.0" fill="#64748b" font-family="Inter,Segoe UI,sans-serif" font-size="12" font-weight="700" letter-spacing="1.8">EDGE ROUTER LAYER · 3 DEVICES</text></g><g class="row-heading row-heading-core-switch"><path d="M78 890.0 H410" stroke="#cbd5e1" stroke-width="1"/><text x="78" y="875.0" fill="#64748b" font-family="Inter,Segoe UI,sans-serif" font-size="12" font-weight="700" letter-spacing="1.8">CORE SWITCH LAYER · 3 DEVICES</text></g><g class="row-heading row-heading-access-switch"><path d="M78 1210.0 H410" stroke="#cbd5e1" stroke-width="1"/><text x="78" y="1195.0" fill="#64748b" font-family="Inter,Segoe UI,sans-serif" font-size="12" font-weight="700" letter-spacing="1.8">ACCESS SWITCH LAYER · 4 DEVICES</text></g></g><g id="links"><path id="link-1" d="M 1362.5 359.0 V 411.4 L 1362.5 544.6 V 597.0" fill="none" stroke="#c026d3" stroke-width="2.2" stroke-linecap="round" stroke-linejoin="round" stroke-dasharray="10 5" opacity=".86"/><circle cx="1362.5" cy="359.0" r="3.2" fill="#ffffff" stroke="#c026d3" stroke-width="2"/><circle cx="1362.5" cy="597.0" r="3.2" fill="#ffffff" stroke="#c026d3" stroke-width="2"/><rect x="1339.7" y="370.0" width="45.5" height="19" rx="5" fill="#f8fafc" fill-opacity=".96"/><text x="1362.5" y="384.0" text-anchor="middle" fill="#c026d3" font-family="ui-monospace,SFMono-Regular,monospace" font-size="11" font-weight="650">Wave1</text><rect x="1339.7" y="571.0" width="45.5" height="19" rx="5" fill="#f8fafc" fill-opacity=".96"/><text x="1362.5" y="585.0" text-anchor="middle" fill="#c026d3" font-family="ui-monospace,SFMono-Regular,monospace" font-size="11" font-weight="650">Te0/0</text><rect x="1286.0" y="436.0" width="152.9" height="19" rx="5" fill="#f8fafc" fill-opacity=".96"/><text x="1362.5" y="450.0" text-anchor="middle" fill="#c026d3" font-family="ui-monospace,SFMono-Regular,monospace" font-size="11" font-weight="500">CID DWDM-HQ-001 · 10G</text><path id="link-2" d="M 1244.5 359.0 V 411.4 L 767.5 544.6 V 597.0" fill="none" stroke="#c026d3" stroke-width="2.2" stroke-linecap="round" stroke-linejoin="round" stroke-dasharray="10 5" opacity=".86"/><circle cx="1244.5" cy="359.0" r="3.2" fill="#ffffff" stroke="#c026d3" stroke-width="2"/><circle cx="767.5" cy="597.0" r="3.2" fill="#ffffff" stroke="#c026d3" stroke-width="2"/><rect x="1221.7" y="370.0" width="45.5" height="19" rx="5" fill="#f8fafc" fill-opacity=".96"/><text x="1244.5" y="384.0" text-anchor="middle" fill="#c026d3" font-family="ui-monospace,SFMono-Regular,monospace" font-size="11" font-weight="650">Wave2</text><rect x="744.7" y="571.0" width="45.5" height="19" rx="5" fill="#f8fafc" fill-opacity=".96"/><text x="767.5" y="585.0" text-anchor="middle" fill="#c026d3" font-family="ui-monospace,SFMono-Regular,monospace" font-size="11" font-weight="650">Te0/0</text><rect x="922.8" y="455.0" width="166.3" height="19" rx="5" fill="#f8fafc" fill-opacity=".96"/><text x="1006.0" y="469.0" text-anchor="middle" fill="#c026d3" font-family="ui-monospace,SFMono-Regular,monospace" font-size="11" font-weight="500">CID DWDM-EAST-014 · 10G</text><path id="link-3" d="M 1480.5 359.0 V 411.4 L 1957.5 544.6 V 597.0" fill="none" stroke="#c026d3" stroke-width="2.2" stroke-linecap="round" stroke-linejoin="round" stroke-dasharray="10 5" opacity=".86"/><circle cx="1480.5" cy="359.0" r="3.2" fill="#ffffff" stroke="#c026d3" stroke-width="2"/><circle cx="1957.5" cy="597.0" r="3.2" fill="#ffffff" stroke="#c026d3" stroke-width="2"/><rect x="1457.7" y="370.0" width="45.5" height="19" rx="5" fill="#f8fafc" fill-opacity=".96"/><text x="1480.5" y="384.0" text-anchor="middle" fill="#c026d3" font-family="ui-monospace,SFMono-Regular,monospace" font-size="11" font-weight="650">Wave3</text><rect x="1934.7" y="571.0" width="45.5" height="19" rx="5" fill="#f8fafc" fill-opacity=".96"/><text x="1957.5" y="585.0" text-anchor="middle" fill="#c026d3" font-family="ui-monospace,SFMono-Regular,monospace" font-size="11" font-weight="650">Te0/0</text><rect x="1674.0" y="474.0" width="166.3" height="19" rx="5" fill="#f8fafc" fill-opacity=".96"/><text x="1757.2" y="488.0" text-anchor="middle" fill="#c026d3" font-family="ui-monospace,SFMono-Regular,monospace" font-size="11" font-weight="500">CID DWDM-WEST-027 · 10G</text><path id="link-4" d="M 1362.5 679.0 V 731.4 L 1362.5 864.6 V 917.0" fill="none" stroke="#334155" stroke-width="2.2" stroke-linecap="round" stroke-linejoin="round"  opacity=".86"/><circle cx="1362.5" cy="679.0" r="3.2" fill="#ffffff" stroke="#334155" stroke-width="2"/><circle cx="1362.5" cy="917.0" r="3.2" fill="#ffffff" stroke="#334155" stroke-width="2"/><rect x="1339.7" y="690.0" width="45.5" height="19" rx="5" fill="#f8fafc" fill-opacity=".96"/><text x="1362.5" y="704.0" text-anchor="middle" fill="#334155" font-family="ui-monospace,SFMono-Regular,monospace" font-size="11" font-weight="650">Gi0/1</text><rect x="1333.0" y="891.0" width="59.0" height="19" rx="5" fill="#f8fafc" fill-opacity=".96"/><text x="1362.5" y="905.0" text-anchor="middle" fill="#334155" font-family="ui-monospace,SFMono-Regular,monospace" font-size="11" font-weight="650">Eth1/49</text><rect x="1343.1" y="756.0" width="38.8" height="19" rx="5" fill="#f8fafc" fill-opacity=".96"/><text x="1362.5" y="770.0" text-anchor="middle" fill="#334155" font-family="ui-monospace,SFMono-Regular,monospace" font-size="11" font-weight="500">OSPF</text><path id="link-5" d="M 767.5 679.0 V 731.4 L 767.5 864.6 V 917.0" fill="none" stroke="#334155" stroke-width="2.2" stroke-linecap="round" stroke-linejoin="round"  opacity=".86"/><circle cx="767.5" cy="679.0" r="3.2" fill="#ffffff" stroke="#334155" stroke-width="2"/><circle cx="767.5" cy="917.0" r="3.2" fill="#ffffff" stroke="#334155" stroke-width="2"/><rect x="744.7" y="690.0" width="45.5" height="19" rx="5" fill="#f8fafc" fill-opacity=".96"/><text x="767.5" y="704.0" text-anchor="middle" fill="#334155" font-family="ui-monospace,SFMono-Regular,monospace" font-size="11" font-weight="650">Gi0/1</text><rect x="738.0" y="891.0" width="59.0" height="19" rx="5" fill="#f8fafc" fill-opacity=".96"/><text x="767.5" y="905.0" text-anchor="middle" fill="#334155" font-family="ui-monospace,SFMono-Regular,monospace" font-size="11" font-weight="650">Eth1/49</text><rect x="748.1" y="775.0" width="38.8" height="19" rx="5" fill="#f8fafc" fill-opacity=".96"/><text x="767.5" y="789.0" text-anchor="middle" fill="#334155" font-family="ui-monospace,SFMono-Regular,monospace" font-size="11" font-weight="500">OSPF</text><path id="link-6" d="M 1957.5 679.0 V 731.4 L 1957.5 864.6 V 917.0" fill="none" stroke="#334155" stroke-width="2.2" stroke-linecap="round" stroke-linejoin="round"  opacity=".86"/><circle cx="1957.5" cy="679.0" r="3.2" fill="#ffffff" stroke="#334155" stroke-width="2"/><circle cx="1957.5" cy="917.0" r="3.2" fill="#ffffff" stroke="#334155" stroke-width="2"/><rect x="1934.7" y="690.0" width="45.5" height="19" rx="5" fill="#f8fafc" fill-opacity=".96"/><text x="1957.5" y="704.0" text-anchor="middle" fill="#334155" font-family="ui-monospace,SFMono-Regular,monospace" font-size="11" font-weight="650">Gi0/1</text><rect x="1928.0" y="891.0" width="59.0" height="19" rx="5" fill="#f8fafc" fill-opacity=".96"/><text x="1957.5" y="905.0" text-anchor="middle" fill="#334155" font-family="ui-monospace,SFMono-Regular,monospace" font-size="11" font-weight="650">Eth1/49</text><rect x="1938.1" y="794.0" width="38.8" height="19" rx="5" fill="#f8fafc" fill-opacity=".96"/><text x="1957.5" y="808.0" text-anchor="middle" fill="#334155" font-family="ui-monospace,SFMono-Regular,monospace" font-size="11" font-weight="500">OSPF</text><path id="link-7" d="M 1234.5 999.0 V 1051.4 L 1139.4 1184.6 V 1237.0" fill="none" stroke="#334155" stroke-width="2.2" stroke-linecap="round" stroke-linejoin="round"  opacity=".86"/><circle cx="1234.5" cy="999.0" r="3.2" fill="#ffffff" stroke="#334155" stroke-width="2"/><circle cx="1139.4" cy="1237.0" r="3.2" fill="#ffffff" stroke="#334155" stroke-width="2"/><rect x="1208.4" y="1010.0" width="52.3" height="19" rx="5" fill="#f8fafc" fill-opacity=".96"/><text x="1234.5" y="1024.0" text-anchor="middle" fill="#334155" font-family="ui-monospace,SFMono-Regular,monospace" font-size="11" font-weight="650">Eth1/1</text><rect x="1109.9" y="1211.0" width="59.0" height="19" rx="5" fill="#f8fafc" fill-opacity=".96"/><text x="1139.4" y="1225.0" text-anchor="middle" fill="#334155" font-family="ui-monospace,SFMono-Regular,monospace" font-size="11" font-weight="650">Eth1/49</text><rect x="1177.5" y="1076.0" width="34.0" height="19" rx="5" fill="#f8fafc" fill-opacity=".96"/><text x="1194.5" y="1090.0" text-anchor="middle" fill="#334155" font-family="ui-monospace,SFMono-Regular,monospace" font-size="11" font-weight="500">10G</text><path id="link-8" d="M 1490.5 999.0 V 1051.4 L 1585.6 1184.6 V 1237.0" fill="none" stroke="#334155" stroke-width="2.2" stroke-linecap="round" stroke-linejoin="round"  opacity=".86"/><circle cx="1490.5" cy="999.0" r="3.2" fill="#ffffff" stroke="#334155" stroke-width="2"/><circle cx="1585.6" cy="1237.0" r="3.2" fill="#ffffff" stroke="#334155" stroke-width="2"/><rect x="1464.4" y="1010.0" width="52.3" height="19" rx="5" fill="#f8fafc" fill-opacity=".96"/><text x="1490.5" y="1024.0" text-anchor="middle" fill="#334155" font-family="ui-monospace,SFMono-Regular,monospace" font-size="11" font-weight="650">Eth1/2</text><rect x="1556.1" y="1211.0" width="59.0" height="19" rx="5" fill="#f8fafc" fill-opacity=".96"/><text x="1585.6" y="1225.0" text-anchor="middle" fill="#334155" font-family="ui-monospace,SFMono-Regular,monospace" font-size="11" font-weight="650">Eth1/49</text><rect x="1521.1" y="1095.0" width="34.0" height="19" rx="5" fill="#f8fafc" fill-opacity=".96"/><text x="1538.1" y="1109.0" text-anchor="middle" fill="#334155" font-family="ui-monospace,SFMono-Regular,monospace" font-size="11" font-weight="500">10G</text><path id="link-9" d="M 767.5 999.0 V 1051.4 L 693.1 1184.6 V 1237.0" fill="none" stroke="#334155" stroke-width="2.2" stroke-linecap="round" stroke-linejoin="round"  opacity=".86"/><circle cx="767.5" cy="999.0" r="3.2" fill="#ffffff" stroke="#334155" stroke-width="2"/><circle cx="693.1" cy="1237.0" r="3.2" fill="#ffffff" stroke="#334155" stroke-width="2"/><rect x="741.4" y="1010.0" width="52.3" height="19" rx="5" fill="#f8fafc" fill-opacity=".96"/><text x="767.5" y="1024.0" text-anchor="middle" fill="#334155" font-family="ui-monospace,SFMono-Regular,monospace" font-size="11" font-weight="650">Eth1/1</text><rect x="663.6" y="1211.0" width="59.0" height="19" rx="5" fill="#f8fafc" fill-opacity=".96"/><text x="693.1" y="1225.0" text-anchor="middle" fill="#334155" font-family="ui-monospace,SFMono-Regular,monospace" font-size="11" font-weight="650">Eth1/49</text><rect x="707.4" y="1114.0" width="34.0" height="19" rx="5" fill="#f8fafc" fill-opacity=".96"/><text x="724.4" y="1128.0" text-anchor="middle" fill="#334155" font-family="ui-monospace,SFMono-Regular,monospace" font-size="11" font-weight="500">10G</text><path id="link-10" d="M 1957.5 999.0 V 1051.4 L 2031.9 1184.6 V 1237.0" fill="none" stroke="#334155" stroke-width="2.2" stroke-linecap="round" stroke-linejoin="round"  opacity=".86"/><circle cx="1957.5" cy="999.0" r="3.2" fill="#ffffff" stroke="#334155" stroke-width="2"/><circle cx="2031.9" cy="1237.0" r="3.2" fill="#ffffff" stroke="#334155" stroke-width="2"/><rect x="1931.4" y="1010.0" width="52.3" height="19" rx="5" fill="#f8fafc" fill-opacity=".96"/><text x="1957.5" y="1024.0" text-anchor="middle" fill="#334155" font-family="ui-monospace,SFMono-Regular,monospace" font-size="11" font-weight="650">Eth1/1</text><rect x="2002.4" y="1211.0" width="59.0" height="19" rx="5" fill="#f8fafc" fill-opacity=".96"/><text x="2031.9" y="1225.0" text-anchor="middle" fill="#334155" font-family="ui-monospace,SFMono-Regular,monospace" font-size="11" font-weight="650">Eth1/49</text><rect x="1971.7" y="1076.0" width="34.0" height="19" rx="5" fill="#f8fafc" fill-opacity=".96"/><text x="1988.7" y="1090.0" text-anchor="middle" fill="#334155" font-family="ui-monospace,SFMono-Regular,monospace" font-size="11" font-weight="500">10G</text></g><g id="nodes"><g id="east-access" filter="url(#shadow)"><rect x="543.1" y="1237.0" width="300.0" height="82.0" rx="14" fill="#ffffff" stroke="#0878b9" stroke-width="2"/><rect x="543.1" y="1237.0" width="8" height="82.0" rx="4" fill="#0878b9"/><g class="device-icon device-icon-access-switch" transform="translate(583.1 1278.0)" stroke="#0878b9" fill="none" stroke-width="1.6" stroke-linecap="round" stroke-linejoin="round"><path d="M-28 -9 -9 -20 28 -9 9 2Z" fill="#0878b9" fill-opacity=".14"/><path d="M-28 -9 9 2 28 -9v12L9 15-28 4Z" fill="#0878b9" fill-opacity=".07"/><path d="M-28 -9 -9 -20 28 -9 9 2Z"/><path d="M-28 -9v13L9 15 28 3v-12M9 2v13"/><path d="M-19 -4 3 3M-19 1 3 8"/><rect x="-15.5" y="-4.5" width="3.5" height="2.7" rx=".5"/><rect x="-10" y="-2.8" width="3.5" height="2.7" rx=".5"/><rect x="-4.5" y="-1.1" width="3.5" height="2.7" rx=".5"/><rect x="1" y=".6" width="3.5" height="2.7" rx=".5"/><circle cx="-20" cy="1.5" r="1.4"/><circle cx="-15" cy="3.2" r="1.4"/><circle cx="-10" cy="4.9" r="1.4"/><path d="M11 -10h9M12 -6h6"/></g><text x="621.1" y="1271.0" fill="#0f172a" font-family="Inter,Segoe UI,sans-serif" font-size="15" font-weight="700">East Access</text><text x="621.1" y="1292.0" fill="#64748b" font-family="ui-monospace,SFMono-Regular,monospace" font-size="11">ACCESS-SWITCH</text></g><g id="east-core" filter="url(#shadow)"><rect x="617.5" y="917.0" width="300.0" height="82.0" rx="14" fill="#ffffff" stroke="#0878b9" stroke-width="2"/><rect x="617.5" y="917.0" width="8" height="82.0" rx="4" fill="#0878b9"/><g class="device-icon device-icon-core-switch" transform="translate(657.5 958.0)" stroke="#0878b9" fill="none" stroke-width="1.6" stroke-linecap="round" stroke-linejoin="round"><path d="M-28 -9 -9 -20 28 -9 9 2Z" fill="#0878b9" fill-opacity=".14"/><path d="M-28 -9 9 2 28 -9v12L9 15-28 4Z" fill="#0878b9" fill-opacity=".07"/><path d="M-28 -9 -9 -20 28 -9 9 2Z"/><path d="M-28 -9v13L9 15 28 3v-12M9 2v13"/><path d="M-19 -4 3 3M-19 1 3 8"/><rect x="-15.5" y="-4.5" width="3.5" height="2.7" rx=".5"/><rect x="-10" y="-2.8" width="3.5" height="2.7" rx=".5"/><rect x="-4.5" y="-1.1" width="3.5" height="2.7" rx=".5"/><rect x="1" y=".6" width="3.5" height="2.7" rx=".5"/><circle cx="-20" cy="1.5" r="1.4"/><circle cx="-15" cy="3.2" r="1.4"/><circle cx="-10" cy="4.9" r="1.4"/><path d="M11 -10h9M12 -6h6"/></g><text x="695.5" y="951.0" fill="#0f172a" font-family="Inter,Segoe UI,sans-serif" font-size="15" font-weight="700">East Core Switch</text><text x="695.5" y="972.0" fill="#64748b" font-family="ui-monospace,SFMono-Regular,monospace" font-size="11">CORE-SWITCH</text></g><g id="east-router" filter="url(#shadow)"><rect x="627.5" y="597.0" width="280.0" height="82.0" rx="14" fill="#ffffff" stroke="#0878b9" stroke-width="2"/><rect x="627.5" y="597.0" width="8" height="82.0" rx="4" fill="#0878b9"/><g class="device-icon device-icon-router" transform="translate(667.5 638.0)" stroke="#0878b9" fill="none" stroke-width="1.6" stroke-linecap="round" stroke-linejoin="round"><ellipse cx="0" cy="0" rx="27" ry="18" fill="#0878b9" fill-opacity=".12"/><ellipse cx="0" cy="0" rx="27" ry="18"/><path d="M-14 0h28M8-6l6 6-6 6M14 0H-14M-8-6l-6 6 6 6"/><path d="M0-13v26M-6-7l6-6 6 6M-6 7l6 6 6-6"/></g><text x="705.5" y="631.0" fill="#0f172a" font-family="Inter,Segoe UI,sans-serif" font-size="15" font-weight="700">East L3 Router</text><text x="705.5" y="652.0" fill="#64748b" font-family="ui-monospace,SFMono-Regular,monospace" font-size="11">EDGE-ROUTER</text></g><g id="hq-access-01" filter="url(#shadow)"><rect x="989.4" y="1237.0" width="300.0" height="82.0" rx="14" fill="#ffffff" stroke="#0878b9" stroke-width="2"/><rect x="989.4" y="1237.0" width="8" height="82.0" rx="4" fill="#0878b9"/><g class="device-icon device-icon-access-switch" transform="translate(1029.4 1278.0)" stroke="#0878b9" fill="none" stroke-width="1.6" stroke-linecap="round" stroke-linejoin="round"><path d="M-28 -9 -9 -20 28 -9 9 2Z" fill="#0878b9" fill-opacity=".14"/><path d="M-28 -9 9 2 28 -9v12L9 15-28 4Z" fill="#0878b9" fill-opacity=".07"/><path d="M-28 -9 -9 -20 28 -9 9 2Z"/><path d="M-28 -9v13L9 15 28 3v-12M9 2v13"/><path d="M-19 -4 3 3M-19 1 3 8"/><rect x="-15.5" y="-4.5" width="3.5" height="2.7" rx=".5"/><rect x="-10" y="-2.8" width="3.5" height="2.7" rx=".5"/><rect x="-4.5" y="-1.1" width="3.5" height="2.7" rx=".5"/><rect x="1" y=".6" width="3.5" height="2.7" rx=".5"/><circle cx="-20" cy="1.5" r="1.4"/><circle cx="-15" cy="3.2" r="1.4"/><circle cx="-10" cy="4.9" r="1.4"/><path d="M11 -10h9M12 -6h6"/></g><text x="1067.4" y="1271.0" fill="#0f172a" font-family="Inter,Segoe UI,sans-serif" font-size="15" font-weight="700">HQ Access 01</text><text x="1067.4" y="1292.0" fill="#64748b" font-family="ui-monospace,SFMono-Regular,monospace" font-size="11">ACCESS-SWITCH</text></g><g id="hq-access-02" filter="url(#shadow)"><rect x="1435.6" y="1237.0" width="300.0" height="82.0" rx="14" fill="#ffffff" stroke="#0878b9" stroke-width="2"/><rect x="1435.6" y="1237.0" width="8" height="82.0" rx="4" fill="#0878b9"/><g class="device-icon device-icon-access-switch" transform="translate(1475.6 1278.0)" stroke="#0878b9" fill="none" stroke-width="1.6" stroke-linecap="round" stroke-linejoin="round"><path d="M-28 -9 -9 -20 28 -9 9 2Z" fill="#0878b9" fill-opacity=".14"/><path d="M-28 -9 9 2 28 -9v12L9 15-28 4Z" fill="#0878b9" fill-opacity=".07"/><path d="M-28 -9 -9 -20 28 -9 9 2Z"/><path d="M-28 -9v13L9 15 28 3v-12M9 2v13"/><path d="M-19 -4 3 3M-19 1 3 8"/><rect x="-15.5" y="-4.5" width="3.5" height="2.7" rx=".5"/><rect x="-10" y="-2.8" width="3.5" height="2.7" rx=".5"/><rect x="-4.5" y="-1.1" width="3.5" height="2.7" rx=".5"/><rect x="1" y=".6" width="3.5" height="2.7" rx=".5"/><circle cx="-20" cy="1.5" r="1.4"/><circle cx="-15" cy="3.2" r="1.4"/><circle cx="-10" cy="4.9" r="1.4"/><path d="M11 -10h9M12 -6h6"/></g><text x="1513.6" y="1271.0" fill="#0f172a" font-family="Inter,Segoe UI,sans-serif" font-size="15" font-weight="700">HQ Access 02</text><text x="1513.6" y="1292.0" fill="#64748b" font-family="ui-monospace,SFMono-Regular,monospace" font-size="11">ACCESS-SWITCH</text></g><g id="hq-core" filter="url(#shadow)"><rect x="1212.5" y="917.0" width="300.0" height="82.0" rx="14" fill="#ffffff" stroke="#0878b9" stroke-width="2"/><rect x="1212.5" y="917.0" width="8" height="82.0" rx="4" fill="#0878b9"/><g class="device-icon device-icon-core-switch" transform="translate(1252.5 958.0)" stroke="#0878b9" fill="none" stroke-width="1.6" stroke-linecap="round" stroke-linejoin="round"><path d="M-28 -9 -9 -20 28 -9 9 2Z" fill="#0878b9" fill-opacity=".14"/><path d="M-28 -9 9 2 28 -9v12L9 15-28 4Z" fill="#0878b9" fill-opacity=".07"/><path d="M-28 -9 -9 -20 28 -9 9 2Z"/><path d="M-28 -9v13L9 15 28 3v-12M9 2v13"/><path d="M-19 -4 3 3M-19 1 3 8"/><rect x="-15.5" y="-4.5" width="3.5" height="2.7" rx=".5"/><rect x="-10" y="-2.8" width="3.5" height="2.7" rx=".5"/><rect x="-4.5" y="-1.1" width="3.5" height="2.7" rx=".5"/><rect x="1" y=".6" width="3.5" height="2.7" rx=".5"/><circle cx="-20" cy="1.5" r="1.4"/><circle cx="-15" cy="3.2" r="1.4"/><circle cx="-10" cy="4.9" r="1.4"/><path d="M11 -10h9M12 -6h6"/></g><text x="1290.5" y="951.0" fill="#0f172a" font-family="Inter,Segoe UI,sans-serif" font-size="15" font-weight="700">HQ Core Switch</text><text x="1290.5" y="972.0" fill="#64748b" font-family="ui-monospace,SFMono-Regular,monospace" font-size="11">CORE-SWITCH</text></g><g id="hq-router" filter="url(#shadow)"><rect x="1222.5" y="597.0" width="280.0" height="82.0" rx="14" fill="#ffffff" stroke="#0878b9" stroke-width="2"/><rect x="1222.5" y="597.0" width="8" height="82.0" rx="4" fill="#0878b9"/><g class="device-icon device-icon-router" transform="translate(1262.5 638.0)" stroke="#0878b9" fill="none" stroke-width="1.6" stroke-linecap="round" stroke-linejoin="round"><ellipse cx="0" cy="0" rx="27" ry="18" fill="#0878b9" fill-opacity=".12"/><ellipse cx="0" cy="0" rx="27" ry="18"/><path d="M-14 0h28M8-6l6 6-6 6M14 0H-14M-8-6l-6 6 6 6"/><path d="M0-13v26M-6-7l6-6 6 6M-6 7l6 6 6-6"/></g><text x="1300.5" y="631.0" fill="#0f172a" font-family="Inter,Segoe UI,sans-serif" font-size="15" font-weight="700">HQ L3 Router</text><text x="1300.5" y="652.0" fill="#64748b" font-family="ui-monospace,SFMono-Regular,monospace" font-size="11">EDGE-ROUTER</text></g><g id="metro-dwdm" filter="url(#shadow)"><rect x="1222.5" y="277.0" width="280.0" height="82.0" rx="14" fill="#ffffff" stroke="#7c3aed" stroke-width="2"/><rect x="1222.5" y="277.0" width="8" height="82.0" rx="4" fill="#7c3aed"/><g class="device-icon device-icon-dwdm" transform="translate(1262.5 318.0)" stroke="#7c3aed" fill="none" stroke-width="1.6" stroke-linecap="round" stroke-linejoin="round"><rect x="-27" y="-18" width="54" height="36" rx="6" fill="#7c3aed" fill-opacity=".10" stroke="#7c3aed"/><path d="M-21-9c8 0 8 7 16 7s8-7 16-7 8 7 16 7M-21 2c8 0 8 7 16 7s8-7 16-7 8 7 16 7" stroke="#7c3aed"/></g><text x="1300.5" y="311.0" fill="#0f172a" font-family="Inter,Segoe UI,sans-serif" font-size="15" font-weight="700">Metro DWDM Ring</text><text x="1300.5" y="332.0" fill="#64748b" font-family="ui-monospace,SFMono-Regular,monospace" font-size="11">DWDM</text></g><g id="west-access" filter="url(#shadow)"><rect x="1881.9" y="1237.0" width="300.0" height="82.0" rx="14" fill="#ffffff" stroke="#0878b9" stroke-width="2"/><rect x="1881.9" y="1237.0" width="8" height="82.0" rx="4" fill="#0878b9"/><g class="device-icon device-icon-access-switch" transform="translate(1921.9 1278.0)" stroke="#0878b9" fill="none" stroke-width="1.6" stroke-linecap="round" stroke-linejoin="round"><path d="M-28 -9 -9 -20 28 -9 9 2Z" fill="#0878b9" fill-opacity=".14"/><path d="M-28 -9 9 2 28 -9v12L9 15-28 4Z" fill="#0878b9" fill-opacity=".07"/><path d="M-28 -9 -9 -20 28 -9 9 2Z"/><path d="M-28 -9v13L9 15 28 3v-12M9 2v13"/><path d="M-19 -4 3 3M-19 1 3 8"/><rect x="-15.5" y="-4.5" width="3.5" height="2.7" rx=".5"/><rect x="-10" y="-2.8" width="3.5" height="2.7" rx=".5"/><rect x="-4.5" y="-1.1" width="3.5" height="2.7" rx=".5"/><rect x="1" y=".6" width="3.5" height="2.7" rx=".5"/><circle cx="-20" cy="1.5" r="1.4"/><circle cx="-15" cy="3.2" r="1.4"/><circle cx="-10" cy="4.9" r="1.4"/><path d="M11 -10h9M12 -6h6"/></g><text x="1959.9" y="1271.0" fill="#0f172a" font-family="Inter,Segoe UI,sans-serif" font-size="15" font-weight="700">West Access</text><text x="1959.9" y="1292.0" fill="#64748b" font-family="ui-monospace,SFMono-Regular,monospace" font-size="11">ACCESS-SWITCH</text></g><g id="west-core" filter="url(#shadow)"><rect x="1807.5" y="917.0" width="300.0" height="82.0" rx="14" fill="#ffffff" stroke="#0878b9" stroke-width="2"/><rect x="1807.5" y="917.0" width="8" height="82.0" rx="4" fill="#0878b9"/><g class="device-icon device-icon-core-switch" transform="translate(1847.5 958.0)" stroke="#0878b9" fill="none" stroke-width="1.6" stroke-linecap="round" stroke-linejoin="round"><path d="M-28 -9 -9 -20 28 -9 9 2Z" fill="#0878b9" fill-opacity=".14"/><path d="M-28 -9 9 2 28 -9v12L9 15-28 4Z" fill="#0878b9" fill-opacity=".07"/><path d="M-28 -9 -9 -20 28 -9 9 2Z"/><path d="M-28 -9v13L9 15 28 3v-12M9 2v13"/><path d="M-19 -4 3 3M-19 1 3 8"/><rect x="-15.5" y="-4.5" width="3.5" height="2.7" rx=".5"/><rect x="-10" y="-2.8" width="3.5" height="2.7" rx=".5"/><rect x="-4.5" y="-1.1" width="3.5" height="2.7" rx=".5"/><rect x="1" y=".6" width="3.5" height="2.7" rx=".5"/><circle cx="-20" cy="1.5" r="1.4"/><circle cx="-15" cy="3.2" r="1.4"/><circle cx="-10" cy="4.9" r="1.4"/><path d="M11 -10h9M12 -6h6"/></g><text x="1885.5" y="951.0" fill="#0f172a" font-family="Inter,Segoe UI,sans-serif" font-size="15" font-weight="700">West Core Switch</text><text x="1885.5" y="972.0" fill="#64748b" font-family="ui-monospace,SFMono-Regular,monospace" font-size="11">CORE-SWITCH</text></g><g id="west-router" filter="url(#shadow)"><rect x="1817.5" y="597.0" width="280.0" height="82.0" rx="14" fill="#ffffff" stroke="#0878b9" stroke-width="2"/><rect x="1817.5" y="597.0" width="8" height="82.0" rx="4" fill="#0878b9"/><g class="device-icon device-icon-router" transform="translate(1857.5 638.0)" stroke="#0878b9" fill="none" stroke-width="1.6" stroke-linecap="round" stroke-linejoin="round"><ellipse cx="0" cy="0" rx="27" ry="18" fill="#0878b9" fill-opacity=".12"/><ellipse cx="0" cy="0" rx="27" ry="18"/><path d="M-14 0h28M8-6l6 6-6 6M14 0H-14M-8-6l-6 6 6 6"/><path d="M0-13v26M-6-7l6-6 6 6M-6 7l6 6 6-6"/></g><text x="1895.5" y="631.0" fill="#0f172a" font-family="Inter,Segoe UI,sans-serif" font-size="15" font-weight="700">West L3 Router</text><text x="1895.5" y="652.0" fill="#64748b" font-family="ui-monospace,SFMono-Regular,monospace" font-size="11">EDGE-ROUTER</text></g></g></svg>