<svg xmlns="http://www.w3.org/2000/svg" width="2400" height="1865" viewBox="0 0 2400 1865" role="img"><defs><filter id="shadow" x="-20%" y="-20%" width="140%" height="150%"><feDropShadow dx="0" dy="4" stdDeviation="6" flood-color="#0f172a" flood-opacity=".14"/></filter></defs><rect width="100%" height="100%" fill="#f8fafc"/><rect x="0" y="0" width="2400" height="112" fill="#0f172a"/><text x="70" y="56" fill="#f8fafc" font-family="Inter,Segoe UI,sans-serif" font-size="30" font-weight="700">Enterprise Campus LAN</text><text x="70" y="84" fill="#94a3b8" font-family="Inter,Segoe UI,sans-serif" font-size="15">Core, distribution, access, wireless, and user layers</text><text x="2330" y="66" text-anchor="end" fill="#38bdf8" font-family="ui-monospace,SFMono-Regular,monospace" font-size="14">CAMPUS LAN</text><rect x="42" y="197.0" width="2316.0" height="250.0" rx="20" fill="#eff6ff" stroke="#e2e8f0"/><rect x="42" y="517.0" width="2316.0" height="250.0" rx="20" fill="#eff6ff" stroke="#e2e8f0"/><rect x="42" y="837.0" width="2316.0" height="250.0" rx="20" fill="#eff6ff" stroke="#e2e8f0"/><rect x="42" y="1157.0" width="2316.0" height="250.0" rx="20" fill="#eff6ff" stroke="#e2e8f0"/><rect x="42" y="1477.0" width="2316.0" height="250.0" rx="20" fill="#f8fafc" stroke="#e2e8f0"/><g id="row-headings"><g class="row-heading row-heading-core-switch"><path d="M78 250.0 H410" stroke="#cbd5e1" stroke-width="1"/><text x="78" y="235.0" fill="#64748b" font-family="Inter,Segoe UI,sans-serif" font-size="12" font-weight="700" letter-spacing="1.8">CORE SWITCH LAYER · 2 DEVICES</text></g><g class="row-heading row-heading-distribution-switch"><path d="M78 570.0 H410" stroke="#cbd5e1" stroke-width="1"/><text x="78" y="555.0" fill="#64748b" font-family="Inter,Segoe UI,sans-serif" font-size="12" font-weight="700" letter-spacing="1.8">DISTRIBUTION SWITCH LAYER · 2 DEVICES</text></g><g class="row-heading row-heading-access-switch"><path d="M78 890.0 H410" stroke="#cbd5e1" stroke-width="1"/><text x="78" y="875.0" fill="#64748b" font-family="Inter,Segoe UI,sans-serif" font-size="12" font-weight="700" letter-spacing="1.8">ACCESS SWITCH LAYER · 4 DEVICES</text></g><g class="row-heading row-heading-wireless"><path d="M78 1210.0 H410" stroke="#cbd5e1" stroke-width="1"/><text x="78" y="1195.0" fill="#64748b" font-family="Inter,Segoe UI,sans-serif" font-size="12" font-weight="700" letter-spacing="1.8">WIRELESS LAYER · 2 DEVICES</text></g><g class="row-heading row-heading-endpoint"><path d="M78 1530.0 H410" stroke="#cbd5e1" stroke-width="1"/><text x="78" y="1515.0" fill="#64748b" font-family="Inter,Segoe UI,sans-serif" font-size="12" font-weight="700" letter-spacing="1.8">ENDPOINT LAYER · 2 DEVICES</text></g></g><g id="links"><path id="link-1" d="M 916.2 359.0 V 411.4 L 916.2 544.6 V 597.0" fill="none" stroke="#334155" stroke-width="2.2" stroke-linecap="round" stroke-linejoin="round"  opacity=".86"/><circle cx="916.2" cy="359.0" r="3.2" fill="#ffffff" stroke="#334155" stroke-width="2"/><circle cx="916.2" cy="597.0" r="3.2" fill="#ffffff" stroke="#334155" stroke-width="2"/><rect x="890.1" y="370.0" width="52.3" height="19" rx="5" fill="#f8fafc" fill-opacity=".96"/><text x="916.2" y="384.0" text-anchor="middle" fill="#334155" font-family="ui-monospace,SFMono-Regular,monospace" font-size="11" font-weight="650">Eth1/1</text><rect x="886.8" y="571.0" width="59.0" height="19" rx="5" fill="#f8fafc" fill-opacity=".96"/><text x="916.2" y="585.0" text-anchor="middle" fill="#334155" font-family="ui-monospace,SFMono-Regular,monospace" font-size="11" font-weight="650">Eth1/49</text><rect x="899.2" y="436.0" width="34.0" height="19" rx="5" fill="#f8fafc" fill-opacity=".96"/><text x="916.2" y="450.0" text-anchor="middle" fill="#334155" font-family="ui-monospace,SFMono-Regular,monospace" font-size="11" font-weight="500">40G</text><path id="link-2" d="M 1808.8 359.0 V 411.4 L 1808.8 544.6 V 597.0" fill="none" stroke="#334155" stroke-width="2.2" stroke-linecap="round" stroke-linejoin="round"  opacity=".86"/><circle cx="1808.8" cy="359.0" r="3.2" fill="#ffffff" stroke="#334155" stroke-width="2"/><circle cx="1808.8" cy="597.0" r="3.2" fill="#ffffff" stroke="#334155" stroke-width="2"/><rect x="1782.6" y="370.0" width="52.3" height="19" rx="5" fill="#f8fafc" fill-opacity=".96"/><text x="1808.8" y="384.0" text-anchor="middle" fill="#334155" font-family="ui-monospace,SFMono-Regular,monospace" font-size="11" font-weight="650">Eth1/1</text><rect x="1779.3" y="571.0" width="59.0" height="19" rx="5" fill="#f8fafc" fill-opacity=".96"/><text x="1808.8" y="585.0" text-anchor="middle" fill="#334155" font-family="ui-monospace,SFMono-Regular,monospace" font-size="11" font-weight="650">Eth1/49</text><rect x="1791.8" y="455.0" width="34.0" height="19" rx="5" fill="#f8fafc" fill-opacity=".96"/><text x="1808.8" y="469.0" text-anchor="middle" fill="#334155" font-family="ui-monospace,SFMono-Regular,monospace" font-size="11" font-weight="500">40G</text><path id="link-3" d="M 788.2 679.0 V 731.4 L 693.1 864.6 V 917.0" fill="none" stroke="#334155" stroke-width="2.2" stroke-linecap="round" stroke-linejoin="round"  opacity=".86"/><circle cx="788.2" cy="679.0" r="3.2" fill="#ffffff" stroke="#334155" stroke-width="2"/><circle cx="693.1" cy="917.0" r="3.2" fill="#ffffff" stroke="#334155" stroke-width="2"/><rect x="762.1" y="690.0" width="52.3" height="19" rx="5" fill="#f8fafc" fill-opacity=".96"/><text x="788.2" y="704.0" text-anchor="middle" fill="#334155" font-family="ui-monospace,SFMono-Regular,monospace" font-size="11" font-weight="650">Eth1/1</text><rect x="663.6" y="891.0" width="59.0" height="19" rx="5" fill="#f8fafc" fill-opacity=".96"/><text x="693.1" y="905.0" text-anchor="middle" fill="#334155" font-family="ui-monospace,SFMono-Regular,monospace" font-size="11" font-weight="650">Eth1/49</text><rect x="716.1" y="794.0" width="34.0" height="19" rx="5" fill="#f8fafc" fill-opacity=".96"/><text x="733.1" y="808.0" text-anchor="middle" fill="#334155" font-family="ui-monospace,SFMono-Regular,monospace" font-size="11" font-weight="500">10G</text><path id="link-4" d="M 1044.2 679.0 V 731.4 L 1139.4 864.6 V 917.0" fill="none" stroke="#334155" stroke-width="2.2" stroke-linecap="round" stroke-linejoin="round"  opacity=".86"/><circle cx="1044.2" cy="679.0" r="3.2" fill="#ffffff" stroke="#334155" stroke-width="2"/><circle cx="1139.4" cy="917.0" r="3.2" fill="#ffffff" stroke="#334155" stroke-width="2"/><rect x="1018.1" y="690.0" width="52.3" height="19" rx="5" fill="#f8fafc" fill-opacity=".96"/><text x="1044.2" y="704.0" text-anchor="middle" fill="#334155" font-family="ui-monospace,SFMono-Regular,monospace" font-size="11" font-weight="650">Eth1/2</text><rect x="1109.9" y="891.0" width="59.0" height="19" rx="5" fill="#f8fafc" fill-opacity=".96"/><text x="1139.4" y="905.0" text-anchor="middle" fill="#334155" font-family="ui-monospace,SFMono-Regular,monospace" font-size="11" font-weight="650">Eth1/49</text><rect x="1067.2" y="756.0" width="34.0" height="19" rx="5" fill="#f8fafc" fill-opacity=".96"/><text x="1084.2" y="770.0" text-anchor="middle" fill="#334155" font-family="ui-monospace,SFMono-Regular,monospace" font-size="11" font-weight="500">10G</text><path id="link-5" d="M 1680.8 679.0 V 731.4 L 1585.6 864.6 V 917.0" fill="none" stroke="#334155" stroke-width="2.2" stroke-linecap="round" stroke-linejoin="round"  opacity=".86"/><circle cx="1680.8" cy="679.0" r="3.2" fill="#ffffff" stroke="#334155" stroke-width="2"/><circle cx="1585.6" cy="917.0" r="3.2" fill="#ffffff" stroke="#334155" stroke-width="2"/><rect x="1654.6" y="690.0" width="52.3" height="19" rx="5" fill="#f8fafc" fill-opacity=".96"/><text x="1680.8" y="704.0" text-anchor="middle" fill="#334155" font-family="ui-monospace,SFMono-Regular,monospace" font-size="11" font-weight="650">Eth1/1</text><rect x="1556.1" y="891.0" width="59.0" height="19" rx="5" fill="#f8fafc" fill-opacity=".96"/><text x="1585.6" y="905.0" text-anchor="middle" fill="#334155" font-family="ui-monospace,SFMono-Regular,monospace" font-size="11" font-weight="650">Eth1/49</text><rect x="1616.2" y="775.0" width="34.0" height="19" rx="5" fill="#f8fafc" fill-opacity=".96"/><text x="1633.2" y="789.0" text-anchor="middle" fill="#334155" font-family="ui-monospace,SFMono-Regular,monospace" font-size="11" font-weight="500">10G</text><path id="link-6" d="M 1936.8 679.0 V 731.4 L 2031.9 864.6 V 917.0" fill="none" stroke="#334155" stroke-width="2.2" stroke-linecap="round" stroke-linejoin="round"  opacity=".86"/><circle cx="1936.8" cy="679.0" r="3.2" fill="#ffffff" stroke="#334155" stroke-width="2"/><circle cx="2031.9" cy="917.0" r="3.2" fill="#ffffff" stroke="#334155" stroke-width="2"/><rect x="1910.6" y="690.0" width="52.3" height="19" rx="5" fill="#f8fafc" fill-opacity=".96"/><text x="1936.8" y="704.0" text-anchor="middle" fill="#334155" font-family="ui-monospace,SFMono-Regular,monospace" font-size="11" font-weight="650">Eth1/2</text><rect x="2002.4" y="891.0" width="59.0" height="19" rx="5" fill="#f8fafc" fill-opacity=".96"/><text x="2031.9" y="905.0" text-anchor="middle" fill="#334155" font-family="ui-monospace,SFMono-Regular,monospace" font-size="11" font-weight="650">Eth1/49</text><rect x="1974.9" y="794.0" width="34.0" height="19" rx="5" fill="#f8fafc" fill-opacity=".96"/><text x="1991.9" y="808.0" text-anchor="middle" fill="#334155" font-family="ui-monospace,SFMono-Regular,monospace" font-size="11" font-weight="500">10G</text><path id="link-7" d="M 693.1 999.0 V 1051.4 L 916.2 1184.6 V 1237.0" fill="none" stroke="#334155" stroke-width="2.2" stroke-linecap="round" stroke-linejoin="round"  opacity=".86"/><circle cx="693.1" cy="999.0" r="3.2" fill="#ffffff" stroke="#334155" stroke-width="2"/><circle cx="916.2" cy="1237.0" r="3.2" fill="#ffffff" stroke="#334155" stroke-width="2"/><rect x="667.0" y="1010.0" width="52.3" height="19" rx="5" fill="#f8fafc" fill-opacity=".96"/><text x="693.1" y="1024.0" text-anchor="middle" fill="#334155" font-family="ui-monospace,SFMono-Regular,monospace" font-size="11" font-weight="650">Eth1/1</text><rect x="890.1" y="1211.0" width="52.3" height="19" rx="5" fill="#f8fafc" fill-opacity=".96"/><text x="916.2" y="1225.0" text-anchor="middle" fill="#334155" font-family="ui-monospace,SFMono-Regular,monospace" font-size="11" font-weight="650">Eth0/0</text><rect x="767.4" y="1076.0" width="38.8" height="19" rx="5" fill="#f8fafc" fill-opacity=".96"/><text x="786.8" y="1090.0" text-anchor="middle" fill="#334155" font-family="ui-monospace,SFMono-Regular,monospace" font-size="11" font-weight="500">PoE+</text><path id="link-8" d="M 1585.6 999.0 V 1051.4 L 1808.8 1184.6 V 1237.0" fill="none" stroke="#334155" stroke-width="2.2" stroke-linecap="round" stroke-linejoin="round"  opacity=".86"/><circle cx="1585.6" cy="999.0" r="3.2" fill="#ffffff" stroke="#334155" stroke-width="2"/><circle cx="1808.8" cy="1237.0" r="3.2" fill="#ffffff" stroke="#334155" stroke-width="2"/><rect x="1559.5" y="1010.0" width="52.3" height="19" rx="5" fill="#f8fafc" fill-opacity=".96"/><text x="1585.6" y="1024.0" text-anchor="middle" fill="#334155" font-family="ui-monospace,SFMono-Regular,monospace" font-size="11" font-weight="650">Eth1/1</text><rect x="1782.6" y="1211.0" width="52.3" height="19" rx="5" fill="#f8fafc" fill-opacity=".96"/><text x="1808.8" y="1225.0" text-anchor="middle" fill="#334155" font-family="ui-monospace,SFMono-Regular,monospace" font-size="11" font-weight="650">Eth0/0</text><rect x="1677.8" y="1095.0" width="38.8" height="19" rx="5" fill="#f8fafc" fill-opacity=".96"/><text x="1697.2" y="1109.0" text-anchor="middle" fill="#334155" font-family="ui-monospace,SFMono-Regular,monospace" font-size="11" font-weight="500">PoE+</text><path id="link-9" d="M 916.2 1319.0 V 1371.4 L 916.2 1504.6 V 1557.0" fill="none" stroke="#334155" stroke-width="2.2" stroke-linecap="round" stroke-linejoin="round"  opacity=".86"/><circle cx="916.2" cy="1319.0" r="3.2" fill="#ffffff" stroke="#334155" stroke-width="2"/><circle cx="916.2" cy="1557.0" r="3.2" fill="#ffffff" stroke="#334155" stroke-width="2"/><rect x="890.1" y="1330.0" width="52.3" height="19" rx="5" fill="#f8fafc" fill-opacity=".96"/><text x="916.2" y="1344.0" text-anchor="middle" fill="#334155" font-family="ui-monospace,SFMono-Regular,monospace" font-size="11" font-weight="650">Radio0</text><rect x="893.5" y="1531.0" width="45.5" height="19" rx="5" fill="#f8fafc" fill-opacity=".96"/><text x="916.2" y="1545.0" text-anchor="middle" fill="#334155" font-family="ui-monospace,SFMono-Regular,monospace" font-size="11" font-weight="650">WiFi0</text><rect x="880.1" y="1434.0" width="72.4" height="19" rx="5" fill="#f8fafc" fill-opacity=".96"/><text x="916.2" y="1448.0" text-anchor="middle" fill="#334155" font-family="ui-monospace,SFMono-Regular,monospace" font-size="11" font-weight="500">Corp SSID</text><path id="link-10" d="M 1808.8 1319.0 V 1371.4 L 1808.8 1504.6 V 1557.0" fill="none" stroke="#334155" stroke-width="2.2" stroke-linecap="round" stroke-linejoin="round"  opacity=".86"/><circle cx="1808.8" cy="1319.0" r="3.2" fill="#ffffff" stroke="#334155" stroke-width="2"/><circle cx="1808.8" cy="1557.0" r="3.2" fill="#ffffff" stroke="#334155" stroke-width="2"/><rect x="1782.6" y="1330.0" width="52.3" height="19" rx="5" fill="#f8fafc" fill-opacity=".96"/><text x="1808.8" y="1344.0" text-anchor="middle" fill="#334155" font-family="ui-monospace,SFMono-Regular,monospace" font-size="11" font-weight="650">Radio0</text><rect x="1786.0" y="1531.0" width="45.5" height="19" rx="5" fill="#f8fafc" fill-opacity=".96"/><text x="1808.8" y="1545.0" text-anchor="middle" fill="#334155" font-family="ui-monospace,SFMono-Regular,monospace" font-size="11" font-weight="650">WiFi0</text><rect x="1772.6" y="1396.0" width="72.4" height="19" rx="5" fill="#f8fafc" fill-opacity=".96"/><text x="1808.8" y="1410.0" text-anchor="middle" fill="#334155" font-family="ui-monospace,SFMono-Regular,monospace" font-size="11" font-weight="500">Corp SSID</text></g><g id="nodes"><g id="access-a1" filter="url(#shadow)"><rect x="543.1" y="917.0" width="300.0" height="82.0" rx="14" fill="#ffffff" stroke="#0878b9" stroke-width="2"/><rect x="543.1" y="917.0" width="8" height="82.0" rx="4" fill="#0878b9"/><g class="device-icon device-icon-access-switch" transform="translate(583.1 958.0)" stroke="#0878b9" fill="none" stroke-width="1.6" stroke-linecap="round" stroke-linejoin="round"><path d="M-28 -9 -9 -20 28 -9 9 2Z" fill="#0878b9" fill-opacity=".14"/><path d="M-28 -9 9 2 28 -9v12L9 15-28 4Z" fill="#0878b9" fill-opacity=".07"/><path d="M-28 -9 -9 -20 28 -9 9 2Z"/><path d="M-28 -9v13L9 15 28 3v-12M9 2v13"/><path d="M-19 -4 3 3M-19 1 3 8"/><rect x="-15.5" y="-4.5" width="3.5" height="2.7" rx=".5"/><rect x="-10" y="-2.8" width="3.5" height="2.7" rx=".5"/><rect x="-4.5" y="-1.1" width="3.5" height="2.7" rx=".5"/><rect x="1" y=".6" width="3.5" height="2.7" rx=".5"/><circle cx="-20" cy="1.5" r="1.4"/><circle cx="-15" cy="3.2" r="1.4"/><circle cx="-10" cy="4.9" r="1.4"/><path d="M11 -10h9M12 -6h6"/></g><text x="621.1" y="951.0" fill="#0f172a" font-family="Inter,Segoe UI,sans-serif" font-size="15" font-weight="700">Building A Access 01</text><text x="621.1" y="972.0" fill="#64748b" font-family="ui-monospace,SFMono-Regular,monospace" font-size="11">ACCESS-SWITCH</text></g><g id="access-a2" filter="url(#shadow)"><rect x="989.4" y="917.0" width="300.0" height="82.0" rx="14" fill="#ffffff" stroke="#0878b9" stroke-width="2"/><rect x="989.4" y="917.0" width="8" height="82.0" rx="4" fill="#0878b9"/><g class="device-icon device-icon-access-switch" transform="translate(1029.4 958.0)" stroke="#0878b9" fill="none" stroke-width="1.6" stroke-linecap="round" stroke-linejoin="round"><path d="M-28 -9 -9 -20 28 -9 9 2Z" fill="#0878b9" fill-opacity=".14"/><path d="M-28 -9 9 2 28 -9v12L9 15-28 4Z" fill="#0878b9" fill-opacity=".07"/><path d="M-28 -9 -9 -20 28 -9 9 2Z"/><path d="M-28 -9v13L9 15 28 3v-12M9 2v13"/><path d="M-19 -4 3 3M-19 1 3 8"/><rect x="-15.5" y="-4.5" width="3.5" height="2.7" rx=".5"/><rect x="-10" y="-2.8" width="3.5" height="2.7" rx=".5"/><rect x="-4.5" y="-1.1" width="3.5" height="2.7" rx=".5"/><rect x="1" y=".6" width="3.5" height="2.7" rx=".5"/><circle cx="-20" cy="1.5" r="1.4"/><circle cx="-15" cy="3.2" r="1.4"/><circle cx="-10" cy="4.9" r="1.4"/><path d="M11 -10h9M12 -6h6"/></g><text x="1067.4" y="951.0" fill="#0f172a" font-family="Inter,Segoe UI,sans-serif" font-size="15" font-weight="700">Building A Access 02</text><text x="1067.4" y="972.0" fill="#64748b" font-family="ui-monospace,SFMono-Regular,monospace" font-size="11">ACCESS-SWITCH</text></g><g id="access-b1" filter="url(#shadow)"><rect x="1435.6" y="917.0" width="300.0" height="82.0" rx="14" fill="#ffffff" stroke="#0878b9" stroke-width="2"/><rect x="1435.6" y="917.0" width="8" height="82.0" rx="4" fill="#0878b9"/><g class="device-icon device-icon-access-switch" transform="translate(1475.6 958.0)" stroke="#0878b9" fill="none" stroke-width="1.6" stroke-linecap="round" stroke-linejoin="round"><path d="M-28 -9 -9 -20 28 -9 9 2Z" fill="#0878b9" fill-opacity=".14"/><path d="M-28 -9 9 2 28 -9v12L9 15-28 4Z" fill="#0878b9" fill-opacity=".07"/><path d="M-28 -9 -9 -20 28 -9 9 2Z"/><path d="M-28 -9v13L9 15 28 3v-12M9 2v13"/><path d="M-19 -4 3 3M-19 1 3 8"/><rect x="-15.5" y="-4.5" width="3.5" height="2.7" rx=".5"/><rect x="-10" y="-2.8" width="3.5" height="2.7" rx=".5"/><rect x="-4.5" y="-1.1" width="3.5" height="2.7" rx=".5"/><rect x="1" y=".6" width="3.5" height="2.7" rx=".5"/><circle cx="-20" cy="1.5" r="1.4"/><circle cx="-15" cy="3.2" r="1.4"/><circle cx="-10" cy="4.9" r="1.4"/><path d="M11 -10h9M12 -6h6"/></g><text x="1513.6" y="951.0" fill="#0f172a" font-family="Inter,Segoe UI,sans-serif" font-size="15" font-weight="700">Building B Access 01</text><text x="1513.6" y="972.0" fill="#64748b" font-family="ui-monospace,SFMono-Regular,monospace" font-size="11">ACCESS-SWITCH</text></g><g id="access-b2" filter="url(#shadow)"><rect x="1881.9" y="917.0" width="300.0" height="82.0" rx="14" fill="#ffffff" stroke="#0878b9" stroke-width="2"/><rect x="1881.9" y="917.0" width="8" height="82.0" rx="4" fill="#0878b9"/><g class="device-icon device-icon-access-switch" transform="translate(1921.9 958.0)" stroke="#0878b9" fill="none" stroke-width="1.6" stroke-linecap="round" stroke-linejoin="round"><path d="M-28 -9 -9 -20 28 -9 9 2Z" fill="#0878b9" fill-opacity=".14"/><path d="M-28 -9 9 2 28 -9v12L9 15-28 4Z" fill="#0878b9" fill-opacity=".07"/><path d="M-28 -9 -9 -20 28 -9 9 2Z"/><path d="M-28 -9v13L9 15 28 3v-12M9 2v13"/><path d="M-19 -4 3 3M-19 1 3 8"/><rect x="-15.5" y="-4.5" width="3.5" height="2.7" rx=".5"/><rect x="-10" y="-2.8" width="3.5" height="2.7" rx=".5"/><rect x="-4.5" y="-1.1" width="3.5" height="2.7" rx=".5"/><rect x="1" y=".6" width="3.5" height="2.7" rx=".5"/><circle cx="-20" cy="1.5" r="1.4"/><circle cx="-15" cy="3.2" r="1.4"/><circle cx="-10" cy="4.9" r="1.4"/><path d="M11 -10h9M12 -6h6"/></g><text x="1959.9" y="951.0" fill="#0f172a" font-family="Inter,Segoe UI,sans-serif" font-size="15" font-weight="700">Building B Access 02</text><text x="1959.9" y="972.0" fill="#64748b" font-family="ui-monospace,SFMono-Regular,monospace" font-size="11">ACCESS-SWITCH</text></g><g id="core-01" filter="url(#shadow)"><rect x="766.2" y="277.0" width="300.0" height="82.0" rx="14" fill="#ffffff" stroke="#0878b9" stroke-width="2"/><rect x="766.2" y="277.0" width="8" height="82.0" rx="4" fill="#0878b9"/><g class="device-icon device-icon-core-switch" transform="translate(806.2 318.0)" stroke="#0878b9" fill="none" stroke-width="1.6" stroke-linecap="round" stroke-linejoin="round"><path d="M-28 -9 -9 -20 28 -9 9 2Z" fill="#0878b9" fill-opacity=".14"/><path d="M-28 -9 9 2 28 -9v12L9 15-28 4Z" fill="#0878b9" fill-opacity=".07"/><path d="M-28 -9 -9 -20 28 -9 9 2Z"/><path d="M-28 -9v13L9 15 28 3v-12M9 2v13"/><path d="M-19 -4 3 3M-19 1 3 8"/><rect x="-15.5" y="-4.5" width="3.5" height="2.7" rx=".5"/><rect x="-10" y="-2.8" width="3.5" height="2.7" rx=".5"/><rect x="-4.5" y="-1.1" width="3.5" height="2.7" rx=".5"/><rect x="1" y=".6" width="3.5" height="2.7" rx=".5"/><circle cx="-20" cy="1.5" r="1.4"/><circle cx="-15" cy="3.2" r="1.4"/><circle cx="-10" cy="4.9" r="1.4"/><path d="M11 -10h9M12 -6h6"/></g><text x="844.2" y="311.0" fill="#0f172a" font-family="Inter,Segoe UI,sans-serif" font-size="15" font-weight="700">Campus Core 01</text><text x="844.2" y="332.0" fill="#64748b" font-family="ui-monospace,SFMono-Regular,monospace" font-size="11">CORE-SWITCH</text></g><g id="core-02" filter="url(#shadow)"><rect x="1658.8" y="277.0" width="300.0" height="82.0" rx="14" fill="#ffffff" stroke="#0878b9" stroke-width="2"/><rect x="1658.8" y="277.0" width="8" height="82.0" rx="4" fill="#0878b9"/><g class="device-icon device-icon-core-switch" transform="translate(1698.8 318.0)" stroke="#0878b9" fill="none" stroke-width="1.6" stroke-linecap="round" stroke-linejoin="round"><path d="M-28 -9 -9 -20 28 -9 9 2Z" fill="#0878b9" fill-opacity=".14"/><path d="M-28 -9 9 2 28 -9v12L9 15-28 4Z" fill="#0878b9" fill-opacity=".07"/><path d="M-28 -9 -9 -20 28 -9 9 2Z"/><path d="M-28 -9v13L9 15 28 3v-12M9 2v13"/><path d="M-19 -4 3 3M-19 1 3 8"/><rect x="-15.5" y="-4.5" width="3.5" height="2.7" rx=".5"/><rect x="-10" y="-2.8" width="3.5" height="2.7" rx=".5"/><rect x="-4.5" y="-1.1" width="3.5" height="2.7" rx=".5"/><rect x="1" y=".6" width="3.5" height="2.7" rx=".5"/><circle cx="-20" cy="1.5" r="1.4"/><circle cx="-15" cy="3.2" r="1.4"/><circle cx="-10" cy="4.9" r="1.4"/><path d="M11 -10h9M12 -6h6"/></g><text x="1736.8" y="311.0" fill="#0f172a" font-family="Inter,Segoe UI,sans-serif" font-size="15" font-weight="700">Campus Core 02</text><text x="1736.8" y="332.0" fill="#64748b" font-family="ui-monospace,SFMono-Regular,monospace" font-size="11">CORE-SWITCH</text></g><g id="dist-a" filter="url(#shadow)"><rect x="766.2" y="597.0" width="300.0" height="82.0" rx="14" fill="#ffffff" stroke="#0878b9" stroke-width="2"/><rect x="766.2" y="597.0" width="8" height="82.0" rx="4" fill="#0878b9"/><g class="device-icon device-icon-distribution-switch" transform="translate(806.2 638.0)" stroke="#0878b9" fill="none" stroke-width="1.6" stroke-linecap="round" stroke-linejoin="round"><path d="M-28 -9 -9 -20 28 -9 9 2Z" fill="#0878b9" fill-opacity=".14"/><path d="M-28 -9 9 2 28 -9v12L9 15-28 4Z" fill="#0878b9" fill-opacity=".07"/><path d="M-28 -9 -9 -20 28 -9 9 2Z"/><path d="M-28 -9v13L9 15 28 3v-12M9 2v13"/><path d="M-19 -4 3 3M-19 1 3 8"/><rect x="-15.5" y="-4.5" width="3.5" height="2.7" rx=".5"/><rect x="-10" y="-2.8" width="3.5" height="2.7" rx=".5"/><rect x="-4.5" y="-1.1" width="3.5" height="2.7" rx=".5"/><rect x="1" y=".6" width="3.5" height="2.7" rx=".5"/><circle cx="-20" cy="1.5" r="1.4"/><circle cx="-15" cy="3.2" r="1.4"/><circle cx="-10" cy="4.9" r="1.4"/><path d="M11 -10h9M12 -6h6"/></g><text x="844.2" y="631.0" fill="#0f172a" font-family="Inter,Segoe UI,sans-serif" font-size="15" font-weight="700">Building A Distribution</text><text x="844.2" y="652.0" fill="#64748b" font-family="ui-monospace,SFMono-Regular,monospace" font-size="11">DISTRIBUTION-SWITCH</text></g><g id="dist-b" filter="url(#shadow)"><rect x="1658.8" y="597.0" width="300.0" height="82.0" rx="14" fill="#ffffff" stroke="#0878b9" stroke-width="2"/><rect x="1658.8" y="597.0" width="8" height="82.0" rx="4" fill="#0878b9"/><g class="device-icon device-icon-distribution-switch" transform="translate(1698.8 638.0)" stroke="#0878b9" fill="none" stroke-width="1.6" stroke-linecap="round" stroke-linejoin="round"><path d="M-28 -9 -9 -20 28 -9 9 2Z" fill="#0878b9" fill-opacity=".14"/><path d="M-28 -9 9 2 28 -9v12L9 15-28 4Z" fill="#0878b9" fill-opacity=".07"/><path d="M-28 -9 -9 -20 28 -9 9 2Z"/><path d="M-28 -9v13L9 15 28 3v-12M9 2v13"/><path d="M-19 -4 3 3M-19 1 3 8"/><rect x="-15.5" y="-4.5" width="3.5" height="2.7" rx=".5"/><rect x="-10" y="-2.8" width="3.5" height="2.7" rx=".5"/><rect x="-4.5" y="-1.1" width="3.5" height="2.7" rx=".5"/><rect x="1" y=".6" width="3.5" height="2.7" rx=".5"/><circle cx="-20" cy="1.5" r="1.4"/><circle cx="-15" cy="3.2" r="1.4"/><circle cx="-10" cy="4.9" r="1.4"/><path d="M11 -10h9M12 -6h6"/></g><text x="1736.8" y="631.0" fill="#0f172a" font-family="Inter,Segoe UI,sans-serif" font-size="15" font-weight="700">Building B Distribution</text><text x="1736.8" y="652.0" fill="#64748b" font-family="ui-monospace,SFMono-Regular,monospace" font-size="11">DISTRIBUTION-SWITCH</text></g><g id="users-a" filter="url(#shadow)"><rect x="796.2" y="1557.0" width="240.0" height="82.0" rx="14" fill="#ffffff" stroke="#475569" stroke-width="2"/><rect x="796.2" y="1557.0" width="8" height="82.0" rx="4" fill="#475569"/><g class="device-icon device-icon-users" transform="translate(836.2 1598.0)" stroke="#475569" fill="none" stroke-width="1.6" stroke-linecap="round" stroke-linejoin="round"><rect x="-25" y="-18" width="50" height="32" rx="4" fill="#475569" fill-opacity=".08"/><rect x="-25" y="-18" width="50" height="32" rx="4"/><path d="M-12 21h24M0 14v7"/></g><text x="874.2" y="1591.0" fill="#0f172a" font-family="Inter,Segoe UI,sans-serif" font-size="15" font-weight="700">Building A Users</text><text x="874.2" y="1612.0" fill="#64748b" font-family="ui-monospace,SFMono-Regular,monospace" font-size="11">ENDPOINT</text></g><g id="users-b" filter="url(#shadow)"><rect x="1688.8" y="1557.0" width="240.0" height="82.0" rx="14" fill="#ffffff" stroke="#475569" stroke-width="2"/><rect x="1688.8" y="1557.0" width="8" height="82.0" rx="4" fill="#475569"/><g class="device-icon device-icon-users" transform="translate(1728.8 1598.0)" stroke="#475569" fill="none" stroke-width="1.6" stroke-linecap="round" stroke-linejoin="round"><rect x="-25" y="-18" width="50" height="32" rx="4" fill="#475569" fill-opacity=".08"/><rect x="-25" y="-18" width="50" height="32" rx="4"/><path d="M-12 21h24M0 14v7"/></g><text x="1766.8" y="1591.0" fill="#0f172a" font-family="Inter,Segoe UI,sans-serif" font-size="15" font-weight="700">Building B Users</text><text x="1766.8" y="1612.0" fill="#64748b" font-family="ui-monospace,SFMono-Regular,monospace" font-size="11">ENDPOINT</text></g><g id="wlan-a" filter="url(#shadow)"><rect x="796.2" y="1237.0" width="240.0" height="82.0" rx="14" fill="#ffffff" stroke="#0878b9" stroke-width="2"/><rect x="796.2" y="1237.0" width="8" height="82.0" rx="4" fill="#0878b9"/><g class="device-icon device-icon-wireless" transform="translate(836.2 1278.0)" stroke="#0878b9" fill="none" stroke-width="1.6" stroke-linecap="round" stroke-linejoin="round"><circle cx="0" cy="12" r="3"/><path d="M-9 5a13 13 0 0 1 18 0M-16-2a23 23 0 0 1 32 0M-23-9a33 33 0 0 1 46 0"/></g><text x="874.2" y="1271.0" fill="#0f172a" font-family="Inter,Segoe UI,sans-serif" font-size="15" font-weight="700">Building A Wi-Fi</text><text x="874.2" y="1292.0" fill="#64748b" font-family="ui-monospace,SFMono-Regular,monospace" font-size="11">WIRELESS</text></g><g id="wlan-b" filter="url(#shadow)"><rect x="1688.8" y="1237.0" width="240.0" height="82.0" rx="14" fill="#ffffff" stroke="#0878b9" stroke-width="2"/><rect x="1688.8" y="1237.0" width="8" height="82.0" rx="4" fill="#0878b9"/><g class="device-icon device-icon-wireless" transform="translate(1728.8 1278.0)" stroke="#0878b9" fill="none" stroke-width="1.6" stroke-linecap="round" stroke-linejoin="round"><circle cx="0" cy="12" r="3"/><path d="M-9 5a13 13 0 0 1 18 0M-16-2a23 23 0 0 1 32 0M-23-9a33 33 0 0 1 46 0"/></g><text x="1766.8" y="1271.0" fill="#0f172a" font-family="Inter,Segoe UI,sans-serif" font-size="15" font-weight="700">Building B Wi-Fi</text><text x="1766.8" y="1292.0" fill="#64748b" font-family="ui-monospace,SFMono-Regular,monospace" font-size="11">WIRELESS</text></g></g></svg>