<svg class="theme-light" xmlns="http://www.w3.org/2000/svg" width="2400" height="1865" viewBox="0 0 2400 1865" role="img" shape-rendering="geometricPrecision"><defs><filter id="shadow" x="-20%" y="-20%" width="140%" height="150%"><feDropShadow dx="0" dy="4" stdDeviation="6" flood-color="#0f172a" flood-opacity=".14"/></filter></defs><rect width="100%" height="100%" fill="#f8fafc"/><rect x="0" y="0" width="2400" height="112" fill="#0f172a"/><text x="70" y="56" fill="#f8fafc" font-family="Inter,Segoe UI,sans-serif" font-size="30" font-weight="700">Internet Edge and DMZ</text><text x="70" y="84" fill="#94a3b8" font-family="Inter,Segoe UI,sans-serif" font-size="15">Dual ISP edge with firewall and public services</text><text x="2330" y="66" text-anchor="end" fill="#38bdf8" font-family="ui-monospace,SFMono-Regular,monospace" font-size="14">SECURITY EDGE</text><rect x="42" y="197.0" width="2316.0" height="250.0" rx="20" fill="#f1f5f9" stroke="#e2e8f0"/><rect x="42" y="517.0" width="2316.0" height="250.0" rx="20" fill="#eff6ff" stroke="#e2e8f0"/><rect x="42" y="837.0" width="2316.0" height="250.0" rx="20" fill="#fef2f2" stroke="#e2e8f0"/><rect x="42" y="1157.0" width="2316.0" height="250.0" rx="20" fill="#eff6ff" stroke="#e2e8f0"/><rect x="42" y="1477.0" width="2316.0" height="250.0" rx="20" fill="#f0fdf4" stroke="#e2e8f0"/><g id="row-headings"><g class="row-heading row-heading-internet"><path d="M78 250.0 H410" stroke="#cbd5e1" stroke-width="1"/><text x="78" y="235.0" fill="#64748b" font-family="Inter,Segoe UI,sans-serif" font-size="12" font-weight="700" letter-spacing="1.8">INTERNET LAYER · 1 DEVICES</text></g><g class="row-heading row-heading-edge-router"><path d="M78 570.0 H410" stroke="#cbd5e1" stroke-width="1"/><text x="78" y="555.0" fill="#64748b" font-family="Inter,Segoe UI,sans-serif" font-size="12" font-weight="700" letter-spacing="1.8">EDGE ROUTER LAYER · 2 DEVICES</text></g><g class="row-heading row-heading-firewall"><path d="M78 890.0 H410" stroke="#cbd5e1" stroke-width="1"/><text x="78" y="875.0" fill="#64748b" font-family="Inter,Segoe UI,sans-serif" font-size="12" font-weight="700" letter-spacing="1.8">FIREWALL LAYER · 1 DEVICES</text></g><g class="row-heading row-heading-access-switch"><path d="M78 1210.0 H410" stroke="#cbd5e1" stroke-width="1"/><text x="78" y="1195.0" fill="#64748b" font-family="Inter,Segoe UI,sans-serif" font-size="12" font-weight="700" letter-spacing="1.8">ACCESS SWITCH LAYER · 1 DEVICES</text></g><g class="row-heading row-heading-server"><path d="M78 1530.0 H410" stroke="#cbd5e1" stroke-width="1"/><text x="78" y="1515.0" fill="#64748b" font-family="Inter,Segoe UI,sans-serif" font-size="12" font-weight="700" letter-spacing="1.8">SERVER LAYER · 2 DEVICES</text></g></g><g id="links"><g id="link-1" data-netdiag-kind="link"><path d="M 1264.5 359.0 V 411.4 L 916.2 544.6 V 597.0" fill="none" stroke="#64748b" stroke-width="2.2" stroke-linecap="round" stroke-linejoin="round" stroke-dasharray="6 5" opacity=".86"/><circle cx="1264.5" cy="359.0" r="3.2" fill="#ffffff" stroke="#64748b" stroke-width="2"/><circle cx="916.2" cy="597.0" r="3.2" fill="#ffffff" stroke="#64748b" stroke-width="2"/></g><g id="link-2" data-netdiag-kind="link"><path d="M 1460.5 359.0 V 411.4 L 1808.8 544.6 V 597.0" fill="none" stroke="#64748b" stroke-width="2.2" stroke-linecap="round" stroke-linejoin="round" stroke-dasharray="6 5" opacity=".86"/><circle cx="1460.5" cy="359.0" r="3.2" fill="#ffffff" stroke="#64748b" stroke-width="2"/><circle cx="1808.8" cy="597.0" r="3.2" fill="#ffffff" stroke="#64748b" stroke-width="2"/></g><g id="link-3" data-netdiag-kind="link"><path d="M 916.2 679.0 V 731.4 L 1244.5 864.6 V 917.0" fill="none" stroke="#dc2626" stroke-width="2.2" stroke-linecap="round" stroke-linejoin="round"  opacity=".86"/><circle cx="916.2" cy="679.0" r="3.2" fill="#ffffff" stroke="#dc2626" stroke-width="2"/><circle cx="1244.5" cy="917.0" r="3.2" fill="#ffffff" stroke="#dc2626" stroke-width="2"/></g><g id="link-4" data-netdiag-kind="link"><path d="M 1808.8 679.0 V 731.4 L 1480.5 864.6 V 917.0" fill="none" stroke="#dc2626" stroke-width="2.2" stroke-linecap="round" stroke-linejoin="round"  opacity=".86"/><circle cx="1808.8" cy="679.0" r="3.2" fill="#ffffff" stroke="#dc2626" stroke-width="2"/><circle cx="1480.5" cy="917.0" r="3.2" fill="#ffffff" stroke="#dc2626" stroke-width="2"/></g><g id="link-5" data-netdiag-kind="link"><path d="M 1362.5 999.0 V 1051.4 L 1362.5 1184.6 V 1237.0" fill="none" stroke="#dc2626" stroke-width="2.2" stroke-linecap="round" stroke-linejoin="round"  opacity=".86"/><circle cx="1362.5" cy="999.0" r="3.2" fill="#ffffff" stroke="#dc2626" stroke-width="2"/><circle cx="1362.5" cy="1237.0" r="3.2" fill="#ffffff" stroke="#dc2626" stroke-width="2"/></g><g id="link-6" data-netdiag-kind="link"><path d="M 1234.5 1319.0 V 1371.4 L 916.2 1504.6 V 1557.0" fill="none" stroke="#334155" stroke-width="2.2" stroke-linecap="round" stroke-linejoin="round"  opacity=".86"/><circle cx="1234.5" cy="1319.0" r="3.2" fill="#ffffff" stroke="#334155" stroke-width="2"/><circle cx="916.2" cy="1557.0" r="3.2" fill="#ffffff" stroke="#334155" stroke-width="2"/></g><g id="link-7" data-netdiag-kind="link"><path d="M 1490.5 1319.0 V 1371.4 L 1808.8 1504.6 V 1557.0" fill="none" stroke="#334155" stroke-width="2.2" stroke-linecap="round" stroke-linejoin="round"  opacity=".86"/><circle cx="1490.5" cy="1319.0" r="3.2" fill="#ffffff" stroke="#334155" stroke-width="2"/><circle cx="1808.8" cy="1557.0" r="3.2" fill="#ffffff" stroke="#334155" stroke-width="2"/></g></g><g id="nodes"><g id="dmz-switch" data-netdiag-kind="node" filter="url(#shadow)"><rect x="1212.5" y="1237.0" width="300.0" height="82.0" rx="14" fill="#ffffff" stroke="#0878b9" stroke-width="2"/><rect x="1212.5" y="1237.0" width="8" height="82.0" rx="4" fill="#0878b9"/><g class="device-icon device-icon-access-switch" transform="translate(1252.5 1278.0)" stroke="#0878b9" fill="none" stroke-width="1.6" stroke-linecap="round" stroke-linejoin="round"><path d="M-28 -9 -9 -20 28 -9 9 2Z" fill="#0878b9" fill-opacity=".14"/><path d="M-28 -9 9 2 28 -9v12L9 15-28 4Z" fill="#0878b9" fill-opacity=".07"/><path d="M-28 -9 -9 -20 28 -9 9 2Z"/><path d="M-28 -9v13L9 15 28 3v-12M9 2v13"/><path d="M-19 -4 3 3M-19 1 3 8"/><rect x="-15.5" y="-4.5" width="3.5" height="2.7" rx=".5"/><rect x="-10" y="-2.8" width="3.5" height="2.7" rx=".5"/><rect x="-4.5" y="-1.1" width="3.5" height="2.7" rx=".5"/><rect x="1" y=".6" width="3.5" height="2.7" rx=".5"/><circle cx="-20" cy="1.5" r="1.4"/><circle cx="-15" cy="3.2" r="1.4"/><circle cx="-10" cy="4.9" r="1.4"/><path d="M11 -10h9M12 -6h6"/></g><text class="node-title" x="1290.5" y="1271.0" fill="#0f172a" font-family="Inter,Segoe UI,Arial,sans-serif" font-size="15" font-weight="700">DMZ Switch</text><text x="1290.5" y="1292.0" fill="#64748b" font-family="ui-monospace,SFMono-Regular,monospace" font-size="11">ACCESS-SWITCH</text></g><g id="edge-01" data-netdiag-kind="node" filter="url(#shadow)"><rect x="776.2" y="597.0" width="280.0" height="82.0" rx="14" fill="#fffbeb" stroke="#d97706" stroke-width="2"/><rect x="776.2" y="597.0" width="8" height="82.0" rx="4" fill="#d97706"/><g class="device-icon device-icon-router" transform="translate(816.2 638.0)" stroke="#d97706" fill="none" stroke-width="1.6" stroke-linecap="round" stroke-linejoin="round"><ellipse cx="0" cy="0" rx="27" ry="18" fill="#d97706" fill-opacity=".12"/><ellipse cx="0" cy="0" rx="27" ry="18"/><path d="M-14 0h28M8-6l6 6-6 6M14 0H-14M-8-6l-6 6 6 6"/><path d="M0-13v26M-6-7l6-6 6 6M-6 7l6 6 6-6"/></g><text class="node-title" x="854.2" y="631.0" fill="#0f172a" font-family="Inter,Segoe UI,Arial,sans-serif" font-size="15" font-weight="700">Internet Router 01</text><text x="854.2" y="652.0" fill="#64748b" font-family="ui-monospace,SFMono-Regular,monospace" font-size="11">EDGE-ROUTER</text></g><g id="edge-02" data-netdiag-kind="node" filter="url(#shadow)"><rect x="1668.8" y="597.0" width="280.0" height="82.0" rx="14" fill="#fffbeb" stroke="#d97706" stroke-width="2"/><rect x="1668.8" y="597.0" width="8" height="82.0" rx="4" fill="#d97706"/><g class="device-icon device-icon-router" transform="translate(1708.8 638.0)" stroke="#d97706" fill="none" stroke-width="1.6" stroke-linecap="round" stroke-linejoin="round"><ellipse cx="0" cy="0" rx="27" ry="18" fill="#d97706" fill-opacity=".12"/><ellipse cx="0" cy="0" rx="27" ry="18"/><path d="M-14 0h28M8-6l6 6-6 6M14 0H-14M-8-6l-6 6 6 6"/><path d="M0-13v26M-6-7l6-6 6 6M-6 7l6 6 6-6"/></g><text class="node-title" x="1746.8" y="631.0" fill="#0f172a" font-family="Inter,Segoe UI,Arial,sans-serif" font-size="15" font-weight="700">Internet Router 02</text><text x="1746.8" y="652.0" fill="#64748b" font-family="ui-monospace,SFMono-Regular,monospace" font-size="11">EDGE-ROUTER</text></g><g id="firewall-01" data-netdiag-kind="node" filter="url(#shadow)"><rect x="1222.5" y="917.0" width="280.0" height="82.0" rx="14" fill="#ffffff" stroke="#dc2626" stroke-width="2"/><rect x="1222.5" y="917.0" width="8" height="82.0" rx="4" fill="#dc2626"/><g class="device-icon device-icon-firewall" transform="translate(1262.5 958.0)" stroke="#dc2626" fill="none" stroke-width="1.6" stroke-linecap="round" stroke-linejoin="round"><g stroke="#dc2626"><rect x="-27" y="-21" width="54" height="42" rx="4" fill="#dc2626" fill-opacity=".10"/><path d="M-27-7h54M-27 7h54M-16-21v14M7-21v14M-5-7V7M18-7V7M-16 7v14M7 7v14"/></g></g><text class="node-title" x="1300.5" y="951.0" fill="#0f172a" font-family="Inter,Segoe UI,Arial,sans-serif" font-size="15" font-weight="700">Perimeter Firewall</text><text x="1300.5" y="972.0" fill="#64748b" font-family="ui-monospace,SFMono-Regular,monospace" font-size="11">FIREWALL</text></g><g id="internet" data-netdiag-kind="node" filter="url(#shadow)"><rect x="1242.5" y="277.0" width="240.0" height="82.0" rx="14" fill="#ffffff" stroke="#64748b" stroke-width="2"/><rect x="1242.5" y="277.0" width="8" height="82.0" rx="4" fill="#64748b"/><g class="device-icon device-icon-internet" transform="translate(1282.5 318.0)" stroke="#64748b" fill="none" stroke-width="1.6" stroke-linecap="round" stroke-linejoin="round"><path d="M-24 13c-8 0-10-12-3-16 1-11 15-15 22-8 8-9 25-4 25 8 10 1 11 16 1 16Z" fill="#64748b" fill-opacity=".13" stroke="#64748b"/><path d="M-18 4h36M-10-3h20"/></g><text class="node-title" x="1320.5" y="311.0" fill="#0f172a" font-family="Inter,Segoe UI,Arial,sans-serif" font-size="15" font-weight="700">Public Internet</text><text x="1320.5" y="332.0" fill="#64748b" font-family="ui-monospace,SFMono-Regular,monospace" font-size="11">INTERNET</text></g><g id="web-01" data-netdiag-kind="node" filter="url(#shadow)"><rect x="776.2" y="1557.0" width="280.0" height="82.0" rx="14" fill="#ffffff" stroke="#16a34a" stroke-width="2"/><rect x="776.2" y="1557.0" width="8" height="82.0" rx="4" fill="#16a34a"/><g class="device-icon device-icon-server" transform="translate(816.2 1598.0)" stroke="#16a34a" fill="none" stroke-width="1.6" stroke-linecap="round" stroke-linejoin="round"><rect x="-17" y="-23" width="34" height="46" rx="5" fill="#16a34a" fill-opacity=".08"/><rect x="-17" y="-23" width="34" height="46" rx="5"/><path d="M-10 -13h20M-10 -3h20M-10 7h20M-10 17h12"/><circle cx="11" cy="17" r="2"/></g><text class="node-title" x="854.2" y="1591.0" fill="#0f172a" font-family="Inter,Segoe UI,Arial,sans-serif" font-size="15" font-weight="700">Public Web 01</text><text x="854.2" y="1612.0" fill="#64748b" font-family="ui-monospace,SFMono-Regular,monospace" font-size="11">SERVER</text></g><g id="web-02" data-netdiag-kind="node" filter="url(#shadow)"><rect x="1668.8" y="1557.0" width="280.0" height="82.0" rx="14" fill="#ffffff" stroke="#16a34a" stroke-width="2"/><rect x="1668.8" y="1557.0" width="8" height="82.0" rx="4" fill="#16a34a"/><g class="device-icon device-icon-server" transform="translate(1708.8 1598.0)" stroke="#16a34a" fill="none" stroke-width="1.6" stroke-linecap="round" stroke-linejoin="round"><rect x="-17" y="-23" width="34" height="46" rx="5" fill="#16a34a" fill-opacity=".08"/><rect x="-17" y="-23" width="34" height="46" rx="5"/><path d="M-10 -13h20M-10 -3h20M-10 7h20M-10 17h12"/><circle cx="11" cy="17" r="2"/></g><text class="node-title" x="1746.8" y="1591.0" fill="#0f172a" font-family="Inter,Segoe UI,Arial,sans-serif" font-size="15" font-weight="700">Public Web 02</text><text x="1746.8" y="1612.0" fill="#64748b" font-family="ui-monospace,SFMono-Regular,monospace" font-size="11">SERVER</text></g></g><g id="link-annotations" pointer-events="none"><g id="link-annotation-1" class="link-annotation"><rect class="interface-label-badge" x="1223.2" y="382.0" width="51.5" height="21.0" rx="5.0" fill="#ffffff" stroke="#cbd5e1" stroke-width="1"/><text class="interface-label-text" x="1249.0" y="398.0" text-anchor="middle" fill="#334155" font-family="ui-monospace,SFMono-Regular,monospace" font-size="11" font-weight="650">ISP-A</text><rect class="interface-label-badge" x="893.1" y="508.4" width="51.5" height="21.0" rx="5.0" fill="#ffffff" stroke="#cbd5e1" stroke-width="1"/><text class="interface-label-text" x="918.9" y="524.4" text-anchor="middle" fill="#334155" font-family="ui-monospace,SFMono-Regular,monospace" font-size="11" font-weight="650">Te0/0</text><rect class="label-mask" x="1038.8" y="434.0" width="158.9" height="23" rx="5" fill="#f8fafc" stroke="#f8fafc" stroke-width="4"/><text x="1118.2" y="450.0" text-anchor="middle" fill="#64748b" font-family="ui-monospace,SFMono-Regular,monospace" font-size="11" font-weight="500">CID ISP-A-77881 · 10G</text></g><g id="link-annotation-2" class="link-annotation"><rect class="interface-label-badge" x="1437.4" y="415.6" width="51.5" height="21.0" rx="5.0" fill="#ffffff" stroke="#cbd5e1" stroke-width="1"/><text class="interface-label-text" x="1463.2" y="431.6" text-anchor="middle" fill="#334155" font-family="ui-monospace,SFMono-Regular,monospace" font-size="11" font-weight="650">ISP-B</text><rect class="interface-label-badge" x="1767.5" y="542.0" width="51.5" height="21.0" rx="5.0" fill="#ffffff" stroke="#cbd5e1" stroke-width="1"/><text class="interface-label-text" x="1793.2" y="558.0" text-anchor="middle" fill="#334155" font-family="ui-monospace,SFMono-Regular,monospace" font-size="11" font-weight="650">Te0/0</text><rect class="label-mask" x="1555.2" y="453.0" width="158.9" height="23" rx="5" fill="#f8fafc" stroke="#f8fafc" stroke-width="4"/><text x="1634.6" y="469.0" text-anchor="middle" fill="#64748b" font-family="ui-monospace,SFMono-Regular,monospace" font-size="11" font-weight="500">CID ISP-B-88442 · 10G</text></g><g id="link-annotation-3" class="link-annotation"><rect class="interface-label-badge" x="890.5" y="734.8" width="51.5" height="21.0" rx="5.0" fill="#ffffff" stroke="#cbd5e1" stroke-width="1"/><text class="interface-label-text" x="916.3" y="750.8" text-anchor="middle" fill="#334155" font-family="ui-monospace,SFMono-Regular,monospace" font-size="11" font-weight="650">Te0/1</text><rect class="interface-label-badge" x="1201.8" y="862.6" width="58.3" height="21.0" rx="5.0" fill="#ffffff" stroke="#cbd5e1" stroke-width="1"/><text class="interface-label-text" x="1231.0" y="878.6" text-anchor="middle" fill="#334155" font-family="ui-monospace,SFMono-Regular,monospace" font-size="11" font-weight="650">Eth0/0</text><rect class="label-mask" x="1087.6" y="792.0" width="38.1" height="23" rx="5" fill="#f8fafc" stroke="#f8fafc" stroke-width="4"/><text x="1106.6" y="808.0" text-anchor="middle" fill="#dc2626" font-family="ui-monospace,SFMono-Regular,monospace" font-size="11" font-weight="500">BGP</text></g><g id="link-annotation-4" class="link-annotation"><rect class="interface-label-badge" x="1769.4" y="701.4" width="51.5" height="21.0" rx="5.0" fill="#ffffff" stroke="#cbd5e1" stroke-width="1"/><text class="interface-label-text" x="1795.2" y="717.4" text-anchor="middle" fill="#334155" font-family="ui-monospace,SFMono-Regular,monospace" font-size="11" font-weight="650">Te0/1</text><rect class="interface-label-badge" x="1451.4" y="829.2" width="58.3" height="21.0" rx="5.0" fill="#ffffff" stroke="#cbd5e1" stroke-width="1"/><text class="interface-label-text" x="1480.5" y="845.2" text-anchor="middle" fill="#334155" font-family="ui-monospace,SFMono-Regular,monospace" font-size="11" font-weight="650">Eth0/1</text><rect class="label-mask" x="1651.8" y="754.0" width="38.1" height="23" rx="5" fill="#f8fafc" stroke="#f8fafc" stroke-width="4"/><text x="1670.9" y="770.0" text-anchor="middle" fill="#dc2626" font-family="ui-monospace,SFMono-Regular,monospace" font-size="11" font-weight="500">BGP</text></g><g id="link-annotation-5" class="link-annotation"><rect class="interface-label-badge" x="1315.4" y="1013.9" width="58.3" height="21.0" rx="5.0" fill="#ffffff" stroke="#cbd5e1" stroke-width="1"/><text class="interface-label-text" x="1344.5" y="1029.9" text-anchor="middle" fill="#334155" font-family="ui-monospace,SFMono-Regular,monospace" font-size="11" font-weight="650">Eth0/2</text><rect class="interface-label-badge" x="1312.0" y="1190.1" width="65.0" height="21.0" rx="5.0" fill="#ffffff" stroke="#cbd5e1" stroke-width="1"/><text class="interface-label-text" x="1344.5" y="1206.1" text-anchor="middle" fill="#334155" font-family="ui-monospace,SFMono-Regular,monospace" font-size="11" font-weight="650">Eth1/49</text><rect class="label-mask" x="1343.4" y="1093.0" width="38.1" height="23" rx="5" fill="#f8fafc" stroke="#f8fafc" stroke-width="4"/><text x="1362.5" y="1109.0" text-anchor="middle" fill="#dc2626" font-family="ui-monospace,SFMono-Regular,monospace" font-size="11" font-weight="500">DMZ</text></g><g id="link-annotation-6" class="link-annotation"><rect class="interface-label-badge" x="1192.8" y="1341.1" width="58.3" height="21.0" rx="5.0" fill="#ffffff" stroke="#cbd5e1" stroke-width="1"/><text class="interface-label-text" x="1221.9" y="1357.1" text-anchor="middle" fill="#334155" font-family="ui-monospace,SFMono-Regular,monospace" font-size="11" font-weight="650">Eth1/1</text><rect class="interface-label-badge" x="885.8" y="1469.7" width="58.3" height="21.0" rx="5.0" fill="#ffffff" stroke="#cbd5e1" stroke-width="1"/><text class="interface-label-text" x="914.9" y="1485.7" text-anchor="middle" fill="#334155" font-family="ui-monospace,SFMono-Regular,monospace" font-size="11" font-weight="650">Eth0/0</text><rect class="label-mask" x="1014.1" y="1432.0" width="71.7" height="23" rx="5" fill="#f8fafc" stroke="#f8fafc" stroke-width="4"/><text x="1049.9" y="1448.0" text-anchor="middle" fill="#334155" font-family="ui-monospace,SFMono-Regular,monospace" font-size="11" font-weight="500">VLAN 200</text></g><g id="link-annotation-7" class="link-annotation"><rect class="interface-label-badge" x="1460.1" y="1374.3" width="58.3" height="21.0" rx="5.0" fill="#ffffff" stroke="#cbd5e1" stroke-width="1"/><text class="interface-label-text" x="1489.2" y="1390.3" text-anchor="middle" fill="#334155" font-family="ui-monospace,SFMono-Regular,monospace" font-size="11" font-weight="650">Eth1/2</text><rect class="interface-label-badge" x="1767.0" y="1502.9" width="58.3" height="21.0" rx="5.0" fill="#ffffff" stroke="#cbd5e1" stroke-width="1"/><text class="interface-label-text" x="1796.2" y="1518.9" text-anchor="middle" fill="#334155" font-family="ui-monospace,SFMono-Regular,monospace" font-size="11" font-weight="650">Eth0/0</text><rect class="label-mask" x="1588.3" y="1394.0" width="71.7" height="23" rx="5" fill="#f8fafc" stroke="#f8fafc" stroke-width="4"/><text x="1624.2" y="1410.0" text-anchor="middle" fill="#334155" font-family="ui-monospace,SFMono-Regular,monospace" font-size="11" font-weight="500">VLAN 200</text></g></g></svg>