<svg class="theme-light" xmlns="http://www.w3.org/2000/svg" width="2415" height="1865" viewBox="0 0 2415 1865" role="img" shape-rendering="geometricPrecision"><defs><filter id="shadow" x="-20%" y="-20%" width="140%" height="150%"><feDropShadow dx="0" dy="4" stdDeviation="6" flood-color="#0f172a" flood-opacity=".14"/></filter></defs><rect width="100%" height="100%" fill="#f8fafc"/><rect x="0" y="0" width="2415" height="112" fill="#0f172a"/><text x="70" y="56" fill="#f8fafc" font-family="Inter,Segoe UI,sans-serif" font-size="30" font-weight="700">Campus Wireless LAN</text><text x="70" y="84" fill="#94a3b8" font-family="Inter,Segoe UI,sans-serif" font-size="15">Routed core with access switches, APs, and wireless clients</text><text x="2345" y="66" text-anchor="end" fill="#38bdf8" font-family="ui-monospace,SFMono-Regular,monospace" font-size="14">WIRELESS LAN</text><rect x="42" y="197.0" width="2331.0" height="250.0" rx="20" fill="#eff6ff" stroke="#e2e8f0"/><rect x="42" y="517.0" width="2331.0" height="250.0" rx="20" fill="#eff6ff" stroke="#e2e8f0"/><rect x="42" y="837.0" width="2331.0" height="250.0" rx="20" fill="#eff6ff" stroke="#e2e8f0"/><rect x="42" y="1157.0" width="2331.0" height="250.0" rx="20" fill="#eff6ff" stroke="#e2e8f0"/><rect x="42" y="1477.0" width="2331.0" height="250.0" rx="20" fill="#f8fafc" stroke="#e2e8f0"/><g id="row-headings"><g class="row-heading row-heading-router"><path d="M78 250.0 H410" stroke="#cbd5e1" stroke-width="1"/><text x="78" y="235.0" fill="#64748b" font-family="Inter,Segoe UI,sans-serif" font-size="12" font-weight="700" letter-spacing="1.8">ROUTER LAYER · 1 DEVICES</text></g><g class="row-heading row-heading-core-switch"><path d="M78 570.0 H410" stroke="#cbd5e1" stroke-width="1"/><text x="78" y="555.0" fill="#64748b" font-family="Inter,Segoe UI,sans-serif" font-size="12" font-weight="700" letter-spacing="1.8">CORE SWITCH LAYER · 1 DEVICES</text></g><g class="row-heading row-heading-access-switch"><path d="M78 890.0 H410" stroke="#cbd5e1" stroke-width="1"/><text x="78" y="875.0" fill="#64748b" font-family="Inter,Segoe UI,sans-serif" font-size="12" font-weight="700" letter-spacing="1.8">ACCESS SWITCH LAYER · 3 DEVICES</text></g><g class="row-heading row-heading-wireless"><path d="M78 1210.0 H410" stroke="#cbd5e1" stroke-width="1"/><text x="78" y="1195.0" fill="#64748b" font-family="Inter,Segoe UI,sans-serif" font-size="12" font-weight="700" letter-spacing="1.8">WIRELESS LAYER · 3 DEVICES</text></g><g class="row-heading row-heading-endpoint"><path d="M78 1530.0 H410" stroke="#cbd5e1" stroke-width="1"/><text x="78" y="1515.0" fill="#64748b" font-family="Inter,Segoe UI,sans-serif" font-size="12" font-weight="700" letter-spacing="1.8">ENDPOINT LAYER · 3 DEVICES</text></g></g><g id="links"><g id="link-1" data-netdiag-kind="link"><path d="M 1370.0 359.0 V 411.4 L 1370.0 544.6 V 597.0" fill="none" stroke="#334155" stroke-width="2.2" stroke-linecap="round" stroke-linejoin="round"  opacity=".86"/><circle cx="1370.0" cy="359.0" r="3.2" fill="#ffffff" stroke="#334155" stroke-width="2"/><circle cx="1370.0" cy="597.0" r="3.2" fill="#ffffff" stroke="#334155" stroke-width="2"/></g><g id="link-2" data-netdiag-kind="link"><path d="M 1242.0 679.0 V 731.4 L 770.0 864.6 V 917.0" fill="none" stroke="#334155" stroke-width="2.2" stroke-linecap="round" stroke-linejoin="round"  opacity=".86"/><circle cx="1242.0" cy="679.0" r="3.2" fill="#ffffff" stroke="#334155" stroke-width="2"/><circle cx="770.0" cy="917.0" r="3.2" fill="#ffffff" stroke="#334155" stroke-width="2"/></g><g id="link-3" data-netdiag-kind="link"><path d="M 1370.0 679.0 V 731.4 L 1370.0 864.6 V 917.0" fill="none" stroke="#334155" stroke-width="2.2" stroke-linecap="round" stroke-linejoin="round"  opacity=".86"/><circle cx="1370.0" cy="679.0" r="3.2" fill="#ffffff" stroke="#334155" stroke-width="2"/><circle cx="1370.0" cy="917.0" r="3.2" fill="#ffffff" stroke="#334155" stroke-width="2"/></g><g id="link-4" data-netdiag-kind="link"><path d="M 1498.0 679.0 V 731.4 L 1970.0 864.6 V 917.0" fill="none" stroke="#334155" stroke-width="2.2" stroke-linecap="round" stroke-linejoin="round"  opacity=".86"/><circle cx="1498.0" cy="679.0" r="3.2" fill="#ffffff" stroke="#334155" stroke-width="2"/><circle cx="1970.0" cy="917.0" r="3.2" fill="#ffffff" stroke="#334155" stroke-width="2"/></g><g id="link-5" data-netdiag-kind="link"><path d="M 770.0 999.0 V 1051.4 L 770.0 1184.6 V 1237.0" fill="none" stroke="#334155" stroke-width="2.2" stroke-linecap="round" stroke-linejoin="round"  opacity=".86"/><circle cx="770.0" cy="999.0" r="3.2" fill="#ffffff" stroke="#334155" stroke-width="2"/><circle cx="770.0" cy="1237.0" r="3.2" fill="#ffffff" stroke="#334155" stroke-width="2"/></g><g id="link-6" data-netdiag-kind="link"><path d="M 1370.0 999.0 V 1051.4 L 1370.0 1184.6 V 1237.0" fill="none" stroke="#334155" stroke-width="2.2" stroke-linecap="round" stroke-linejoin="round"  opacity=".86"/><circle cx="1370.0" cy="999.0" r="3.2" fill="#ffffff" stroke="#334155" stroke-width="2"/><circle cx="1370.0" cy="1237.0" r="3.2" fill="#ffffff" stroke="#334155" stroke-width="2"/></g><g id="link-7" data-netdiag-kind="link"><path d="M 1970.0 999.0 V 1051.4 L 1970.0 1184.6 V 1237.0" fill="none" stroke="#334155" stroke-width="2.2" stroke-linecap="round" stroke-linejoin="round"  opacity=".86"/><circle cx="1970.0" cy="999.0" r="3.2" fill="#ffffff" stroke="#334155" stroke-width="2"/><circle cx="1970.0" cy="1237.0" r="3.2" fill="#ffffff" stroke="#334155" stroke-width="2"/></g><g id="link-8" data-netdiag-kind="link"><path d="M 770.0 1319.0 V 1371.4 L 770.0 1504.6 V 1557.0" fill="none" stroke="#334155" stroke-width="2.2" stroke-linecap="round" stroke-linejoin="round"  opacity=".86"/><circle cx="770.0" cy="1319.0" r="3.2" fill="#ffffff" stroke="#334155" stroke-width="2"/><circle cx="770.0" cy="1557.0" r="3.2" fill="#ffffff" stroke="#334155" stroke-width="2"/></g><g id="link-9" data-netdiag-kind="link"><path d="M 1370.0 1319.0 V 1371.4 L 1370.0 1504.6 V 1557.0" fill="none" stroke="#334155" stroke-width="2.2" stroke-linecap="round" stroke-linejoin="round"  opacity=".86"/><circle cx="1370.0" cy="1319.0" r="3.2" fill="#ffffff" stroke="#334155" stroke-width="2"/><circle cx="1370.0" cy="1557.0" r="3.2" fill="#ffffff" stroke="#334155" stroke-width="2"/></g><g id="link-10" data-netdiag-kind="link"><path d="M 1970.0 1319.0 V 1371.4 L 1970.0 1504.6 V 1557.0" fill="none" stroke="#334155" stroke-width="2.2" stroke-linecap="round" stroke-linejoin="round"  opacity=".86"/><circle cx="1970.0" cy="1319.0" r="3.2" fill="#ffffff" stroke="#334155" stroke-width="2"/><circle cx="1970.0" cy="1557.0" r="3.2" fill="#ffffff" stroke="#334155" stroke-width="2"/></g></g><g id="nodes"><g id="access-01" data-netdiag-kind="node" filter="url(#shadow)"><rect x="620.0" y="917.0" width="300.0" height="82.0" rx="14" fill="#ffffff" stroke="#0878b9" stroke-width="2"/><rect x="620.0" y="917.0" width="8" height="82.0" rx="4" fill="#0878b9"/><g class="device-icon device-icon-access-switch" transform="translate(660.0 958.0)" stroke="#0878b9" fill="none" stroke-width="1.6" stroke-linecap="round" stroke-linejoin="round"><path d="M-28 -9 -9 -20 28 -9 9 2Z" fill="#0878b9" fill-opacity=".14"/><path d="M-28 -9 9 2 28 -9v12L9 15-28 4Z" fill="#0878b9" fill-opacity=".07"/><path d="M-28 -9 -9 -20 28 -9 9 2Z"/><path d="M-28 -9v13L9 15 28 3v-12M9 2v13"/><path d="M-19 -4 3 3M-19 1 3 8"/><rect x="-15.5" y="-4.5" width="3.5" height="2.7" rx=".5"/><rect x="-10" y="-2.8" width="3.5" height="2.7" rx=".5"/><rect x="-4.5" y="-1.1" width="3.5" height="2.7" rx=".5"/><rect x="1" y=".6" width="3.5" height="2.7" rx=".5"/><circle cx="-20" cy="1.5" r="1.4"/><circle cx="-15" cy="3.2" r="1.4"/><circle cx="-10" cy="4.9" r="1.4"/><path d="M11 -10h9M12 -6h6"/></g><text class="node-title" x="698.0" y="951.0" fill="#0f172a" font-family="Inter,Segoe UI,Arial,sans-serif" font-size="15" font-weight="700">Floor 1 Access</text><text x="698.0" y="972.0" fill="#64748b" font-family="ui-monospace,SFMono-Regular,monospace" font-size="11">ACCESS-SWITCH</text></g><g id="access-02" data-netdiag-kind="node" filter="url(#shadow)"><rect x="1220.0" y="917.0" width="300.0" height="82.0" rx="14" fill="#ffffff" stroke="#0878b9" stroke-width="2"/><rect x="1220.0" y="917.0" width="8" height="82.0" rx="4" fill="#0878b9"/><g class="device-icon device-icon-access-switch" transform="translate(1260.0 958.0)" stroke="#0878b9" fill="none" stroke-width="1.6" stroke-linecap="round" stroke-linejoin="round"><path d="M-28 -9 -9 -20 28 -9 9 2Z" fill="#0878b9" fill-opacity=".14"/><path d="M-28 -9 9 2 28 -9v12L9 15-28 4Z" fill="#0878b9" fill-opacity=".07"/><path d="M-28 -9 -9 -20 28 -9 9 2Z"/><path d="M-28 -9v13L9 15 28 3v-12M9 2v13"/><path d="M-19 -4 3 3M-19 1 3 8"/><rect x="-15.5" y="-4.5" width="3.5" height="2.7" rx=".5"/><rect x="-10" y="-2.8" width="3.5" height="2.7" rx=".5"/><rect x="-4.5" y="-1.1" width="3.5" height="2.7" rx=".5"/><rect x="1" y=".6" width="3.5" height="2.7" rx=".5"/><circle cx="-20" cy="1.5" r="1.4"/><circle cx="-15" cy="3.2" r="1.4"/><circle cx="-10" cy="4.9" r="1.4"/><path d="M11 -10h9M12 -6h6"/></g><text class="node-title" x="1298.0" y="951.0" fill="#0f172a" font-family="Inter,Segoe UI,Arial,sans-serif" font-size="15" font-weight="700">Floor 2 Access</text><text x="1298.0" y="972.0" fill="#64748b" font-family="ui-monospace,SFMono-Regular,monospace" font-size="11">ACCESS-SWITCH</text></g><g id="access-03" data-netdiag-kind="node" filter="url(#shadow)"><rect x="1820.0" y="917.0" width="300.0" height="82.0" rx="14" fill="#ffffff" stroke="#0878b9" stroke-width="2"/><rect x="1820.0" y="917.0" width="8" height="82.0" rx="4" fill="#0878b9"/><g class="device-icon device-icon-access-switch" transform="translate(1860.0 958.0)" stroke="#0878b9" fill="none" stroke-width="1.6" stroke-linecap="round" stroke-linejoin="round"><path d="M-28 -9 -9 -20 28 -9 9 2Z" fill="#0878b9" fill-opacity=".14"/><path d="M-28 -9 9 2 28 -9v12L9 15-28 4Z" fill="#0878b9" fill-opacity=".07"/><path d="M-28 -9 -9 -20 28 -9 9 2Z"/><path d="M-28 -9v13L9 15 28 3v-12M9 2v13"/><path d="M-19 -4 3 3M-19 1 3 8"/><rect x="-15.5" y="-4.5" width="3.5" height="2.7" rx=".5"/><rect x="-10" y="-2.8" width="3.5" height="2.7" rx=".5"/><rect x="-4.5" y="-1.1" width="3.5" height="2.7" rx=".5"/><rect x="1" y=".6" width="3.5" height="2.7" rx=".5"/><circle cx="-20" cy="1.5" r="1.4"/><circle cx="-15" cy="3.2" r="1.4"/><circle cx="-10" cy="4.9" r="1.4"/><path d="M11 -10h9M12 -6h6"/></g><text class="node-title" x="1898.0" y="951.0" fill="#0f172a" font-family="Inter,Segoe UI,Arial,sans-serif" font-size="15" font-weight="700">Floor 3 Access</text><text x="1898.0" y="972.0" fill="#64748b" font-family="ui-monospace,SFMono-Regular,monospace" font-size="11">ACCESS-SWITCH</text></g><g id="ap-01" data-netdiag-kind="node" filter="url(#shadow)"><rect x="650.0" y="1237.0" width="240.0" height="82.0" rx="14" fill="#ffffff" stroke="#0878b9" stroke-width="2"/><rect x="650.0" y="1237.0" width="8" height="82.0" rx="4" fill="#0878b9"/><g class="device-icon device-icon-wireless" transform="translate(690.0 1278.0)" stroke="#0878b9" fill="none" stroke-width="1.6" stroke-linecap="round" stroke-linejoin="round"><circle cx="0" cy="12" r="3"/><path d="M-9 5a13 13 0 0 1 18 0M-16-2a23 23 0 0 1 32 0M-23-9a33 33 0 0 1 46 0"/></g><text class="node-title" x="728.0" y="1271.0" fill="#0f172a" font-family="Inter,Segoe UI,Arial,sans-serif" font-size="15" font-weight="700">Floor 1 AP</text><text x="728.0" y="1292.0" fill="#64748b" font-family="ui-monospace,SFMono-Regular,monospace" font-size="11">WIRELESS</text></g><g id="ap-02" data-netdiag-kind="node" filter="url(#shadow)"><rect x="1250.0" y="1237.0" width="240.0" height="82.0" rx="14" fill="#ffffff" stroke="#0878b9" stroke-width="2"/><rect x="1250.0" y="1237.0" width="8" height="82.0" rx="4" fill="#0878b9"/><g class="device-icon device-icon-wireless" transform="translate(1290.0 1278.0)" stroke="#0878b9" fill="none" stroke-width="1.6" stroke-linecap="round" stroke-linejoin="round"><circle cx="0" cy="12" r="3"/><path d="M-9 5a13 13 0 0 1 18 0M-16-2a23 23 0 0 1 32 0M-23-9a33 33 0 0 1 46 0"/></g><text class="node-title" x="1328.0" y="1271.0" fill="#0f172a" font-family="Inter,Segoe UI,Arial,sans-serif" font-size="15" font-weight="700">Floor 2 AP</text><text x="1328.0" y="1292.0" fill="#64748b" font-family="ui-monospace,SFMono-Regular,monospace" font-size="11">WIRELESS</text></g><g id="ap-03" data-netdiag-kind="node" filter="url(#shadow)"><rect x="1850.0" y="1237.0" width="240.0" height="82.0" rx="14" fill="#ffffff" stroke="#0878b9" stroke-width="2"/><rect x="1850.0" y="1237.0" width="8" height="82.0" rx="4" fill="#0878b9"/><g class="device-icon device-icon-wireless" transform="translate(1890.0 1278.0)" stroke="#0878b9" fill="none" stroke-width="1.6" stroke-linecap="round" stroke-linejoin="round"><circle cx="0" cy="12" r="3"/><path d="M-9 5a13 13 0 0 1 18 0M-16-2a23 23 0 0 1 32 0M-23-9a33 33 0 0 1 46 0"/></g><text class="node-title" x="1928.0" y="1271.0" fill="#0f172a" font-family="Inter,Segoe UI,Arial,sans-serif" font-size="15" font-weight="700">Floor 3 AP</text><text x="1928.0" y="1292.0" fill="#64748b" font-family="ui-monospace,SFMono-Regular,monospace" font-size="11">WIRELESS</text></g><g id="campus-router" data-netdiag-kind="node" filter="url(#shadow)"><rect x="1230.0" y="277.0" width="280.0" height="82.0" rx="14" fill="#ffffff" stroke="#0878b9" stroke-width="2"/><rect x="1230.0" y="277.0" width="8" height="82.0" rx="4" fill="#0878b9"/><g class="device-icon device-icon-router" transform="translate(1270.0 318.0)" stroke="#0878b9" fill="none" stroke-width="1.6" stroke-linecap="round" stroke-linejoin="round"><ellipse cx="0" cy="0" rx="27" ry="18" fill="#0878b9" fill-opacity=".12"/><ellipse cx="0" cy="0" rx="27" ry="18"/><path d="M-14 0h28M8-6l6 6-6 6M14 0H-14M-8-6l-6 6 6 6"/><path d="M0-13v26M-6-7l6-6 6 6M-6 7l6 6 6-6"/></g><text class="node-title" x="1308.0" y="311.0" fill="#0f172a" font-family="Inter,Segoe UI,Arial,sans-serif" font-size="15" font-weight="700">Campus L3 Router</text><text x="1308.0" y="332.0" fill="#64748b" font-family="ui-monospace,SFMono-Regular,monospace" font-size="11">ROUTER</text></g><g id="clients-01" data-netdiag-kind="node" filter="url(#shadow)"><rect x="650.0" y="1557.0" width="240.0" height="82.0" rx="14" fill="#ffffff" stroke="#475569" stroke-width="2"/><rect x="650.0" y="1557.0" width="8" height="82.0" rx="4" fill="#475569"/><g class="device-icon device-icon-users" transform="translate(690.0 1598.0)" stroke="#475569" fill="none" stroke-width="1.6" stroke-linecap="round" stroke-linejoin="round"><rect x="-25" y="-18" width="50" height="32" rx="4" fill="#475569" fill-opacity=".08"/><rect x="-25" y="-18" width="50" height="32" rx="4"/><path d="M-12 21h24M0 14v7"/></g><text class="node-title" x="728.0" y="1591.0" fill="#0f172a" font-family="Inter,Segoe UI,Arial,sans-serif" font-size="15" font-weight="700">Floor 1 Clients</text><text x="728.0" y="1612.0" fill="#64748b" font-family="ui-monospace,SFMono-Regular,monospace" font-size="11">ENDPOINT</text></g><g id="clients-02" data-netdiag-kind="node" filter="url(#shadow)"><rect x="1250.0" y="1557.0" width="240.0" height="82.0" rx="14" fill="#ffffff" stroke="#475569" stroke-width="2"/><rect x="1250.0" y="1557.0" width="8" height="82.0" rx="4" fill="#475569"/><g class="device-icon device-icon-users" transform="translate(1290.0 1598.0)" stroke="#475569" fill="none" stroke-width="1.6" stroke-linecap="round" stroke-linejoin="round"><rect x="-25" y="-18" width="50" height="32" rx="4" fill="#475569" fill-opacity=".08"/><rect x="-25" y="-18" width="50" height="32" rx="4"/><path d="M-12 21h24M0 14v7"/></g><text class="node-title" x="1328.0" y="1591.0" fill="#0f172a" font-family="Inter,Segoe UI,Arial,sans-serif" font-size="15" font-weight="700">Floor 2 Clients</text><text x="1328.0" y="1612.0" fill="#64748b" font-family="ui-monospace,SFMono-Regular,monospace" font-size="11">ENDPOINT</text></g><g id="clients-03" data-netdiag-kind="node" filter="url(#shadow)"><rect x="1850.0" y="1557.0" width="240.0" height="82.0" rx="14" fill="#ffffff" stroke="#475569" stroke-width="2"/><rect x="1850.0" y="1557.0" width="8" height="82.0" rx="4" fill="#475569"/><g class="device-icon device-icon-users" transform="translate(1890.0 1598.0)" stroke="#475569" fill="none" stroke-width="1.6" stroke-linecap="round" stroke-linejoin="round"><rect x="-25" y="-18" width="50" height="32" rx="4" fill="#475569" fill-opacity=".08"/><rect x="-25" y="-18" width="50" height="32" rx="4"/><path d="M-12 21h24M0 14v7"/></g><text class="node-title" x="1928.0" y="1591.0" fill="#0f172a" font-family="Inter,Segoe UI,Arial,sans-serif" font-size="15" font-weight="700">Floor 3 Clients</text><text x="1928.0" y="1612.0" fill="#64748b" font-family="ui-monospace,SFMono-Regular,monospace" font-size="11">ENDPOINT</text></g><g id="core" data-netdiag-kind="node" filter="url(#shadow)"><rect x="1220.0" y="597.0" width="300.0" height="82.0" rx="14" fill="#ffffff" stroke="#0878b9" stroke-width="2"/><rect x="1220.0" y="597.0" width="8" height="82.0" rx="4" fill="#0878b9"/><g class="device-icon device-icon-core-switch" transform="translate(1260.0 638.0)" stroke="#0878b9" fill="none" stroke-width="1.6" stroke-linecap="round" stroke-linejoin="round"><path d="M-28 -9 -9 -20 28 -9 9 2Z" fill="#0878b9" fill-opacity=".14"/><path d="M-28 -9 9 2 28 -9v12L9 15-28 4Z" fill="#0878b9" fill-opacity=".07"/><path d="M-28 -9 -9 -20 28 -9 9 2Z"/><path d="M-28 -9v13L9 15 28 3v-12M9 2v13"/><path d="M-19 -4 3 3M-19 1 3 8"/><rect x="-15.5" y="-4.5" width="3.5" height="2.7" rx=".5"/><rect x="-10" y="-2.8" width="3.5" height="2.7" rx=".5"/><rect x="-4.5" y="-1.1" width="3.5" height="2.7" rx=".5"/><rect x="1" y=".6" width="3.5" height="2.7" rx=".5"/><circle cx="-20" cy="1.5" r="1.4"/><circle cx="-15" cy="3.2" r="1.4"/><circle cx="-10" cy="4.9" r="1.4"/><path d="M11 -10h9M12 -6h6"/></g><text class="node-title" x="1298.0" y="631.0" fill="#0f172a" font-family="Inter,Segoe UI,Arial,sans-serif" font-size="15" font-weight="700">Wireless Core</text><text x="1298.0" y="652.0" fill="#64748b" font-family="ui-monospace,SFMono-Regular,monospace" font-size="11">CORE-SWITCH</text></g></g><g id="link-annotations" pointer-events="none"><g id="link-annotation-1" class="link-annotation"><rect class="interface-label-badge" x="1326.2" y="373.9" width="51.5" height="21.0" rx="5.0" fill="#ffffff" stroke="#cbd5e1" stroke-width="1"/><text class="interface-label-text" x="1352.0" y="389.9" text-anchor="middle" fill="#334155" font-family="ui-monospace,SFMono-Regular,monospace" font-size="11" font-weight="650">Te0/0</text><rect class="interface-label-badge" x="1319.5" y="550.1" width="65.0" height="21.0" rx="5.0" fill="#ffffff" stroke="#cbd5e1" stroke-width="1"/><text class="interface-label-text" x="1352.0" y="566.1" text-anchor="middle" fill="#334155" font-family="ui-monospace,SFMono-Regular,monospace" font-size="11" font-weight="650">Eth1/49</text><rect class="label-mask" x="1347.6" y="434.0" width="44.8" height="23" rx="5" fill="#f8fafc" stroke="#f8fafc" stroke-width="4"/><text x="1370.0" y="450.0" text-anchor="middle" fill="#334155" font-family="ui-monospace,SFMono-Regular,monospace" font-size="11" font-weight="500">OSPF</text></g><g id="link-annotation-2" class="link-annotation"><rect class="interface-label-badge" x="1183.9" y="704.8" width="58.3" height="21.0" rx="5.0" fill="#ffffff" stroke="#cbd5e1" stroke-width="1"/><text class="interface-label-text" x="1213.0" y="720.8" text-anchor="middle" fill="#334155" font-family="ui-monospace,SFMono-Regular,monospace" font-size="11" font-weight="650">Eth1/1</text><rect class="interface-label-badge" x="756.7" y="824.5" width="65.0" height="21.0" rx="5.0" fill="#ffffff" stroke="#cbd5e1" stroke-width="1"/><text class="interface-label-text" x="789.2" y="840.5" text-anchor="middle" fill="#334155" font-family="ui-monospace,SFMono-Regular,monospace" font-size="11" font-weight="650">Eth1/49</text><rect class="label-mask" x="986.9" y="773.0" width="38.1" height="23" rx="5" fill="#f8fafc" stroke="#f8fafc" stroke-width="4"/><text x="1006.0" y="789.0" text-anchor="middle" fill="#334155" font-family="ui-monospace,SFMono-Regular,monospace" font-size="11" font-weight="500">10G</text></g><g id="link-annotation-3" class="link-annotation"><rect class="interface-label-badge" x="1322.9" y="693.9" width="58.3" height="21.0" rx="5.0" fill="#ffffff" stroke="#cbd5e1" stroke-width="1"/><text class="interface-label-text" x="1352.0" y="709.9" text-anchor="middle" fill="#334155" font-family="ui-monospace,SFMono-Regular,monospace" font-size="11" font-weight="650">Eth1/2</text><rect class="interface-label-badge" x="1319.5" y="870.1" width="65.0" height="21.0" rx="5.0" fill="#ffffff" stroke="#cbd5e1" stroke-width="1"/><text class="interface-label-text" x="1352.0" y="886.1" text-anchor="middle" fill="#334155" font-family="ui-monospace,SFMono-Regular,monospace" font-size="11" font-weight="650">Eth1/49</text><rect class="label-mask" x="1350.9" y="792.0" width="38.1" height="23" rx="5" fill="#f8fafc" stroke="#f8fafc" stroke-width="4"/><text x="1370.0" y="808.0" text-anchor="middle" fill="#334155" font-family="ui-monospace,SFMono-Regular,monospace" font-size="11" font-weight="500">10G</text></g><g id="link-annotation-4" class="link-annotation"><rect class="interface-label-badge" x="1488.1" y="739.5" width="58.3" height="21.0" rx="5.0" fill="#ffffff" stroke="#cbd5e1" stroke-width="1"/><text class="interface-label-text" x="1517.2" y="755.5" text-anchor="middle" fill="#334155" font-family="ui-monospace,SFMono-Regular,monospace" font-size="11" font-weight="650">Eth1/3</text><rect class="interface-label-badge" x="1908.6" y="859.2" width="65.0" height="21.0" rx="5.0" fill="#ffffff" stroke="#cbd5e1" stroke-width="1"/><text class="interface-label-text" x="1941.0" y="875.2" text-anchor="middle" fill="#334155" font-family="ui-monospace,SFMono-Regular,monospace" font-size="11" font-weight="650">Eth1/49</text><rect class="label-mask" x="1677.2" y="754.0" width="38.1" height="23" rx="5" fill="#f8fafc" stroke="#f8fafc" stroke-width="4"/><text x="1696.2" y="770.0" text-anchor="middle" fill="#334155" font-family="ui-monospace,SFMono-Regular,monospace" font-size="11" font-weight="500">10G</text></g><g id="link-annotation-5" class="link-annotation"><rect class="interface-label-badge" x="722.9" y="1013.9" width="58.3" height="21.0" rx="5.0" fill="#ffffff" stroke="#cbd5e1" stroke-width="1"/><text class="interface-label-text" x="752.0" y="1029.9" text-anchor="middle" fill="#334155" font-family="ui-monospace,SFMono-Regular,monospace" font-size="11" font-weight="650">Eth1/1</text><rect class="interface-label-badge" x="722.9" y="1190.1" width="58.3" height="21.0" rx="5.0" fill="#ffffff" stroke="#cbd5e1" stroke-width="1"/><text class="interface-label-text" x="752.0" y="1206.1" text-anchor="middle" fill="#334155" font-family="ui-monospace,SFMono-Regular,monospace" font-size="11" font-weight="650">Eth0/0</text><rect class="label-mask" x="747.6" y="1093.0" width="44.8" height="23" rx="5" fill="#f8fafc" stroke="#f8fafc" stroke-width="4"/><text x="770.0" y="1109.0" text-anchor="middle" fill="#334155" font-family="ui-monospace,SFMono-Regular,monospace" font-size="11" font-weight="500">PoE+</text></g><g id="link-annotation-6" class="link-annotation"><rect class="interface-label-badge" x="1322.9" y="1013.9" width="58.3" height="21.0" rx="5.0" fill="#ffffff" stroke="#cbd5e1" stroke-width="1"/><text class="interface-label-text" x="1352.0" y="1029.9" text-anchor="middle" fill="#334155" font-family="ui-monospace,SFMono-Regular,monospace" font-size="11" font-weight="650">Eth1/1</text><rect class="interface-label-badge" x="1322.9" y="1190.1" width="58.3" height="21.0" rx="5.0" fill="#ffffff" stroke="#cbd5e1" stroke-width="1"/><text class="interface-label-text" x="1352.0" y="1206.1" text-anchor="middle" fill="#334155" font-family="ui-monospace,SFMono-Regular,monospace" font-size="11" font-weight="650">Eth0/0</text><rect class="label-mask" x="1347.6" y="1112.0" width="44.8" height="23" rx="5" fill="#f8fafc" stroke="#f8fafc" stroke-width="4"/><text x="1370.0" y="1128.0" text-anchor="middle" fill="#334155" font-family="ui-monospace,SFMono-Regular,monospace" font-size="11" font-weight="500">PoE+</text></g><g id="link-annotation-7" class="link-annotation"><rect class="interface-label-badge" x="1922.9" y="1013.9" width="58.3" height="21.0" rx="5.0" fill="#ffffff" stroke="#cbd5e1" stroke-width="1"/><text class="interface-label-text" x="1952.0" y="1029.9" text-anchor="middle" fill="#334155" font-family="ui-monospace,SFMono-Regular,monospace" font-size="11" font-weight="650">Eth1/1</text><rect class="interface-label-badge" x="1922.9" y="1190.1" width="58.3" height="21.0" rx="5.0" fill="#ffffff" stroke="#cbd5e1" stroke-width="1"/><text class="interface-label-text" x="1952.0" y="1206.1" text-anchor="middle" fill="#334155" font-family="ui-monospace,SFMono-Regular,monospace" font-size="11" font-weight="650">Eth0/0</text><rect class="label-mask" x="1947.6" y="1074.0" width="44.8" height="23" rx="5" fill="#f8fafc" stroke="#f8fafc" stroke-width="4"/><text x="1970.0" y="1090.0" text-anchor="middle" fill="#334155" font-family="ui-monospace,SFMono-Regular,monospace" font-size="11" font-weight="500">PoE+</text></g><g id="link-annotation-8" class="link-annotation"><rect class="interface-label-badge" x="722.9" y="1333.9" width="58.3" height="21.0" rx="5.0" fill="#ffffff" stroke="#cbd5e1" stroke-width="1"/><text class="interface-label-text" x="752.0" y="1349.9" text-anchor="middle" fill="#334155" font-family="ui-monospace,SFMono-Regular,monospace" font-size="11" font-weight="650">Radio0</text><rect class="interface-label-badge" x="726.2" y="1510.1" width="51.5" height="21.0" rx="5.0" fill="#ffffff" stroke="#cbd5e1" stroke-width="1"/><text class="interface-label-text" x="752.0" y="1526.1" text-anchor="middle" fill="#334155" font-family="ui-monospace,SFMono-Regular,monospace" font-size="11" font-weight="650">WiFi0</text><rect class="label-mask" x="730.8" y="1413.0" width="78.4" height="23" rx="5" fill="#f8fafc" stroke="#f8fafc" stroke-width="4"/><text x="770.0" y="1429.0" text-anchor="middle" fill="#334155" font-family="ui-monospace,SFMono-Regular,monospace" font-size="11" font-weight="500">SSID-CORP</text></g><g id="link-annotation-9" class="link-annotation"><rect class="interface-label-badge" x="1322.9" y="1333.9" width="58.3" height="21.0" rx="5.0" fill="#ffffff" stroke="#cbd5e1" stroke-width="1"/><text class="interface-label-text" x="1352.0" y="1349.9" text-anchor="middle" fill="#334155" font-family="ui-monospace,SFMono-Regular,monospace" font-size="11" font-weight="650">Radio0</text><rect class="interface-label-badge" x="1326.2" y="1510.1" width="51.5" height="21.0" rx="5.0" fill="#ffffff" stroke="#cbd5e1" stroke-width="1"/><text class="interface-label-text" x="1352.0" y="1526.1" text-anchor="middle" fill="#334155" font-family="ui-monospace,SFMono-Regular,monospace" font-size="11" font-weight="650">WiFi0</text><rect class="label-mask" x="1330.8" y="1432.0" width="78.4" height="23" rx="5" fill="#f8fafc" stroke="#f8fafc" stroke-width="4"/><text x="1370.0" y="1448.0" text-anchor="middle" fill="#334155" font-family="ui-monospace,SFMono-Regular,monospace" font-size="11" font-weight="500">SSID-CORP</text></g><g id="link-annotation-10" class="link-annotation"><rect class="interface-label-badge" x="1922.9" y="1333.9" width="58.3" height="21.0" rx="5.0" fill="#ffffff" stroke="#cbd5e1" stroke-width="1"/><text class="interface-label-text" x="1952.0" y="1349.9" text-anchor="middle" fill="#334155" font-family="ui-monospace,SFMono-Regular,monospace" font-size="11" font-weight="650">Radio0</text><rect class="interface-label-badge" x="1926.2" y="1510.1" width="51.5" height="21.0" rx="5.0" fill="#ffffff" stroke="#cbd5e1" stroke-width="1"/><text class="interface-label-text" x="1952.0" y="1526.1" text-anchor="middle" fill="#334155" font-family="ui-monospace,SFMono-Regular,monospace" font-size="11" font-weight="650">WiFi0</text><rect class="label-mask" x="1930.8" y="1394.0" width="78.4" height="23" rx="5" fill="#f8fafc" stroke="#f8fafc" stroke-width="4"/><text x="1970.0" y="1410.0" text-anchor="middle" fill="#334155" font-family="ui-monospace,SFMono-Regular,monospace" font-size="11" font-weight="500">SSID-CORP</text></g></g></svg>