<svg class="theme-light" xmlns="http://www.w3.org/2000/svg" width="2400" height="2185" viewBox="0 0 2400 2185" role="img" shape-rendering="geometricPrecision"><defs><filter id="shadow" x="-20%" y="-20%" width="140%" height="150%"><feDropShadow dx="0" dy="4" stdDeviation="6" flood-color="#0f172a" flood-opacity=".14"/></filter></defs><rect width="100%" height="100%" fill="#f8fafc"/><rect x="0" y="0" width="2400" height="112" fill="#0f172a"/><text x="70" y="56" fill="#f8fafc" font-family="Inter,Segoe UI,sans-serif" font-size="30" font-weight="700">Manufacturing OT Network</text><text x="70" y="84" fill="#94a3b8" font-family="Inter,Segoe UI,sans-serif" font-size="15">Segmented plant network with industrial firewall and controllers</text><text x="2330" y="66" text-anchor="end" fill="#38bdf8" font-family="ui-monospace,SFMono-Regular,monospace" font-size="14">OT SECURITY</text><rect x="42" y="197.0" width="2316.0" height="250.0" rx="20" fill="#eff6ff" stroke="#e2e8f0"/><rect x="42" y="517.0" width="2316.0" height="250.0" rx="20" fill="#fef2f2" stroke="#e2e8f0"/><rect x="42" y="837.0" width="2316.0" height="250.0" rx="20" fill="#eff6ff" stroke="#e2e8f0"/><rect x="42" y="1157.0" width="2316.0" height="250.0" rx="20" fill="#eff6ff" stroke="#e2e8f0"/><rect x="42" y="1477.0" width="2316.0" height="250.0" rx="20" fill="#f0fdf4" stroke="#e2e8f0"/><rect x="42" y="1797.0" width="2316.0" height="250.0" rx="20" fill="#f8fafc" stroke="#e2e8f0"/><g id="row-headings"><g class="row-heading row-heading-router"><path d="M78 250.0 H410" stroke="#cbd5e1" stroke-width="1"/><text x="78" y="235.0" fill="#64748b" font-family="Inter,Segoe UI,sans-serif" font-size="12" font-weight="700" letter-spacing="1.8">ROUTER LAYER · 1 DEVICES</text></g><g class="row-heading row-heading-firewall"><path d="M78 570.0 H410" stroke="#cbd5e1" stroke-width="1"/><text x="78" y="555.0" fill="#64748b" font-family="Inter,Segoe UI,sans-serif" font-size="12" font-weight="700" letter-spacing="1.8">FIREWALL LAYER · 1 DEVICES</text></g><g class="row-heading row-heading-core-switch"><path d="M78 890.0 H410" stroke="#cbd5e1" stroke-width="1"/><text x="78" y="875.0" fill="#64748b" font-family="Inter,Segoe UI,sans-serif" font-size="12" font-weight="700" letter-spacing="1.8">CORE SWITCH LAYER · 1 DEVICES</text></g><g class="row-heading row-heading-access-switch"><path d="M78 1210.0 H410" stroke="#cbd5e1" stroke-width="1"/><text x="78" y="1195.0" fill="#64748b" font-family="Inter,Segoe UI,sans-serif" font-size="12" font-weight="700" letter-spacing="1.8">ACCESS SWITCH LAYER · 2 DEVICES</text></g><g class="row-heading row-heading-server"><path d="M78 1530.0 H410" stroke="#cbd5e1" stroke-width="1"/><text x="78" y="1515.0" fill="#64748b" font-family="Inter,Segoe UI,sans-serif" font-size="12" font-weight="700" letter-spacing="1.8">SERVER LAYER · 1 DEVICES</text></g><g class="row-heading row-heading-endpoint"><path d="M78 1850.0 H410" stroke="#cbd5e1" stroke-width="1"/><text x="78" y="1835.0" fill="#64748b" font-family="Inter,Segoe UI,sans-serif" font-size="12" font-weight="700" letter-spacing="1.8">ENDPOINT LAYER · 2 DEVICES</text></g></g><g id="links"><g id="link-1" data-netdiag-kind="link"><path d="M 1362.5 359.0 V 411.4 L 1362.5 544.6 V 597.0" fill="none" stroke="#dc2626" stroke-width="2.2" stroke-linecap="round" stroke-linejoin="round"  opacity=".86"/><circle cx="1362.5" cy="359.0" r="3.2" fill="#ffffff" stroke="#dc2626" stroke-width="2"/><circle cx="1362.5" cy="597.0" r="3.2" fill="#ffffff" stroke="#dc2626" stroke-width="2"/></g><g id="link-2" data-netdiag-kind="link"><path d="M 1362.5 679.0 V 731.4 L 1362.5 864.6 V 917.0" fill="none" stroke="#dc2626" stroke-width="2.2" stroke-linecap="round" stroke-linejoin="round"  opacity=".86"/><circle cx="1362.5" cy="679.0" r="3.2" fill="#ffffff" stroke="#dc2626" stroke-width="2"/><circle cx="1362.5" cy="917.0" r="3.2" fill="#ffffff" stroke="#dc2626" stroke-width="2"/></g><g id="link-3" data-netdiag-kind="link"><path d="M 1234.5 999.0 V 1051.4 L 916.2 1184.6 V 1237.0" fill="none" stroke="#334155" stroke-width="2.2" stroke-linecap="round" stroke-linejoin="round"  opacity=".86"/><circle cx="1234.5" cy="999.0" r="3.2" fill="#ffffff" stroke="#334155" stroke-width="2"/><circle cx="916.2" cy="1237.0" r="3.2" fill="#ffffff" stroke="#334155" stroke-width="2"/></g><g id="link-4" data-netdiag-kind="link"><path d="M 1490.5 999.0 V 1051.4 L 1808.8 1184.6 V 1237.0" fill="none" stroke="#334155" stroke-width="2.2" stroke-linecap="round" stroke-linejoin="round"  opacity=".86"/><circle cx="1490.5" cy="999.0" r="3.2" fill="#ffffff" stroke="#334155" stroke-width="2"/><circle cx="1808.8" cy="1237.0" r="3.2" fill="#ffffff" stroke="#334155" stroke-width="2"/></g><g id="link-5" data-netdiag-kind="link"><path d="M 1362.5 999.0 V 1053.0 L 1362.5 1503.0 V 1557.0" fill="none" stroke="#334155" stroke-width="2.2" stroke-linecap="round" stroke-linejoin="round"  opacity=".86"/><circle cx="1362.5" cy="999.0" r="3.2" fill="#ffffff" stroke="#334155" stroke-width="2"/><circle cx="1362.5" cy="1557.0" r="3.2" fill="#ffffff" stroke="#334155" stroke-width="2"/></g><g id="link-6" data-netdiag-kind="link"><path d="M 916.2 1319.0 V 1373.0 L 916.2 1823.0 V 1877.0" fill="none" stroke="#334155" stroke-width="2.2" stroke-linecap="round" stroke-linejoin="round"  opacity=".86"/><circle cx="916.2" cy="1319.0" r="3.2" fill="#ffffff" stroke="#334155" stroke-width="2"/><circle cx="916.2" cy="1877.0" r="3.2" fill="#ffffff" stroke="#334155" stroke-width="2"/></g><g id="link-7" data-netdiag-kind="link"><path d="M 1808.8 1319.0 V 1373.0 L 1808.8 1823.0 V 1877.0" fill="none" stroke="#334155" stroke-width="2.2" stroke-linecap="round" stroke-linejoin="round"  opacity=".86"/><circle cx="1808.8" cy="1319.0" r="3.2" fill="#ffffff" stroke="#334155" stroke-width="2"/><circle cx="1808.8" cy="1877.0" r="3.2" fill="#ffffff" stroke="#334155" stroke-width="2"/></g></g><g id="nodes"><g id="enterprise-router" data-netdiag-kind="node" filter="url(#shadow)"><rect x="1222.5" y="277.0" width="280.0" height="82.0" rx="14" fill="#ffffff" stroke="#0878b9" stroke-width="2"/><rect x="1222.5" y="277.0" width="8" height="82.0" rx="4" fill="#0878b9"/><g class="device-icon device-icon-router" transform="translate(1262.5 318.0)" stroke="#0878b9" fill="none" stroke-width="1.6" stroke-linecap="round" stroke-linejoin="round"><ellipse cx="0" cy="0" rx="27" ry="18" fill="#0878b9" fill-opacity=".12"/><ellipse cx="0" cy="0" rx="27" ry="18"/><path d="M-14 0h28M8-6l6 6-6 6M14 0H-14M-8-6l-6 6 6 6"/><path d="M0-13v26M-6-7l6-6 6 6M-6 7l6 6 6-6"/></g><text class="node-title" x="1300.5" y="311.0" fill="#0f172a" font-family="Inter,Segoe UI,Arial,sans-serif" font-size="15" font-weight="700">Enterprise Router</text><text x="1300.5" y="332.0" fill="#64748b" font-family="ui-monospace,SFMono-Regular,monospace" font-size="11">ROUTER</text></g><g id="line-a-switch" data-netdiag-kind="node" filter="url(#shadow)"><rect x="766.2" y="1237.0" width="300.0" height="82.0" rx="14" fill="#ffffff" stroke="#0878b9" stroke-width="2"/><rect x="766.2" y="1237.0" width="8" height="82.0" rx="4" fill="#0878b9"/><g class="device-icon device-icon-access-switch" transform="translate(806.2 1278.0)" stroke="#0878b9" fill="none" stroke-width="1.6" stroke-linecap="round" stroke-linejoin="round"><path d="M-28 -9 -9 -20 28 -9 9 2Z" fill="#0878b9" fill-opacity=".14"/><path d="M-28 -9 9 2 28 -9v12L9 15-28 4Z" fill="#0878b9" fill-opacity=".07"/><path d="M-28 -9 -9 -20 28 -9 9 2Z"/><path d="M-28 -9v13L9 15 28 3v-12M9 2v13"/><path d="M-19 -4 3 3M-19 1 3 8"/><rect x="-15.5" y="-4.5" width="3.5" height="2.7" rx=".5"/><rect x="-10" y="-2.8" width="3.5" height="2.7" rx=".5"/><rect x="-4.5" y="-1.1" width="3.5" height="2.7" rx=".5"/><rect x="1" y=".6" width="3.5" height="2.7" rx=".5"/><circle cx="-20" cy="1.5" r="1.4"/><circle cx="-15" cy="3.2" r="1.4"/><circle cx="-10" cy="4.9" r="1.4"/><path d="M11 -10h9M12 -6h6"/></g><text class="node-title" x="844.2" y="1271.0" fill="#0f172a" font-family="Inter,Segoe UI,Arial,sans-serif" font-size="15" font-weight="700">Production Line A</text><text x="844.2" y="1292.0" fill="#64748b" font-family="ui-monospace,SFMono-Regular,monospace" font-size="11">ACCESS-SWITCH</text></g><g id="line-b-switch" data-netdiag-kind="node" filter="url(#shadow)"><rect x="1658.8" y="1237.0" width="300.0" height="82.0" rx="14" fill="#ffffff" stroke="#0878b9" stroke-width="2"/><rect x="1658.8" y="1237.0" width="8" height="82.0" rx="4" fill="#0878b9"/><g class="device-icon device-icon-access-switch" transform="translate(1698.8 1278.0)" stroke="#0878b9" fill="none" stroke-width="1.6" stroke-linecap="round" stroke-linejoin="round"><path d="M-28 -9 -9 -20 28 -9 9 2Z" fill="#0878b9" fill-opacity=".14"/><path d="M-28 -9 9 2 28 -9v12L9 15-28 4Z" fill="#0878b9" fill-opacity=".07"/><path d="M-28 -9 -9 -20 28 -9 9 2Z"/><path d="M-28 -9v13L9 15 28 3v-12M9 2v13"/><path d="M-19 -4 3 3M-19 1 3 8"/><rect x="-15.5" y="-4.5" width="3.5" height="2.7" rx=".5"/><rect x="-10" y="-2.8" width="3.5" height="2.7" rx=".5"/><rect x="-4.5" y="-1.1" width="3.5" height="2.7" rx=".5"/><rect x="1" y=".6" width="3.5" height="2.7" rx=".5"/><circle cx="-20" cy="1.5" r="1.4"/><circle cx="-15" cy="3.2" r="1.4"/><circle cx="-10" cy="4.9" r="1.4"/><path d="M11 -10h9M12 -6h6"/></g><text class="node-title" x="1736.8" y="1271.0" fill="#0f172a" font-family="Inter,Segoe UI,Arial,sans-serif" font-size="15" font-weight="700">Production Line B</text><text x="1736.8" y="1292.0" fill="#64748b" font-family="ui-monospace,SFMono-Regular,monospace" font-size="11">ACCESS-SWITCH</text></g><g id="ot-firewall" data-netdiag-kind="node" filter="url(#shadow)"><rect x="1222.5" y="597.0" width="280.0" height="82.0" rx="14" fill="#ffffff" stroke="#dc2626" stroke-width="2"/><rect x="1222.5" y="597.0" width="8" height="82.0" rx="4" fill="#dc2626"/><g class="device-icon device-icon-firewall" transform="translate(1262.5 638.0)" stroke="#dc2626" fill="none" stroke-width="1.6" stroke-linecap="round" stroke-linejoin="round"><g stroke="#dc2626"><rect x="-27" y="-21" width="54" height="42" rx="4" fill="#dc2626" fill-opacity=".10"/><path d="M-27-7h54M-27 7h54M-16-21v14M7-21v14M-5-7V7M18-7V7M-16 7v14M7 7v14"/></g></g><text class="node-title" x="1300.5" y="631.0" fill="#0f172a" font-family="Inter,Segoe UI,Arial,sans-serif" font-size="15" font-weight="700">OT Segmentation Firewall</text><text x="1300.5" y="652.0" fill="#64748b" font-family="ui-monospace,SFMono-Regular,monospace" font-size="11">FIREWALL</text></g><g id="plant-core" data-netdiag-kind="node" filter="url(#shadow)"><rect x="1212.5" y="917.0" width="300.0" height="82.0" rx="14" fill="#ffffff" stroke="#0878b9" stroke-width="2"/><rect x="1212.5" y="917.0" width="8" height="82.0" rx="4" fill="#0878b9"/><g class="device-icon device-icon-core-switch" transform="translate(1252.5 958.0)" stroke="#0878b9" fill="none" stroke-width="1.6" stroke-linecap="round" stroke-linejoin="round"><path d="M-28 -9 -9 -20 28 -9 9 2Z" fill="#0878b9" fill-opacity=".14"/><path d="M-28 -9 9 2 28 -9v12L9 15-28 4Z" fill="#0878b9" fill-opacity=".07"/><path d="M-28 -9 -9 -20 28 -9 9 2Z"/><path d="M-28 -9v13L9 15 28 3v-12M9 2v13"/><path d="M-19 -4 3 3M-19 1 3 8"/><rect x="-15.5" y="-4.5" width="3.5" height="2.7" rx=".5"/><rect x="-10" y="-2.8" width="3.5" height="2.7" rx=".5"/><rect x="-4.5" y="-1.1" width="3.5" height="2.7" rx=".5"/><rect x="1" y=".6" width="3.5" height="2.7" rx=".5"/><circle cx="-20" cy="1.5" r="1.4"/><circle cx="-15" cy="3.2" r="1.4"/><circle cx="-10" cy="4.9" r="1.4"/><path d="M11 -10h9M12 -6h6"/></g><text class="node-title" x="1290.5" y="951.0" fill="#0f172a" font-family="Inter,Segoe UI,Arial,sans-serif" font-size="15" font-weight="700">Plant Core</text><text x="1290.5" y="972.0" fill="#64748b" font-family="ui-monospace,SFMono-Regular,monospace" font-size="11">CORE-SWITCH</text></g><g id="plc-a" data-netdiag-kind="node" filter="url(#shadow)"><rect x="796.2" y="1877.0" width="240.0" height="82.0" rx="14" fill="#ffffff" stroke="#475569" stroke-width="2"/><rect x="796.2" y="1877.0" width="8" height="82.0" rx="4" fill="#475569"/><g class="device-icon device-icon-endpoint" transform="translate(836.2 1918.0)" stroke="#475569" fill="none" stroke-width="1.6" stroke-linecap="round" stroke-linejoin="round"><rect x="-25" y="-18" width="50" height="32" rx="4" fill="#475569" fill-opacity=".08"/><rect x="-25" y="-18" width="50" height="32" rx="4"/><path d="M-12 21h24M0 14v7"/></g><text class="node-title" x="874.2" y="1911.0" fill="#0f172a" font-family="Inter,Segoe UI,Arial,sans-serif" font-size="15" font-weight="700">PLC Line A</text><text x="874.2" y="1932.0" fill="#64748b" font-family="ui-monospace,SFMono-Regular,monospace" font-size="11">ENDPOINT</text></g><g id="plc-b" data-netdiag-kind="node" filter="url(#shadow)"><rect x="1688.8" y="1877.0" width="240.0" height="82.0" rx="14" fill="#ffffff" stroke="#475569" stroke-width="2"/><rect x="1688.8" y="1877.0" width="8" height="82.0" rx="4" fill="#475569"/><g class="device-icon device-icon-endpoint" transform="translate(1728.8 1918.0)" stroke="#475569" fill="none" stroke-width="1.6" stroke-linecap="round" stroke-linejoin="round"><rect x="-25" y="-18" width="50" height="32" rx="4" fill="#475569" fill-opacity=".08"/><rect x="-25" y="-18" width="50" height="32" rx="4"/><path d="M-12 21h24M0 14v7"/></g><text class="node-title" x="1766.8" y="1911.0" fill="#0f172a" font-family="Inter,Segoe UI,Arial,sans-serif" font-size="15" font-weight="700">PLC Line B</text><text x="1766.8" y="1932.0" fill="#64748b" font-family="ui-monospace,SFMono-Regular,monospace" font-size="11">ENDPOINT</text></g><g id="scada-server" data-netdiag-kind="node" filter="url(#shadow)"><rect x="1222.5" y="1557.0" width="280.0" height="82.0" rx="14" fill="#ffffff" stroke="#16a34a" stroke-width="2"/><rect x="1222.5" y="1557.0" width="8" height="82.0" rx="4" fill="#16a34a"/><g class="device-icon device-icon-server" transform="translate(1262.5 1598.0)" stroke="#16a34a" fill="none" stroke-width="1.6" stroke-linecap="round" stroke-linejoin="round"><rect x="-17" y="-23" width="34" height="46" rx="5" fill="#16a34a" fill-opacity=".08"/><rect x="-17" y="-23" width="34" height="46" rx="5"/><path d="M-10 -13h20M-10 -3h20M-10 7h20M-10 17h12"/><circle cx="11" cy="17" r="2"/></g><text class="node-title" x="1300.5" y="1591.0" fill="#0f172a" font-family="Inter,Segoe UI,Arial,sans-serif" font-size="15" font-weight="700">SCADA Server</text><text x="1300.5" y="1612.0" fill="#64748b" font-family="ui-monospace,SFMono-Regular,monospace" font-size="11">SERVER</text></g></g><g id="link-annotations" pointer-events="none"><g id="link-annotation-1" class="link-annotation"><rect class="interface-label-badge" x="1318.7" y="373.9" width="51.5" height="21.0" rx="5.0" fill="#ffffff" stroke="#cbd5e1" stroke-width="1"/><text class="interface-label-text" x="1344.5" y="389.9" text-anchor="middle" fill="#334155" font-family="ui-monospace,SFMono-Regular,monospace" font-size="11" font-weight="650">Gi0/0</text><rect class="interface-label-badge" x="1315.4" y="550.1" width="58.3" height="21.0" rx="5.0" fill="#ffffff" stroke="#cbd5e1" stroke-width="1"/><text class="interface-label-text" x="1344.5" y="566.1" text-anchor="middle" fill="#334155" font-family="ui-monospace,SFMono-Regular,monospace" font-size="11" font-weight="650">Eth0/0</text><rect class="label-mask" x="1320.0" y="434.0" width="85.1" height="23" rx="5" fill="#f8fafc" stroke="#f8fafc" stroke-width="4"/><text x="1362.5" y="450.0" text-anchor="middle" fill="#dc2626" font-family="ui-monospace,SFMono-Regular,monospace" font-size="11" font-weight="500">Enterprise</text></g><g id="link-annotation-2" class="link-annotation"><rect class="interface-label-badge" x="1315.4" y="693.9" width="58.3" height="21.0" rx="5.0" fill="#ffffff" stroke="#cbd5e1" stroke-width="1"/><text class="interface-label-text" x="1344.5" y="709.9" text-anchor="middle" fill="#334155" font-family="ui-monospace,SFMono-Regular,monospace" font-size="11" font-weight="650">Eth0/1</text><rect class="interface-label-badge" x="1312.0" y="870.1" width="65.0" height="21.0" rx="5.0" fill="#ffffff" stroke="#cbd5e1" stroke-width="1"/><text class="interface-label-text" x="1344.5" y="886.1" text-anchor="middle" fill="#334155" font-family="ui-monospace,SFMono-Regular,monospace" font-size="11" font-weight="650">Eth1/49</text><rect class="label-mask" x="1330.0" y="773.0" width="65.0" height="23" rx="5" fill="#f8fafc" stroke="#f8fafc" stroke-width="4"/><text x="1362.5" y="789.0" text-anchor="middle" fill="#dc2626" font-family="ui-monospace,SFMono-Regular,monospace" font-size="11" font-weight="500">OT Zone</text></g><g id="link-annotation-3" class="link-annotation"><rect class="interface-label-badge" x="1153.2" y="999.5" width="58.3" height="21.0" rx="5.0" fill="#ffffff" stroke="#cbd5e1" stroke-width="1"/><text class="interface-label-text" x="1182.3" y="1015.5" text-anchor="middle" fill="#334155" font-family="ui-monospace,SFMono-Regular,monospace" font-size="11" font-weight="650">Eth1/1</text><rect class="interface-label-badge" x="914.4" y="1175.6" width="65.0" height="21.0" rx="5.0" fill="#ffffff" stroke="#cbd5e1" stroke-width="1"/><text class="interface-label-text" x="946.8" y="1191.6" text-anchor="middle" fill="#334155" font-family="ui-monospace,SFMono-Regular,monospace" font-size="11" font-weight="650">Eth1/49</text><rect class="label-mask" x="1014.1" y="1112.0" width="71.7" height="23" rx="5" fill="#f8fafc" stroke="#f8fafc" stroke-width="4"/><text x="1049.9" y="1128.0" text-anchor="middle" fill="#334155" font-family="ui-monospace,SFMono-Regular,monospace" font-size="11" font-weight="500">VLAN 410</text></g><g id="link-annotation-4" class="link-annotation"><rect class="interface-label-badge" x="1492.0" y="1028.4" width="58.3" height="21.0" rx="5.0" fill="#ffffff" stroke="#cbd5e1" stroke-width="1"/><text class="interface-label-text" x="1521.1" y="1044.4" text-anchor="middle" fill="#334155" font-family="ui-monospace,SFMono-Regular,monospace" font-size="11" font-weight="650">Eth1/2</text><rect class="interface-label-badge" x="1724.1" y="1204.5" width="65.0" height="21.0" rx="5.0" fill="#ffffff" stroke="#cbd5e1" stroke-width="1"/><text class="interface-label-text" x="1756.6" y="1220.5" text-anchor="middle" fill="#334155" font-family="ui-monospace,SFMono-Regular,monospace" font-size="11" font-weight="650">Eth1/49</text><rect class="label-mask" x="1588.3" y="1074.0" width="71.7" height="23" rx="5" fill="#f8fafc" stroke="#f8fafc" stroke-width="4"/><text x="1624.2" y="1090.0" text-anchor="middle" fill="#334155" font-family="ui-monospace,SFMono-Regular,monospace" font-size="11" font-weight="500">VLAN 420</text></g><g id="link-annotation-5" class="link-annotation"><rect class="interface-label-badge" x="1315.4" y="1055.5" width="58.3" height="21.0" rx="5.0" fill="#ffffff" stroke="#cbd5e1" stroke-width="1"/><text class="interface-label-text" x="1344.5" y="1071.5" text-anchor="middle" fill="#334155" font-family="ui-monospace,SFMono-Regular,monospace" font-size="11" font-weight="650">Eth1/3</text><rect class="interface-label-badge" x="1315.4" y="1468.5" width="58.3" height="21.0" rx="5.0" fill="#ffffff" stroke="#cbd5e1" stroke-width="1"/><text class="interface-label-text" x="1344.5" y="1484.5" text-anchor="middle" fill="#334155" font-family="ui-monospace,SFMono-Regular,monospace" font-size="11" font-weight="650">Eth0/0</text><rect class="label-mask" x="1326.7" y="1253.0" width="71.7" height="23" rx="5" fill="#f8fafc" stroke="#f8fafc" stroke-width="4"/><text x="1362.5" y="1269.0" text-anchor="middle" fill="#334155" font-family="ui-monospace,SFMono-Regular,monospace" font-size="11" font-weight="500">VLAN 400</text></g><g id="link-annotation-6" class="link-annotation"><rect class="interface-label-badge" x="869.1" y="1375.5" width="58.3" height="21.0" rx="5.0" fill="#ffffff" stroke="#cbd5e1" stroke-width="1"/><text class="interface-label-text" x="898.2" y="1391.5" text-anchor="middle" fill="#334155" font-family="ui-monospace,SFMono-Regular,monospace" font-size="11" font-weight="650">Eth1/1</text><rect class="interface-label-badge" x="869.1" y="1788.5" width="58.3" height="21.0" rx="5.0" fill="#ffffff" stroke="#cbd5e1" stroke-width="1"/><text class="interface-label-text" x="898.2" y="1804.5" text-anchor="middle" fill="#334155" font-family="ui-monospace,SFMono-Regular,monospace" font-size="11" font-weight="650">Eth0/0</text><rect class="label-mask" x="880.4" y="1617.6" width="71.7" height="23" rx="5" fill="#f8fafc" stroke="#f8fafc" stroke-width="4"/><text x="916.2" y="1633.6" text-anchor="middle" fill="#334155" font-family="ui-monospace,SFMono-Regular,monospace" font-size="11" font-weight="500">PROFINET</text></g><g id="link-annotation-7" class="link-annotation"><rect class="interface-label-badge" x="1761.6" y="1375.5" width="58.3" height="21.0" rx="5.0" fill="#ffffff" stroke="#cbd5e1" stroke-width="1"/><text class="interface-label-text" x="1790.8" y="1391.5" text-anchor="middle" fill="#334155" font-family="ui-monospace,SFMono-Regular,monospace" font-size="11" font-weight="650">Eth1/1</text><rect class="interface-label-badge" x="1761.6" y="1788.5" width="58.3" height="21.0" rx="5.0" fill="#ffffff" stroke="#cbd5e1" stroke-width="1"/><text class="interface-label-text" x="1790.8" y="1804.5" text-anchor="middle" fill="#334155" font-family="ui-monospace,SFMono-Regular,monospace" font-size="11" font-weight="650">Eth0/0</text><rect class="label-mask" x="1772.9" y="1528.4" width="71.7" height="23" rx="5" fill="#f8fafc" stroke="#f8fafc" stroke-width="4"/><text x="1808.8" y="1544.4" text-anchor="middle" fill="#334155" font-family="ui-monospace,SFMono-Regular,monospace" font-size="11" font-weight="500">PROFINET</text></g></g></svg>