<svg xmlns="http://www.w3.org/2000/svg" width="2400" height="1865" viewBox="0 0 2400 1865" role="img"><defs><filter id="shadow" x="-20%" y="-20%" width="140%" height="150%"><feDropShadow dx="0" dy="4" stdDeviation="6" flood-color="#0f172a" flood-opacity=".14"/></filter></defs><rect width="100%" height="100%" fill="#f8fafc"/><rect x="0" y="0" width="2400" height="112" fill="#0f172a"/><text x="70" y="56" fill="#f8fafc" font-family="Inter,Segoe UI,sans-serif" font-size="30" font-weight="700">Data Center Interconnect</text><text x="70" y="84" fill="#94a3b8" font-family="Inter,Segoe UI,sans-serif" font-size="15">Two data centers connected using protected DWDM wavelengths</text><text x="2330" y="66" text-anchor="end" fill="#38bdf8" font-family="ui-monospace,SFMono-Regular,monospace" font-size="14">DCI</text><rect x="42" y="197.0" width="2316.0" height="250.0" rx="20" fill="#f5f3ff" stroke="#e2e8f0"/><rect x="42" y="517.0" width="2316.0" height="250.0" rx="20" fill="#eff6ff" stroke="#e2e8f0"/><rect x="42" y="837.0" width="2316.0" height="250.0" rx="20" fill="#fef2f2" stroke="#e2e8f0"/><rect x="42" y="1157.0" width="2316.0" height="250.0" rx="20" fill="#eff6ff" stroke="#e2e8f0"/><rect x="42" y="1477.0" width="2316.0" height="250.0" rx="20" fill="#f0fdf4" stroke="#e2e8f0"/><g id="row-headings"><g class="row-heading row-heading-dwdm"><path d="M78 250.0 H410" stroke="#cbd5e1" stroke-width="1"/><text x="78" y="235.0" fill="#64748b" font-family="Inter,Segoe UI,sans-serif" font-size="12" font-weight="700" letter-spacing="1.8">DWDM LAYER · 1 DEVICES</text></g><g class="row-heading row-heading-edge-router"><path d="M78 570.0 H410" stroke="#cbd5e1" stroke-width="1"/><text x="78" y="555.0" fill="#64748b" font-family="Inter,Segoe UI,sans-serif" font-size="12" font-weight="700" letter-spacing="1.8">EDGE ROUTER LAYER · 2 DEVICES</text></g><g class="row-heading row-heading-firewall"><path d="M78 890.0 H410" stroke="#cbd5e1" stroke-width="1"/><text x="78" y="875.0" fill="#64748b" font-family="Inter,Segoe UI,sans-serif" font-size="12" font-weight="700" letter-spacing="1.8">FIREWALL LAYER · 2 DEVICES</text></g><g class="row-heading row-heading-core-switch"><path d="M78 1210.0 H410" stroke="#cbd5e1" stroke-width="1"/><text x="78" y="1195.0" fill="#64748b" font-family="Inter,Segoe UI,sans-serif" font-size="12" font-weight="700" letter-spacing="1.8">CORE SWITCH LAYER · 2 DEVICES</text></g><g class="row-heading row-heading-server"><path d="M78 1530.0 H410" stroke="#cbd5e1" stroke-width="1"/><text x="78" y="1515.0" fill="#64748b" font-family="Inter,Segoe UI,sans-serif" font-size="12" font-weight="700" letter-spacing="1.8">SERVER LAYER · 2 DEVICES</text></g></g><g id="links"><path id="link-1" d="M 1244.5 359.0 V 411.4 L 916.2 544.6 V 597.0" fill="none" stroke="#c026d3" stroke-width="2.2" stroke-linecap="round" stroke-linejoin="round" stroke-dasharray="10 5" opacity=".86"/><circle cx="1244.5" cy="359.0" r="3.2" fill="#ffffff" stroke="#c026d3" stroke-width="2"/><circle cx="916.2" cy="597.0" r="3.2" fill="#ffffff" stroke="#c026d3" stroke-width="2"/><rect x="1215.0" y="370.0" width="59.0" height="19" rx="5" fill="#f8fafc" fill-opacity=".96"/><text x="1244.5" y="384.0" text-anchor="middle" fill="#c026d3" font-family="ui-monospace,SFMono-Regular,monospace" font-size="11" font-weight="650">Wave101</text><rect x="893.5" y="571.0" width="45.5" height="19" rx="5" fill="#f8fafc" fill-opacity=".96"/><text x="916.2" y="585.0" text-anchor="middle" fill="#c026d3" font-family="ui-monospace,SFMono-Regular,monospace" font-size="11" font-weight="650">Hu0/0</text><rect x="1013.4" y="436.0" width="186.5" height="19" rx="5" fill="#f8fafc" fill-opacity=".96"/><text x="1106.6" y="450.0" text-anchor="middle" fill="#c026d3" font-family="ui-monospace,SFMono-Regular,monospace" font-size="11" font-weight="500">CID DCI-PRIMARY-101 · 100G</text><path id="link-2" d="M 1480.5 359.0 V 411.4 L 1808.8 544.6 V 597.0" fill="none" stroke="#c026d3" stroke-width="2.2" stroke-linecap="round" stroke-linejoin="round" stroke-dasharray="10 5" opacity=".86"/><circle cx="1480.5" cy="359.0" r="3.2" fill="#ffffff" stroke="#c026d3" stroke-width="2"/><circle cx="1808.8" cy="597.0" r="3.2" fill="#ffffff" stroke="#c026d3" stroke-width="2"/><rect x="1451.0" y="370.0" width="59.0" height="19" rx="5" fill="#f8fafc" fill-opacity=".96"/><text x="1480.5" y="384.0" text-anchor="middle" fill="#c026d3" font-family="ui-monospace,SFMono-Regular,monospace" font-size="11" font-weight="650">Wave102</text><rect x="1786.0" y="571.0" width="45.5" height="19" rx="5" fill="#f8fafc" fill-opacity=".96"/><text x="1808.8" y="585.0" text-anchor="middle" fill="#c026d3" font-family="ui-monospace,SFMono-Regular,monospace" font-size="11" font-weight="650">Hu0/0</text><rect x="1551.4" y="455.0" width="186.5" height="19" rx="5" fill="#f8fafc" fill-opacity=".96"/><text x="1644.6" y="469.0" text-anchor="middle" fill="#c026d3" font-family="ui-monospace,SFMono-Regular,monospace" font-size="11" font-weight="500">CID DCI-PROTECT-102 · 100G</text><path id="link-3" d="M 916.2 679.0 V 731.4 L 916.2 864.6 V 917.0" fill="none" stroke="#dc2626" stroke-width="2.2" stroke-linecap="round" stroke-linejoin="round"  opacity=".86"/><circle cx="916.2" cy="679.0" r="3.2" fill="#ffffff" stroke="#dc2626" stroke-width="2"/><circle cx="916.2" cy="917.0" r="3.2" fill="#ffffff" stroke="#dc2626" stroke-width="2"/><rect x="893.5" y="690.0" width="45.5" height="19" rx="5" fill="#f8fafc" fill-opacity=".96"/><text x="916.2" y="704.0" text-anchor="middle" fill="#dc2626" font-family="ui-monospace,SFMono-Regular,monospace" font-size="11" font-weight="650">Te0/1</text><rect x="890.1" y="891.0" width="52.3" height="19" rx="5" fill="#f8fafc" fill-opacity=".96"/><text x="916.2" y="905.0" text-anchor="middle" fill="#dc2626" font-family="ui-monospace,SFMono-Regular,monospace" font-size="11" font-weight="650">Eth0/0</text><rect x="896.8" y="794.0" width="38.8" height="19" rx="5" fill="#f8fafc" fill-opacity=".96"/><text x="916.2" y="808.0" text-anchor="middle" fill="#dc2626" font-family="ui-monospace,SFMono-Regular,monospace" font-size="11" font-weight="500">EVPN</text><path id="link-4" d="M 1808.8 679.0 V 731.4 L 1808.8 864.6 V 917.0" fill="none" stroke="#dc2626" stroke-width="2.2" stroke-linecap="round" stroke-linejoin="round"  opacity=".86"/><circle cx="1808.8" cy="679.0" r="3.2" fill="#ffffff" stroke="#dc2626" stroke-width="2"/><circle cx="1808.8" cy="917.0" r="3.2" fill="#ffffff" stroke="#dc2626" stroke-width="2"/><rect x="1786.0" y="690.0" width="45.5" height="19" rx="5" fill="#f8fafc" fill-opacity=".96"/><text x="1808.8" y="704.0" text-anchor="middle" fill="#dc2626" font-family="ui-monospace,SFMono-Regular,monospace" font-size="11" font-weight="650">Te0/1</text><rect x="1782.6" y="891.0" width="52.3" height="19" rx="5" fill="#f8fafc" fill-opacity=".96"/><text x="1808.8" y="905.0" text-anchor="middle" fill="#dc2626" font-family="ui-monospace,SFMono-Regular,monospace" font-size="11" font-weight="650">Eth0/0</text><rect x="1789.3" y="756.0" width="38.8" height="19" rx="5" fill="#f8fafc" fill-opacity=".96"/><text x="1808.8" y="770.0" text-anchor="middle" fill="#dc2626" font-family="ui-monospace,SFMono-Regular,monospace" font-size="11" font-weight="500">EVPN</text><path id="link-5" d="M 916.2 999.0 V 1051.4 L 916.2 1184.6 V 1237.0" fill="none" stroke="#dc2626" stroke-width="2.2" stroke-linecap="round" stroke-linejoin="round"  opacity=".86"/><circle cx="916.2" cy="999.0" r="3.2" fill="#ffffff" stroke="#dc2626" stroke-width="2"/><circle cx="916.2" cy="1237.0" r="3.2" fill="#ffffff" stroke="#dc2626" stroke-width="2"/><rect x="890.1" y="1010.0" width="52.3" height="19" rx="5" fill="#f8fafc" fill-opacity=".96"/><text x="916.2" y="1024.0" text-anchor="middle" fill="#dc2626" font-family="ui-monospace,SFMono-Regular,monospace" font-size="11" font-weight="650">Eth0/1</text><rect x="886.8" y="1211.0" width="59.0" height="19" rx="5" fill="#f8fafc" fill-opacity=".96"/><text x="916.2" y="1225.0" text-anchor="middle" fill="#dc2626" font-family="ui-monospace,SFMono-Regular,monospace" font-size="11" font-weight="650">Eth1/49</text><rect x="890.1" y="1095.0" width="52.3" height="19" rx="5" fill="#f8fafc" fill-opacity=".96"/><text x="916.2" y="1109.0" text-anchor="middle" fill="#dc2626" font-family="ui-monospace,SFMono-Regular,monospace" font-size="11" font-weight="500">Inside</text><path id="link-6" d="M 1808.8 999.0 V 1051.4 L 1808.8 1184.6 V 1237.0" fill="none" stroke="#dc2626" stroke-width="2.2" stroke-linecap="round" stroke-linejoin="round"  opacity=".86"/><circle cx="1808.8" cy="999.0" r="3.2" fill="#ffffff" stroke="#dc2626" stroke-width="2"/><circle cx="1808.8" cy="1237.0" r="3.2" fill="#ffffff" stroke="#dc2626" stroke-width="2"/><rect x="1782.6" y="1010.0" width="52.3" height="19" rx="5" fill="#f8fafc" fill-opacity=".96"/><text x="1808.8" y="1024.0" text-anchor="middle" fill="#dc2626" font-family="ui-monospace,SFMono-Regular,monospace" font-size="11" font-weight="650">Eth0/1</text><rect x="1779.3" y="1211.0" width="59.0" height="19" rx="5" fill="#f8fafc" fill-opacity=".96"/><text x="1808.8" y="1225.0" text-anchor="middle" fill="#dc2626" font-family="ui-monospace,SFMono-Regular,monospace" font-size="11" font-weight="650">Eth1/49</text><rect x="1782.6" y="1114.0" width="52.3" height="19" rx="5" fill="#f8fafc" fill-opacity=".96"/><text x="1808.8" y="1128.0" text-anchor="middle" fill="#dc2626" font-family="ui-monospace,SFMono-Regular,monospace" font-size="11" font-weight="500">Inside</text><path id="link-7" d="M 916.2 1319.0 V 1371.4 L 916.2 1504.6 V 1557.0" fill="none" stroke="#334155" stroke-width="2.2" stroke-linecap="round" stroke-linejoin="round"  opacity=".86"/><circle cx="916.2" cy="1319.0" r="3.2" fill="#ffffff" stroke="#334155" stroke-width="2"/><circle cx="916.2" cy="1557.0" r="3.2" fill="#ffffff" stroke="#334155" stroke-width="2"/><rect x="890.1" y="1330.0" width="52.3" height="19" rx="5" fill="#f8fafc" fill-opacity=".96"/><text x="916.2" y="1344.0" text-anchor="middle" fill="#334155" font-family="ui-monospace,SFMono-Regular,monospace" font-size="11" font-weight="650">Eth1/1</text><rect x="890.1" y="1531.0" width="52.3" height="19" rx="5" fill="#f8fafc" fill-opacity=".96"/><text x="916.2" y="1545.0" text-anchor="middle" fill="#334155" font-family="ui-monospace,SFMono-Regular,monospace" font-size="11" font-weight="650">Eth0/0</text><rect x="870.0" y="1396.0" width="92.5" height="19" rx="5" fill="#f8fafc" fill-opacity=".96"/><text x="916.2" y="1410.0" text-anchor="middle" fill="#334155" font-family="ui-monospace,SFMono-Regular,monospace" font-size="11" font-weight="500">Storage VLAN</text><path id="link-8" d="M 1808.8 1319.0 V 1371.4 L 1808.8 1504.6 V 1557.0" fill="none" stroke="#334155" stroke-width="2.2" stroke-linecap="round" stroke-linejoin="round"  opacity=".86"/><circle cx="1808.8" cy="1319.0" r="3.2" fill="#ffffff" stroke="#334155" stroke-width="2"/><circle cx="1808.8" cy="1557.0" r="3.2" fill="#ffffff" stroke="#334155" stroke-width="2"/><rect x="1782.6" y="1330.0" width="52.3" height="19" rx="5" fill="#f8fafc" fill-opacity=".96"/><text x="1808.8" y="1344.0" text-anchor="middle" fill="#334155" font-family="ui-monospace,SFMono-Regular,monospace" font-size="11" font-weight="650">Eth1/1</text><rect x="1782.6" y="1531.0" width="52.3" height="19" rx="5" fill="#f8fafc" fill-opacity=".96"/><text x="1808.8" y="1545.0" text-anchor="middle" fill="#334155" font-family="ui-monospace,SFMono-Regular,monospace" font-size="11" font-weight="650">Eth0/0</text><rect x="1762.5" y="1415.0" width="92.5" height="19" rx="5" fill="#f8fafc" fill-opacity=".96"/><text x="1808.8" y="1429.0" text-anchor="middle" fill="#334155" font-family="ui-monospace,SFMono-Regular,monospace" font-size="11" font-weight="500">Storage VLAN</text></g><g id="nodes"><g id="dc1-core" filter="url(#shadow)"><rect x="766.2" y="1237.0" width="300.0" height="82.0" rx="14" fill="#ffffff" stroke="#0878b9" stroke-width="2"/><rect x="766.2" y="1237.0" width="8" height="82.0" rx="4" fill="#0878b9"/><g class="device-icon device-icon-core-switch" transform="translate(806.2 1278.0)" stroke="#0878b9" fill="none" stroke-width="1.6" stroke-linecap="round" stroke-linejoin="round"><path d="M-28 -9 -9 -20 28 -9 9 2Z" fill="#0878b9" fill-opacity=".14"/><path d="M-28 -9 9 2 28 -9v12L9 15-28 4Z" fill="#0878b9" fill-opacity=".07"/><path d="M-28 -9 -9 -20 28 -9 9 2Z"/><path d="M-28 -9v13L9 15 28 3v-12M9 2v13"/><path d="M-19 -4 3 3M-19 1 3 8"/><rect x="-15.5" y="-4.5" width="3.5" height="2.7" rx=".5"/><rect x="-10" y="-2.8" width="3.5" height="2.7" rx=".5"/><rect x="-4.5" y="-1.1" width="3.5" height="2.7" rx=".5"/><rect x="1" y=".6" width="3.5" height="2.7" rx=".5"/><circle cx="-20" cy="1.5" r="1.4"/><circle cx="-15" cy="3.2" r="1.4"/><circle cx="-10" cy="4.9" r="1.4"/><path d="M11 -10h9M12 -6h6"/></g><text x="844.2" y="1271.0" fill="#0f172a" font-family="Inter,Segoe UI,sans-serif" font-size="15" font-weight="700">DC1 Core Switch</text><text x="844.2" y="1292.0" fill="#64748b" font-family="ui-monospace,SFMono-Regular,monospace" font-size="11">CORE-SWITCH</text></g><g id="dc1-firewall" filter="url(#shadow)"><rect x="776.2" y="917.0" width="280.0" height="82.0" rx="14" fill="#ffffff" stroke="#dc2626" stroke-width="2"/><rect x="776.2" y="917.0" width="8" height="82.0" rx="4" fill="#dc2626"/><g class="device-icon device-icon-firewall" transform="translate(816.2 958.0)" stroke="#dc2626" fill="none" stroke-width="1.6" stroke-linecap="round" stroke-linejoin="round"><g stroke="#dc2626"><rect x="-27" y="-21" width="54" height="42" rx="4" fill="#dc2626" fill-opacity=".10"/><path d="M-27-7h54M-27 7h54M-16-21v14M7-21v14M-5-7V7M18-7V7M-16 7v14M7 7v14"/></g></g><text x="854.2" y="951.0" fill="#0f172a" font-family="Inter,Segoe UI,sans-serif" font-size="15" font-weight="700">DC1 Firewall</text><text x="854.2" y="972.0" fill="#64748b" font-family="ui-monospace,SFMono-Regular,monospace" font-size="11">FIREWALL</text></g><g id="dc1-router" filter="url(#shadow)"><rect x="776.2" y="597.0" width="280.0" height="82.0" rx="14" fill="#ffffff" stroke="#0878b9" stroke-width="2"/><rect x="776.2" y="597.0" width="8" height="82.0" rx="4" fill="#0878b9"/><g class="device-icon device-icon-router" transform="translate(816.2 638.0)" stroke="#0878b9" fill="none" stroke-width="1.6" stroke-linecap="round" stroke-linejoin="round"><ellipse cx="0" cy="0" rx="27" ry="18" fill="#0878b9" fill-opacity=".12"/><ellipse cx="0" cy="0" rx="27" ry="18"/><path d="M-14 0h28M8-6l6 6-6 6M14 0H-14M-8-6l-6 6 6 6"/><path d="M0-13v26M-6-7l6-6 6 6M-6 7l6 6 6-6"/></g><text x="854.2" y="631.0" fill="#0f172a" font-family="Inter,Segoe UI,sans-serif" font-size="15" font-weight="700">DC1 DCI Router</text><text x="854.2" y="652.0" fill="#64748b" font-family="ui-monospace,SFMono-Regular,monospace" font-size="11">EDGE-ROUTER</text></g><g id="dc1-storage" filter="url(#shadow)"><rect x="776.2" y="1557.0" width="280.0" height="82.0" rx="14" fill="#ffffff" stroke="#16a34a" stroke-width="2"/><rect x="776.2" y="1557.0" width="8" height="82.0" rx="4" fill="#16a34a"/><g class="device-icon device-icon-server" transform="translate(816.2 1598.0)" stroke="#16a34a" fill="none" stroke-width="1.6" stroke-linecap="round" stroke-linejoin="round"><rect x="-17" y="-23" width="34" height="46" rx="5" fill="#16a34a" fill-opacity=".08"/><rect x="-17" y="-23" width="34" height="46" rx="5"/><path d="M-10 -13h20M-10 -3h20M-10 7h20M-10 17h12"/><circle cx="11" cy="17" r="2"/></g><text x="854.2" y="1591.0" fill="#0f172a" font-family="Inter,Segoe UI,sans-serif" font-size="15" font-weight="700">DC1 Storage</text><text x="854.2" y="1612.0" fill="#64748b" font-family="ui-monospace,SFMono-Regular,monospace" font-size="11">SERVER</text></g><g id="dc2-core" filter="url(#shadow)"><rect x="1658.8" y="1237.0" width="300.0" height="82.0" rx="14" fill="#ffffff" stroke="#0878b9" stroke-width="2"/><rect x="1658.8" y="1237.0" width="8" height="82.0" rx="4" fill="#0878b9"/><g class="device-icon device-icon-core-switch" transform="translate(1698.8 1278.0)" stroke="#0878b9" fill="none" stroke-width="1.6" stroke-linecap="round" stroke-linejoin="round"><path d="M-28 -9 -9 -20 28 -9 9 2Z" fill="#0878b9" fill-opacity=".14"/><path d="M-28 -9 9 2 28 -9v12L9 15-28 4Z" fill="#0878b9" fill-opacity=".07"/><path d="M-28 -9 -9 -20 28 -9 9 2Z"/><path d="M-28 -9v13L9 15 28 3v-12M9 2v13"/><path d="M-19 -4 3 3M-19 1 3 8"/><rect x="-15.5" y="-4.5" width="3.5" height="2.7" rx=".5"/><rect x="-10" y="-2.8" width="3.5" height="2.7" rx=".5"/><rect x="-4.5" y="-1.1" width="3.5" height="2.7" rx=".5"/><rect x="1" y=".6" width="3.5" height="2.7" rx=".5"/><circle cx="-20" cy="1.5" r="1.4"/><circle cx="-15" cy="3.2" r="1.4"/><circle cx="-10" cy="4.9" r="1.4"/><path d="M11 -10h9M12 -6h6"/></g><text x="1736.8" y="1271.0" fill="#0f172a" font-family="Inter,Segoe UI,sans-serif" font-size="15" font-weight="700">DC2 Core Switch</text><text x="1736.8" y="1292.0" fill="#64748b" font-family="ui-monospace,SFMono-Regular,monospace" font-size="11">CORE-SWITCH</text></g><g id="dc2-firewall" filter="url(#shadow)"><rect x="1668.8" y="917.0" width="280.0" height="82.0" rx="14" fill="#ffffff" stroke="#dc2626" stroke-width="2"/><rect x="1668.8" y="917.0" width="8" height="82.0" rx="4" fill="#dc2626"/><g class="device-icon device-icon-firewall" transform="translate(1708.8 958.0)" stroke="#dc2626" fill="none" stroke-width="1.6" stroke-linecap="round" stroke-linejoin="round"><g stroke="#dc2626"><rect x="-27" y="-21" width="54" height="42" rx="4" fill="#dc2626" fill-opacity=".10"/><path d="M-27-7h54M-27 7h54M-16-21v14M7-21v14M-5-7V7M18-7V7M-16 7v14M7 7v14"/></g></g><text x="1746.8" y="951.0" fill="#0f172a" font-family="Inter,Segoe UI,sans-serif" font-size="15" font-weight="700">DC2 Firewall</text><text x="1746.8" y="972.0" fill="#64748b" font-family="ui-monospace,SFMono-Regular,monospace" font-size="11">FIREWALL</text></g><g id="dc2-router" filter="url(#shadow)"><rect x="1668.8" y="597.0" width="280.0" height="82.0" rx="14" fill="#ffffff" stroke="#0878b9" stroke-width="2"/><rect x="1668.8" y="597.0" width="8" height="82.0" rx="4" fill="#0878b9"/><g class="device-icon device-icon-router" transform="translate(1708.8 638.0)" stroke="#0878b9" fill="none" stroke-width="1.6" stroke-linecap="round" stroke-linejoin="round"><ellipse cx="0" cy="0" rx="27" ry="18" fill="#0878b9" fill-opacity=".12"/><ellipse cx="0" cy="0" rx="27" ry="18"/><path d="M-14 0h28M8-6l6 6-6 6M14 0H-14M-8-6l-6 6 6 6"/><path d="M0-13v26M-6-7l6-6 6 6M-6 7l6 6 6-6"/></g><text x="1746.8" y="631.0" fill="#0f172a" font-family="Inter,Segoe UI,sans-serif" font-size="15" font-weight="700">DC2 DCI Router</text><text x="1746.8" y="652.0" fill="#64748b" font-family="ui-monospace,SFMono-Regular,monospace" font-size="11">EDGE-ROUTER</text></g><g id="dc2-storage" filter="url(#shadow)"><rect x="1668.8" y="1557.0" width="280.0" height="82.0" rx="14" fill="#ffffff" stroke="#16a34a" stroke-width="2"/><rect x="1668.8" y="1557.0" width="8" height="82.0" rx="4" fill="#16a34a"/><g class="device-icon device-icon-server" transform="translate(1708.8 1598.0)" stroke="#16a34a" fill="none" stroke-width="1.6" stroke-linecap="round" stroke-linejoin="round"><rect x="-17" y="-23" width="34" height="46" rx="5" fill="#16a34a" fill-opacity=".08"/><rect x="-17" y="-23" width="34" height="46" rx="5"/><path d="M-10 -13h20M-10 -3h20M-10 7h20M-10 17h12"/><circle cx="11" cy="17" r="2"/></g><text x="1746.8" y="1591.0" fill="#0f172a" font-family="Inter,Segoe UI,sans-serif" font-size="15" font-weight="700">DC2 Storage</text><text x="1746.8" y="1612.0" fill="#64748b" font-family="ui-monospace,SFMono-Regular,monospace" font-size="11">SERVER</text></g><g id="dwdm" filter="url(#shadow)"><rect x="1222.5" y="277.0" width="280.0" height="82.0" rx="14" fill="#ffffff" stroke="#7c3aed" stroke-width="2"/><rect x="1222.5" y="277.0" width="8" height="82.0" rx="4" fill="#7c3aed"/><g class="device-icon device-icon-dwdm" transform="translate(1262.5 318.0)" stroke="#7c3aed" fill="none" stroke-width="1.6" stroke-linecap="round" stroke-linejoin="round"><rect x="-27" y="-18" width="54" height="36" rx="6" fill="#7c3aed" fill-opacity=".10" stroke="#7c3aed"/><path d="M-21-9c8 0 8 7 16 7s8-7 16-7 8 7 16 7M-21 2c8 0 8 7 16 7s8-7 16-7 8 7 16 7" stroke="#7c3aed"/></g><text x="1300.5" y="311.0" fill="#0f172a" font-family="Inter,Segoe UI,sans-serif" font-size="15" font-weight="700">Protected DWDM Service</text><text x="1300.5" y="332.0" fill="#64748b" font-family="ui-monospace,SFMono-Regular,monospace" font-size="11">DWDM</text></g></g></svg>