<svg xmlns="http://www.w3.org/2000/svg" width="2400" height="1225" viewBox="0 0 2400 1225" role="img"><defs><filter id="shadow" x="-20%" y="-20%" width="140%" height="150%"><feDropShadow dx="0" dy="4" stdDeviation="6" flood-color="#0f172a" flood-opacity=".14"/></filter></defs><rect width="100%" height="100%" fill="#f8fafc"/><rect x="0" y="0" width="2400" height="112" fill="#0f172a"/><text x="70" y="56" fill="#f8fafc" font-family="Inter,Segoe UI,sans-serif" font-size="30" font-weight="700">OSPF Multi-Area Design</text><text x="70" y="84" fill="#94a3b8" font-family="Inter,Segoe UI,sans-serif" font-size="15">Area 0 backbone with Area 10 and Area 20 ABRs and internal routers</text><text x="2330" y="66" text-anchor="end" fill="#38bdf8" font-family="ui-monospace,SFMono-Regular,monospace" font-size="14">OSPF</text><rect x="42" y="197.0" width="2316.0" height="250.0" rx="20" fill="#eff6ff" stroke="#e2e8f0"/><rect x="42" y="517.0" width="2316.0" height="250.0" rx="20" fill="#eff6ff" stroke="#e2e8f0"/><rect x="42" y="837.0" width="2316.0" height="250.0" rx="20" fill="#eff6ff" stroke="#e2e8f0"/><g id="row-headings"><g class="row-heading row-heading-ospf-backbone"><path d="M78 250.0 H410" stroke="#cbd5e1" stroke-width="1"/><text x="78" y="235.0" fill="#64748b" font-family="Inter,Segoe UI,sans-serif" font-size="12" font-weight="700" letter-spacing="1.8">OSPF BACKBONE LAYER · 4 DEVICES</text></g><g class="row-heading row-heading-ospf-area-10"><path d="M78 570.0 H410" stroke="#cbd5e1" stroke-width="1"/><text x="78" y="555.0" fill="#64748b" font-family="Inter,Segoe UI,sans-serif" font-size="12" font-weight="700" letter-spacing="1.8">OSPF AREA 10 LAYER · 3 DEVICES</text></g><g class="row-heading row-heading-ospf-area-20"><path d="M78 890.0 H410" stroke="#cbd5e1" stroke-width="1"/><text x="78" y="875.0" fill="#64748b" font-family="Inter,Segoe UI,sans-serif" font-size="12" font-weight="700" letter-spacing="1.8">OSPF AREA 20 LAYER · 3 DEVICES</text></g></g><g id="links"><path id="link-1" d="M 1259.4 318.0 H 1304.8 L 1420.2 318.0 H 1465.6" fill="none" stroke="#2563eb" stroke-width="2.2" stroke-linecap="round" stroke-linejoin="round"  opacity=".86"/><circle cx="1259.4" cy="318.0" r="3.2" fill="#ffffff" stroke="#2563eb" stroke-width="2"/><circle cx="1465.6" cy="318.0" r="3.2" fill="#ffffff" stroke="#2563eb" stroke-width="2"/><rect x="1266.6" y="295.0" width="45.5" height="19" rx="5" fill="#f8fafc" fill-opacity=".96"/><text x="1289.4" y="309.0" text-anchor="middle" fill="#2563eb" font-family="ui-monospace,SFMono-Regular,monospace" font-size="11" font-weight="650">Gi0/0</text><rect x="1412.8" y="295.0" width="45.5" height="19" rx="5" fill="#f8fafc" fill-opacity=".96"/><text x="1435.6" y="309.0" text-anchor="middle" fill="#2563eb" font-family="ui-monospace,SFMono-Regular,monospace" font-size="11" font-weight="650">Gi0/0</text><rect x="1286.3" y="335.0" width="119.4" height="19" rx="5" fill="#f8fafc" fill-opacity=".96"/><text x="1346.0" y="349.0" text-anchor="middle" fill="#2563eb" font-family="ui-monospace,SFMono-Regular,monospace" font-size="11" font-weight="500">Area 0 · Cost 10</text><path id="link-2" d="M 1019.4 318.0 H 974.0 L 858.5 318.0 H 813.1" fill="none" stroke="#2563eb" stroke-width="2.2" stroke-linecap="round" stroke-linejoin="round"  opacity=".86"/><circle cx="1019.4" cy="318.0" r="3.2" fill="#ffffff" stroke="#2563eb" stroke-width="2"/><circle cx="813.1" cy="318.0" r="3.2" fill="#ffffff" stroke="#2563eb" stroke-width="2"/><rect x="966.6" y="295.0" width="45.5" height="19" rx="5" fill="#f8fafc" fill-opacity=".96"/><text x="989.4" y="309.0" text-anchor="middle" fill="#2563eb" font-family="ui-monospace,SFMono-Regular,monospace" font-size="11" font-weight="650">Gi0/1</text><rect x="820.4" y="295.0" width="45.5" height="19" rx="5" fill="#f8fafc" fill-opacity=".96"/><text x="843.1" y="309.0" text-anchor="middle" fill="#2563eb" font-family="ui-monospace,SFMono-Regular,monospace" font-size="11" font-weight="650">Gi0/0</text><rect x="856.6" y="335.0" width="119.4" height="19" rx="5" fill="#f8fafc" fill-opacity=".96"/><text x="916.2" y="349.0" text-anchor="middle" fill="#2563eb" font-family="ui-monospace,SFMono-Regular,monospace" font-size="11" font-weight="500">Area 0 · Cost 10</text><path id="link-3" d="M 1705.6 318.0 H 1751.0 L 1866.5 318.0 H 1911.9" fill="none" stroke="#2563eb" stroke-width="2.2" stroke-linecap="round" stroke-linejoin="round"  opacity=".86"/><circle cx="1705.6" cy="318.0" r="3.2" fill="#ffffff" stroke="#2563eb" stroke-width="2"/><circle cx="1911.9" cy="318.0" r="3.2" fill="#ffffff" stroke="#2563eb" stroke-width="2"/><rect x="1712.8" y="295.0" width="45.5" height="19" rx="5" fill="#f8fafc" fill-opacity=".96"/><text x="1735.6" y="309.0" text-anchor="middle" fill="#2563eb" font-family="ui-monospace,SFMono-Regular,monospace" font-size="11" font-weight="650">Gi0/1</text><rect x="1859.1" y="295.0" width="45.5" height="19" rx="5" fill="#f8fafc" fill-opacity=".96"/><text x="1881.9" y="309.0" text-anchor="middle" fill="#2563eb" font-family="ui-monospace,SFMono-Regular,monospace" font-size="11" font-weight="650">Gi0/0</text><rect x="1765.6" y="335.0" width="119.4" height="19" rx="5" fill="#f8fafc" fill-opacity=".96"/><text x="1825.2" y="349.0" text-anchor="middle" fill="#2563eb" font-family="ui-monospace,SFMono-Regular,monospace" font-size="11" font-weight="500">Area 0 · Cost 10</text><path id="link-4" d="M 693.1 359.0 V 411.4 L 767.5 544.6 V 597.0" fill="none" stroke="#2563eb" stroke-width="2.2" stroke-linecap="round" stroke-linejoin="round"  opacity=".86"/><circle cx="693.1" cy="359.0" r="3.2" fill="#ffffff" stroke="#2563eb" stroke-width="2"/><circle cx="767.5" cy="597.0" r="3.2" fill="#ffffff" stroke="#2563eb" stroke-width="2"/><rect x="670.4" y="370.0" width="45.5" height="19" rx="5" fill="#f8fafc" fill-opacity=".96"/><text x="693.1" y="384.0" text-anchor="middle" fill="#2563eb" font-family="ui-monospace,SFMono-Regular,monospace" font-size="11" font-weight="650">Gi0/1</text><rect x="744.7" y="571.0" width="45.5" height="19" rx="5" fill="#f8fafc" fill-opacity=".96"/><text x="767.5" y="585.0" text-anchor="middle" fill="#2563eb" font-family="ui-monospace,SFMono-Regular,monospace" font-size="11" font-weight="650">Gi0/0</text><rect x="674.7" y="436.0" width="99.2" height="19" rx="5" fill="#f8fafc" fill-opacity=".96"/><text x="724.4" y="450.0" text-anchor="middle" fill="#2563eb" font-family="ui-monospace,SFMono-Regular,monospace" font-size="11" font-weight="500">Area 10 · P2P</text><path id="link-5" d="M 887.5 638.0 H 941.5 L 1188.5 638.0 H 1242.5" fill="none" stroke="#2563eb" stroke-width="2.2" stroke-linecap="round" stroke-linejoin="round"  opacity=".86"/><circle cx="887.5" cy="638.0" r="3.2" fill="#ffffff" stroke="#2563eb" stroke-width="2"/><circle cx="1242.5" cy="638.0" r="3.2" fill="#ffffff" stroke="#2563eb" stroke-width="2"/><rect x="894.7" y="615.0" width="45.5" height="19" rx="5" fill="#f8fafc" fill-opacity=".96"/><text x="917.5" y="629.0" text-anchor="middle" fill="#2563eb" font-family="ui-monospace,SFMono-Regular,monospace" font-size="11" font-weight="650">Gi0/1</text><rect x="1189.7" y="615.0" width="45.5" height="19" rx="5" fill="#f8fafc" fill-opacity=".96"/><text x="1212.5" y="629.0" text-anchor="middle" fill="#2563eb" font-family="ui-monospace,SFMono-Regular,monospace" font-size="11" font-weight="650">Gi0/0</text><rect x="1002.0" y="655.0" width="126.1" height="19" rx="5" fill="#f8fafc" fill-opacity=".96"/><text x="1065.0" y="669.0" text-anchor="middle" fill="#2563eb" font-family="ui-monospace,SFMono-Regular,monospace" font-size="11" font-weight="500">Area 10 · Cost 20</text><path id="link-6" d="M 1482.5 638.0 H 1536.5 L 1783.5 638.0 H 1837.5" fill="none" stroke="#2563eb" stroke-width="2.2" stroke-linecap="round" stroke-linejoin="round"  opacity=".86"/><circle cx="1482.5" cy="638.0" r="3.2" fill="#ffffff" stroke="#2563eb" stroke-width="2"/><circle cx="1837.5" cy="638.0" r="3.2" fill="#ffffff" stroke="#2563eb" stroke-width="2"/><rect x="1489.7" y="615.0" width="45.5" height="19" rx="5" fill="#f8fafc" fill-opacity=".96"/><text x="1512.5" y="629.0" text-anchor="middle" fill="#2563eb" font-family="ui-monospace,SFMono-Regular,monospace" font-size="11" font-weight="650">Gi0/1</text><rect x="1778.0" y="615.0" width="59.0" height="19" rx="5" fill="#f8fafc" fill-opacity=".96"/><text x="1807.5" y="629.0" text-anchor="middle" fill="#2563eb" font-family="ui-monospace,SFMono-Regular,monospace" font-size="11" font-weight="650">Eth1/49</text><rect x="1642.1" y="655.0" width="92.5" height="19" rx="5" fill="#f8fafc" fill-opacity=".96"/><text x="1688.4" y="669.0" text-anchor="middle" fill="#2563eb" font-family="ui-monospace,SFMono-Regular,monospace" font-size="11" font-weight="500">Area 10 · DR</text><path id="link-7" d="M 2031.9 359.0 V 413.0 L 1957.5 863.0 V 917.0" fill="none" stroke="#2563eb" stroke-width="2.2" stroke-linecap="round" stroke-linejoin="round"  opacity=".86"/><circle cx="2031.9" cy="359.0" r="3.2" fill="#ffffff" stroke="#2563eb" stroke-width="2"/><circle cx="1957.5" cy="917.0" r="3.2" fill="#ffffff" stroke="#2563eb" stroke-width="2"/><rect x="2009.1" y="370.0" width="45.5" height="19" rx="5" fill="#f8fafc" fill-opacity=".96"/><text x="2031.9" y="384.0" text-anchor="middle" fill="#2563eb" font-family="ui-monospace,SFMono-Regular,monospace" font-size="11" font-weight="650">Gi0/1</text><rect x="1934.7" y="891.0" width="45.5" height="19" rx="5" fill="#f8fafc" fill-opacity=".96"/><text x="1957.5" y="905.0" text-anchor="middle" fill="#2563eb" font-family="ui-monospace,SFMono-Regular,monospace" font-size="11" font-weight="650">Gi0/0</text><rect x="1951.0" y="570.4" width="99.2" height="19" rx="5" fill="#f8fafc" fill-opacity=".96"/><text x="2000.6" y="584.4" text-anchor="middle" fill="#2563eb" font-family="ui-monospace,SFMono-Regular,monospace" font-size="11" font-weight="500">Area 20 · P2P</text><path id="link-8" d="M 1837.5 958.0 H 1783.5 L 1536.5 958.0 H 1482.5" fill="none" stroke="#2563eb" stroke-width="2.2" stroke-linecap="round" stroke-linejoin="round"  opacity=".86"/><circle cx="1837.5" cy="958.0" r="3.2" fill="#ffffff" stroke="#2563eb" stroke-width="2"/><circle cx="1482.5" cy="958.0" r="3.2" fill="#ffffff" stroke="#2563eb" stroke-width="2"/><rect x="1784.7" y="935.0" width="45.5" height="19" rx="5" fill="#f8fafc" fill-opacity=".96"/><text x="1807.5" y="949.0" text-anchor="middle" fill="#2563eb" font-family="ui-monospace,SFMono-Regular,monospace" font-size="11" font-weight="650">Gi0/1</text><rect x="1489.7" y="935.0" width="45.5" height="19" rx="5" fill="#f8fafc" fill-opacity=".96"/><text x="1512.5" y="949.0" text-anchor="middle" fill="#2563eb" font-family="ui-monospace,SFMono-Regular,monospace" font-size="11" font-weight="650">Gi0/0</text><rect x="1597.0" y="975.0" width="126.1" height="19" rx="5" fill="#f8fafc" fill-opacity=".96"/><text x="1660.0" y="989.0" text-anchor="middle" fill="#2563eb" font-family="ui-monospace,SFMono-Regular,monospace" font-size="11" font-weight="500">Area 20 · Cost 20</text><path id="link-9" d="M 1242.5 958.0 H 1188.5 L 941.5 958.0 H 887.5" fill="none" stroke="#2563eb" stroke-width="2.2" stroke-linecap="round" stroke-linejoin="round"  opacity=".86"/><circle cx="1242.5" cy="958.0" r="3.2" fill="#ffffff" stroke="#2563eb" stroke-width="2"/><circle cx="887.5" cy="958.0" r="3.2" fill="#ffffff" stroke="#2563eb" stroke-width="2"/><rect x="1189.7" y="935.0" width="45.5" height="19" rx="5" fill="#f8fafc" fill-opacity=".96"/><text x="1212.5" y="949.0" text-anchor="middle" fill="#2563eb" font-family="ui-monospace,SFMono-Regular,monospace" font-size="11" font-weight="650">Gi0/1</text><rect x="888.0" y="935.0" width="59.0" height="19" rx="5" fill="#f8fafc" fill-opacity=".96"/><text x="917.5" y="949.0" text-anchor="middle" fill="#2563eb" font-family="ui-monospace,SFMono-Regular,monospace" font-size="11" font-weight="650">Eth1/49</text><rect x="990.3" y="975.0" width="92.5" height="19" rx="5" fill="#f8fafc" fill-opacity=".96"/><text x="1036.6" y="989.0" text-anchor="middle" fill="#2563eb" font-family="ui-monospace,SFMono-Regular,monospace" font-size="11" font-weight="500">Area 20 · DR</text></g><g id="nodes"><g id="abr-10" filter="url(#shadow)"><rect x="573.1" y="277.0" width="240.0" height="82.0" rx="14" fill="#ffffff" stroke="#0878b9" stroke-width="2"/><rect x="573.1" y="277.0" width="8" height="82.0" rx="4" fill="#0878b9"/><g class="device-icon device-icon-router" transform="translate(613.1 318.0)" stroke="#0878b9" fill="none" stroke-width="1.6" stroke-linecap="round" stroke-linejoin="round"><ellipse cx="0" cy="0" rx="27" ry="18" fill="#0878b9" fill-opacity=".12"/><ellipse cx="0" cy="0" rx="27" ry="18"/><path d="M-14 0h28M8-6l6 6-6 6M14 0H-14M-8-6l-6 6 6 6"/><path d="M0-13v26M-6-7l6-6 6 6M-6 7l6 6 6-6"/></g><text x="651.1" y="311.0" fill="#0f172a" font-family="Inter,Segoe UI,sans-serif" font-size="15" font-weight="700">ABR Area 10</text><text x="651.1" y="332.0" fill="#64748b" font-family="ui-monospace,SFMono-Regular,monospace" font-size="11">OSPF-BACKBONE</text></g><g id="abr-20" filter="url(#shadow)"><rect x="1911.9" y="277.0" width="240.0" height="82.0" rx="14" fill="#ffffff" stroke="#0878b9" stroke-width="2"/><rect x="1911.9" y="277.0" width="8" height="82.0" rx="4" fill="#0878b9"/><g class="device-icon device-icon-router" transform="translate(1951.9 318.0)" stroke="#0878b9" fill="none" stroke-width="1.6" stroke-linecap="round" stroke-linejoin="round"><ellipse cx="0" cy="0" rx="27" ry="18" fill="#0878b9" fill-opacity=".12"/><ellipse cx="0" cy="0" rx="27" ry="18"/><path d="M-14 0h28M8-6l6 6-6 6M14 0H-14M-8-6l-6 6 6 6"/><path d="M0-13v26M-6-7l6-6 6 6M-6 7l6 6 6-6"/></g><text x="1989.9" y="311.0" fill="#0f172a" font-family="Inter,Segoe UI,sans-serif" font-size="15" font-weight="700">ABR Area 20</text><text x="1989.9" y="332.0" fill="#64748b" font-family="ui-monospace,SFMono-Regular,monospace" font-size="11">OSPF-BACKBONE</text></g><g id="area10-lan" filter="url(#shadow)"><rect x="1837.5" y="597.0" width="240.0" height="82.0" rx="14" fill="#ffffff" stroke="#0878b9" stroke-width="2"/><rect x="1837.5" y="597.0" width="8" height="82.0" rx="4" fill="#0878b9"/><g class="device-icon device-icon-access-switch" transform="translate(1877.5 638.0)" stroke="#0878b9" fill="none" stroke-width="1.6" stroke-linecap="round" stroke-linejoin="round"><path d="M-28 -9 -9 -20 28 -9 9 2Z" fill="#0878b9" fill-opacity=".14"/><path d="M-28 -9 9 2 28 -9v12L9 15-28 4Z" fill="#0878b9" fill-opacity=".07"/><path d="M-28 -9 -9 -20 28 -9 9 2Z"/><path d="M-28 -9v13L9 15 28 3v-12M9 2v13"/><path d="M-19 -4 3 3M-19 1 3 8"/><rect x="-15.5" y="-4.5" width="3.5" height="2.7" rx=".5"/><rect x="-10" y="-2.8" width="3.5" height="2.7" rx=".5"/><rect x="-4.5" y="-1.1" width="3.5" height="2.7" rx=".5"/><rect x="1" y=".6" width="3.5" height="2.7" rx=".5"/><circle cx="-20" cy="1.5" r="1.4"/><circle cx="-15" cy="3.2" r="1.4"/><circle cx="-10" cy="4.9" r="1.4"/><path d="M11 -10h9M12 -6h6"/></g><text x="1915.5" y="631.0" fill="#0f172a" font-family="Inter,Segoe UI,sans-serif" font-size="15" font-weight="700">Area 10 LAN</text><text x="1915.5" y="652.0" fill="#64748b" font-family="ui-monospace,SFMono-Regular,monospace" font-size="11">OSPF-AREA-10</text></g><g id="area10-r1" filter="url(#shadow)"><rect x="647.5" y="597.0" width="240.0" height="82.0" rx="14" fill="#ffffff" stroke="#0878b9" stroke-width="2"/><rect x="647.5" y="597.0" width="8" height="82.0" rx="4" fill="#0878b9"/><g class="device-icon device-icon-router" transform="translate(687.5 638.0)" stroke="#0878b9" fill="none" stroke-width="1.6" stroke-linecap="round" stroke-linejoin="round"><ellipse cx="0" cy="0" rx="27" ry="18" fill="#0878b9" fill-opacity=".12"/><ellipse cx="0" cy="0" rx="27" ry="18"/><path d="M-14 0h28M8-6l6 6-6 6M14 0H-14M-8-6l-6 6 6 6"/><path d="M0-13v26M-6-7l6-6 6 6M-6 7l6 6 6-6"/></g><text x="725.5" y="631.0" fill="#0f172a" font-family="Inter,Segoe UI,sans-serif" font-size="15" font-weight="700">Area 10 R1</text><text x="725.5" y="652.0" fill="#64748b" font-family="ui-monospace,SFMono-Regular,monospace" font-size="11">OSPF-AREA-10</text></g><g id="area10-r2" filter="url(#shadow)"><rect x="1242.5" y="597.0" width="240.0" height="82.0" rx="14" fill="#ffffff" stroke="#0878b9" stroke-width="2"/><rect x="1242.5" y="597.0" width="8" height="82.0" rx="4" fill="#0878b9"/><g class="device-icon device-icon-router" transform="translate(1282.5 638.0)" stroke="#0878b9" fill="none" stroke-width="1.6" stroke-linecap="round" stroke-linejoin="round"><ellipse cx="0" cy="0" rx="27" ry="18" fill="#0878b9" fill-opacity=".12"/><ellipse cx="0" cy="0" rx="27" ry="18"/><path d="M-14 0h28M8-6l6 6-6 6M14 0H-14M-8-6l-6 6 6 6"/><path d="M0-13v26M-6-7l6-6 6 6M-6 7l6 6 6-6"/></g><text x="1320.5" y="631.0" fill="#0f172a" font-family="Inter,Segoe UI,sans-serif" font-size="15" font-weight="700">Area 10 R2</text><text x="1320.5" y="652.0" fill="#64748b" font-family="ui-monospace,SFMono-Regular,monospace" font-size="11">OSPF-AREA-10</text></g><g id="area20-lan" filter="url(#shadow)"><rect x="647.5" y="917.0" width="240.0" height="82.0" rx="14" fill="#ffffff" stroke="#0878b9" stroke-width="2"/><rect x="647.5" y="917.0" width="8" height="82.0" rx="4" fill="#0878b9"/><g class="device-icon device-icon-access-switch" transform="translate(687.5 958.0)" stroke="#0878b9" fill="none" stroke-width="1.6" stroke-linecap="round" stroke-linejoin="round"><path d="M-28 -9 -9 -20 28 -9 9 2Z" fill="#0878b9" fill-opacity=".14"/><path d="M-28 -9 9 2 28 -9v12L9 15-28 4Z" fill="#0878b9" fill-opacity=".07"/><path d="M-28 -9 -9 -20 28 -9 9 2Z"/><path d="M-28 -9v13L9 15 28 3v-12M9 2v13"/><path d="M-19 -4 3 3M-19 1 3 8"/><rect x="-15.5" y="-4.5" width="3.5" height="2.7" rx=".5"/><rect x="-10" y="-2.8" width="3.5" height="2.7" rx=".5"/><rect x="-4.5" y="-1.1" width="3.5" height="2.7" rx=".5"/><rect x="1" y=".6" width="3.5" height="2.7" rx=".5"/><circle cx="-20" cy="1.5" r="1.4"/><circle cx="-15" cy="3.2" r="1.4"/><circle cx="-10" cy="4.9" r="1.4"/><path d="M11 -10h9M12 -6h6"/></g><text x="725.5" y="951.0" fill="#0f172a" font-family="Inter,Segoe UI,sans-serif" font-size="15" font-weight="700">Area 20 LAN</text><text x="725.5" y="972.0" fill="#64748b" font-family="ui-monospace,SFMono-Regular,monospace" font-size="11">OSPF-AREA-20</text></g><g id="area20-r1" filter="url(#shadow)"><rect x="1837.5" y="917.0" width="240.0" height="82.0" rx="14" fill="#ffffff" stroke="#0878b9" stroke-width="2"/><rect x="1837.5" y="917.0" width="8" height="82.0" rx="4" fill="#0878b9"/><g class="device-icon device-icon-router" transform="translate(1877.5 958.0)" stroke="#0878b9" fill="none" stroke-width="1.6" stroke-linecap="round" stroke-linejoin="round"><ellipse cx="0" cy="0" rx="27" ry="18" fill="#0878b9" fill-opacity=".12"/><ellipse cx="0" cy="0" rx="27" ry="18"/><path d="M-14 0h28M8-6l6 6-6 6M14 0H-14M-8-6l-6 6 6 6"/><path d="M0-13v26M-6-7l6-6 6 6M-6 7l6 6 6-6"/></g><text x="1915.5" y="951.0" fill="#0f172a" font-family="Inter,Segoe UI,sans-serif" font-size="15" font-weight="700">Area 20 R1</text><text x="1915.5" y="972.0" fill="#64748b" font-family="ui-monospace,SFMono-Regular,monospace" font-size="11">OSPF-AREA-20</text></g><g id="area20-r2" filter="url(#shadow)"><rect x="1242.5" y="917.0" width="240.0" height="82.0" rx="14" fill="#ffffff" stroke="#0878b9" stroke-width="2"/><rect x="1242.5" y="917.0" width="8" height="82.0" rx="4" fill="#0878b9"/><g class="device-icon device-icon-router" transform="translate(1282.5 958.0)" stroke="#0878b9" fill="none" stroke-width="1.6" stroke-linecap="round" stroke-linejoin="round"><ellipse cx="0" cy="0" rx="27" ry="18" fill="#0878b9" fill-opacity=".12"/><ellipse cx="0" cy="0" rx="27" ry="18"/><path d="M-14 0h28M8-6l6 6-6 6M14 0H-14M-8-6l-6 6 6 6"/><path d="M0-13v26M-6-7l6-6 6 6M-6 7l6 6 6-6"/></g><text x="1320.5" y="951.0" fill="#0f172a" font-family="Inter,Segoe UI,sans-serif" font-size="15" font-weight="700">Area 20 R2</text><text x="1320.5" y="972.0" fill="#64748b" font-family="ui-monospace,SFMono-Regular,monospace" font-size="11">OSPF-AREA-20</text></g><g id="backbone-r1" filter="url(#shadow)"><rect x="1019.4" y="277.0" width="240.0" height="82.0" rx="14" fill="#ffffff" stroke="#0878b9" stroke-width="2"/><rect x="1019.4" y="277.0" width="8" height="82.0" rx="4" fill="#0878b9"/><g class="device-icon device-icon-router" transform="translate(1059.4 318.0)" stroke="#0878b9" fill="none" stroke-width="1.6" stroke-linecap="round" stroke-linejoin="round"><ellipse cx="0" cy="0" rx="27" ry="18" fill="#0878b9" fill-opacity=".12"/><ellipse cx="0" cy="0" rx="27" ry="18"/><path d="M-14 0h28M8-6l6 6-6 6M14 0H-14M-8-6l-6 6 6 6"/><path d="M0-13v26M-6-7l6-6 6 6M-6 7l6 6 6-6"/></g><text x="1097.4" y="311.0" fill="#0f172a" font-family="Inter,Segoe UI,sans-serif" font-size="15" font-weight="700">Backbone R1</text><text x="1097.4" y="332.0" fill="#64748b" font-family="ui-monospace,SFMono-Regular,monospace" font-size="11">OSPF-BACKBONE</text></g><g id="backbone-r2" filter="url(#shadow)"><rect x="1465.6" y="277.0" width="240.0" height="82.0" rx="14" fill="#ffffff" stroke="#0878b9" stroke-width="2"/><rect x="1465.6" y="277.0" width="8" height="82.0" rx="4" fill="#0878b9"/><g class="device-icon device-icon-router" transform="translate(1505.6 318.0)" stroke="#0878b9" fill="none" stroke-width="1.6" stroke-linecap="round" stroke-linejoin="round"><ellipse cx="0" cy="0" rx="27" ry="18" fill="#0878b9" fill-opacity=".12"/><ellipse cx="0" cy="0" rx="27" ry="18"/><path d="M-14 0h28M8-6l6 6-6 6M14 0H-14M-8-6l-6 6 6 6"/><path d="M0-13v26M-6-7l6-6 6 6M-6 7l6 6 6-6"/></g><text x="1543.6" y="311.0" fill="#0f172a" font-family="Inter,Segoe UI,sans-serif" font-size="15" font-weight="700">Backbone R2</text><text x="1543.6" y="332.0" fill="#64748b" font-family="ui-monospace,SFMono-Regular,monospace" font-size="11">OSPF-BACKBONE</text></g></g></svg>