<svg class="theme-light" xmlns="http://www.w3.org/2000/svg" width="2775" height="1225" viewBox="0 0 2775 1225" role="img" shape-rendering="geometricPrecision"><defs><filter id="shadow" x="-20%" y="-20%" width="140%" height="150%"><feDropShadow dx="0" dy="4" stdDeviation="6" flood-color="#0f172a" flood-opacity=".14"/></filter></defs><rect width="100%" height="100%" fill="#f8fafc"/><rect x="0" y="0" width="2775" height="112" fill="#0f172a"/><text x="70" y="56" fill="#f8fafc" font-family="Inter,Segoe UI,sans-serif" font-size="30" font-weight="700">OSPF Multi-Area Design</text><text x="70" y="84" fill="#94a3b8" font-family="Inter,Segoe UI,sans-serif" font-size="15">Area 0 backbone with Area 10 and Area 20 ABRs and internal routers</text><text x="2705" y="66" text-anchor="end" fill="#38bdf8" font-family="ui-monospace,SFMono-Regular,monospace" font-size="14">OSPF</text><rect x="42" y="197.0" width="2691.0" height="250.0" rx="20" fill="#eff6ff" stroke="#e2e8f0"/><rect x="42" y="517.0" width="2691.0" height="250.0" rx="20" fill="#eff6ff" stroke="#e2e8f0"/><rect x="42" y="837.0" width="2691.0" height="250.0" rx="20" fill="#eff6ff" stroke="#e2e8f0"/><g id="row-headings"><g class="row-heading row-heading-ospf-backbone"><path d="M78 250.0 H410" stroke="#cbd5e1" stroke-width="1"/><text x="78" y="235.0" fill="#64748b" font-family="Inter,Segoe UI,sans-serif" font-size="12" font-weight="700" letter-spacing="1.8">OSPF BACKBONE LAYER · 4 DEVICES</text></g><g class="row-heading row-heading-ospf-area-10"><path d="M78 570.0 H410" stroke="#cbd5e1" stroke-width="1"/><text x="78" y="555.0" fill="#64748b" font-family="Inter,Segoe UI,sans-serif" font-size="12" font-weight="700" letter-spacing="1.8">OSPF AREA 10 LAYER · 3 DEVICES</text></g><g class="row-heading row-heading-ospf-area-20"><path d="M78 890.0 H410" stroke="#cbd5e1" stroke-width="1"/><text x="78" y="875.0" fill="#64748b" font-family="Inter,Segoe UI,sans-serif" font-size="12" font-weight="700" letter-spacing="1.8">OSPF AREA 20 LAYER · 3 DEVICES</text></g></g><g id="links"><g id="link-1" data-netdiag-kind="link"><path d="M 1400.0 318.0 H 1700.0" fill="none" stroke="#2563eb" stroke-width="2.2" stroke-linecap="round" stroke-linejoin="round"  opacity=".86"/><circle cx="1400.0" cy="318.0" r="3.2" fill="#ffffff" stroke="#2563eb" stroke-width="2"/><circle cx="1700.0" cy="318.0" r="3.2" fill="#ffffff" stroke="#2563eb" stroke-width="2"/></g><g id="link-2" data-netdiag-kind="link"><path d="M 1160.0 318.0 H 860.0" fill="none" stroke="#2563eb" stroke-width="2.2" stroke-linecap="round" stroke-linejoin="round"  opacity=".86"/><circle cx="1160.0" cy="318.0" r="3.2" fill="#ffffff" stroke="#2563eb" stroke-width="2"/><circle cx="860.0" cy="318.0" r="3.2" fill="#ffffff" stroke="#2563eb" stroke-width="2"/></g><g id="link-3" data-netdiag-kind="link"><path d="M 1940.0 318.0 H 2240.0" fill="none" stroke="#2563eb" stroke-width="2.2" stroke-linecap="round" stroke-linejoin="round"  opacity=".86"/><circle cx="1940.0" cy="318.0" r="3.2" fill="#ffffff" stroke="#2563eb" stroke-width="2"/><circle cx="2240.0" cy="318.0" r="3.2" fill="#ffffff" stroke="#2563eb" stroke-width="2"/></g><g id="link-4" data-netdiag-kind="link"><path d="M 740.0 359.0 V 437.0 H 830.0 V 597.0" fill="none" stroke="#2563eb" stroke-width="2.2" stroke-linecap="round" stroke-linejoin="round"  opacity=".86"/><circle cx="740.0" cy="359.0" r="3.2" fill="#ffffff" stroke="#2563eb" stroke-width="2"/><circle cx="830.0" cy="597.0" r="3.2" fill="#ffffff" stroke="#2563eb" stroke-width="2"/></g><g id="link-5" data-netdiag-kind="link"><path d="M 950.0 638.0 H 1430.0" fill="none" stroke="#2563eb" stroke-width="2.2" stroke-linecap="round" stroke-linejoin="round"  opacity=".86"/><circle cx="950.0" cy="638.0" r="3.2" fill="#ffffff" stroke="#2563eb" stroke-width="2"/><circle cx="1430.0" cy="638.0" r="3.2" fill="#ffffff" stroke="#2563eb" stroke-width="2"/></g><g id="link-6" data-netdiag-kind="link"><path d="M 1670.0 638.0 H 2150.0" fill="none" stroke="#2563eb" stroke-width="2.2" stroke-linecap="round" stroke-linejoin="round"  opacity=".86"/><circle cx="1670.0" cy="638.0" r="3.2" fill="#ffffff" stroke="#2563eb" stroke-width="2"/><circle cx="2150.0" cy="638.0" r="3.2" fill="#ffffff" stroke="#2563eb" stroke-width="2"/></g><g id="link-7" data-netdiag-kind="link"><path d="M 2360.0 359.0 V 425.0 H 2532.0 V 851.0 H 2270.0 V 917.0" fill="none" stroke="#2563eb" stroke-width="2.2" stroke-linecap="round" stroke-linejoin="round"  opacity=".86"/><circle cx="2360.0" cy="359.0" r="3.2" fill="#ffffff" stroke="#2563eb" stroke-width="2"/><circle cx="2270.0" cy="917.0" r="3.2" fill="#ffffff" stroke="#2563eb" stroke-width="2"/></g><g id="link-8" data-netdiag-kind="link"><path d="M 2150.0 958.0 H 1670.0" fill="none" stroke="#2563eb" stroke-width="2.2" stroke-linecap="round" stroke-linejoin="round"  opacity=".86"/><circle cx="2150.0" cy="958.0" r="3.2" fill="#ffffff" stroke="#2563eb" stroke-width="2"/><circle cx="1670.0" cy="958.0" r="3.2" fill="#ffffff" stroke="#2563eb" stroke-width="2"/></g><g id="link-9" data-netdiag-kind="link"><path d="M 1430.0 958.0 H 950.0" fill="none" stroke="#2563eb" stroke-width="2.2" stroke-linecap="round" stroke-linejoin="round"  opacity=".86"/><circle cx="1430.0" cy="958.0" r="3.2" fill="#ffffff" stroke="#2563eb" stroke-width="2"/><circle cx="950.0" cy="958.0" r="3.2" fill="#ffffff" stroke="#2563eb" stroke-width="2"/></g></g><g id="nodes"><g id="abr-10" data-netdiag-kind="node" filter="url(#shadow)"><rect x="620.0" y="277.0" width="240.0" height="82.0" rx="14" fill="#ffffff" stroke="#0878b9" stroke-width="2"/><rect x="620.0" y="277.0" width="8" height="82.0" rx="4" fill="#0878b9"/><g class="device-icon device-icon-router" transform="translate(660.0 318.0)" stroke="#0878b9" fill="none" stroke-width="1.6" stroke-linecap="round" stroke-linejoin="round"><ellipse cx="0" cy="0" rx="27" ry="18" fill="#0878b9" fill-opacity=".12"/><ellipse cx="0" cy="0" rx="27" ry="18"/><path d="M-14 0h28M8-6l6 6-6 6M14 0H-14M-8-6l-6 6 6 6"/><path d="M0-13v26M-6-7l6-6 6 6M-6 7l6 6 6-6"/></g><text class="node-title" x="698.0" y="311.0" fill="#0f172a" font-family="Inter,Segoe UI,Arial,sans-serif" font-size="15" font-weight="700">ABR Area 10</text><text x="698.0" y="332.0" fill="#64748b" font-family="ui-monospace,SFMono-Regular,monospace" font-size="11">OSPF-BACKBONE</text></g><g id="abr-20" data-netdiag-kind="node" filter="url(#shadow)"><rect x="2240.0" y="277.0" width="240.0" height="82.0" rx="14" fill="#ffffff" stroke="#0878b9" stroke-width="2"/><rect x="2240.0" y="277.0" width="8" height="82.0" rx="4" fill="#0878b9"/><g class="device-icon device-icon-router" transform="translate(2280.0 318.0)" stroke="#0878b9" fill="none" stroke-width="1.6" stroke-linecap="round" stroke-linejoin="round"><ellipse cx="0" cy="0" rx="27" ry="18" fill="#0878b9" fill-opacity=".12"/><ellipse cx="0" cy="0" rx="27" ry="18"/><path d="M-14 0h28M8-6l6 6-6 6M14 0H-14M-8-6l-6 6 6 6"/><path d="M0-13v26M-6-7l6-6 6 6M-6 7l6 6 6-6"/></g><text class="node-title" x="2318.0" y="311.0" fill="#0f172a" font-family="Inter,Segoe UI,Arial,sans-serif" font-size="15" font-weight="700">ABR Area 20</text><text x="2318.0" y="332.0" fill="#64748b" font-family="ui-monospace,SFMono-Regular,monospace" font-size="11">OSPF-BACKBONE</text></g><g id="area10-lan" data-netdiag-kind="node" filter="url(#shadow)"><rect x="2150.0" y="597.0" width="240.0" height="82.0" rx="14" fill="#ffffff" stroke="#0878b9" stroke-width="2"/><rect x="2150.0" y="597.0" width="8" height="82.0" rx="4" fill="#0878b9"/><g class="device-icon device-icon-access-switch" transform="translate(2190.0 638.0)" stroke="#0878b9" fill="none" stroke-width="1.6" stroke-linecap="round" stroke-linejoin="round"><path d="M-28 -9 -9 -20 28 -9 9 2Z" fill="#0878b9" fill-opacity=".14"/><path d="M-28 -9 9 2 28 -9v12L9 15-28 4Z" fill="#0878b9" fill-opacity=".07"/><path d="M-28 -9 -9 -20 28 -9 9 2Z"/><path d="M-28 -9v13L9 15 28 3v-12M9 2v13"/><path d="M-19 -4 3 3M-19 1 3 8"/><rect x="-15.5" y="-4.5" width="3.5" height="2.7" rx=".5"/><rect x="-10" y="-2.8" width="3.5" height="2.7" rx=".5"/><rect x="-4.5" y="-1.1" width="3.5" height="2.7" rx=".5"/><rect x="1" y=".6" width="3.5" height="2.7" rx=".5"/><circle cx="-20" cy="1.5" r="1.4"/><circle cx="-15" cy="3.2" r="1.4"/><circle cx="-10" cy="4.9" r="1.4"/><path d="M11 -10h9M12 -6h6"/></g><text class="node-title" x="2228.0" y="631.0" fill="#0f172a" font-family="Inter,Segoe UI,Arial,sans-serif" font-size="15" font-weight="700">Area 10 LAN</text><text x="2228.0" y="652.0" fill="#64748b" font-family="ui-monospace,SFMono-Regular,monospace" font-size="11">OSPF-AREA-10</text></g><g id="area10-r1" data-netdiag-kind="node" filter="url(#shadow)"><rect x="710.0" y="597.0" width="240.0" height="82.0" rx="14" fill="#ffffff" stroke="#0878b9" stroke-width="2"/><rect x="710.0" y="597.0" width="8" height="82.0" rx="4" fill="#0878b9"/><g class="device-icon device-icon-router" transform="translate(750.0 638.0)" stroke="#0878b9" fill="none" stroke-width="1.6" stroke-linecap="round" stroke-linejoin="round"><ellipse cx="0" cy="0" rx="27" ry="18" fill="#0878b9" fill-opacity=".12"/><ellipse cx="0" cy="0" rx="27" ry="18"/><path d="M-14 0h28M8-6l6 6-6 6M14 0H-14M-8-6l-6 6 6 6"/><path d="M0-13v26M-6-7l6-6 6 6M-6 7l6 6 6-6"/></g><text class="node-title" x="788.0" y="631.0" fill="#0f172a" font-family="Inter,Segoe UI,Arial,sans-serif" font-size="15" font-weight="700">Area 10 R1</text><text x="788.0" y="652.0" fill="#64748b" font-family="ui-monospace,SFMono-Regular,monospace" font-size="11">OSPF-AREA-10</text></g><g id="area10-r2" data-netdiag-kind="node" filter="url(#shadow)"><rect x="1430.0" y="597.0" width="240.0" height="82.0" rx="14" fill="#ffffff" stroke="#0878b9" stroke-width="2"/><rect x="1430.0" y="597.0" width="8" height="82.0" rx="4" fill="#0878b9"/><g class="device-icon device-icon-router" transform="translate(1470.0 638.0)" stroke="#0878b9" fill="none" stroke-width="1.6" stroke-linecap="round" stroke-linejoin="round"><ellipse cx="0" cy="0" rx="27" ry="18" fill="#0878b9" fill-opacity=".12"/><ellipse cx="0" cy="0" rx="27" ry="18"/><path d="M-14 0h28M8-6l6 6-6 6M14 0H-14M-8-6l-6 6 6 6"/><path d="M0-13v26M-6-7l6-6 6 6M-6 7l6 6 6-6"/></g><text class="node-title" x="1508.0" y="631.0" fill="#0f172a" font-family="Inter,Segoe UI,Arial,sans-serif" font-size="15" font-weight="700">Area 10 R2</text><text x="1508.0" y="652.0" fill="#64748b" font-family="ui-monospace,SFMono-Regular,monospace" font-size="11">OSPF-AREA-10</text></g><g id="area20-lan" data-netdiag-kind="node" filter="url(#shadow)"><rect x="710.0" y="917.0" width="240.0" height="82.0" rx="14" fill="#ffffff" stroke="#0878b9" stroke-width="2"/><rect x="710.0" y="917.0" width="8" height="82.0" rx="4" fill="#0878b9"/><g class="device-icon device-icon-access-switch" transform="translate(750.0 958.0)" stroke="#0878b9" fill="none" stroke-width="1.6" stroke-linecap="round" stroke-linejoin="round"><path d="M-28 -9 -9 -20 28 -9 9 2Z" fill="#0878b9" fill-opacity=".14"/><path d="M-28 -9 9 2 28 -9v12L9 15-28 4Z" fill="#0878b9" fill-opacity=".07"/><path d="M-28 -9 -9 -20 28 -9 9 2Z"/><path d="M-28 -9v13L9 15 28 3v-12M9 2v13"/><path d="M-19 -4 3 3M-19 1 3 8"/><rect x="-15.5" y="-4.5" width="3.5" height="2.7" rx=".5"/><rect x="-10" y="-2.8" width="3.5" height="2.7" rx=".5"/><rect x="-4.5" y="-1.1" width="3.5" height="2.7" rx=".5"/><rect x="1" y=".6" width="3.5" height="2.7" rx=".5"/><circle cx="-20" cy="1.5" r="1.4"/><circle cx="-15" cy="3.2" r="1.4"/><circle cx="-10" cy="4.9" r="1.4"/><path d="M11 -10h9M12 -6h6"/></g><text class="node-title" x="788.0" y="951.0" fill="#0f172a" font-family="Inter,Segoe UI,Arial,sans-serif" font-size="15" font-weight="700">Area 20 LAN</text><text x="788.0" y="972.0" fill="#64748b" font-family="ui-monospace,SFMono-Regular,monospace" font-size="11">OSPF-AREA-20</text></g><g id="area20-r1" data-netdiag-kind="node" filter="url(#shadow)"><rect x="2150.0" y="917.0" width="240.0" height="82.0" rx="14" fill="#ffffff" stroke="#0878b9" stroke-width="2"/><rect x="2150.0" y="917.0" width="8" height="82.0" rx="4" fill="#0878b9"/><g class="device-icon device-icon-router" transform="translate(2190.0 958.0)" stroke="#0878b9" fill="none" stroke-width="1.6" stroke-linecap="round" stroke-linejoin="round"><ellipse cx="0" cy="0" rx="27" ry="18" fill="#0878b9" fill-opacity=".12"/><ellipse cx="0" cy="0" rx="27" ry="18"/><path d="M-14 0h28M8-6l6 6-6 6M14 0H-14M-8-6l-6 6 6 6"/><path d="M0-13v26M-6-7l6-6 6 6M-6 7l6 6 6-6"/></g><text class="node-title" x="2228.0" y="951.0" fill="#0f172a" font-family="Inter,Segoe UI,Arial,sans-serif" font-size="15" font-weight="700">Area 20 R1</text><text x="2228.0" y="972.0" fill="#64748b" font-family="ui-monospace,SFMono-Regular,monospace" font-size="11">OSPF-AREA-20</text></g><g id="area20-r2" data-netdiag-kind="node" filter="url(#shadow)"><rect x="1430.0" y="917.0" width="240.0" height="82.0" rx="14" fill="#ffffff" stroke="#0878b9" stroke-width="2"/><rect x="1430.0" y="917.0" width="8" height="82.0" rx="4" fill="#0878b9"/><g class="device-icon device-icon-router" transform="translate(1470.0 958.0)" stroke="#0878b9" fill="none" stroke-width="1.6" stroke-linecap="round" stroke-linejoin="round"><ellipse cx="0" cy="0" rx="27" ry="18" fill="#0878b9" fill-opacity=".12"/><ellipse cx="0" cy="0" rx="27" ry="18"/><path d="M-14 0h28M8-6l6 6-6 6M14 0H-14M-8-6l-6 6 6 6"/><path d="M0-13v26M-6-7l6-6 6 6M-6 7l6 6 6-6"/></g><text class="node-title" x="1508.0" y="951.0" fill="#0f172a" font-family="Inter,Segoe UI,Arial,sans-serif" font-size="15" font-weight="700">Area 20 R2</text><text x="1508.0" y="972.0" fill="#64748b" font-family="ui-monospace,SFMono-Regular,monospace" font-size="11">OSPF-AREA-20</text></g><g id="backbone-r1" data-netdiag-kind="node" filter="url(#shadow)"><rect x="1160.0" y="277.0" width="240.0" height="82.0" rx="14" fill="#ffffff" stroke="#0878b9" stroke-width="2"/><rect x="1160.0" y="277.0" width="8" height="82.0" rx="4" fill="#0878b9"/><g class="device-icon device-icon-router" transform="translate(1200.0 318.0)" stroke="#0878b9" fill="none" stroke-width="1.6" stroke-linecap="round" stroke-linejoin="round"><ellipse cx="0" cy="0" rx="27" ry="18" fill="#0878b9" fill-opacity=".12"/><ellipse cx="0" cy="0" rx="27" ry="18"/><path d="M-14 0h28M8-6l6 6-6 6M14 0H-14M-8-6l-6 6 6 6"/><path d="M0-13v26M-6-7l6-6 6 6M-6 7l6 6 6-6"/></g><text class="node-title" x="1238.0" y="311.0" fill="#0f172a" font-family="Inter,Segoe UI,Arial,sans-serif" font-size="15" font-weight="700">Backbone R1</text><text x="1238.0" y="332.0" fill="#64748b" font-family="ui-monospace,SFMono-Regular,monospace" font-size="11">OSPF-BACKBONE</text></g><g id="backbone-r2" data-netdiag-kind="node" filter="url(#shadow)"><rect x="1700.0" y="277.0" width="240.0" height="82.0" rx="14" fill="#ffffff" stroke="#0878b9" stroke-width="2"/><rect x="1700.0" y="277.0" width="8" height="82.0" rx="4" fill="#0878b9"/><g class="device-icon device-icon-router" transform="translate(1740.0 318.0)" stroke="#0878b9" fill="none" stroke-width="1.6" stroke-linecap="round" stroke-linejoin="round"><ellipse cx="0" cy="0" rx="27" ry="18" fill="#0878b9" fill-opacity=".12"/><ellipse cx="0" cy="0" rx="27" ry="18"/><path d="M-14 0h28M8-6l6 6-6 6M14 0H-14M-8-6l-6 6 6 6"/><path d="M0-13v26M-6-7l6-6 6 6M-6 7l6 6 6-6"/></g><text class="node-title" x="1778.0" y="311.0" fill="#0f172a" font-family="Inter,Segoe UI,Arial,sans-serif" font-size="15" font-weight="700">Backbone R2</text><text x="1778.0" y="332.0" fill="#64748b" font-family="ui-monospace,SFMono-Regular,monospace" font-size="11">OSPF-BACKBONE</text></g></g><g id="link-annotations" pointer-events="none"><g id="link-annotation-1" class="link-annotation"><rect class="interface-label-badge" x="1429.2" y="290.0" width="51.5" height="21.0" rx="5.0" fill="#ffffff" stroke="#cbd5e1" stroke-width="1"/><text class="interface-label-text" x="1455.0" y="306.0" text-anchor="middle" fill="#334155" font-family="ui-monospace,SFMono-Regular,monospace" font-size="11" font-weight="650">Gi0/0</text><rect class="interface-label-badge" x="1619.2" y="290.0" width="51.5" height="21.0" rx="5.0" fill="#ffffff" stroke="#cbd5e1" stroke-width="1"/><text class="interface-label-text" x="1645.0" y="306.0" text-anchor="middle" fill="#334155" font-family="ui-monospace,SFMono-Regular,monospace" font-size="11" font-weight="650">Gi0/0</text><rect class="label-mask" x="1487.3" y="284.0" width="125.4" height="23" rx="5" fill="#f8fafc" stroke="#f8fafc" stroke-width="4"/><text x="1550.0" y="300.0" text-anchor="middle" fill="#2563eb" font-family="ui-monospace,SFMono-Regular,monospace" font-size="11" font-weight="500">Area 0 · Cost 10</text></g><g id="link-annotation-2" class="link-annotation"><rect class="interface-label-badge" x="1079.2" y="290.0" width="51.5" height="21.0" rx="5.0" fill="#ffffff" stroke="#cbd5e1" stroke-width="1"/><text class="interface-label-text" x="1105.0" y="306.0" text-anchor="middle" fill="#334155" font-family="ui-monospace,SFMono-Regular,monospace" font-size="11" font-weight="650">Gi0/1</text><rect class="interface-label-badge" x="889.2" y="290.0" width="51.5" height="21.0" rx="5.0" fill="#ffffff" stroke="#cbd5e1" stroke-width="1"/><text class="interface-label-text" x="915.0" y="306.0" text-anchor="middle" fill="#334155" font-family="ui-monospace,SFMono-Regular,monospace" font-size="11" font-weight="650">Gi0/0</text><rect class="label-mask" x="947.3" y="266.0" width="125.4" height="23" rx="5" fill="#f8fafc" stroke="#f8fafc" stroke-width="4"/><text x="1010.0" y="282.0" text-anchor="middle" fill="#2563eb" font-family="ui-monospace,SFMono-Regular,monospace" font-size="11" font-weight="500">Area 0 · Cost 10</text></g><g id="link-annotation-3" class="link-annotation"><rect class="interface-label-badge" x="1969.2" y="290.0" width="51.5" height="21.0" rx="5.0" fill="#ffffff" stroke="#cbd5e1" stroke-width="1"/><text class="interface-label-text" x="1995.0" y="306.0" text-anchor="middle" fill="#334155" font-family="ui-monospace,SFMono-Regular,monospace" font-size="11" font-weight="650">Gi0/1</text><rect class="interface-label-badge" x="2159.2" y="290.0" width="51.5" height="21.0" rx="5.0" fill="#ffffff" stroke="#cbd5e1" stroke-width="1"/><text class="interface-label-text" x="2185.0" y="306.0" text-anchor="middle" fill="#334155" font-family="ui-monospace,SFMono-Regular,monospace" font-size="11" font-weight="650">Gi0/0</text><rect class="label-mask" x="2027.3" y="320.0" width="125.4" height="23" rx="5" fill="#f8fafc" stroke="#f8fafc" stroke-width="4"/><text x="2090.0" y="336.0" text-anchor="middle" fill="#2563eb" font-family="ui-monospace,SFMono-Regular,monospace" font-size="11" font-weight="500">Area 0 · Cost 10</text></g><g id="link-annotation-4" class="link-annotation"><rect class="interface-label-badge" x="714.2" y="368.0" width="51.5" height="21.0" rx="5.0" fill="#ffffff" stroke="#cbd5e1" stroke-width="1"/><text class="interface-label-text" x="740.0" y="384.0" text-anchor="middle" fill="#334155" font-family="ui-monospace,SFMono-Regular,monospace" font-size="11" font-weight="650">Gi0/1</text><rect class="interface-label-badge" x="804.2" y="569.0" width="51.5" height="21.0" rx="5.0" fill="#ffffff" stroke="#cbd5e1" stroke-width="1"/><text class="interface-label-text" x="830.0" y="585.0" text-anchor="middle" fill="#334155" font-family="ui-monospace,SFMono-Regular,monospace" font-size="11" font-weight="650">Gi0/0</text><rect class="label-mask" x="732.4" y="403.0" width="105.2" height="23" rx="5" fill="#f8fafc" stroke="#f8fafc" stroke-width="4"/><text x="785.0" y="419.0" text-anchor="middle" fill="#2563eb" font-family="ui-monospace,SFMono-Regular,monospace" font-size="11" font-weight="500">Area 10 · P2P</text></g><g id="link-annotation-5" class="link-annotation"><rect class="interface-label-badge" x="979.2" y="610.0" width="51.5" height="21.0" rx="5.0" fill="#ffffff" stroke="#cbd5e1" stroke-width="1"/><text class="interface-label-text" x="1005.0" y="626.0" text-anchor="middle" fill="#334155" font-family="ui-monospace,SFMono-Regular,monospace" font-size="11" font-weight="650">Gi0/1</text><rect class="interface-label-badge" x="1349.2" y="610.0" width="51.5" height="21.0" rx="5.0" fill="#ffffff" stroke="#cbd5e1" stroke-width="1"/><text class="interface-label-text" x="1375.0" y="626.0" text-anchor="middle" fill="#334155" font-family="ui-monospace,SFMono-Regular,monospace" font-size="11" font-weight="650">Gi0/0</text><rect class="label-mask" x="1124.0" y="586.0" width="132.1" height="23" rx="5" fill="#f8fafc" stroke="#f8fafc" stroke-width="4"/><text x="1190.0" y="602.0" text-anchor="middle" fill="#2563eb" font-family="ui-monospace,SFMono-Regular,monospace" font-size="11" font-weight="500">Area 10 · Cost 20</text></g><g id="link-annotation-6" class="link-annotation"><rect class="interface-label-badge" x="1699.2" y="610.0" width="51.5" height="21.0" rx="5.0" fill="#ffffff" stroke="#cbd5e1" stroke-width="1"/><text class="interface-label-text" x="1725.0" y="626.0" text-anchor="middle" fill="#334155" font-family="ui-monospace,SFMono-Regular,monospace" font-size="11" font-weight="650">Gi0/1</text><rect class="interface-label-badge" x="2062.5" y="610.0" width="65.0" height="21.0" rx="5.0" fill="#ffffff" stroke="#cbd5e1" stroke-width="1"/><text class="interface-label-text" x="2095.0" y="626.0" text-anchor="middle" fill="#334155" font-family="ui-monospace,SFMono-Regular,monospace" font-size="11" font-weight="650">Eth1/49</text><rect class="label-mask" x="1860.7" y="640.0" width="98.5" height="23" rx="5" fill="#f8fafc" stroke="#f8fafc" stroke-width="4"/><text x="1910.0" y="656.0" text-anchor="middle" fill="#2563eb" font-family="ui-monospace,SFMono-Regular,monospace" font-size="11" font-weight="500">Area 10 · DR</text></g><g id="link-annotation-7" class="link-annotation"><rect class="interface-label-badge" x="2334.2" y="368.0" width="51.5" height="21.0" rx="5.0" fill="#ffffff" stroke="#cbd5e1" stroke-width="1"/><text class="interface-label-text" x="2360.0" y="384.0" text-anchor="middle" fill="#334155" font-family="ui-monospace,SFMono-Regular,monospace" font-size="11" font-weight="650">Gi0/1</text><rect class="interface-label-badge" x="2244.2" y="889.0" width="51.5" height="21.0" rx="5.0" fill="#ffffff" stroke="#cbd5e1" stroke-width="1"/><text class="interface-label-text" x="2270.0" y="905.0" text-anchor="middle" fill="#334155" font-family="ui-monospace,SFMono-Regular,monospace" font-size="11" font-weight="650">Gi0/0</text><rect class="label-mask" x="2461.4" y="622.0" width="105.2" height="23" rx="5" fill="#f8fafc" stroke="#f8fafc" stroke-width="4"/><text x="2514.0" y="638.0" text-anchor="middle" fill="#2563eb" font-family="ui-monospace,SFMono-Regular,monospace" font-size="11" font-weight="500">Area 20 · P2P</text></g><g id="link-annotation-8" class="link-annotation"><rect class="interface-label-badge" x="2069.2" y="930.0" width="51.5" height="21.0" rx="5.0" fill="#ffffff" stroke="#cbd5e1" stroke-width="1"/><text class="interface-label-text" x="2095.0" y="946.0" text-anchor="middle" fill="#334155" font-family="ui-monospace,SFMono-Regular,monospace" font-size="11" font-weight="650">Gi0/1</text><rect class="interface-label-badge" x="1699.2" y="930.0" width="51.5" height="21.0" rx="5.0" fill="#ffffff" stroke="#cbd5e1" stroke-width="1"/><text class="interface-label-text" x="1725.0" y="946.0" text-anchor="middle" fill="#334155" font-family="ui-monospace,SFMono-Regular,monospace" font-size="11" font-weight="650">Gi0/0</text><rect class="label-mask" x="1844.0" y="906.0" width="132.1" height="23" rx="5" fill="#f8fafc" stroke="#f8fafc" stroke-width="4"/><text x="1910.0" y="922.0" text-anchor="middle" fill="#2563eb" font-family="ui-monospace,SFMono-Regular,monospace" font-size="11" font-weight="500">Area 20 · Cost 20</text></g><g id="link-annotation-9" class="link-annotation"><rect class="interface-label-badge" x="1349.2" y="930.0" width="51.5" height="21.0" rx="5.0" fill="#ffffff" stroke="#cbd5e1" stroke-width="1"/><text class="interface-label-text" x="1375.0" y="946.0" text-anchor="middle" fill="#334155" font-family="ui-monospace,SFMono-Regular,monospace" font-size="11" font-weight="650">Gi0/1</text><rect class="interface-label-badge" x="972.5" y="930.0" width="65.0" height="21.0" rx="5.0" fill="#ffffff" stroke="#cbd5e1" stroke-width="1"/><text class="interface-label-text" x="1005.0" y="946.0" text-anchor="middle" fill="#334155" font-family="ui-monospace,SFMono-Regular,monospace" font-size="11" font-weight="650">Eth1/49</text><rect class="label-mask" x="1140.7" y="960.0" width="98.5" height="23" rx="5" fill="#f8fafc" stroke="#f8fafc" stroke-width="4"/><text x="1190.0" y="976.0" text-anchor="middle" fill="#2563eb" font-family="ui-monospace,SFMono-Regular,monospace" font-size="11" font-weight="500">Area 20 · DR</text></g></g></svg>