<svg xmlns="http://www.w3.org/2000/svg" width="2400" height="905" viewBox="0 0 2400 905" role="img"><defs><filter id="shadow" x="-20%" y="-20%" width="140%" height="150%"><feDropShadow dx="0" dy="4" stdDeviation="6" flood-color="#0f172a" flood-opacity=".14"/></filter></defs><rect width="100%" height="100%" fill="#f8fafc"/><rect x="0" y="0" width="2400" height="112" fill="#0f172a"/><text x="70" y="56" fill="#f8fafc" font-family="Inter,Segoe UI,sans-serif" font-size="30" font-weight="700">IS-IS Level-1 and Level-2 Topology</text><text x="70" y="84" fill="#94a3b8" font-family="Inter,Segoe UI,sans-serif" font-size="15">Level-2 backbone connecting two Level-1 routing domains</text><text x="2330" y="66" text-anchor="end" fill="#38bdf8" font-family="ui-monospace,SFMono-Regular,monospace" font-size="14">IS-IS</text><rect x="42" y="197.0" width="2316.0" height="250.0" rx="20" fill="#eff6ff" stroke="#e2e8f0"/><rect x="42" y="517.0" width="2316.0" height="250.0" rx="20" fill="#eff6ff" stroke="#e2e8f0"/><g id="row-headings"><g class="row-heading row-heading-isis-level-2"><path d="M78 250.0 H410" stroke="#cbd5e1" stroke-width="1"/><text x="78" y="235.0" fill="#64748b" font-family="Inter,Segoe UI,sans-serif" font-size="12" font-weight="700" letter-spacing="1.8">ISIS LEVEL 2 LAYER · 4 DEVICES</text></g><g class="row-heading row-heading-isis-level-1"><path d="M78 570.0 H410" stroke="#cbd5e1" stroke-width="1"/><text x="78" y="555.0" fill="#64748b" font-family="Inter,Segoe UI,sans-serif" font-size="12" font-weight="700" letter-spacing="1.8">ISIS LEVEL 1 LAYER · 4 DEVICES</text></g></g><g id="links"><path id="link-1" d="M 1259.4 318.0 H 1304.8 L 1420.2 318.0 H 1465.6" fill="none" stroke="#7c3aed" stroke-width="2.2" stroke-linecap="round" stroke-linejoin="round"  opacity=".86"/><circle cx="1259.4" cy="318.0" r="3.2" fill="#ffffff" stroke="#7c3aed" stroke-width="2"/><circle cx="1465.6" cy="318.0" r="3.2" fill="#ffffff" stroke="#7c3aed" stroke-width="2"/><rect x="1266.6" y="295.0" width="45.5" height="19" rx="5" fill="#f8fafc" fill-opacity=".96"/><text x="1289.4" y="309.0" text-anchor="middle" fill="#7c3aed" font-family="ui-monospace,SFMono-Regular,monospace" font-size="11" font-weight="650">Te0/0</text><rect x="1412.8" y="295.0" width="45.5" height="19" rx="5" fill="#f8fafc" fill-opacity=".96"/><text x="1435.6" y="309.0" text-anchor="middle" fill="#7c3aed" font-family="ui-monospace,SFMono-Regular,monospace" font-size="11" font-weight="650">Te0/0</text><rect x="1293.0" y="295.0" width="105.9" height="19" rx="5" fill="#f8fafc" fill-opacity=".96"/><text x="1346.0" y="309.0" text-anchor="middle" fill="#7c3aed" font-family="ui-monospace,SFMono-Regular,monospace" font-size="11" font-weight="500">L2 · Metric 10</text><path id="link-2" d="M 1019.4 318.0 H 974.0 L 858.5 318.0 H 813.1" fill="none" stroke="#7c3aed" stroke-width="2.2" stroke-linecap="round" stroke-linejoin="round"  opacity=".86"/><circle cx="1019.4" cy="318.0" r="3.2" fill="#ffffff" stroke="#7c3aed" stroke-width="2"/><circle cx="813.1" cy="318.0" r="3.2" fill="#ffffff" stroke="#7c3aed" stroke-width="2"/><rect x="966.6" y="295.0" width="45.5" height="19" rx="5" fill="#f8fafc" fill-opacity=".96"/><text x="989.4" y="309.0" text-anchor="middle" fill="#7c3aed" font-family="ui-monospace,SFMono-Regular,monospace" font-size="11" font-weight="650">Te0/1</text><rect x="820.4" y="295.0" width="45.5" height="19" rx="5" fill="#f8fafc" fill-opacity=".96"/><text x="843.1" y="309.0" text-anchor="middle" fill="#7c3aed" font-family="ui-monospace,SFMono-Regular,monospace" font-size="11" font-weight="650">Te0/0</text><rect x="883.4" y="295.0" width="65.7" height="19" rx="5" fill="#f8fafc" fill-opacity=".96"/><text x="916.2" y="309.0" text-anchor="middle" fill="#7c3aed" font-family="ui-monospace,SFMono-Regular,monospace" font-size="11" font-weight="500">L2 · P2P</text><path id="link-3" d="M 1705.6 318.0 H 1751.0 L 1866.5 318.0 H 1911.9" fill="none" stroke="#7c3aed" stroke-width="2.2" stroke-linecap="round" stroke-linejoin="round"  opacity=".86"/><circle cx="1705.6" cy="318.0" r="3.2" fill="#ffffff" stroke="#7c3aed" stroke-width="2"/><circle cx="1911.9" cy="318.0" r="3.2" fill="#ffffff" stroke="#7c3aed" stroke-width="2"/><rect x="1712.8" y="295.0" width="45.5" height="19" rx="5" fill="#f8fafc" fill-opacity=".96"/><text x="1735.6" y="309.0" text-anchor="middle" fill="#7c3aed" font-family="ui-monospace,SFMono-Regular,monospace" font-size="11" font-weight="650">Te0/1</text><rect x="1859.1" y="295.0" width="45.5" height="19" rx="5" fill="#f8fafc" fill-opacity=".96"/><text x="1881.9" y="309.0" text-anchor="middle" fill="#7c3aed" font-family="ui-monospace,SFMono-Regular,monospace" font-size="11" font-weight="650">Te0/0</text><rect x="1792.4" y="295.0" width="65.7" height="19" rx="5" fill="#f8fafc" fill-opacity=".96"/><text x="1825.2" y="309.0" text-anchor="middle" fill="#7c3aed" font-family="ui-monospace,SFMono-Regular,monospace" font-size="11" font-weight="500">L2 · P2P</text><path id="link-4" d="M 693.1 359.0 V 411.4 L 693.1 544.6 V 597.0" fill="none" stroke="#7c3aed" stroke-width="2.2" stroke-linecap="round" stroke-linejoin="round"  opacity=".86"/><circle cx="693.1" cy="359.0" r="3.2" fill="#ffffff" stroke="#7c3aed" stroke-width="2"/><circle cx="693.1" cy="597.0" r="3.2" fill="#ffffff" stroke="#7c3aed" stroke-width="2"/><rect x="670.4" y="370.0" width="45.5" height="19" rx="5" fill="#f8fafc" fill-opacity=".96"/><text x="693.1" y="384.0" text-anchor="middle" fill="#7c3aed" font-family="ui-monospace,SFMono-Regular,monospace" font-size="11" font-weight="650">Gi0/1</text><rect x="670.4" y="571.0" width="45.5" height="19" rx="5" fill="#f8fafc" fill-opacity=".96"/><text x="693.1" y="585.0" text-anchor="middle" fill="#7c3aed" font-family="ui-monospace,SFMono-Regular,monospace" font-size="11" font-weight="650">Gi0/0</text><rect x="630.1" y="436.0" width="126.1" height="19" rx="5" fill="#f8fafc" fill-opacity=".96"/><text x="693.1" y="450.0" text-anchor="middle" fill="#7c3aed" font-family="ui-monospace,SFMono-Regular,monospace" font-size="11" font-weight="500">L1 · Area 49.0001</text><path id="link-5" d="M 813.1 638.0 H 858.5 L 974.0 638.0 H 1019.4" fill="none" stroke="#7c3aed" stroke-width="2.2" stroke-linecap="round" stroke-linejoin="round"  opacity=".86"/><circle cx="813.1" cy="638.0" r="3.2" fill="#ffffff" stroke="#7c3aed" stroke-width="2"/><circle cx="1019.4" cy="638.0" r="3.2" fill="#ffffff" stroke="#7c3aed" stroke-width="2"/><rect x="820.4" y="615.0" width="45.5" height="19" rx="5" fill="#f8fafc" fill-opacity=".96"/><text x="843.1" y="629.0" text-anchor="middle" fill="#7c3aed" font-family="ui-monospace,SFMono-Regular,monospace" font-size="11" font-weight="650">Gi0/1</text><rect x="966.6" y="615.0" width="45.5" height="19" rx="5" fill="#f8fafc" fill-opacity=".96"/><text x="989.4" y="629.0" text-anchor="middle" fill="#7c3aed" font-family="ui-monospace,SFMono-Regular,monospace" font-size="11" font-weight="650">Gi0/0</text><rect x="863.3" y="615.0" width="105.9" height="19" rx="5" fill="#f8fafc" fill-opacity=".96"/><text x="916.2" y="629.0" text-anchor="middle" fill="#7c3aed" font-family="ui-monospace,SFMono-Regular,monospace" font-size="11" font-weight="500">L1 · Metric 20</text><path id="link-6" d="M 2031.9 359.0 V 411.4 L 2031.9 544.6 V 597.0" fill="none" stroke="#7c3aed" stroke-width="2.2" stroke-linecap="round" stroke-linejoin="round"  opacity=".86"/><circle cx="2031.9" cy="359.0" r="3.2" fill="#ffffff" stroke="#7c3aed" stroke-width="2"/><circle cx="2031.9" cy="597.0" r="3.2" fill="#ffffff" stroke="#7c3aed" stroke-width="2"/><rect x="2009.1" y="370.0" width="45.5" height="19" rx="5" fill="#f8fafc" fill-opacity=".96"/><text x="2031.9" y="384.0" text-anchor="middle" fill="#7c3aed" font-family="ui-monospace,SFMono-Regular,monospace" font-size="11" font-weight="650">Gi0/1</text><rect x="2009.1" y="571.0" width="45.5" height="19" rx="5" fill="#f8fafc" fill-opacity=".96"/><text x="2031.9" y="585.0" text-anchor="middle" fill="#7c3aed" font-family="ui-monospace,SFMono-Regular,monospace" font-size="11" font-weight="650">Gi0/0</text><rect x="1968.8" y="474.0" width="126.1" height="19" rx="5" fill="#f8fafc" fill-opacity=".96"/><text x="2031.9" y="488.0" text-anchor="middle" fill="#7c3aed" font-family="ui-monospace,SFMono-Regular,monospace" font-size="11" font-weight="500">L1 · Area 49.0002</text><path id="link-7" d="M 1911.9 638.0 H 1866.5 L 1751.0 638.0 H 1705.6" fill="none" stroke="#7c3aed" stroke-width="2.2" stroke-linecap="round" stroke-linejoin="round"  opacity=".86"/><circle cx="1911.9" cy="638.0" r="3.2" fill="#ffffff" stroke="#7c3aed" stroke-width="2"/><circle cx="1705.6" cy="638.0" r="3.2" fill="#ffffff" stroke="#7c3aed" stroke-width="2"/><rect x="1859.1" y="615.0" width="45.5" height="19" rx="5" fill="#f8fafc" fill-opacity=".96"/><text x="1881.9" y="629.0" text-anchor="middle" fill="#7c3aed" font-family="ui-monospace,SFMono-Regular,monospace" font-size="11" font-weight="650">Gi0/1</text><rect x="1712.8" y="615.0" width="45.5" height="19" rx="5" fill="#f8fafc" fill-opacity=".96"/><text x="1735.6" y="629.0" text-anchor="middle" fill="#7c3aed" font-family="ui-monospace,SFMono-Regular,monospace" font-size="11" font-weight="650">Gi0/0</text><rect x="1772.3" y="615.0" width="105.9" height="19" rx="5" fill="#f8fafc" fill-opacity=".96"/><text x="1825.2" y="629.0" text-anchor="middle" fill="#7c3aed" font-family="ui-monospace,SFMono-Regular,monospace" font-size="11" font-weight="500">L1 · Metric 20</text></g><g id="nodes"><g id="east-l1-r1" filter="url(#shadow)"><rect x="1911.9" y="597.0" width="240.0" height="82.0" rx="14" fill="#ffffff" stroke="#0878b9" stroke-width="2"/><rect x="1911.9" y="597.0" width="8" height="82.0" rx="4" fill="#0878b9"/><g class="device-icon device-icon-router" transform="translate(1951.9 638.0)" stroke="#0878b9" fill="none" stroke-width="1.6" stroke-linecap="round" stroke-linejoin="round"><ellipse cx="0" cy="0" rx="27" ry="18" fill="#0878b9" fill-opacity=".12"/><ellipse cx="0" cy="0" rx="27" ry="18"/><path d="M-14 0h28M8-6l6 6-6 6M14 0H-14M-8-6l-6 6 6 6"/><path d="M0-13v26M-6-7l6-6 6 6M-6 7l6 6 6-6"/></g><text x="1989.9" y="631.0" fill="#0f172a" font-family="Inter,Segoe UI,sans-serif" font-size="15" font-weight="700">East L1 Router 01</text><text x="1989.9" y="652.0" fill="#64748b" font-family="ui-monospace,SFMono-Regular,monospace" font-size="11">ISIS-LEVEL-1</text></g><g id="east-l1-r2" filter="url(#shadow)"><rect x="1465.6" y="597.0" width="240.0" height="82.0" rx="14" fill="#ffffff" stroke="#0878b9" stroke-width="2"/><rect x="1465.6" y="597.0" width="8" height="82.0" rx="4" fill="#0878b9"/><g class="device-icon device-icon-router" transform="translate(1505.6 638.0)" stroke="#0878b9" fill="none" stroke-width="1.6" stroke-linecap="round" stroke-linejoin="round"><ellipse cx="0" cy="0" rx="27" ry="18" fill="#0878b9" fill-opacity=".12"/><ellipse cx="0" cy="0" rx="27" ry="18"/><path d="M-14 0h28M8-6l6 6-6 6M14 0H-14M-8-6l-6 6 6 6"/><path d="M0-13v26M-6-7l6-6 6 6M-6 7l6 6 6-6"/></g><text x="1543.6" y="631.0" fill="#0f172a" font-family="Inter,Segoe UI,sans-serif" font-size="15" font-weight="700">East L1 Router 02</text><text x="1543.6" y="652.0" fill="#64748b" font-family="ui-monospace,SFMono-Regular,monospace" font-size="11">ISIS-LEVEL-1</text></g><g id="l1l2-east" filter="url(#shadow)"><rect x="1911.9" y="277.0" width="240.0" height="82.0" rx="14" fill="#ffffff" stroke="#0878b9" stroke-width="2"/><rect x="1911.9" y="277.0" width="8" height="82.0" rx="4" fill="#0878b9"/><g class="device-icon device-icon-router" transform="translate(1951.9 318.0)" stroke="#0878b9" fill="none" stroke-width="1.6" stroke-linecap="round" stroke-linejoin="round"><ellipse cx="0" cy="0" rx="27" ry="18" fill="#0878b9" fill-opacity=".12"/><ellipse cx="0" cy="0" rx="27" ry="18"/><path d="M-14 0h28M8-6l6 6-6 6M14 0H-14M-8-6l-6 6 6 6"/><path d="M0-13v26M-6-7l6-6 6 6M-6 7l6 6 6-6"/></g><text x="1989.9" y="311.0" fill="#0f172a" font-family="Inter,Segoe UI,sans-serif" font-size="15" font-weight="700">East L1/L2 Router</text><text x="1989.9" y="332.0" fill="#64748b" font-family="ui-monospace,SFMono-Regular,monospace" font-size="11">ISIS-LEVEL-2</text></g><g id="l1l2-west" filter="url(#shadow)"><rect x="573.1" y="277.0" width="240.0" height="82.0" rx="14" fill="#ffffff" stroke="#0878b9" stroke-width="2"/><rect x="573.1" y="277.0" width="8" height="82.0" rx="4" fill="#0878b9"/><g class="device-icon device-icon-router" transform="translate(613.1 318.0)" stroke="#0878b9" fill="none" stroke-width="1.6" stroke-linecap="round" stroke-linejoin="round"><ellipse cx="0" cy="0" rx="27" ry="18" fill="#0878b9" fill-opacity=".12"/><ellipse cx="0" cy="0" rx="27" ry="18"/><path d="M-14 0h28M8-6l6 6-6 6M14 0H-14M-8-6l-6 6 6 6"/><path d="M0-13v26M-6-7l6-6 6 6M-6 7l6 6 6-6"/></g><text x="651.1" y="311.0" fill="#0f172a" font-family="Inter,Segoe UI,sans-serif" font-size="15" font-weight="700">West L1/L2 Router</text><text x="651.1" y="332.0" fill="#64748b" font-family="ui-monospace,SFMono-Regular,monospace" font-size="11">ISIS-LEVEL-2</text></g><g id="l2-core-01" filter="url(#shadow)"><rect x="1019.4" y="277.0" width="240.0" height="82.0" rx="14" fill="#ffffff" stroke="#0878b9" stroke-width="2"/><rect x="1019.4" y="277.0" width="8" height="82.0" rx="4" fill="#0878b9"/><g class="device-icon device-icon-router" transform="translate(1059.4 318.0)" stroke="#0878b9" fill="none" stroke-width="1.6" stroke-linecap="round" stroke-linejoin="round"><ellipse cx="0" cy="0" rx="27" ry="18" fill="#0878b9" fill-opacity=".12"/><ellipse cx="0" cy="0" rx="27" ry="18"/><path d="M-14 0h28M8-6l6 6-6 6M14 0H-14M-8-6l-6 6 6 6"/><path d="M0-13v26M-6-7l6-6 6 6M-6 7l6 6 6-6"/></g><text x="1097.4" y="311.0" fill="#0f172a" font-family="Inter,Segoe UI,sans-serif" font-size="15" font-weight="700">L2 Core 01</text><text x="1097.4" y="332.0" fill="#64748b" font-family="ui-monospace,SFMono-Regular,monospace" font-size="11">ISIS-LEVEL-2</text></g><g id="l2-core-02" filter="url(#shadow)"><rect x="1465.6" y="277.0" width="240.0" height="82.0" rx="14" fill="#ffffff" stroke="#0878b9" stroke-width="2"/><rect x="1465.6" y="277.0" width="8" height="82.0" rx="4" fill="#0878b9"/><g class="device-icon device-icon-router" transform="translate(1505.6 318.0)" stroke="#0878b9" fill="none" stroke-width="1.6" stroke-linecap="round" stroke-linejoin="round"><ellipse cx="0" cy="0" rx="27" ry="18" fill="#0878b9" fill-opacity=".12"/><ellipse cx="0" cy="0" rx="27" ry="18"/><path d="M-14 0h28M8-6l6 6-6 6M14 0H-14M-8-6l-6 6 6 6"/><path d="M0-13v26M-6-7l6-6 6 6M-6 7l6 6 6-6"/></g><text x="1543.6" y="311.0" fill="#0f172a" font-family="Inter,Segoe UI,sans-serif" font-size="15" font-weight="700">L2 Core 02</text><text x="1543.6" y="332.0" fill="#64748b" font-family="ui-monospace,SFMono-Regular,monospace" font-size="11">ISIS-LEVEL-2</text></g><g id="west-l1-r1" filter="url(#shadow)"><rect x="573.1" y="597.0" width="240.0" height="82.0" rx="14" fill="#ffffff" stroke="#0878b9" stroke-width="2"/><rect x="573.1" y="597.0" width="8" height="82.0" rx="4" fill="#0878b9"/><g class="device-icon device-icon-router" transform="translate(613.1 638.0)" stroke="#0878b9" fill="none" stroke-width="1.6" stroke-linecap="round" stroke-linejoin="round"><ellipse cx="0" cy="0" rx="27" ry="18" fill="#0878b9" fill-opacity=".12"/><ellipse cx="0" cy="0" rx="27" ry="18"/><path d="M-14 0h28M8-6l6 6-6 6M14 0H-14M-8-6l-6 6 6 6"/><path d="M0-13v26M-6-7l6-6 6 6M-6 7l6 6 6-6"/></g><text x="651.1" y="631.0" fill="#0f172a" font-family="Inter,Segoe UI,sans-serif" font-size="15" font-weight="700">West L1 Router 01</text><text x="651.1" y="652.0" fill="#64748b" font-family="ui-monospace,SFMono-Regular,monospace" font-size="11">ISIS-LEVEL-1</text></g><g id="west-l1-r2" filter="url(#shadow)"><rect x="1019.4" y="597.0" width="240.0" height="82.0" rx="14" fill="#ffffff" stroke="#0878b9" stroke-width="2"/><rect x="1019.4" y="597.0" width="8" height="82.0" rx="4" fill="#0878b9"/><g class="device-icon device-icon-router" transform="translate(1059.4 638.0)" stroke="#0878b9" fill="none" stroke-width="1.6" stroke-linecap="round" stroke-linejoin="round"><ellipse cx="0" cy="0" rx="27" ry="18" fill="#0878b9" fill-opacity=".12"/><ellipse cx="0" cy="0" rx="27" ry="18"/><path d="M-14 0h28M8-6l6 6-6 6M14 0H-14M-8-6l-6 6 6 6"/><path d="M0-13v26M-6-7l6-6 6 6M-6 7l6 6 6-6"/></g><text x="1097.4" y="631.0" fill="#0f172a" font-family="Inter,Segoe UI,sans-serif" font-size="15" font-weight="700">West L1 Router 02</text><text x="1097.4" y="652.0" fill="#64748b" font-family="ui-monospace,SFMono-Regular,monospace" font-size="11">ISIS-LEVEL-1</text></g></g></svg>