<svg class="theme-light" xmlns="http://www.w3.org/2000/svg" width="2775" height="905" viewBox="0 0 2775 905" role="img" shape-rendering="geometricPrecision"><defs><filter id="shadow" x="-20%" y="-20%" width="140%" height="150%"><feDropShadow dx="0" dy="4" stdDeviation="6" flood-color="#0f172a" flood-opacity=".14"/></filter></defs><rect width="100%" height="100%" fill="#f8fafc"/><rect x="0" y="0" width="2775" height="112" fill="#0f172a"/><text x="70" y="56" fill="#f8fafc" font-family="Inter,Segoe UI,sans-serif" font-size="30" font-weight="700">IS-IS Level-1 and Level-2 Topology</text><text x="70" y="84" fill="#94a3b8" font-family="Inter,Segoe UI,sans-serif" font-size="15">Level-2 backbone connecting two Level-1 routing domains</text><text x="2705" y="66" text-anchor="end" fill="#38bdf8" font-family="ui-monospace,SFMono-Regular,monospace" font-size="14">IS-IS</text><rect x="42" y="197.0" width="2691.0" height="250.0" rx="20" fill="#eff6ff" stroke="#e2e8f0"/><rect x="42" y="517.0" width="2691.0" height="250.0" rx="20" fill="#eff6ff" stroke="#e2e8f0"/><g id="row-headings"><g class="row-heading row-heading-isis-level-2"><path d="M78 250.0 H410" stroke="#cbd5e1" stroke-width="1"/><text x="78" y="235.0" fill="#64748b" font-family="Inter,Segoe UI,sans-serif" font-size="12" font-weight="700" letter-spacing="1.8">ISIS LEVEL 2 LAYER · 4 DEVICES</text></g><g class="row-heading row-heading-isis-level-1"><path d="M78 570.0 H410" stroke="#cbd5e1" stroke-width="1"/><text x="78" y="555.0" fill="#64748b" font-family="Inter,Segoe UI,sans-serif" font-size="12" font-weight="700" letter-spacing="1.8">ISIS LEVEL 1 LAYER · 4 DEVICES</text></g></g><g id="links"><g id="link-1" data-netdiag-kind="link"><path d="M 1400.0 318.0 H 1454.0 L 1646.0 318.0 H 1700.0" fill="none" stroke="#7c3aed" stroke-width="2.2" stroke-linecap="round" stroke-linejoin="round"  opacity=".86"/><circle cx="1400.0" cy="318.0" r="3.2" fill="#ffffff" stroke="#7c3aed" stroke-width="2"/><circle cx="1700.0" cy="318.0" r="3.2" fill="#ffffff" stroke="#7c3aed" stroke-width="2"/></g><g id="link-2" data-netdiag-kind="link"><path d="M 1160.0 318.0 H 1106.0 L 914.0 318.0 H 860.0" fill="none" stroke="#7c3aed" stroke-width="2.2" stroke-linecap="round" stroke-linejoin="round"  opacity=".86"/><circle cx="1160.0" cy="318.0" r="3.2" fill="#ffffff" stroke="#7c3aed" stroke-width="2"/><circle cx="860.0" cy="318.0" r="3.2" fill="#ffffff" stroke="#7c3aed" stroke-width="2"/></g><g id="link-3" data-netdiag-kind="link"><path d="M 1940.0 318.0 H 1994.0 L 2186.0 318.0 H 2240.0" fill="none" stroke="#7c3aed" stroke-width="2.2" stroke-linecap="round" stroke-linejoin="round"  opacity=".86"/><circle cx="1940.0" cy="318.0" r="3.2" fill="#ffffff" stroke="#7c3aed" stroke-width="2"/><circle cx="2240.0" cy="318.0" r="3.2" fill="#ffffff" stroke="#7c3aed" stroke-width="2"/></g><g id="link-4" data-netdiag-kind="link"><path d="M 740.0 359.0 V 411.4 L 740.0 544.6 V 597.0" fill="none" stroke="#7c3aed" stroke-width="2.2" stroke-linecap="round" stroke-linejoin="round"  opacity=".86"/><circle cx="740.0" cy="359.0" r="3.2" fill="#ffffff" stroke="#7c3aed" stroke-width="2"/><circle cx="740.0" cy="597.0" r="3.2" fill="#ffffff" stroke="#7c3aed" stroke-width="2"/></g><g id="link-5" data-netdiag-kind="link"><path d="M 860.0 638.0 H 914.0 L 1106.0 638.0 H 1160.0" fill="none" stroke="#7c3aed" stroke-width="2.2" stroke-linecap="round" stroke-linejoin="round"  opacity=".86"/><circle cx="860.0" cy="638.0" r="3.2" fill="#ffffff" stroke="#7c3aed" stroke-width="2"/><circle cx="1160.0" cy="638.0" r="3.2" fill="#ffffff" stroke="#7c3aed" stroke-width="2"/></g><g id="link-6" data-netdiag-kind="link"><path d="M 2360.0 359.0 V 411.4 L 2360.0 544.6 V 597.0" fill="none" stroke="#7c3aed" stroke-width="2.2" stroke-linecap="round" stroke-linejoin="round"  opacity=".86"/><circle cx="2360.0" cy="359.0" r="3.2" fill="#ffffff" stroke="#7c3aed" stroke-width="2"/><circle cx="2360.0" cy="597.0" r="3.2" fill="#ffffff" stroke="#7c3aed" stroke-width="2"/></g><g id="link-7" data-netdiag-kind="link"><path d="M 2240.0 638.0 H 2186.0 L 1994.0 638.0 H 1940.0" fill="none" stroke="#7c3aed" stroke-width="2.2" stroke-linecap="round" stroke-linejoin="round"  opacity=".86"/><circle cx="2240.0" cy="638.0" r="3.2" fill="#ffffff" stroke="#7c3aed" stroke-width="2"/><circle cx="1940.0" cy="638.0" r="3.2" fill="#ffffff" stroke="#7c3aed" stroke-width="2"/></g></g><g id="nodes"><g id="east-l1-r1" data-netdiag-kind="node" filter="url(#shadow)"><rect x="2240.0" y="597.0" width="240.0" height="82.0" rx="14" fill="#ffffff" stroke="#0878b9" stroke-width="2"/><rect x="2240.0" y="597.0" width="8" height="82.0" rx="4" fill="#0878b9"/><g class="device-icon device-icon-router" transform="translate(2280.0 638.0)" stroke="#0878b9" fill="none" stroke-width="1.6" stroke-linecap="round" stroke-linejoin="round"><ellipse cx="0" cy="0" rx="27" ry="18" fill="#0878b9" fill-opacity=".12"/><ellipse cx="0" cy="0" rx="27" ry="18"/><path d="M-14 0h28M8-6l6 6-6 6M14 0H-14M-8-6l-6 6 6 6"/><path d="M0-13v26M-6-7l6-6 6 6M-6 7l6 6 6-6"/></g><text class="node-title" x="2318.0" y="631.0" fill="#0f172a" font-family="Inter,Segoe UI,Arial,sans-serif" font-size="15" font-weight="700">East L1 Router 01</text><text x="2318.0" y="652.0" fill="#64748b" font-family="ui-monospace,SFMono-Regular,monospace" font-size="11">ISIS-LEVEL-1</text></g><g id="east-l1-r2" data-netdiag-kind="node" filter="url(#shadow)"><rect x="1700.0" y="597.0" width="240.0" height="82.0" rx="14" fill="#ffffff" stroke="#0878b9" stroke-width="2"/><rect x="1700.0" y="597.0" width="8" height="82.0" rx="4" fill="#0878b9"/><g class="device-icon device-icon-router" transform="translate(1740.0 638.0)" stroke="#0878b9" fill="none" stroke-width="1.6" stroke-linecap="round" stroke-linejoin="round"><ellipse cx="0" cy="0" rx="27" ry="18" fill="#0878b9" fill-opacity=".12"/><ellipse cx="0" cy="0" rx="27" ry="18"/><path d="M-14 0h28M8-6l6 6-6 6M14 0H-14M-8-6l-6 6 6 6"/><path d="M0-13v26M-6-7l6-6 6 6M-6 7l6 6 6-6"/></g><text class="node-title" x="1778.0" y="631.0" fill="#0f172a" font-family="Inter,Segoe UI,Arial,sans-serif" font-size="15" font-weight="700">East L1 Router 02</text><text x="1778.0" y="652.0" fill="#64748b" font-family="ui-monospace,SFMono-Regular,monospace" font-size="11">ISIS-LEVEL-1</text></g><g id="l1l2-east" data-netdiag-kind="node" filter="url(#shadow)"><rect x="2240.0" y="277.0" width="240.0" height="82.0" rx="14" fill="#ffffff" stroke="#0878b9" stroke-width="2"/><rect x="2240.0" y="277.0" width="8" height="82.0" rx="4" fill="#0878b9"/><g class="device-icon device-icon-router" transform="translate(2280.0 318.0)" stroke="#0878b9" fill="none" stroke-width="1.6" stroke-linecap="round" stroke-linejoin="round"><ellipse cx="0" cy="0" rx="27" ry="18" fill="#0878b9" fill-opacity=".12"/><ellipse cx="0" cy="0" rx="27" ry="18"/><path d="M-14 0h28M8-6l6 6-6 6M14 0H-14M-8-6l-6 6 6 6"/><path d="M0-13v26M-6-7l6-6 6 6M-6 7l6 6 6-6"/></g><text class="node-title" x="2318.0" y="311.0" fill="#0f172a" font-family="Inter,Segoe UI,Arial,sans-serif" font-size="15" font-weight="700">East L1/L2 Router</text><text x="2318.0" y="332.0" fill="#64748b" font-family="ui-monospace,SFMono-Regular,monospace" font-size="11">ISIS-LEVEL-2</text></g><g id="l1l2-west" data-netdiag-kind="node" filter="url(#shadow)"><rect x="620.0" y="277.0" width="240.0" height="82.0" rx="14" fill="#ffffff" stroke="#0878b9" stroke-width="2"/><rect x="620.0" y="277.0" width="8" height="82.0" rx="4" fill="#0878b9"/><g class="device-icon device-icon-router" transform="translate(660.0 318.0)" stroke="#0878b9" fill="none" stroke-width="1.6" stroke-linecap="round" stroke-linejoin="round"><ellipse cx="0" cy="0" rx="27" ry="18" fill="#0878b9" fill-opacity=".12"/><ellipse cx="0" cy="0" rx="27" ry="18"/><path d="M-14 0h28M8-6l6 6-6 6M14 0H-14M-8-6l-6 6 6 6"/><path d="M0-13v26M-6-7l6-6 6 6M-6 7l6 6 6-6"/></g><text class="node-title" x="698.0" y="311.0" fill="#0f172a" font-family="Inter,Segoe UI,Arial,sans-serif" font-size="15" font-weight="700">West L1/L2 Router</text><text x="698.0" y="332.0" fill="#64748b" font-family="ui-monospace,SFMono-Regular,monospace" font-size="11">ISIS-LEVEL-2</text></g><g id="l2-core-01" data-netdiag-kind="node" filter="url(#shadow)"><rect x="1160.0" y="277.0" width="240.0" height="82.0" rx="14" fill="#ffffff" stroke="#0878b9" stroke-width="2"/><rect x="1160.0" y="277.0" width="8" height="82.0" rx="4" fill="#0878b9"/><g class="device-icon device-icon-router" transform="translate(1200.0 318.0)" stroke="#0878b9" fill="none" stroke-width="1.6" stroke-linecap="round" stroke-linejoin="round"><ellipse cx="0" cy="0" rx="27" ry="18" fill="#0878b9" fill-opacity=".12"/><ellipse cx="0" cy="0" rx="27" ry="18"/><path d="M-14 0h28M8-6l6 6-6 6M14 0H-14M-8-6l-6 6 6 6"/><path d="M0-13v26M-6-7l6-6 6 6M-6 7l6 6 6-6"/></g><text class="node-title" x="1238.0" y="311.0" fill="#0f172a" font-family="Inter,Segoe UI,Arial,sans-serif" font-size="15" font-weight="700">L2 Core 01</text><text x="1238.0" y="332.0" fill="#64748b" font-family="ui-monospace,SFMono-Regular,monospace" font-size="11">ISIS-LEVEL-2</text></g><g id="l2-core-02" data-netdiag-kind="node" filter="url(#shadow)"><rect x="1700.0" y="277.0" width="240.0" height="82.0" rx="14" fill="#ffffff" stroke="#0878b9" stroke-width="2"/><rect x="1700.0" y="277.0" width="8" height="82.0" rx="4" fill="#0878b9"/><g class="device-icon device-icon-router" transform="translate(1740.0 318.0)" stroke="#0878b9" fill="none" stroke-width="1.6" stroke-linecap="round" stroke-linejoin="round"><ellipse cx="0" cy="0" rx="27" ry="18" fill="#0878b9" fill-opacity=".12"/><ellipse cx="0" cy="0" rx="27" ry="18"/><path d="M-14 0h28M8-6l6 6-6 6M14 0H-14M-8-6l-6 6 6 6"/><path d="M0-13v26M-6-7l6-6 6 6M-6 7l6 6 6-6"/></g><text class="node-title" x="1778.0" y="311.0" fill="#0f172a" font-family="Inter,Segoe UI,Arial,sans-serif" font-size="15" font-weight="700">L2 Core 02</text><text x="1778.0" y="332.0" fill="#64748b" font-family="ui-monospace,SFMono-Regular,monospace" font-size="11">ISIS-LEVEL-2</text></g><g id="west-l1-r1" data-netdiag-kind="node" filter="url(#shadow)"><rect x="620.0" y="597.0" width="240.0" height="82.0" rx="14" fill="#ffffff" stroke="#0878b9" stroke-width="2"/><rect x="620.0" y="597.0" width="8" height="82.0" rx="4" fill="#0878b9"/><g class="device-icon device-icon-router" transform="translate(660.0 638.0)" stroke="#0878b9" fill="none" stroke-width="1.6" stroke-linecap="round" stroke-linejoin="round"><ellipse cx="0" cy="0" rx="27" ry="18" fill="#0878b9" fill-opacity=".12"/><ellipse cx="0" cy="0" rx="27" ry="18"/><path d="M-14 0h28M8-6l6 6-6 6M14 0H-14M-8-6l-6 6 6 6"/><path d="M0-13v26M-6-7l6-6 6 6M-6 7l6 6 6-6"/></g><text class="node-title" x="698.0" y="631.0" fill="#0f172a" font-family="Inter,Segoe UI,Arial,sans-serif" font-size="15" font-weight="700">West L1 Router 01</text><text x="698.0" y="652.0" fill="#64748b" font-family="ui-monospace,SFMono-Regular,monospace" font-size="11">ISIS-LEVEL-1</text></g><g id="west-l1-r2" data-netdiag-kind="node" filter="url(#shadow)"><rect x="1160.0" y="597.0" width="240.0" height="82.0" rx="14" fill="#ffffff" stroke="#0878b9" stroke-width="2"/><rect x="1160.0" y="597.0" width="8" height="82.0" rx="4" fill="#0878b9"/><g class="device-icon device-icon-router" transform="translate(1200.0 638.0)" stroke="#0878b9" fill="none" stroke-width="1.6" stroke-linecap="round" stroke-linejoin="round"><ellipse cx="0" cy="0" rx="27" ry="18" fill="#0878b9" fill-opacity=".12"/><ellipse cx="0" cy="0" rx="27" ry="18"/><path d="M-14 0h28M8-6l6 6-6 6M14 0H-14M-8-6l-6 6 6 6"/><path d="M0-13v26M-6-7l6-6 6 6M-6 7l6 6 6-6"/></g><text class="node-title" x="1238.0" y="631.0" fill="#0f172a" font-family="Inter,Segoe UI,Arial,sans-serif" font-size="15" font-weight="700">West L1 Router 02</text><text x="1238.0" y="652.0" fill="#64748b" font-family="ui-monospace,SFMono-Regular,monospace" font-size="11">ISIS-LEVEL-1</text></g></g><g id="link-annotations" pointer-events="none"><g id="link-annotation-1" class="link-annotation"><rect class="interface-label-badge" x="1413.2" y="320.0" width="51.5" height="21.0" rx="5.0" fill="#ffffff" stroke="#cbd5e1" stroke-width="1"/><text class="interface-label-text" x="1439.0" y="336.0" text-anchor="middle" fill="#334155" font-family="ui-monospace,SFMono-Regular,monospace" font-size="11" font-weight="650">Te0/0</text><rect class="interface-label-badge" x="1635.2" y="320.0" width="51.5" height="21.0" rx="5.0" fill="#ffffff" stroke="#cbd5e1" stroke-width="1"/><text class="interface-label-text" x="1661.0" y="336.0" text-anchor="middle" fill="#334155" font-family="ui-monospace,SFMono-Regular,monospace" font-size="11" font-weight="650">Te0/0</text><rect class="label-mask" x="1470.0" y="333.0" width="111.9" height="23" rx="5" fill="#f8fafc" stroke="#f8fafc" stroke-width="4"/><text x="1526.0" y="349.0" text-anchor="middle" fill="#7c3aed" font-family="ui-monospace,SFMono-Regular,monospace" font-size="11" font-weight="500">L2 · Metric 10</text></g><g id="link-annotation-2" class="link-annotation"><rect class="interface-label-badge" x="1095.2" y="284.0" width="51.5" height="21.0" rx="5.0" fill="#ffffff" stroke="#cbd5e1" stroke-width="1"/><text class="interface-label-text" x="1121.0" y="300.0" text-anchor="middle" fill="#334155" font-family="ui-monospace,SFMono-Regular,monospace" font-size="11" font-weight="650">Te0/1</text><rect class="interface-label-badge" x="873.2" y="284.0" width="51.5" height="21.0" rx="5.0" fill="#ffffff" stroke="#cbd5e1" stroke-width="1"/><text class="interface-label-text" x="899.0" y="300.0" text-anchor="middle" fill="#334155" font-family="ui-monospace,SFMono-Regular,monospace" font-size="11" font-weight="650">Te0/0</text><rect class="label-mask" x="974.2" y="333.0" width="71.7" height="23" rx="5" fill="#f8fafc" stroke="#f8fafc" stroke-width="4"/><text x="1010.0" y="349.0" text-anchor="middle" fill="#7c3aed" font-family="ui-monospace,SFMono-Regular,monospace" font-size="11" font-weight="500">L2 · P2P</text></g><g id="link-annotation-3" class="link-annotation"><rect class="interface-label-badge" x="1953.2" y="320.0" width="51.5" height="21.0" rx="5.0" fill="#ffffff" stroke="#cbd5e1" stroke-width="1"/><text class="interface-label-text" x="1979.0" y="336.0" text-anchor="middle" fill="#334155" font-family="ui-monospace,SFMono-Regular,monospace" font-size="11" font-weight="650">Te0/1</text><rect class="interface-label-badge" x="2175.2" y="320.0" width="51.5" height="21.0" rx="5.0" fill="#ffffff" stroke="#cbd5e1" stroke-width="1"/><text class="interface-label-text" x="2201.0" y="336.0" text-anchor="middle" fill="#334155" font-family="ui-monospace,SFMono-Regular,monospace" font-size="11" font-weight="650">Te0/0</text><rect class="label-mask" x="2078.2" y="333.0" width="71.7" height="23" rx="5" fill="#f8fafc" stroke="#f8fafc" stroke-width="4"/><text x="2114.0" y="349.0" text-anchor="middle" fill="#7c3aed" font-family="ui-monospace,SFMono-Regular,monospace" font-size="11" font-weight="500">L2 · P2P</text></g><g id="link-annotation-4" class="link-annotation"><rect class="interface-label-badge" x="696.2" y="373.9" width="51.5" height="21.0" rx="5.0" fill="#ffffff" stroke="#cbd5e1" stroke-width="1"/><text class="interface-label-text" x="722.0" y="389.9" text-anchor="middle" fill="#334155" font-family="ui-monospace,SFMono-Regular,monospace" font-size="11" font-weight="650">Gi0/1</text><rect class="interface-label-badge" x="696.2" y="550.1" width="51.5" height="21.0" rx="5.0" fill="#ffffff" stroke="#cbd5e1" stroke-width="1"/><text class="interface-label-text" x="722.0" y="566.1" text-anchor="middle" fill="#334155" font-family="ui-monospace,SFMono-Regular,monospace" font-size="11" font-weight="650">Gi0/0</text><rect class="label-mask" x="674.0" y="434.0" width="132.1" height="23" rx="5" fill="#f8fafc" stroke="#f8fafc" stroke-width="4"/><text x="740.0" y="450.0" text-anchor="middle" fill="#7c3aed" font-family="ui-monospace,SFMono-Regular,monospace" font-size="11" font-weight="500">L1 · Area 49.0001</text></g><g id="link-annotation-5" class="link-annotation"><rect class="interface-label-badge" x="873.2" y="640.0" width="51.5" height="21.0" rx="5.0" fill="#ffffff" stroke="#cbd5e1" stroke-width="1"/><text class="interface-label-text" x="899.0" y="656.0" text-anchor="middle" fill="#334155" font-family="ui-monospace,SFMono-Regular,monospace" font-size="11" font-weight="650">Gi0/1</text><rect class="interface-label-badge" x="1095.2" y="640.0" width="51.5" height="21.0" rx="5.0" fill="#ffffff" stroke="#cbd5e1" stroke-width="1"/><text class="interface-label-text" x="1121.0" y="656.0" text-anchor="middle" fill="#334155" font-family="ui-monospace,SFMono-Regular,monospace" font-size="11" font-weight="650">Gi0/0</text><rect class="label-mask" x="954.0" y="653.0" width="111.9" height="23" rx="5" fill="#f8fafc" stroke="#f8fafc" stroke-width="4"/><text x="1010.0" y="669.0" text-anchor="middle" fill="#7c3aed" font-family="ui-monospace,SFMono-Regular,monospace" font-size="11" font-weight="500">L1 · Metric 20</text></g><g id="link-annotation-6" class="link-annotation"><rect class="interface-label-badge" x="2316.2" y="373.9" width="51.5" height="21.0" rx="5.0" fill="#ffffff" stroke="#cbd5e1" stroke-width="1"/><text class="interface-label-text" x="2342.0" y="389.9" text-anchor="middle" fill="#334155" font-family="ui-monospace,SFMono-Regular,monospace" font-size="11" font-weight="650">Gi0/1</text><rect class="interface-label-badge" x="2316.2" y="550.1" width="51.5" height="21.0" rx="5.0" fill="#ffffff" stroke="#cbd5e1" stroke-width="1"/><text class="interface-label-text" x="2342.0" y="566.1" text-anchor="middle" fill="#334155" font-family="ui-monospace,SFMono-Regular,monospace" font-size="11" font-weight="650">Gi0/0</text><rect class="label-mask" x="2294.0" y="472.0" width="132.1" height="23" rx="5" fill="#f8fafc" stroke="#f8fafc" stroke-width="4"/><text x="2360.0" y="488.0" text-anchor="middle" fill="#7c3aed" font-family="ui-monospace,SFMono-Regular,monospace" font-size="11" font-weight="500">L1 · Area 49.0002</text></g><g id="link-annotation-7" class="link-annotation"><rect class="interface-label-badge" x="2175.2" y="604.0" width="51.5" height="21.0" rx="5.0" fill="#ffffff" stroke="#cbd5e1" stroke-width="1"/><text class="interface-label-text" x="2201.0" y="620.0" text-anchor="middle" fill="#334155" font-family="ui-monospace,SFMono-Regular,monospace" font-size="11" font-weight="650">Gi0/1</text><rect class="interface-label-badge" x="1953.2" y="604.0" width="51.5" height="21.0" rx="5.0" fill="#ffffff" stroke="#cbd5e1" stroke-width="1"/><text class="interface-label-text" x="1979.0" y="620.0" text-anchor="middle" fill="#334155" font-family="ui-monospace,SFMono-Regular,monospace" font-size="11" font-weight="650">Gi0/0</text><rect class="label-mask" x="2058.0" y="653.0" width="111.9" height="23" rx="5" fill="#f8fafc" stroke="#f8fafc" stroke-width="4"/><text x="2114.0" y="669.0" text-anchor="middle" fill="#7c3aed" font-family="ui-monospace,SFMono-Regular,monospace" font-size="11" font-weight="500">L1 · Metric 20</text></g></g></svg>