<svg xmlns="http://www.w3.org/2000/svg" width="2400" height="1225" viewBox="0 0 2400 1225" role="img"><defs><filter id="shadow" x="-20%" y="-20%" width="140%" height="150%"><feDropShadow dx="0" dy="4" stdDeviation="6" flood-color="#0f172a" flood-opacity=".14"/></filter></defs><rect width="100%" height="100%" fill="#f8fafc"/><rect x="0" y="0" width="2400" height="112" fill="#0f172a"/><text x="70" y="56" fill="#f8fafc" font-family="Inter,Segoe UI,sans-serif" font-size="30" font-weight="700">iBGP Route Reflector Design</text><text x="70" y="84" fill="#94a3b8" font-family="Inter,Segoe UI,sans-serif" font-size="15">Redundant route reflectors serving regional clients and external peers</text><text x="2330" y="66" text-anchor="end" fill="#38bdf8" font-family="ui-monospace,SFMono-Regular,monospace" font-size="14">BGP ROUTE REFLECTION</text><rect x="42" y="197.0" width="2316.0" height="250.0" rx="20" fill="#eff6ff" stroke="#e2e8f0"/><rect x="42" y="517.0" width="2316.0" height="250.0" rx="20" fill="#eff6ff" stroke="#e2e8f0"/><rect x="42" y="837.0" width="2316.0" height="250.0" rx="20" fill="#eff6ff" stroke="#e2e8f0"/><g id="row-headings"><g class="row-heading row-heading-route-reflector"><path d="M78 250.0 H410" stroke="#cbd5e1" stroke-width="1"/><text x="78" y="235.0" fill="#64748b" font-family="Inter,Segoe UI,sans-serif" font-size="12" font-weight="700" letter-spacing="1.8">ROUTE REFLECTOR LAYER · 2 DEVICES</text></g><g class="row-heading row-heading-rr-client"><path d="M78 570.0 H410" stroke="#cbd5e1" stroke-width="1"/><text x="78" y="555.0" fill="#64748b" font-family="Inter,Segoe UI,sans-serif" font-size="12" font-weight="700" letter-spacing="1.8">RR CLIENT LAYER · 4 DEVICES</text></g><g class="row-heading row-heading-external-peer"><path d="M78 890.0 H410" stroke="#cbd5e1" stroke-width="1"/><text x="78" y="875.0" fill="#64748b" font-family="Inter,Segoe UI,sans-serif" font-size="12" font-weight="700" letter-spacing="1.8">EXTERNAL PEER LAYER · 2 DEVICES</text></g></g><g id="links"><path id="link-1" d="M 1036.2 318.0 H 1090.2 L 1634.8 318.0 H 1688.8" fill="none" stroke="#0891b2" stroke-width="2.2" stroke-linecap="round" stroke-linejoin="round" stroke-dasharray="8 4" opacity=".86"/><circle cx="1036.2" cy="318.0" r="3.2" fill="#ffffff" stroke="#0891b2" stroke-width="2"/><circle cx="1688.8" cy="318.0" r="3.2" fill="#ffffff" stroke="#0891b2" stroke-width="2"/><rect x="1049.2" y="295.0" width="34.0" height="19" rx="5" fill="#f8fafc" fill-opacity=".96"/><text x="1066.2" y="309.0" text-anchor="middle" fill="#0891b2" font-family="ui-monospace,SFMono-Regular,monospace" font-size="11" font-weight="650">Lo0</text><rect x="1641.8" y="295.0" width="34.0" height="19" rx="5" fill="#f8fafc" fill-opacity=".96"/><text x="1658.8" y="309.0" text-anchor="middle" fill="#0891b2" font-family="ui-monospace,SFMono-Regular,monospace" font-size="11" font-weight="650">Lo0</text><rect x="1220.4" y="295.0" width="179.8" height="19" rx="5" fill="#f8fafc" fill-opacity=".96"/><text x="1310.3" y="309.0" text-anchor="middle" fill="#0891b2" font-family="ui-monospace,SFMono-Regular,monospace" font-size="11" font-weight="500">iBGP · Cluster 10.255.0.1</text><path id="link-2" d="M 916.2 359.0 V 411.4 L 1487.6 544.6 V 597.0" fill="none" stroke="#0891b2" stroke-width="2.2" stroke-linecap="round" stroke-linejoin="round" stroke-dasharray="8 4" opacity=".86"/><circle cx="916.2" cy="359.0" r="3.2" fill="#ffffff" stroke="#0891b2" stroke-width="2"/><circle cx="1487.6" cy="597.0" r="3.2" fill="#ffffff" stroke="#0891b2" stroke-width="2"/><rect x="899.2" y="370.0" width="34.0" height="19" rx="5" fill="#f8fafc" fill-opacity=".96"/><text x="916.2" y="384.0" text-anchor="middle" fill="#0891b2" font-family="ui-monospace,SFMono-Regular,monospace" font-size="11" font-weight="650">Lo0</text><rect x="1470.6" y="571.0" width="34.0" height="19" rx="5" fill="#f8fafc" fill-opacity=".96"/><text x="1487.6" y="585.0" text-anchor="middle" fill="#0891b2" font-family="ui-monospace,SFMono-Regular,monospace" font-size="11" font-weight="650">Lo0</text><rect x="1138.9" y="455.0" width="126.1" height="19" rx="5" fill="#f8fafc" fill-opacity=".96"/><text x="1201.9" y="469.0" text-anchor="middle" fill="#0891b2" font-family="ui-monospace,SFMono-Regular,monospace" font-size="11" font-weight="500">RR Client · VPNv4</text><path id="link-3" d="M 1014.2 359.0 V 411.4 L 1933.9 544.6 V 597.0" fill="none" stroke="#0891b2" stroke-width="2.2" stroke-linecap="round" stroke-linejoin="round" stroke-dasharray="8 4" opacity=".86"/><circle cx="1014.2" cy="359.0" r="3.2" fill="#ffffff" stroke="#0891b2" stroke-width="2"/><circle cx="1933.9" cy="597.0" r="3.2" fill="#ffffff" stroke="#0891b2" stroke-width="2"/><rect x="997.2" y="370.0" width="34.0" height="19" rx="5" fill="#f8fafc" fill-opacity=".96"/><text x="1014.2" y="384.0" text-anchor="middle" fill="#0891b2" font-family="ui-monospace,SFMono-Regular,monospace" font-size="11" font-weight="650">Lo0</text><rect x="1916.9" y="571.0" width="34.0" height="19" rx="5" fill="#f8fafc" fill-opacity=".96"/><text x="1933.9" y="585.0" text-anchor="middle" fill="#0891b2" font-family="ui-monospace,SFMono-Regular,monospace" font-size="11" font-weight="650">Lo0</text><rect x="1484.6" y="474.0" width="126.1" height="19" rx="5" fill="#f8fafc" fill-opacity=".96"/><text x="1547.6" y="488.0" text-anchor="middle" fill="#0891b2" font-family="ui-monospace,SFMono-Regular,monospace" font-size="11" font-weight="500">RR Client · VPNv4</text><path id="link-4" d="M 818.2 359.0 V 411.4 L 595.1 544.6 V 597.0" fill="none" stroke="#0891b2" stroke-width="2.2" stroke-linecap="round" stroke-linejoin="round" stroke-dasharray="8 4" opacity=".86"/><circle cx="818.2" cy="359.0" r="3.2" fill="#ffffff" stroke="#0891b2" stroke-width="2"/><circle cx="595.1" cy="597.0" r="3.2" fill="#ffffff" stroke="#0891b2" stroke-width="2"/><rect x="801.2" y="370.0" width="34.0" height="19" rx="5" fill="#f8fafc" fill-opacity=".96"/><text x="818.2" y="384.0" text-anchor="middle" fill="#0891b2" font-family="ui-monospace,SFMono-Regular,monospace" font-size="11" font-weight="650">Lo0</text><rect x="578.1" y="571.0" width="34.0" height="19" rx="5" fill="#f8fafc" fill-opacity=".96"/><text x="595.1" y="585.0" text-anchor="middle" fill="#0891b2" font-family="ui-monospace,SFMono-Regular,monospace" font-size="11" font-weight="650">Lo0</text><rect x="661.5" y="436.0" width="126.1" height="19" rx="5" fill="#f8fafc" fill-opacity=".96"/><text x="724.5" y="450.0" text-anchor="middle" fill="#0891b2" font-family="ui-monospace,SFMono-Regular,monospace" font-size="11" font-weight="500">RR Client · VPNv4</text><path id="link-5" d="M 1841.4 359.0 V 411.4 L 1683.6 544.6 V 597.0" fill="none" stroke="#0891b2" stroke-width="2.2" stroke-linecap="round" stroke-linejoin="round" stroke-dasharray="8 4" opacity=".86"/><circle cx="1841.4" cy="359.0" r="3.2" fill="#ffffff" stroke="#0891b2" stroke-width="2"/><circle cx="1683.6" cy="597.0" r="3.2" fill="#ffffff" stroke="#0891b2" stroke-width="2"/><rect x="1824.4" y="370.0" width="34.0" height="19" rx="5" fill="#f8fafc" fill-opacity=".96"/><text x="1841.4" y="384.0" text-anchor="middle" fill="#0891b2" font-family="ui-monospace,SFMono-Regular,monospace" font-size="11" font-weight="650">Lo0</text><rect x="1666.6" y="571.0" width="34.0" height="19" rx="5" fill="#f8fafc" fill-opacity=".96"/><text x="1683.6" y="585.0" text-anchor="middle" fill="#0891b2" font-family="ui-monospace,SFMono-Regular,monospace" font-size="11" font-weight="650">Lo0</text><rect x="1702.8" y="455.0" width="119.4" height="19" rx="5" fill="#f8fafc" fill-opacity=".96"/><text x="1762.5" y="469.0" text-anchor="middle" fill="#0891b2" font-family="ui-monospace,SFMono-Regular,monospace" font-size="11" font-weight="500">RR Client · EVPN</text><path id="link-6" d="M 1906.8 359.0 V 411.4 L 2129.9 544.6 V 597.0" fill="none" stroke="#0891b2" stroke-width="2.2" stroke-linecap="round" stroke-linejoin="round" stroke-dasharray="8 4" opacity=".86"/><circle cx="1906.8" cy="359.0" r="3.2" fill="#ffffff" stroke="#0891b2" stroke-width="2"/><circle cx="2129.9" cy="597.0" r="3.2" fill="#ffffff" stroke="#0891b2" stroke-width="2"/><rect x="1889.8" y="370.0" width="34.0" height="19" rx="5" fill="#f8fafc" fill-opacity=".96"/><text x="1906.8" y="384.0" text-anchor="middle" fill="#0891b2" font-family="ui-monospace,SFMono-Regular,monospace" font-size="11" font-weight="650">Lo0</text><rect x="2112.9" y="571.0" width="34.0" height="19" rx="5" fill="#f8fafc" fill-opacity=".96"/><text x="2129.9" y="585.0" text-anchor="middle" fill="#0891b2" font-family="ui-monospace,SFMono-Regular,monospace" font-size="11" font-weight="650">Lo0</text><rect x="1976.5" y="474.0" width="119.4" height="19" rx="5" fill="#f8fafc" fill-opacity=".96"/><text x="2036.2" y="488.0" text-anchor="middle" fill="#0891b2" font-family="ui-monospace,SFMono-Regular,monospace" font-size="11" font-weight="500">RR Client · EVPN</text><path id="link-7" d="M 1710.8 359.0 V 411.4 L 791.1 544.6 V 597.0" fill="none" stroke="#0891b2" stroke-width="2.2" stroke-linecap="round" stroke-linejoin="round" stroke-dasharray="8 4" opacity=".86"/><circle cx="1710.8" cy="359.0" r="3.2" fill="#ffffff" stroke="#0891b2" stroke-width="2"/><circle cx="791.1" cy="597.0" r="3.2" fill="#ffffff" stroke="#0891b2" stroke-width="2"/><rect x="1693.8" y="370.0" width="34.0" height="19" rx="5" fill="#f8fafc" fill-opacity=".96"/><text x="1710.8" y="384.0" text-anchor="middle" fill="#0891b2" font-family="ui-monospace,SFMono-Regular,monospace" font-size="11" font-weight="650">Lo0</text><rect x="774.1" y="571.0" width="34.0" height="19" rx="5" fill="#f8fafc" fill-opacity=".96"/><text x="791.1" y="585.0" text-anchor="middle" fill="#0891b2" font-family="ui-monospace,SFMono-Regular,monospace" font-size="11" font-weight="650">Lo0</text><rect x="1264.8" y="436.0" width="119.4" height="19" rx="5" fill="#f8fafc" fill-opacity=".96"/><text x="1324.5" y="450.0" text-anchor="middle" fill="#0891b2" font-family="ui-monospace,SFMono-Regular,monospace" font-size="11" font-weight="500">RR Client · EVPN</text><path id="link-8" d="M 1776.1 359.0 V 411.4 L 1139.4 544.6 V 597.0" fill="none" stroke="#0891b2" stroke-width="2.2" stroke-linecap="round" stroke-linejoin="round" stroke-dasharray="8 4" opacity=".86"/><circle cx="1776.1" cy="359.0" r="3.2" fill="#ffffff" stroke="#0891b2" stroke-width="2"/><circle cx="1139.4" cy="597.0" r="3.2" fill="#ffffff" stroke="#0891b2" stroke-width="2"/><rect x="1759.1" y="370.0" width="34.0" height="19" rx="5" fill="#f8fafc" fill-opacity=".96"/><text x="1776.1" y="384.0" text-anchor="middle" fill="#0891b2" font-family="ui-monospace,SFMono-Regular,monospace" font-size="11" font-weight="650">Lo0</text><rect x="1122.4" y="571.0" width="34.0" height="19" rx="5" fill="#f8fafc" fill-opacity=".96"/><text x="1139.4" y="585.0" text-anchor="middle" fill="#0891b2" font-family="ui-monospace,SFMono-Regular,monospace" font-size="11" font-weight="650">Lo0</text><rect x="1398.0" y="455.0" width="119.4" height="19" rx="5" fill="#f8fafc" fill-opacity=".96"/><text x="1457.7" y="469.0" text-anchor="middle" fill="#0891b2" font-family="ui-monospace,SFMono-Regular,monospace" font-size="11" font-weight="500">RR Client · EVPN</text><path id="link-9" d="M 1585.6 679.0 V 731.4 L 916.2 864.6 V 917.0" fill="none" stroke="#ea580c" stroke-width="2.2" stroke-linecap="round" stroke-linejoin="round" stroke-dasharray="4 4" opacity=".86"/><circle cx="1585.6" cy="679.0" r="3.2" fill="#ffffff" stroke="#ea580c" stroke-width="2"/><circle cx="916.2" cy="917.0" r="3.2" fill="#ffffff" stroke="#ea580c" stroke-width="2"/><rect x="1562.8" y="690.0" width="45.5" height="19" rx="5" fill="#f8fafc" fill-opacity=".96"/><text x="1585.6" y="704.0" text-anchor="middle" fill="#ea580c" font-family="ui-monospace,SFMono-Regular,monospace" font-size="11" font-weight="650">Te0/0</text><rect x="893.5" y="891.0" width="45.5" height="19" rx="5" fill="#f8fafc" fill-opacity=".96"/><text x="916.2" y="905.0" text-anchor="middle" fill="#ea580c" font-family="ui-monospace,SFMono-Regular,monospace" font-size="11" font-weight="650">Peer1</text><rect x="1144.4" y="794.0" width="105.9" height="19" rx="5" fill="#f8fafc" fill-opacity=".96"/><text x="1197.4" y="808.0" text-anchor="middle" fill="#ea580c" font-family="ui-monospace,SFMono-Regular,monospace" font-size="11" font-weight="500">eBGP · AS64501</text><path id="link-10" d="M 1139.4 679.0 V 731.4 L 1808.8 864.6 V 917.0" fill="none" stroke="#ea580c" stroke-width="2.2" stroke-linecap="round" stroke-linejoin="round" stroke-dasharray="4 4" opacity=".86"/><circle cx="1139.4" cy="679.0" r="3.2" fill="#ffffff" stroke="#ea580c" stroke-width="2"/><circle cx="1808.8" cy="917.0" r="3.2" fill="#ffffff" stroke="#ea580c" stroke-width="2"/><rect x="1116.6" y="690.0" width="45.5" height="19" rx="5" fill="#f8fafc" fill-opacity=".96"/><text x="1139.4" y="704.0" text-anchor="middle" fill="#ea580c" font-family="ui-monospace,SFMono-Regular,monospace" font-size="11" font-weight="650">Te0/0</text><rect x="1786.0" y="891.0" width="45.5" height="19" rx="5" fill="#f8fafc" fill-opacity=".96"/><text x="1808.8" y="905.0" text-anchor="middle" fill="#ea580c" font-family="ui-monospace,SFMono-Regular,monospace" font-size="11" font-weight="650">Peer1</text><rect x="1367.5" y="756.0" width="105.9" height="19" rx="5" fill="#f8fafc" fill-opacity=".96"/><text x="1420.5" y="770.0" text-anchor="middle" fill="#ea580c" font-family="ui-monospace,SFMono-Regular,monospace" font-size="11" font-weight="500">eBGP · AS64502</text></g><g id="nodes"><g id="client-east-01" filter="url(#shadow)"><rect x="573.1" y="597.0" width="240.0" height="82.0" rx="14" fill="#ffffff" stroke="#0878b9" stroke-width="2"/><rect x="573.1" y="597.0" width="8" height="82.0" rx="4" fill="#0878b9"/><g class="device-icon device-icon-router" transform="translate(613.1 638.0)" stroke="#0878b9" fill="none" stroke-width="1.6" stroke-linecap="round" stroke-linejoin="round"><ellipse cx="0" cy="0" rx="27" ry="18" fill="#0878b9" fill-opacity=".12"/><ellipse cx="0" cy="0" rx="27" ry="18"/><path d="M-14 0h28M8-6l6 6-6 6M14 0H-14M-8-6l-6 6 6 6"/><path d="M0-13v26M-6-7l6-6 6 6M-6 7l6 6 6-6"/></g><text x="651.1" y="631.0" fill="#0f172a" font-family="Inter,Segoe UI,sans-serif" font-size="15" font-weight="700">East PE 01</text><text x="651.1" y="652.0" fill="#64748b" font-family="ui-monospace,SFMono-Regular,monospace" font-size="11">RR-CLIENT</text></g><g id="client-east-02" filter="url(#shadow)"><rect x="1019.4" y="597.0" width="240.0" height="82.0" rx="14" fill="#ffffff" stroke="#0878b9" stroke-width="2"/><rect x="1019.4" y="597.0" width="8" height="82.0" rx="4" fill="#0878b9"/><g class="device-icon device-icon-router" transform="translate(1059.4 638.0)" stroke="#0878b9" fill="none" stroke-width="1.6" stroke-linecap="round" stroke-linejoin="round"><ellipse cx="0" cy="0" rx="27" ry="18" fill="#0878b9" fill-opacity=".12"/><ellipse cx="0" cy="0" rx="27" ry="18"/><path d="M-14 0h28M8-6l6 6-6 6M14 0H-14M-8-6l-6 6 6 6"/><path d="M0-13v26M-6-7l6-6 6 6M-6 7l6 6 6-6"/></g><text x="1097.4" y="631.0" fill="#0f172a" font-family="Inter,Segoe UI,sans-serif" font-size="15" font-weight="700">East PE 02</text><text x="1097.4" y="652.0" fill="#64748b" font-family="ui-monospace,SFMono-Regular,monospace" font-size="11">RR-CLIENT</text></g><g id="client-west-01" filter="url(#shadow)"><rect x="1465.6" y="597.0" width="240.0" height="82.0" rx="14" fill="#ffffff" stroke="#0878b9" stroke-width="2"/><rect x="1465.6" y="597.0" width="8" height="82.0" rx="4" fill="#0878b9"/><g class="device-icon device-icon-router" transform="translate(1505.6 638.0)" stroke="#0878b9" fill="none" stroke-width="1.6" stroke-linecap="round" stroke-linejoin="round"><ellipse cx="0" cy="0" rx="27" ry="18" fill="#0878b9" fill-opacity=".12"/><ellipse cx="0" cy="0" rx="27" ry="18"/><path d="M-14 0h28M8-6l6 6-6 6M14 0H-14M-8-6l-6 6 6 6"/><path d="M0-13v26M-6-7l6-6 6 6M-6 7l6 6 6-6"/></g><text x="1543.6" y="631.0" fill="#0f172a" font-family="Inter,Segoe UI,sans-serif" font-size="15" font-weight="700">West PE 01</text><text x="1543.6" y="652.0" fill="#64748b" font-family="ui-monospace,SFMono-Regular,monospace" font-size="11">RR-CLIENT</text></g><g id="client-west-02" filter="url(#shadow)"><rect x="1911.9" y="597.0" width="240.0" height="82.0" rx="14" fill="#ffffff" stroke="#0878b9" stroke-width="2"/><rect x="1911.9" y="597.0" width="8" height="82.0" rx="4" fill="#0878b9"/><g class="device-icon device-icon-router" transform="translate(1951.9 638.0)" stroke="#0878b9" fill="none" stroke-width="1.6" stroke-linecap="round" stroke-linejoin="round"><ellipse cx="0" cy="0" rx="27" ry="18" fill="#0878b9" fill-opacity=".12"/><ellipse cx="0" cy="0" rx="27" ry="18"/><path d="M-14 0h28M8-6l6 6-6 6M14 0H-14M-8-6l-6 6 6 6"/><path d="M0-13v26M-6-7l6-6 6 6M-6 7l6 6 6-6"/></g><text x="1989.9" y="631.0" fill="#0f172a" font-family="Inter,Segoe UI,sans-serif" font-size="15" font-weight="700">West PE 02</text><text x="1989.9" y="652.0" fill="#64748b" font-family="ui-monospace,SFMono-Regular,monospace" font-size="11">RR-CLIENT</text></g><g id="rr-01" filter="url(#shadow)"><rect x="796.2" y="277.0" width="240.0" height="82.0" rx="14" fill="#ffffff" stroke="#0878b9" stroke-width="2"/><rect x="796.2" y="277.0" width="8" height="82.0" rx="4" fill="#0878b9"/><g class="device-icon device-icon-router" transform="translate(836.2 318.0)" stroke="#0878b9" fill="none" stroke-width="1.6" stroke-linecap="round" stroke-linejoin="round"><ellipse cx="0" cy="0" rx="27" ry="18" fill="#0878b9" fill-opacity=".12"/><ellipse cx="0" cy="0" rx="27" ry="18"/><path d="M-14 0h28M8-6l6 6-6 6M14 0H-14M-8-6l-6 6 6 6"/><path d="M0-13v26M-6-7l6-6 6 6M-6 7l6 6 6-6"/></g><text x="874.2" y="311.0" fill="#0f172a" font-family="Inter,Segoe UI,sans-serif" font-size="15" font-weight="700">Route Reflector 01</text><text x="874.2" y="332.0" fill="#64748b" font-family="ui-monospace,SFMono-Regular,monospace" font-size="11">ROUTE-REFLECTOR</text></g><g id="rr-02" filter="url(#shadow)"><rect x="1688.8" y="277.0" width="240.0" height="82.0" rx="14" fill="#ffffff" stroke="#0878b9" stroke-width="2"/><rect x="1688.8" y="277.0" width="8" height="82.0" rx="4" fill="#0878b9"/><g class="device-icon device-icon-router" transform="translate(1728.8 318.0)" stroke="#0878b9" fill="none" stroke-width="1.6" stroke-linecap="round" stroke-linejoin="round"><ellipse cx="0" cy="0" rx="27" ry="18" fill="#0878b9" fill-opacity=".12"/><ellipse cx="0" cy="0" rx="27" ry="18"/><path d="M-14 0h28M8-6l6 6-6 6M14 0H-14M-8-6l-6 6 6 6"/><path d="M0-13v26M-6-7l6-6 6 6M-6 7l6 6 6-6"/></g><text x="1766.8" y="311.0" fill="#0f172a" font-family="Inter,Segoe UI,sans-serif" font-size="15" font-weight="700">Route Reflector 02</text><text x="1766.8" y="332.0" fill="#64748b" font-family="ui-monospace,SFMono-Regular,monospace" font-size="11">ROUTE-REFLECTOR</text></g><g id="transit-a" filter="url(#shadow)"><rect x="796.2" y="917.0" width="240.0" height="82.0" rx="14" fill="#ffffff" stroke="#0878b9" stroke-width="2"/><rect x="796.2" y="917.0" width="8" height="82.0" rx="4" fill="#0878b9"/><g class="device-icon device-icon-wan-cloud" transform="translate(836.2 958.0)" stroke="#0878b9" fill="none" stroke-width="1.6" stroke-linecap="round" stroke-linejoin="round"><path d="M-24 13c-8 0-10-12-3-16 1-11 15-15 22-8 8-9 25-4 25 8 10 1 11 16 1 16Z" fill="#64748b" fill-opacity=".13" stroke="#64748b"/><path d="M-18 4h36M-10-3h20"/></g><text x="874.2" y="951.0" fill="#0f172a" font-family="Inter,Segoe UI,sans-serif" font-size="15" font-weight="700">Transit AS64501</text><text x="874.2" y="972.0" fill="#64748b" font-family="ui-monospace,SFMono-Regular,monospace" font-size="11">EXTERNAL-PEER</text></g><g id="transit-b" filter="url(#shadow)"><rect x="1688.8" y="917.0" width="240.0" height="82.0" rx="14" fill="#ffffff" stroke="#0878b9" stroke-width="2"/><rect x="1688.8" y="917.0" width="8" height="82.0" rx="4" fill="#0878b9"/><g class="device-icon device-icon-wan-cloud" transform="translate(1728.8 958.0)" stroke="#0878b9" fill="none" stroke-width="1.6" stroke-linecap="round" stroke-linejoin="round"><path d="M-24 13c-8 0-10-12-3-16 1-11 15-15 22-8 8-9 25-4 25 8 10 1 11 16 1 16Z" fill="#64748b" fill-opacity=".13" stroke="#64748b"/><path d="M-18 4h36M-10-3h20"/></g><text x="1766.8" y="951.0" fill="#0f172a" font-family="Inter,Segoe UI,sans-serif" font-size="15" font-weight="700">Transit AS64502</text><text x="1766.8" y="972.0" fill="#64748b" font-family="ui-monospace,SFMono-Regular,monospace" font-size="11">EXTERNAL-PEER</text></g></g></svg>