<svg class="theme-light" xmlns="http://www.w3.org/2000/svg" width="2775" height="1225" viewBox="0 0 2775 1225" role="img" shape-rendering="geometricPrecision"><defs><filter id="shadow" x="-20%" y="-20%" width="140%" height="150%"><feDropShadow dx="0" dy="4" stdDeviation="6" flood-color="#0f172a" flood-opacity=".14"/></filter></defs><rect width="100%" height="100%" fill="#f8fafc"/><rect x="0" y="0" width="2775" height="112" fill="#0f172a"/><text x="70" y="56" fill="#f8fafc" font-family="Inter,Segoe UI,sans-serif" font-size="30" font-weight="700">iBGP Route Reflector Design</text><text x="70" y="84" fill="#94a3b8" font-family="Inter,Segoe UI,sans-serif" font-size="15">Redundant route reflectors serving regional clients and external peers</text><text x="2705" y="66" text-anchor="end" fill="#38bdf8" font-family="ui-monospace,SFMono-Regular,monospace" font-size="14">BGP ROUTE REFLECTION</text><rect x="42" y="197.0" width="2691.0" height="250.0" rx="20" fill="#eff6ff" stroke="#e2e8f0"/><rect x="42" y="517.0" width="2691.0" height="250.0" rx="20" fill="#eff6ff" stroke="#e2e8f0"/><rect x="42" y="837.0" width="2691.0" height="250.0" rx="20" fill="#eff6ff" stroke="#e2e8f0"/><g id="row-headings"><g class="row-heading row-heading-route-reflector"><path d="M78 250.0 H410" stroke="#cbd5e1" stroke-width="1"/><text x="78" y="235.0" fill="#64748b" font-family="Inter,Segoe UI,sans-serif" font-size="12" font-weight="700" letter-spacing="1.8">ROUTE REFLECTOR LAYER · 2 DEVICES</text></g><g class="row-heading row-heading-rr-client"><path d="M78 570.0 H410" stroke="#cbd5e1" stroke-width="1"/><text x="78" y="555.0" fill="#64748b" font-family="Inter,Segoe UI,sans-serif" font-size="12" font-weight="700" letter-spacing="1.8">RR CLIENT LAYER · 4 DEVICES</text></g><g class="row-heading row-heading-external-peer"><path d="M78 890.0 H410" stroke="#cbd5e1" stroke-width="1"/><text x="78" y="875.0" fill="#64748b" font-family="Inter,Segoe UI,sans-serif" font-size="12" font-weight="700" letter-spacing="1.8">EXTERNAL PEER LAYER · 2 DEVICES</text></g></g><g id="links"><g id="link-1" data-netdiag-kind="link"><path d="M 1130.0 318.0 H 1184.0 L 1916.0 318.0 H 1970.0" fill="none" stroke="#0891b2" stroke-width="2.2" stroke-linecap="round" stroke-linejoin="round" stroke-dasharray="8 4" opacity=".86"/><circle cx="1130.0" cy="318.0" r="3.2" fill="#ffffff" stroke="#0891b2" stroke-width="2"/><circle cx="1970.0" cy="318.0" r="3.2" fill="#ffffff" stroke="#0891b2" stroke-width="2"/></g><g id="link-2" data-netdiag-kind="link"><path d="M 1108.0 359.0 V 411.4 L 1722.0 544.6 V 597.0" fill="none" stroke="#0891b2" stroke-width="2.2" stroke-linecap="round" stroke-linejoin="round" stroke-dasharray="8 4" opacity=".86"/><circle cx="1108.0" cy="359.0" r="3.2" fill="#ffffff" stroke="#0891b2" stroke-width="2"/><circle cx="1722.0" cy="597.0" r="3.2" fill="#ffffff" stroke="#0891b2" stroke-width="2"/></g><g id="link-3" data-netdiag-kind="link"><path d="M 1010.0 359.0 V 411.4 L 1182.0 544.6 V 597.0" fill="none" stroke="#0891b2" stroke-width="2.2" stroke-linecap="round" stroke-linejoin="round" stroke-dasharray="8 4" opacity=".86"/><circle cx="1010.0" cy="359.0" r="3.2" fill="#ffffff" stroke="#0891b2" stroke-width="2"/><circle cx="1182.0" cy="597.0" r="3.2" fill="#ffffff" stroke="#0891b2" stroke-width="2"/></g><g id="link-4" data-netdiag-kind="link"><path d="M 912.0 359.0 V 411.4 L 642.0 544.6 V 597.0" fill="none" stroke="#0891b2" stroke-width="2.2" stroke-linecap="round" stroke-linejoin="round" stroke-dasharray="8 4" opacity=".86"/><circle cx="912.0" cy="359.0" r="3.2" fill="#ffffff" stroke="#0891b2" stroke-width="2"/><circle cx="642.0" cy="597.0" r="3.2" fill="#ffffff" stroke="#0891b2" stroke-width="2"/></g><g id="link-5" data-netdiag-kind="link"><path d="M 2122.7 359.0 V 411.4 L 1918.0 544.6 V 597.0" fill="none" stroke="#0891b2" stroke-width="2.2" stroke-linecap="round" stroke-linejoin="round" stroke-dasharray="8 4" opacity=".86"/><circle cx="2122.7" cy="359.0" r="3.2" fill="#ffffff" stroke="#0891b2" stroke-width="2"/><circle cx="1918.0" cy="597.0" r="3.2" fill="#ffffff" stroke="#0891b2" stroke-width="2"/></g><g id="link-6" data-netdiag-kind="link"><path d="M 2057.3 359.0 V 411.4 L 1378.0 544.6 V 597.0" fill="none" stroke="#0891b2" stroke-width="2.2" stroke-linecap="round" stroke-linejoin="round" stroke-dasharray="8 4" opacity=".86"/><circle cx="2057.3" cy="359.0" r="3.2" fill="#ffffff" stroke="#0891b2" stroke-width="2"/><circle cx="1378.0" cy="597.0" r="3.2" fill="#ffffff" stroke="#0891b2" stroke-width="2"/></g><g id="link-7" data-netdiag-kind="link"><path d="M 1992.0 359.0 V 411.4 L 838.0 544.6 V 597.0" fill="none" stroke="#0891b2" stroke-width="2.2" stroke-linecap="round" stroke-linejoin="round" stroke-dasharray="8 4" opacity=".86"/><circle cx="1992.0" cy="359.0" r="3.2" fill="#ffffff" stroke="#0891b2" stroke-width="2"/><circle cx="838.0" cy="597.0" r="3.2" fill="#ffffff" stroke="#0891b2" stroke-width="2"/></g><g id="link-8" data-netdiag-kind="link"><path d="M 2188.0 359.0 V 411.4 L 2360.0 544.6 V 597.0" fill="none" stroke="#0891b2" stroke-width="2.2" stroke-linecap="round" stroke-linejoin="round" stroke-dasharray="8 4" opacity=".86"/><circle cx="2188.0" cy="359.0" r="3.2" fill="#ffffff" stroke="#0891b2" stroke-width="2"/><circle cx="2360.0" cy="597.0" r="3.2" fill="#ffffff" stroke="#0891b2" stroke-width="2"/></g><g id="link-9" data-netdiag-kind="link"><path d="M 1820.0 679.0 V 731.4 L 1010.0 864.6 V 917.0" fill="none" stroke="#ea580c" stroke-width="2.2" stroke-linecap="round" stroke-linejoin="round" stroke-dasharray="4 4" opacity=".86"/><circle cx="1820.0" cy="679.0" r="3.2" fill="#ffffff" stroke="#ea580c" stroke-width="2"/><circle cx="1010.0" cy="917.0" r="3.2" fill="#ffffff" stroke="#ea580c" stroke-width="2"/></g><g id="link-10" data-netdiag-kind="link"><path d="M 2360.0 679.0 V 731.4 L 2090.0 864.6 V 917.0" fill="none" stroke="#ea580c" stroke-width="2.2" stroke-linecap="round" stroke-linejoin="round" stroke-dasharray="4 4" opacity=".86"/><circle cx="2360.0" cy="679.0" r="3.2" fill="#ffffff" stroke="#ea580c" stroke-width="2"/><circle cx="2090.0" cy="917.0" r="3.2" fill="#ffffff" stroke="#ea580c" stroke-width="2"/></g></g><g id="nodes"><g id="client-east-01" data-netdiag-kind="node" filter="url(#shadow)"><rect x="620.0" y="597.0" width="240.0" height="82.0" rx="14" fill="#ffffff" stroke="#0878b9" stroke-width="2"/><rect x="620.0" y="597.0" width="8" height="82.0" rx="4" fill="#0878b9"/><g class="device-icon device-icon-router" transform="translate(660.0 638.0)" stroke="#0878b9" fill="none" stroke-width="1.6" stroke-linecap="round" stroke-linejoin="round"><ellipse cx="0" cy="0" rx="27" ry="18" fill="#0878b9" fill-opacity=".12"/><ellipse cx="0" cy="0" rx="27" ry="18"/><path d="M-14 0h28M8-6l6 6-6 6M14 0H-14M-8-6l-6 6 6 6"/><path d="M0-13v26M-6-7l6-6 6 6M-6 7l6 6 6-6"/></g><text class="node-title" x="698.0" y="631.0" fill="#0f172a" font-family="Inter,Segoe UI,Arial,sans-serif" font-size="15" font-weight="700">East PE 01</text><text x="698.0" y="652.0" fill="#64748b" font-family="ui-monospace,SFMono-Regular,monospace" font-size="11">RR-CLIENT</text></g><g id="client-east-02" data-netdiag-kind="node" filter="url(#shadow)"><rect x="2240.0" y="597.0" width="240.0" height="82.0" rx="14" fill="#ffffff" stroke="#0878b9" stroke-width="2"/><rect x="2240.0" y="597.0" width="8" height="82.0" rx="4" fill="#0878b9"/><g class="device-icon device-icon-router" transform="translate(2280.0 638.0)" stroke="#0878b9" fill="none" stroke-width="1.6" stroke-linecap="round" stroke-linejoin="round"><ellipse cx="0" cy="0" rx="27" ry="18" fill="#0878b9" fill-opacity=".12"/><ellipse cx="0" cy="0" rx="27" ry="18"/><path d="M-14 0h28M8-6l6 6-6 6M14 0H-14M-8-6l-6 6 6 6"/><path d="M0-13v26M-6-7l6-6 6 6M-6 7l6 6 6-6"/></g><text class="node-title" x="2318.0" y="631.0" fill="#0f172a" font-family="Inter,Segoe UI,Arial,sans-serif" font-size="15" font-weight="700">East PE 02</text><text x="2318.0" y="652.0" fill="#64748b" font-family="ui-monospace,SFMono-Regular,monospace" font-size="11">RR-CLIENT</text></g><g id="client-west-01" data-netdiag-kind="node" filter="url(#shadow)"><rect x="1700.0" y="597.0" width="240.0" height="82.0" rx="14" fill="#ffffff" stroke="#0878b9" stroke-width="2"/><rect x="1700.0" y="597.0" width="8" height="82.0" rx="4" fill="#0878b9"/><g class="device-icon device-icon-router" transform="translate(1740.0 638.0)" stroke="#0878b9" fill="none" stroke-width="1.6" stroke-linecap="round" stroke-linejoin="round"><ellipse cx="0" cy="0" rx="27" ry="18" fill="#0878b9" fill-opacity=".12"/><ellipse cx="0" cy="0" rx="27" ry="18"/><path d="M-14 0h28M8-6l6 6-6 6M14 0H-14M-8-6l-6 6 6 6"/><path d="M0-13v26M-6-7l6-6 6 6M-6 7l6 6 6-6"/></g><text class="node-title" x="1778.0" y="631.0" fill="#0f172a" font-family="Inter,Segoe UI,Arial,sans-serif" font-size="15" font-weight="700">West PE 01</text><text x="1778.0" y="652.0" fill="#64748b" font-family="ui-monospace,SFMono-Regular,monospace" font-size="11">RR-CLIENT</text></g><g id="client-west-02" data-netdiag-kind="node" filter="url(#shadow)"><rect x="1160.0" y="597.0" width="240.0" height="82.0" rx="14" fill="#ffffff" stroke="#0878b9" stroke-width="2"/><rect x="1160.0" y="597.0" width="8" height="82.0" rx="4" fill="#0878b9"/><g class="device-icon device-icon-router" transform="translate(1200.0 638.0)" stroke="#0878b9" fill="none" stroke-width="1.6" stroke-linecap="round" stroke-linejoin="round"><ellipse cx="0" cy="0" rx="27" ry="18" fill="#0878b9" fill-opacity=".12"/><ellipse cx="0" cy="0" rx="27" ry="18"/><path d="M-14 0h28M8-6l6 6-6 6M14 0H-14M-8-6l-6 6 6 6"/><path d="M0-13v26M-6-7l6-6 6 6M-6 7l6 6 6-6"/></g><text class="node-title" x="1238.0" y="631.0" fill="#0f172a" font-family="Inter,Segoe UI,Arial,sans-serif" font-size="15" font-weight="700">West PE 02</text><text x="1238.0" y="652.0" fill="#64748b" font-family="ui-monospace,SFMono-Regular,monospace" font-size="11">RR-CLIENT</text></g><g id="rr-01" data-netdiag-kind="node" filter="url(#shadow)"><rect x="890.0" y="277.0" width="240.0" height="82.0" rx="14" fill="#ffffff" stroke="#0878b9" stroke-width="2"/><rect x="890.0" y="277.0" width="8" height="82.0" rx="4" fill="#0878b9"/><g class="device-icon device-icon-router" transform="translate(930.0 318.0)" stroke="#0878b9" fill="none" stroke-width="1.6" stroke-linecap="round" stroke-linejoin="round"><ellipse cx="0" cy="0" rx="27" ry="18" fill="#0878b9" fill-opacity=".12"/><ellipse cx="0" cy="0" rx="27" ry="18"/><path d="M-14 0h28M8-6l6 6-6 6M14 0H-14M-8-6l-6 6 6 6"/><path d="M0-13v26M-6-7l6-6 6 6M-6 7l6 6 6-6"/></g><text class="node-title" x="968.0" y="311.0" fill="#0f172a" font-family="Inter,Segoe UI,Arial,sans-serif" font-size="15" font-weight="700">Route Reflector 01</text><text x="968.0" y="332.0" fill="#64748b" font-family="ui-monospace,SFMono-Regular,monospace" font-size="11">ROUTE-REFLECTOR</text></g><g id="rr-02" data-netdiag-kind="node" filter="url(#shadow)"><rect x="1970.0" y="277.0" width="240.0" height="82.0" rx="14" fill="#ffffff" stroke="#0878b9" stroke-width="2"/><rect x="1970.0" y="277.0" width="8" height="82.0" rx="4" fill="#0878b9"/><g class="device-icon device-icon-router" transform="translate(2010.0 318.0)" stroke="#0878b9" fill="none" stroke-width="1.6" stroke-linecap="round" stroke-linejoin="round"><ellipse cx="0" cy="0" rx="27" ry="18" fill="#0878b9" fill-opacity=".12"/><ellipse cx="0" cy="0" rx="27" ry="18"/><path d="M-14 0h28M8-6l6 6-6 6M14 0H-14M-8-6l-6 6 6 6"/><path d="M0-13v26M-6-7l6-6 6 6M-6 7l6 6 6-6"/></g><text class="node-title" x="2048.0" y="311.0" fill="#0f172a" font-family="Inter,Segoe UI,Arial,sans-serif" font-size="15" font-weight="700">Route Reflector 02</text><text x="2048.0" y="332.0" fill="#64748b" font-family="ui-monospace,SFMono-Regular,monospace" font-size="11">ROUTE-REFLECTOR</text></g><g id="transit-a" data-netdiag-kind="node" filter="url(#shadow)"><rect x="890.0" y="917.0" width="240.0" height="82.0" rx="14" fill="#ffffff" stroke="#0878b9" stroke-width="2"/><rect x="890.0" y="917.0" width="8" height="82.0" rx="4" fill="#0878b9"/><g class="device-icon device-icon-wan-cloud" transform="translate(930.0 958.0)" stroke="#0878b9" fill="none" stroke-width="1.6" stroke-linecap="round" stroke-linejoin="round"><path d="M-24 13c-8 0-10-12-3-16 1-11 15-15 22-8 8-9 25-4 25 8 10 1 11 16 1 16Z" fill="#64748b" fill-opacity=".13" stroke="#64748b"/><path d="M-18 4h36M-10-3h20"/></g><text class="node-title" x="968.0" y="951.0" fill="#0f172a" font-family="Inter,Segoe UI,Arial,sans-serif" font-size="15" font-weight="700">Transit AS64501</text><text x="968.0" y="972.0" fill="#64748b" font-family="ui-monospace,SFMono-Regular,monospace" font-size="11">EXTERNAL-PEER</text></g><g id="transit-b" data-netdiag-kind="node" filter="url(#shadow)"><rect x="1970.0" y="917.0" width="240.0" height="82.0" rx="14" fill="#ffffff" stroke="#0878b9" stroke-width="2"/><rect x="1970.0" y="917.0" width="8" height="82.0" rx="4" fill="#0878b9"/><g class="device-icon device-icon-wan-cloud" transform="translate(2010.0 958.0)" stroke="#0878b9" fill="none" stroke-width="1.6" stroke-linecap="round" stroke-linejoin="round"><path d="M-24 13c-8 0-10-12-3-16 1-11 15-15 22-8 8-9 25-4 25 8 10 1 11 16 1 16Z" fill="#64748b" fill-opacity=".13" stroke="#64748b"/><path d="M-18 4h36M-10-3h20"/></g><text class="node-title" x="2048.0" y="951.0" fill="#0f172a" font-family="Inter,Segoe UI,Arial,sans-serif" font-size="15" font-weight="700">Transit AS64502</text><text x="2048.0" y="972.0" fill="#64748b" font-family="ui-monospace,SFMono-Regular,monospace" font-size="11">EXTERNAL-PEER</text></g></g><g id="link-annotations" pointer-events="none"><g id="link-annotation-1" class="link-annotation"><rect class="interface-label-badge" x="1165.9" y="290.0" width="38.1" height="21.0" rx="5.0" fill="#ffffff" stroke="#cbd5e1" stroke-width="1"/><text class="interface-label-text" x="1185.0" y="306.0" text-anchor="middle" fill="#334155" font-family="ui-monospace,SFMono-Regular,monospace" font-size="11" font-weight="650">Lo0</text><rect class="interface-label-badge" x="1895.9" y="290.0" width="38.1" height="21.0" rx="5.0" fill="#ffffff" stroke="#cbd5e1" stroke-width="1"/><text class="interface-label-text" x="1915.0" y="306.0" text-anchor="middle" fill="#334155" font-family="ui-monospace,SFMono-Regular,monospace" font-size="11" font-weight="650">Lo0</text><rect class="label-mask" x="1389.9" y="333.0" width="185.8" height="23" rx="5" fill="#f8fafc" stroke="#f8fafc" stroke-width="4"/><text x="1482.8" y="349.0" text-anchor="middle" fill="#0891b2" font-family="ui-monospace,SFMono-Regular,monospace" font-size="11" font-weight="500">iBGP · Cluster 10.255.0.1</text></g><g id="link-annotation-2" class="link-annotation"><rect class="interface-label-badge" x="1088.9" y="368.0" width="38.1" height="21.0" rx="5.0" fill="#ffffff" stroke="#cbd5e1" stroke-width="1"/><text class="interface-label-text" x="1108.0" y="384.0" text-anchor="middle" fill="#334155" font-family="ui-monospace,SFMono-Regular,monospace" font-size="11" font-weight="650">Lo0</text><rect class="interface-label-badge" x="1702.9" y="569.0" width="38.1" height="21.0" rx="5.0" fill="#ffffff" stroke="#cbd5e1" stroke-width="1"/><text class="interface-label-text" x="1722.0" y="585.0" text-anchor="middle" fill="#334155" font-family="ui-monospace,SFMono-Regular,monospace" font-size="11" font-weight="650">Lo0</text><rect class="label-mask" x="1349.0" y="453.0" width="132.1" height="23" rx="5" fill="#f8fafc" stroke="#f8fafc" stroke-width="4"/><text x="1415.0" y="469.0" text-anchor="middle" fill="#0891b2" font-family="ui-monospace,SFMono-Regular,monospace" font-size="11" font-weight="500">RR Client · VPNv4</text></g><g id="link-annotation-3" class="link-annotation"><rect class="interface-label-badge" x="990.9" y="368.0" width="38.1" height="21.0" rx="5.0" fill="#ffffff" stroke="#cbd5e1" stroke-width="1"/><text class="interface-label-text" x="1010.0" y="384.0" text-anchor="middle" fill="#334155" font-family="ui-monospace,SFMono-Regular,monospace" font-size="11" font-weight="650">Lo0</text><rect class="interface-label-badge" x="1162.9" y="569.0" width="38.1" height="21.0" rx="5.0" fill="#ffffff" stroke="#cbd5e1" stroke-width="1"/><text class="interface-label-text" x="1182.0" y="585.0" text-anchor="middle" fill="#334155" font-family="ui-monospace,SFMono-Regular,monospace" font-size="11" font-weight="650">Lo0</text><rect class="label-mask" x="1043.7" y="472.0" width="132.1" height="23" rx="5" fill="#f8fafc" stroke="#f8fafc" stroke-width="4"/><text x="1109.8" y="488.0" text-anchor="middle" fill="#0891b2" font-family="ui-monospace,SFMono-Regular,monospace" font-size="11" font-weight="500">RR Client · VPNv4</text></g><g id="link-annotation-4" class="link-annotation"><rect class="interface-label-badge" x="892.9" y="368.0" width="38.1" height="21.0" rx="5.0" fill="#ffffff" stroke="#cbd5e1" stroke-width="1"/><text class="interface-label-text" x="912.0" y="384.0" text-anchor="middle" fill="#334155" font-family="ui-monospace,SFMono-Regular,monospace" font-size="11" font-weight="650">Lo0</text><rect class="interface-label-badge" x="622.9" y="569.0" width="38.1" height="21.0" rx="5.0" fill="#ffffff" stroke="#cbd5e1" stroke-width="1"/><text class="interface-label-text" x="642.0" y="585.0" text-anchor="middle" fill="#334155" font-family="ui-monospace,SFMono-Regular,monospace" font-size="11" font-weight="650">Lo0</text><rect class="label-mask" x="732.6" y="434.0" width="132.1" height="23" rx="5" fill="#f8fafc" stroke="#f8fafc" stroke-width="4"/><text x="798.6" y="450.0" text-anchor="middle" fill="#0891b2" font-family="ui-monospace,SFMono-Regular,monospace" font-size="11" font-weight="500">RR Client · VPNv4</text></g><g id="link-annotation-5" class="link-annotation"><rect class="interface-label-badge" x="2103.6" y="368.0" width="38.1" height="21.0" rx="5.0" fill="#ffffff" stroke="#cbd5e1" stroke-width="1"/><text class="interface-label-text" x="2122.7" y="384.0" text-anchor="middle" fill="#334155" font-family="ui-monospace,SFMono-Regular,monospace" font-size="11" font-weight="650">Lo0</text><rect class="interface-label-badge" x="1898.9" y="569.0" width="38.1" height="21.0" rx="5.0" fill="#ffffff" stroke="#cbd5e1" stroke-width="1"/><text class="interface-label-text" x="1918.0" y="585.0" text-anchor="middle" fill="#334155" font-family="ui-monospace,SFMono-Regular,monospace" font-size="11" font-weight="650">Lo0</text><rect class="label-mask" x="1957.7" y="453.0" width="125.4" height="23" rx="5" fill="#f8fafc" stroke="#f8fafc" stroke-width="4"/><text x="2020.3" y="469.0" text-anchor="middle" fill="#0891b2" font-family="ui-monospace,SFMono-Regular,monospace" font-size="11" font-weight="500">RR Client · EVPN</text></g><g id="link-annotation-6" class="link-annotation"><rect class="interface-label-badge" x="2038.3" y="368.0" width="38.1" height="21.0" rx="5.0" fill="#ffffff" stroke="#cbd5e1" stroke-width="1"/><text class="interface-label-text" x="2057.3" y="384.0" text-anchor="middle" fill="#334155" font-family="ui-monospace,SFMono-Regular,monospace" font-size="11" font-weight="650">Lo0</text><rect class="interface-label-badge" x="1358.9" y="569.0" width="38.1" height="21.0" rx="5.0" fill="#ffffff" stroke="#cbd5e1" stroke-width="1"/><text class="interface-label-text" x="1378.0" y="585.0" text-anchor="middle" fill="#334155" font-family="ui-monospace,SFMono-Regular,monospace" font-size="11" font-weight="650">Lo0</text><rect class="label-mask" x="1600.6" y="472.0" width="125.4" height="23" rx="5" fill="#f8fafc" stroke="#f8fafc" stroke-width="4"/><text x="1663.3" y="488.0" text-anchor="middle" fill="#0891b2" font-family="ui-monospace,SFMono-Regular,monospace" font-size="11" font-weight="500">RR Client · EVPN</text></g><g id="link-annotation-7" class="link-annotation"><rect class="interface-label-badge" x="1972.9" y="368.0" width="38.1" height="21.0" rx="5.0" fill="#ffffff" stroke="#cbd5e1" stroke-width="1"/><text class="interface-label-text" x="1992.0" y="384.0" text-anchor="middle" fill="#334155" font-family="ui-monospace,SFMono-Regular,monospace" font-size="11" font-weight="650">Lo0</text><rect class="interface-label-badge" x="818.9" y="569.0" width="38.1" height="21.0" rx="5.0" fill="#ffffff" stroke="#cbd5e1" stroke-width="1"/><text class="interface-label-text" x="838.0" y="585.0" text-anchor="middle" fill="#334155" font-family="ui-monospace,SFMono-Regular,monospace" font-size="11" font-weight="650">Lo0</text><rect class="label-mask" x="1444.6" y="434.0" width="125.4" height="23" rx="5" fill="#f8fafc" stroke="#f8fafc" stroke-width="4"/><text x="1507.3" y="450.0" text-anchor="middle" fill="#0891b2" font-family="ui-monospace,SFMono-Regular,monospace" font-size="11" font-weight="500">RR Client · EVPN</text></g><g id="link-annotation-8" class="link-annotation"><rect class="interface-label-badge" x="2168.9" y="368.0" width="38.1" height="21.0" rx="5.0" fill="#ffffff" stroke="#cbd5e1" stroke-width="1"/><text class="interface-label-text" x="2188.0" y="384.0" text-anchor="middle" fill="#334155" font-family="ui-monospace,SFMono-Regular,monospace" font-size="11" font-weight="650">Lo0</text><rect class="interface-label-badge" x="2340.9" y="569.0" width="38.1" height="21.0" rx="5.0" fill="#ffffff" stroke="#cbd5e1" stroke-width="1"/><text class="interface-label-text" x="2360.0" y="585.0" text-anchor="middle" fill="#334155" font-family="ui-monospace,SFMono-Regular,monospace" font-size="11" font-weight="650">Lo0</text><rect class="label-mask" x="2211.3" y="453.0" width="125.4" height="23" rx="5" fill="#f8fafc" stroke="#f8fafc" stroke-width="4"/><text x="2274.0" y="469.0" text-anchor="middle" fill="#0891b2" font-family="ui-monospace,SFMono-Regular,monospace" font-size="11" font-weight="500">RR Client · EVPN</text></g><g id="link-annotation-9" class="link-annotation"><rect class="interface-label-badge" x="1794.2" y="688.0" width="51.5" height="21.0" rx="5.0" fill="#ffffff" stroke="#cbd5e1" stroke-width="1"/><text class="interface-label-text" x="1820.0" y="704.0" text-anchor="middle" fill="#334155" font-family="ui-monospace,SFMono-Regular,monospace" font-size="11" font-weight="650">Te0/0</text><rect class="interface-label-badge" x="984.2" y="889.0" width="51.5" height="21.0" rx="5.0" fill="#ffffff" stroke="#cbd5e1" stroke-width="1"/><text class="interface-label-text" x="1010.0" y="905.0" text-anchor="middle" fill="#334155" font-family="ui-monospace,SFMono-Regular,monospace" font-size="11" font-weight="650">Peer1</text><rect class="label-mask" x="1294.2" y="792.0" width="111.9" height="23" rx="5" fill="#f8fafc" stroke="#f8fafc" stroke-width="4"/><text x="1350.2" y="808.0" text-anchor="middle" fill="#ea580c" font-family="ui-monospace,SFMono-Regular,monospace" font-size="11" font-weight="500">eBGP · AS64501</text></g><g id="link-annotation-10" class="link-annotation"><rect class="interface-label-badge" x="2334.2" y="688.0" width="51.5" height="21.0" rx="5.0" fill="#ffffff" stroke="#cbd5e1" stroke-width="1"/><text class="interface-label-text" x="2360.0" y="704.0" text-anchor="middle" fill="#334155" font-family="ui-monospace,SFMono-Regular,monospace" font-size="11" font-weight="650">Te0/0</text><rect class="interface-label-badge" x="2064.2" y="889.0" width="51.5" height="21.0" rx="5.0" fill="#ffffff" stroke="#cbd5e1" stroke-width="1"/><text class="interface-label-text" x="2090.0" y="905.0" text-anchor="middle" fill="#334155" font-family="ui-monospace,SFMono-Regular,monospace" font-size="11" font-weight="650">Peer1</text><rect class="label-mask" x="2190.6" y="754.0" width="111.9" height="23" rx="5" fill="#f8fafc" stroke="#f8fafc" stroke-width="4"/><text x="2246.6" y="770.0" text-anchor="middle" fill="#ea580c" font-family="ui-monospace,SFMono-Regular,monospace" font-size="11" font-weight="500">eBGP · AS64502</text></g></g></svg>