<svg class="theme-light" xmlns="http://www.w3.org/2000/svg" width="2400" height="1250" viewBox="0 0 2400 1250" role="img" shape-rendering="geometricPrecision"><defs><filter id="shadow" x="-20%" y="-20%" width="140%" height="150%"><feDropShadow dx="0" dy="4" stdDeviation="6" flood-color="#0f172a" flood-opacity=".14"/></filter></defs><rect width="100%" height="100%" fill="#f8fafc"/><rect x="0" y="0" width="2400" height="112" fill="#0f172a"/><text x="70" y="56" fill="#f8fafc" font-family="Inter,Segoe UI,sans-serif" font-size="30" font-weight="700">Metro Ethernet Protected Ring</text><text x="70" y="84" fill="#94a3b8" font-family="Inter,Segoe UI,sans-serif" font-size="15">Eight aggregation nodes connected as a resilient 10G transport ring</text><text x="2330" y="66" text-anchor="end" fill="#38bdf8" font-family="ui-monospace,SFMono-Regular,monospace" font-size="14">METRO ETHERNET</text><g id="ring-background"><rect x="42" y="197" width="2316" height="950" rx="24" fill="#eff6ff" stroke="#dbeafe"/><ellipse cx="1435" cy="690" rx="700" ry="385" fill="none" stroke="#cbd5e1" stroke-width="2" stroke-dasharray="8 8"/><text x="1435" y="675" text-anchor="middle" fill="#334155" font-family="Inter,Segoe UI,sans-serif" font-size="23" font-weight="750">METRO ETHERNET</text><text x="1435" y="705" text-anchor="middle" fill="#64748b" font-family="ui-monospace,SFMono-Regular,monospace" font-size="13">8-NODE RESILIENT RING</text><text x="78" y="235" fill="#64748b" font-family="Inter,Segoe UI,sans-serif" font-size="12" font-weight="700" letter-spacing="1.8">RING TOPOLOGY</text><path d="M78 250 H410" stroke="#cbd5e1" stroke-width="1"/></g><g id="links"><g id="link-1" data-netdiag-kind="link"><path d="M 1575.0 305.0 L 1790.0 417.8" fill="none" stroke="#0f766e" stroke-width="2.2" stroke-linecap="round" stroke-linejoin="round"  opacity=".86"/><circle cx="1575.0" cy="305.0" r="3.2" fill="#ffffff" stroke="#0f766e" stroke-width="2"/><circle cx="1790.0" cy="417.8" r="3.2" fill="#ffffff" stroke="#0f766e" stroke-width="2"/></g><g id="link-2" data-netdiag-kind="link"><path d="M 1930.0 458.8 L 2135.0 649.0" fill="none" stroke="#0f766e" stroke-width="2.2" stroke-linecap="round" stroke-linejoin="round"  opacity=".86"/><circle cx="1930.0" cy="458.8" r="3.2" fill="#ffffff" stroke="#0f766e" stroke-width="2"/><circle cx="2135.0" cy="649.0" r="3.2" fill="#ffffff" stroke="#0f766e" stroke-width="2"/></g><g id="link-3" data-netdiag-kind="link"><path d="M 2135.0 731.0 L 1930.0 921.2" fill="none" stroke="#0f766e" stroke-width="2.2" stroke-linecap="round" stroke-linejoin="round"  opacity=".86"/><circle cx="2135.0" cy="731.0" r="3.2" fill="#ffffff" stroke="#0f766e" stroke-width="2"/><circle cx="1930.0" cy="921.2" r="3.2" fill="#ffffff" stroke="#0f766e" stroke-width="2"/></g><g id="link-4" data-netdiag-kind="link"><path d="M 1790.0 962.2 L 1575.0 1075.0" fill="none" stroke="#0f766e" stroke-width="2.2" stroke-linecap="round" stroke-linejoin="round"  opacity=".86"/><circle cx="1790.0" cy="962.2" r="3.2" fill="#ffffff" stroke="#0f766e" stroke-width="2"/><circle cx="1575.0" cy="1075.0" r="3.2" fill="#ffffff" stroke="#0f766e" stroke-width="2"/></g><g id="link-5" data-netdiag-kind="link"><path d="M 1295.0 1075.0 L 1080.0 962.2" fill="none" stroke="#0f766e" stroke-width="2.2" stroke-linecap="round" stroke-linejoin="round"  opacity=".86"/><circle cx="1295.0" cy="1075.0" r="3.2" fill="#ffffff" stroke="#0f766e" stroke-width="2"/><circle cx="1080.0" cy="962.2" r="3.2" fill="#ffffff" stroke="#0f766e" stroke-width="2"/></g><g id="link-6" data-netdiag-kind="link"><path d="M 940.0 921.2 L 735.0 731.0" fill="none" stroke="#0f766e" stroke-width="2.2" stroke-linecap="round" stroke-linejoin="round"  opacity=".86"/><circle cx="940.0" cy="921.2" r="3.2" fill="#ffffff" stroke="#0f766e" stroke-width="2"/><circle cx="735.0" cy="731.0" r="3.2" fill="#ffffff" stroke="#0f766e" stroke-width="2"/></g><g id="link-7" data-netdiag-kind="link"><path d="M 735.0 649.0 L 940.0 458.8" fill="none" stroke="#0f766e" stroke-width="2.2" stroke-linecap="round" stroke-linejoin="round"  opacity=".86"/><circle cx="735.0" cy="649.0" r="3.2" fill="#ffffff" stroke="#0f766e" stroke-width="2"/><circle cx="940.0" cy="458.8" r="3.2" fill="#ffffff" stroke="#0f766e" stroke-width="2"/></g><g id="link-8" data-netdiag-kind="link"><path d="M 1080.0 417.8 L 1295.0 305.0" fill="none" stroke="#0f766e" stroke-width="2.2" stroke-linecap="round" stroke-linejoin="round"  opacity=".86"/><circle cx="1080.0" cy="417.8" r="3.2" fill="#ffffff" stroke="#0f766e" stroke-width="2"/><circle cx="1295.0" cy="305.0" r="3.2" fill="#ffffff" stroke="#0f766e" stroke-width="2"/></g></g><g id="nodes"><g id="ring-01" data-netdiag-kind="node" filter="url(#shadow)"><rect x="1295.0" y="264.0" width="280.0" height="82.0" rx="14" fill="#ffffff" stroke="#0878b9" stroke-width="2"/><rect x="1295.0" y="264.0" width="8" height="82.0" rx="4" fill="#0878b9"/><g class="device-icon device-icon-router" transform="translate(1335.0 305.0)" stroke="#0878b9" fill="none" stroke-width="1.6" stroke-linecap="round" stroke-linejoin="round"><ellipse cx="0" cy="0" rx="27" ry="18" fill="#0878b9" fill-opacity=".12"/><ellipse cx="0" cy="0" rx="27" ry="18"/><path d="M-14 0h28M8-6l6 6-6 6M14 0H-14M-8-6l-6 6 6 6"/><path d="M0-13v26M-6-7l6-6 6 6M-6 7l6 6 6-6"/></g><text class="node-title" x="1373.0" y="298.0" fill="#0f172a" font-family="Inter,Segoe UI,Arial,sans-serif" font-size="15" font-weight="700">Central POP</text><text x="1373.0" y="319.0" fill="#64748b" font-family="ui-monospace,SFMono-Regular,monospace" font-size="11">ROUTER</text></g><g id="ring-02" data-netdiag-kind="node" filter="url(#shadow)"><rect x="1790.0" y="376.8" width="280.0" height="82.0" rx="14" fill="#ffffff" stroke="#0878b9" stroke-width="2"/><rect x="1790.0" y="376.8" width="8" height="82.0" rx="4" fill="#0878b9"/><g class="device-icon device-icon-router" transform="translate(1830.0 417.8)" stroke="#0878b9" fill="none" stroke-width="1.6" stroke-linecap="round" stroke-linejoin="round"><ellipse cx="0" cy="0" rx="27" ry="18" fill="#0878b9" fill-opacity=".12"/><ellipse cx="0" cy="0" rx="27" ry="18"/><path d="M-14 0h28M8-6l6 6-6 6M14 0H-14M-8-6l-6 6 6 6"/><path d="M0-13v26M-6-7l6-6 6 6M-6 7l6 6 6-6"/></g><text class="node-title" x="1868.0" y="410.8" fill="#0f172a" font-family="Inter,Segoe UI,Arial,sans-serif" font-size="15" font-weight="700">North Exchange</text><text x="1868.0" y="431.8" fill="#64748b" font-family="ui-monospace,SFMono-Regular,monospace" font-size="11">ROUTER</text></g><g id="ring-03" data-netdiag-kind="node" filter="url(#shadow)"><rect x="1995.0" y="649.0" width="280.0" height="82.0" rx="14" fill="#ffffff" stroke="#0878b9" stroke-width="2"/><rect x="1995.0" y="649.0" width="8" height="82.0" rx="4" fill="#0878b9"/><g class="device-icon device-icon-router" transform="translate(2035.0 690.0)" stroke="#0878b9" fill="none" stroke-width="1.6" stroke-linecap="round" stroke-linejoin="round"><ellipse cx="0" cy="0" rx="27" ry="18" fill="#0878b9" fill-opacity=".12"/><ellipse cx="0" cy="0" rx="27" ry="18"/><path d="M-14 0h28M8-6l6 6-6 6M14 0H-14M-8-6l-6 6 6 6"/><path d="M0-13v26M-6-7l6-6 6 6M-6 7l6 6 6-6"/></g><text class="node-title" x="2073.0" y="683.0" fill="#0f172a" font-family="Inter,Segoe UI,Arial,sans-serif" font-size="15" font-weight="700">Airport POP</text><text x="2073.0" y="704.0" fill="#64748b" font-family="ui-monospace,SFMono-Regular,monospace" font-size="11">ROUTER</text></g><g id="ring-04" data-netdiag-kind="node" filter="url(#shadow)"><rect x="1790.0" y="921.2" width="280.0" height="82.0" rx="14" fill="#ffffff" stroke="#0878b9" stroke-width="2"/><rect x="1790.0" y="921.2" width="8" height="82.0" rx="4" fill="#0878b9"/><g class="device-icon device-icon-router" transform="translate(1830.0 962.2)" stroke="#0878b9" fill="none" stroke-width="1.6" stroke-linecap="round" stroke-linejoin="round"><ellipse cx="0" cy="0" rx="27" ry="18" fill="#0878b9" fill-opacity=".12"/><ellipse cx="0" cy="0" rx="27" ry="18"/><path d="M-14 0h28M8-6l6 6-6 6M14 0H-14M-8-6l-6 6 6 6"/><path d="M0-13v26M-6-7l6-6 6 6M-6 7l6 6 6-6"/></g><text class="node-title" x="1868.0" y="955.2" fill="#0f172a" font-family="Inter,Segoe UI,Arial,sans-serif" font-size="15" font-weight="700">East Exchange</text><text x="1868.0" y="976.2" fill="#64748b" font-family="ui-monospace,SFMono-Regular,monospace" font-size="11">ROUTER</text></g><g id="ring-05" data-netdiag-kind="node" filter="url(#shadow)"><rect x="1295.0" y="1034.0" width="280.0" height="82.0" rx="14" fill="#ffffff" stroke="#0878b9" stroke-width="2"/><rect x="1295.0" y="1034.0" width="8" height="82.0" rx="4" fill="#0878b9"/><g class="device-icon device-icon-router" transform="translate(1335.0 1075.0)" stroke="#0878b9" fill="none" stroke-width="1.6" stroke-linecap="round" stroke-linejoin="round"><ellipse cx="0" cy="0" rx="27" ry="18" fill="#0878b9" fill-opacity=".12"/><ellipse cx="0" cy="0" rx="27" ry="18"/><path d="M-14 0h28M8-6l6 6-6 6M14 0H-14M-8-6l-6 6 6 6"/><path d="M0-13v26M-6-7l6-6 6 6M-6 7l6 6 6-6"/></g><text class="node-title" x="1373.0" y="1068.0" fill="#0f172a" font-family="Inter,Segoe UI,Arial,sans-serif" font-size="15" font-weight="700">Riverside POP</text><text x="1373.0" y="1089.0" fill="#64748b" font-family="ui-monospace,SFMono-Regular,monospace" font-size="11">ROUTER</text></g><g id="ring-06" data-netdiag-kind="node" filter="url(#shadow)"><rect x="800.0" y="921.2" width="280.0" height="82.0" rx="14" fill="#ffffff" stroke="#0878b9" stroke-width="2"/><rect x="800.0" y="921.2" width="8" height="82.0" rx="4" fill="#0878b9"/><g class="device-icon device-icon-router" transform="translate(840.0 962.2)" stroke="#0878b9" fill="none" stroke-width="1.6" stroke-linecap="round" stroke-linejoin="round"><ellipse cx="0" cy="0" rx="27" ry="18" fill="#0878b9" fill-opacity=".12"/><ellipse cx="0" cy="0" rx="27" ry="18"/><path d="M-14 0h28M8-6l6 6-6 6M14 0H-14M-8-6l-6 6 6 6"/><path d="M0-13v26M-6-7l6-6 6 6M-6 7l6 6 6-6"/></g><text class="node-title" x="878.0" y="955.2" fill="#0f172a" font-family="Inter,Segoe UI,Arial,sans-serif" font-size="15" font-weight="700">South Exchange</text><text x="878.0" y="976.2" fill="#64748b" font-family="ui-monospace,SFMono-Regular,monospace" font-size="11">ROUTER</text></g><g id="ring-07" data-netdiag-kind="node" filter="url(#shadow)"><rect x="595.0" y="649.0" width="280.0" height="82.0" rx="14" fill="#ffffff" stroke="#0878b9" stroke-width="2"/><rect x="595.0" y="649.0" width="8" height="82.0" rx="4" fill="#0878b9"/><g class="device-icon device-icon-router" transform="translate(635.0 690.0)" stroke="#0878b9" fill="none" stroke-width="1.6" stroke-linecap="round" stroke-linejoin="round"><ellipse cx="0" cy="0" rx="27" ry="18" fill="#0878b9" fill-opacity=".12"/><ellipse cx="0" cy="0" rx="27" ry="18"/><path d="M-14 0h28M8-6l6 6-6 6M14 0H-14M-8-6l-6 6 6 6"/><path d="M0-13v26M-6-7l6-6 6 6M-6 7l6 6 6-6"/></g><text class="node-title" x="673.0" y="683.0" fill="#0f172a" font-family="Inter,Segoe UI,Arial,sans-serif" font-size="15" font-weight="700">Industrial POP</text><text x="673.0" y="704.0" fill="#64748b" font-family="ui-monospace,SFMono-Regular,monospace" font-size="11">ROUTER</text></g><g id="ring-08" data-netdiag-kind="node" filter="url(#shadow)"><rect x="800.0" y="376.8" width="280.0" height="82.0" rx="14" fill="#ffffff" stroke="#0878b9" stroke-width="2"/><rect x="800.0" y="376.8" width="8" height="82.0" rx="4" fill="#0878b9"/><g class="device-icon device-icon-router" transform="translate(840.0 417.8)" stroke="#0878b9" fill="none" stroke-width="1.6" stroke-linecap="round" stroke-linejoin="round"><ellipse cx="0" cy="0" rx="27" ry="18" fill="#0878b9" fill-opacity=".12"/><ellipse cx="0" cy="0" rx="27" ry="18"/><path d="M-14 0h28M8-6l6 6-6 6M14 0H-14M-8-6l-6 6 6 6"/><path d="M0-13v26M-6-7l6-6 6 6M-6 7l6 6 6-6"/></g><text class="node-title" x="878.0" y="410.8" fill="#0f172a" font-family="Inter,Segoe UI,Arial,sans-serif" font-size="15" font-weight="700">West Exchange</text><text x="878.0" y="431.8" fill="#64748b" font-family="ui-monospace,SFMono-Regular,monospace" font-size="11">ROUTER</text></g></g><g id="link-annotations" pointer-events="none"><g id="link-annotation-1" class="link-annotation"><rect class="interface-label-badge" x="1604.2" y="277.0" width="51.5" height="21.0" rx="5.0" fill="#ffffff" stroke="#cbd5e1" stroke-width="1"/><text class="interface-label-text" x="1630.0" y="293.0" text-anchor="middle" fill="#334155" font-family="ui-monospace,SFMono-Regular,monospace" font-size="11" font-weight="650">Te0/0</text><rect class="interface-label-badge" x="1709.2" y="389.8" width="51.5" height="21.0" rx="5.0" fill="#ffffff" stroke="#cbd5e1" stroke-width="1"/><text class="interface-label-text" x="1735.0" y="405.8" text-anchor="middle" fill="#334155" font-family="ui-monospace,SFMono-Regular,monospace" font-size="11" font-weight="650">Te0/1</text><rect class="label-mask" x="1609.3" y="367.4" width="111.9" height="23" rx="5" fill="#f8fafc" stroke="#f8fafc" stroke-width="4"/><text x="1665.3" y="383.4" text-anchor="middle" fill="#0f766e" font-family="ui-monospace,SFMono-Regular,monospace" font-size="11" font-weight="500">Span R01 · 10G</text></g><g id="link-annotation-2" class="link-annotation"><rect class="interface-label-badge" x="1904.2" y="467.8" width="51.5" height="21.0" rx="5.0" fill="#ffffff" stroke="#cbd5e1" stroke-width="1"/><text class="interface-label-text" x="1930.0" y="483.8" text-anchor="middle" fill="#334155" font-family="ui-monospace,SFMono-Regular,monospace" font-size="11" font-weight="650">Te0/0</text><rect class="interface-label-badge" x="2109.2" y="621.0" width="51.5" height="21.0" rx="5.0" fill="#ffffff" stroke="#cbd5e1" stroke-width="1"/><text class="interface-label-text" x="2135.0" y="637.0" text-anchor="middle" fill="#334155" font-family="ui-monospace,SFMono-Regular,monospace" font-size="11" font-weight="650">Te0/1</text><rect class="label-mask" x="1976.5" y="528.9" width="111.9" height="23" rx="5" fill="#f8fafc" stroke="#f8fafc" stroke-width="4"/><text x="2032.5" y="544.9" text-anchor="middle" fill="#0f766e" font-family="ui-monospace,SFMono-Regular,monospace" font-size="11" font-weight="500">Span R02 · 10G</text></g><g id="link-annotation-3" class="link-annotation"><rect class="interface-label-badge" x="2109.2" y="740.0" width="51.5" height="21.0" rx="5.0" fill="#ffffff" stroke="#cbd5e1" stroke-width="1"/><text class="interface-label-text" x="2135.0" y="756.0" text-anchor="middle" fill="#334155" font-family="ui-monospace,SFMono-Regular,monospace" font-size="11" font-weight="650">Te0/0</text><rect class="interface-label-badge" x="1904.2" y="893.2" width="51.5" height="21.0" rx="5.0" fill="#ffffff" stroke="#cbd5e1" stroke-width="1"/><text class="interface-label-text" x="1930.0" y="909.2" text-anchor="middle" fill="#334155" font-family="ui-monospace,SFMono-Regular,monospace" font-size="11" font-weight="650">Te0/1</text><rect class="label-mask" x="1960.1" y="816.3" width="111.9" height="23" rx="5" fill="#f8fafc" stroke="#f8fafc" stroke-width="4"/><text x="2016.1" y="832.3" text-anchor="middle" fill="#0f766e" font-family="ui-monospace,SFMono-Regular,monospace" font-size="11" font-weight="500">Span R03 · 10G</text></g><g id="link-annotation-4" class="link-annotation"><rect class="interface-label-badge" x="1709.2" y="934.2" width="51.5" height="21.0" rx="5.0" fill="#ffffff" stroke="#cbd5e1" stroke-width="1"/><text class="interface-label-text" x="1735.0" y="950.2" text-anchor="middle" fill="#334155" font-family="ui-monospace,SFMono-Regular,monospace" font-size="11" font-weight="650">Te0/0</text><rect class="interface-label-badge" x="1604.2" y="1047.0" width="51.5" height="21.0" rx="5.0" fill="#ffffff" stroke="#cbd5e1" stroke-width="1"/><text class="interface-label-text" x="1630.0" y="1063.0" text-anchor="middle" fill="#334155" font-family="ui-monospace,SFMono-Regular,monospace" font-size="11" font-weight="650">Te0/1</text><rect class="label-mask" x="1643.7" y="1024.6" width="111.9" height="23" rx="5" fill="#f8fafc" stroke="#f8fafc" stroke-width="4"/><text x="1699.7" y="1040.6" text-anchor="middle" fill="#0f766e" font-family="ui-monospace,SFMono-Regular,monospace" font-size="11" font-weight="500">Span R04 · 10G</text></g><g id="link-annotation-5" class="link-annotation"><rect class="interface-label-badge" x="1214.2" y="1047.0" width="51.5" height="21.0" rx="5.0" fill="#ffffff" stroke="#cbd5e1" stroke-width="1"/><text class="interface-label-text" x="1240.0" y="1063.0" text-anchor="middle" fill="#334155" font-family="ui-monospace,SFMono-Regular,monospace" font-size="11" font-weight="650">Te0/0</text><rect class="interface-label-badge" x="1109.3" y="934.2" width="51.5" height="21.0" rx="5.0" fill="#ffffff" stroke="#cbd5e1" stroke-width="1"/><text class="interface-label-text" x="1135.0" y="950.2" text-anchor="middle" fill="#334155" font-family="ui-monospace,SFMono-Regular,monospace" font-size="11" font-weight="650">Te0/1</text><rect class="label-mask" x="1131.5" y="1033.6" width="111.9" height="23" rx="5" fill="#f8fafc" stroke="#f8fafc" stroke-width="4"/><text x="1187.5" y="1049.6" text-anchor="middle" fill="#0f766e" font-family="ui-monospace,SFMono-Regular,monospace" font-size="11" font-weight="500">Span R05 · 10G</text></g><g id="link-annotation-6" class="link-annotation"><rect class="interface-label-badge" x="914.3" y="893.2" width="51.5" height="21.0" rx="5.0" fill="#ffffff" stroke="#cbd5e1" stroke-width="1"/><text class="interface-label-text" x="940.0" y="909.2" text-anchor="middle" fill="#334155" font-family="ui-monospace,SFMono-Regular,monospace" font-size="11" font-weight="650">Te0/0</text><rect class="interface-label-badge" x="709.2" y="740.0" width="51.5" height="21.0" rx="5.0" fill="#ffffff" stroke="#cbd5e1" stroke-width="1"/><text class="interface-label-text" x="735.0" y="756.0" text-anchor="middle" fill="#334155" font-family="ui-monospace,SFMono-Regular,monospace" font-size="11" font-weight="650">Te0/1</text><rect class="label-mask" x="765.1" y="785.9" width="111.9" height="23" rx="5" fill="#f8fafc" stroke="#f8fafc" stroke-width="4"/><text x="821.1" y="801.9" text-anchor="middle" fill="#0f766e" font-family="ui-monospace,SFMono-Regular,monospace" font-size="11" font-weight="500">Span R06 · 10G</text></g><g id="link-annotation-7" class="link-annotation"><rect class="interface-label-badge" x="709.2" y="621.0" width="51.5" height="21.0" rx="5.0" fill="#ffffff" stroke="#cbd5e1" stroke-width="1"/><text class="interface-label-text" x="735.0" y="637.0" text-anchor="middle" fill="#334155" font-family="ui-monospace,SFMono-Regular,monospace" font-size="11" font-weight="650">Te0/0</text><rect class="interface-label-badge" x="914.3" y="467.8" width="51.5" height="21.0" rx="5.0" fill="#ffffff" stroke="#cbd5e1" stroke-width="1"/><text class="interface-label-text" x="940.0" y="483.8" text-anchor="middle" fill="#334155" font-family="ui-monospace,SFMono-Regular,monospace" font-size="11" font-weight="650">Te0/1</text><rect class="label-mask" x="765.1" y="544.1" width="111.9" height="23" rx="5" fill="#f8fafc" stroke="#f8fafc" stroke-width="4"/><text x="821.1" y="560.1" text-anchor="middle" fill="#0f766e" font-family="ui-monospace,SFMono-Regular,monospace" font-size="11" font-weight="500">Span R07 · 10G</text></g><g id="link-annotation-8" class="link-annotation"><rect class="interface-label-badge" x="1109.3" y="389.8" width="51.5" height="21.0" rx="5.0" fill="#ffffff" stroke="#cbd5e1" stroke-width="1"/><text class="interface-label-text" x="1135.0" y="405.8" text-anchor="middle" fill="#334155" font-family="ui-monospace,SFMono-Regular,monospace" font-size="11" font-weight="650">Te0/0</text><rect class="interface-label-badge" x="1214.2" y="277.0" width="51.5" height="21.0" rx="5.0" fill="#ffffff" stroke="#cbd5e1" stroke-width="1"/><text class="interface-label-text" x="1240.0" y="293.0" text-anchor="middle" fill="#334155" font-family="ui-monospace,SFMono-Regular,monospace" font-size="11" font-weight="650">Te0/1</text><rect class="label-mask" x="1131.5" y="376.4" width="111.9" height="23" rx="5" fill="#f8fafc" stroke="#f8fafc" stroke-width="4"/><text x="1187.5" y="392.4" text-anchor="middle" fill="#0f766e" font-family="ui-monospace,SFMono-Regular,monospace" font-size="11" font-weight="500">Span R08 · 10G</text></g></g></svg>