<svg class="theme-light" xmlns="http://www.w3.org/2000/svg" width="3015" height="1545" viewBox="0 0 3015 1545" role="img" shape-rendering="geometricPrecision"><defs><filter id="shadow" x="-20%" y="-20%" width="140%" height="150%"><feDropShadow dx="0" dy="4" stdDeviation="6" flood-color="#0f172a" flood-opacity=".14"/></filter></defs><rect width="100%" height="100%" fill="#f8fafc"/><rect x="0" y="0" width="3015" height="112" fill="#0f172a"/><text x="70" y="56" fill="#f8fafc" font-family="Inter,Segoe UI,sans-serif" font-size="30" font-weight="700">Multi-Metro MPLS Core</text><text x="70" y="84" fill="#94a3b8" font-family="Inter,Segoe UI,sans-serif" font-size="15">Regional metro networks connected through a provider MPLS core</text><text x="2945" y="66" text-anchor="end" fill="#38bdf8" font-family="ui-monospace,SFMono-Regular,monospace" font-size="14">MPLS METRO WAN</text><rect x="42" y="197.0" width="2931.0" height="250.0" rx="20" fill="#f1f5f9" stroke="#e2e8f0"/><rect x="42" y="517.0" width="2931.0" height="250.0" rx="20" fill="#eff6ff" stroke="#e2e8f0"/><rect x="42" y="837.0" width="2931.0" height="250.0" rx="20" fill="#eff6ff" stroke="#e2e8f0"/><rect x="42" y="1157.0" width="2931.0" height="250.0" rx="20" fill="#f8fafc" stroke="#e2e8f0"/><g id="row-headings"><g class="row-heading row-heading-wan-cloud"><path d="M78 250.0 H410" stroke="#cbd5e1" stroke-width="1"/><text x="78" y="235.0" fill="#64748b" font-family="Inter,Segoe UI,sans-serif" font-size="12" font-weight="700" letter-spacing="1.8">WAN CLOUD LAYER · 1 DEVICES</text></g><g class="row-heading row-heading-edge-router"><path d="M78 570.0 H410" stroke="#cbd5e1" stroke-width="1"/><text x="78" y="555.0" fill="#64748b" font-family="Inter,Segoe UI,sans-serif" font-size="12" font-weight="700" letter-spacing="1.8">EDGE ROUTER LAYER · 4 DEVICES</text></g><g class="row-heading row-heading-access-switch"><path d="M78 890.0 H410" stroke="#cbd5e1" stroke-width="1"/><text x="78" y="875.0" fill="#64748b" font-family="Inter,Segoe UI,sans-serif" font-size="12" font-weight="700" letter-spacing="1.8">ACCESS SWITCH LAYER · 4 DEVICES</text></g><g class="row-heading row-heading-endpoint"><path d="M78 1210.0 H410" stroke="#cbd5e1" stroke-width="1"/><text x="78" y="1195.0" fill="#64748b" font-family="Inter,Segoe UI,sans-serif" font-size="12" font-weight="700" letter-spacing="1.8">ENDPOINT LAYER · 4 DEVICES</text></g></g><g id="links"><g id="link-1" data-netdiag-kind="link"><path d="M 1552.0 359.0 V 411.4 L 770.0 544.6 V 597.0" fill="none" stroke="#7c3aed" stroke-width="2.2" stroke-linecap="round" stroke-linejoin="round"  opacity=".86"/><circle cx="1552.0" cy="359.0" r="3.2" fill="#ffffff" stroke="#7c3aed" stroke-width="2"/><circle cx="770.0" cy="597.0" r="3.2" fill="#ffffff" stroke="#7c3aed" stroke-width="2"/></g><g id="link-2" data-netdiag-kind="link"><path d="M 1630.7 359.0 V 411.4 L 1370.0 544.6 V 597.0" fill="none" stroke="#7c3aed" stroke-width="2.2" stroke-linecap="round" stroke-linejoin="round"  opacity=".86"/><circle cx="1630.7" cy="359.0" r="3.2" fill="#ffffff" stroke="#7c3aed" stroke-width="2"/><circle cx="1370.0" cy="597.0" r="3.2" fill="#ffffff" stroke="#7c3aed" stroke-width="2"/></g><g id="link-3" data-netdiag-kind="link"><path d="M 1709.3 359.0 V 411.4 L 1970.0 544.6 V 597.0" fill="none" stroke="#7c3aed" stroke-width="2.2" stroke-linecap="round" stroke-linejoin="round"  opacity=".86"/><circle cx="1709.3" cy="359.0" r="3.2" fill="#ffffff" stroke="#7c3aed" stroke-width="2"/><circle cx="1970.0" cy="597.0" r="3.2" fill="#ffffff" stroke="#7c3aed" stroke-width="2"/></g><g id="link-4" data-netdiag-kind="link"><path d="M 1788.0 359.0 V 411.4 L 2570.0 544.6 V 597.0" fill="none" stroke="#7c3aed" stroke-width="2.2" stroke-linecap="round" stroke-linejoin="round"  opacity=".86"/><circle cx="1788.0" cy="359.0" r="3.2" fill="#ffffff" stroke="#7c3aed" stroke-width="2"/><circle cx="2570.0" cy="597.0" r="3.2" fill="#ffffff" stroke="#7c3aed" stroke-width="2"/></g><g id="link-5" data-netdiag-kind="link"><path d="M 770.0 679.0 V 731.4 L 770.0 864.6 V 917.0" fill="none" stroke="#0f766e" stroke-width="2.2" stroke-linecap="round" stroke-linejoin="round"  opacity=".86"/><circle cx="770.0" cy="679.0" r="3.2" fill="#ffffff" stroke="#0f766e" stroke-width="2"/><circle cx="770.0" cy="917.0" r="3.2" fill="#ffffff" stroke="#0f766e" stroke-width="2"/></g><g id="link-6" data-netdiag-kind="link"><path d="M 1370.0 679.0 V 731.4 L 1370.0 864.6 V 917.0" fill="none" stroke="#0f766e" stroke-width="2.2" stroke-linecap="round" stroke-linejoin="round"  opacity=".86"/><circle cx="1370.0" cy="679.0" r="3.2" fill="#ffffff" stroke="#0f766e" stroke-width="2"/><circle cx="1370.0" cy="917.0" r="3.2" fill="#ffffff" stroke="#0f766e" stroke-width="2"/></g><g id="link-7" data-netdiag-kind="link"><path d="M 1970.0 679.0 V 731.4 L 1970.0 864.6 V 917.0" fill="none" stroke="#0f766e" stroke-width="2.2" stroke-linecap="round" stroke-linejoin="round"  opacity=".86"/><circle cx="1970.0" cy="679.0" r="3.2" fill="#ffffff" stroke="#0f766e" stroke-width="2"/><circle cx="1970.0" cy="917.0" r="3.2" fill="#ffffff" stroke="#0f766e" stroke-width="2"/></g><g id="link-8" data-netdiag-kind="link"><path d="M 2570.0 679.0 V 731.4 L 2570.0 864.6 V 917.0" fill="none" stroke="#0f766e" stroke-width="2.2" stroke-linecap="round" stroke-linejoin="round"  opacity=".86"/><circle cx="2570.0" cy="679.0" r="3.2" fill="#ffffff" stroke="#0f766e" stroke-width="2"/><circle cx="2570.0" cy="917.0" r="3.2" fill="#ffffff" stroke="#0f766e" stroke-width="2"/></g><g id="link-9" data-netdiag-kind="link"><path d="M 770.0 999.0 V 1051.4 L 770.0 1184.6 V 1237.0" fill="none" stroke="#334155" stroke-width="2.2" stroke-linecap="round" stroke-linejoin="round"  opacity=".86"/><circle cx="770.0" cy="999.0" r="3.2" fill="#ffffff" stroke="#334155" stroke-width="2"/><circle cx="770.0" cy="1237.0" r="3.2" fill="#ffffff" stroke="#334155" stroke-width="2"/></g><g id="link-10" data-netdiag-kind="link"><path d="M 1370.0 999.0 V 1051.4 L 1370.0 1184.6 V 1237.0" fill="none" stroke="#334155" stroke-width="2.2" stroke-linecap="round" stroke-linejoin="round"  opacity=".86"/><circle cx="1370.0" cy="999.0" r="3.2" fill="#ffffff" stroke="#334155" stroke-width="2"/><circle cx="1370.0" cy="1237.0" r="3.2" fill="#ffffff" stroke="#334155" stroke-width="2"/></g><g id="link-11" data-netdiag-kind="link"><path d="M 1970.0 999.0 V 1051.4 L 1970.0 1184.6 V 1237.0" fill="none" stroke="#334155" stroke-width="2.2" stroke-linecap="round" stroke-linejoin="round"  opacity=".86"/><circle cx="1970.0" cy="999.0" r="3.2" fill="#ffffff" stroke="#334155" stroke-width="2"/><circle cx="1970.0" cy="1237.0" r="3.2" fill="#ffffff" stroke="#334155" stroke-width="2"/></g><g id="link-12" data-netdiag-kind="link"><path d="M 2570.0 999.0 V 1051.4 L 2570.0 1184.6 V 1237.0" fill="none" stroke="#334155" stroke-width="2.2" stroke-linecap="round" stroke-linejoin="round"  opacity=".86"/><circle cx="2570.0" cy="999.0" r="3.2" fill="#ffffff" stroke="#334155" stroke-width="2"/><circle cx="2570.0" cy="1237.0" r="3.2" fill="#ffffff" stroke="#334155" stroke-width="2"/></g></g><g id="nodes"><g id="berlin-metro" data-netdiag-kind="node" filter="url(#shadow)"><rect x="1220.0" y="917.0" width="300.0" height="82.0" rx="14" fill="#ffffff" stroke="#0878b9" stroke-width="2"/><rect x="1220.0" y="917.0" width="8" height="82.0" rx="4" fill="#0878b9"/><g class="device-icon device-icon-core-switch" transform="translate(1260.0 958.0)" stroke="#0878b9" fill="none" stroke-width="1.6" stroke-linecap="round" stroke-linejoin="round"><path d="M-28 -9 -9 -20 28 -9 9 2Z" fill="#0878b9" fill-opacity=".14"/><path d="M-28 -9 9 2 28 -9v12L9 15-28 4Z" fill="#0878b9" fill-opacity=".07"/><path d="M-28 -9 -9 -20 28 -9 9 2Z"/><path d="M-28 -9v13L9 15 28 3v-12M9 2v13"/><path d="M-19 -4 3 3M-19 1 3 8"/><rect x="-15.5" y="-4.5" width="3.5" height="2.7" rx=".5"/><rect x="-10" y="-2.8" width="3.5" height="2.7" rx=".5"/><rect x="-4.5" y="-1.1" width="3.5" height="2.7" rx=".5"/><rect x="1" y=".6" width="3.5" height="2.7" rx=".5"/><circle cx="-20" cy="1.5" r="1.4"/><circle cx="-15" cy="3.2" r="1.4"/><circle cx="-10" cy="4.9" r="1.4"/><path d="M11 -10h9M12 -6h6"/></g><text class="node-title" x="1298.0" y="951.0" fill="#0f172a" font-family="Inter,Segoe UI,Arial,sans-serif" font-size="15" font-weight="700">Berlin Metro Ring</text><text x="1298.0" y="972.0" fill="#64748b" font-family="ui-monospace,SFMono-Regular,monospace" font-size="11">ACCESS-SWITCH</text></g><g id="berlin-pe" data-netdiag-kind="node" filter="url(#shadow)"><rect x="1230.0" y="597.0" width="280.0" height="82.0" rx="14" fill="#fffbeb" stroke="#d97706" stroke-width="2"/><rect x="1230.0" y="597.0" width="8" height="82.0" rx="4" fill="#d97706"/><g class="device-icon device-icon-router" transform="translate(1270.0 638.0)" stroke="#d97706" fill="none" stroke-width="1.6" stroke-linecap="round" stroke-linejoin="round"><ellipse cx="0" cy="0" rx="27" ry="18" fill="#d97706" fill-opacity=".12"/><ellipse cx="0" cy="0" rx="27" ry="18"/><path d="M-14 0h28M8-6l6 6-6 6M14 0H-14M-8-6l-6 6 6 6"/><path d="M0-13v26M-6-7l6-6 6 6M-6 7l6 6 6-6"/></g><text class="node-title" x="1308.0" y="631.0" fill="#0f172a" font-family="Inter,Segoe UI,Arial,sans-serif" font-size="15" font-weight="700">Berlin PE Router</text><text x="1308.0" y="652.0" fill="#64748b" font-family="ui-monospace,SFMono-Regular,monospace" font-size="11">EDGE-ROUTER</text></g><g id="berlin-sites" data-netdiag-kind="node" filter="url(#shadow)"><rect x="1250.0" y="1237.0" width="240.0" height="82.0" rx="14" fill="#ffffff" stroke="#475569" stroke-width="2"/><rect x="1250.0" y="1237.0" width="8" height="82.0" rx="4" fill="#475569"/><g class="device-icon device-icon-users" transform="translate(1290.0 1278.0)" stroke="#475569" fill="none" stroke-width="1.6" stroke-linecap="round" stroke-linejoin="round"><rect x="-25" y="-18" width="50" height="32" rx="4" fill="#475569" fill-opacity=".08"/><rect x="-25" y="-18" width="50" height="32" rx="4"/><path d="M-12 21h24M0 14v7"/></g><text class="node-title" x="1328.0" y="1271.0" fill="#0f172a" font-family="Inter,Segoe UI,Arial,sans-serif" font-size="15" font-weight="700">Berlin Sites</text><text x="1328.0" y="1292.0" fill="#64748b" font-family="ui-monospace,SFMono-Regular,monospace" font-size="11">ENDPOINT</text></g><g id="london-metro" data-netdiag-kind="node" filter="url(#shadow)"><rect x="620.0" y="917.0" width="300.0" height="82.0" rx="14" fill="#ffffff" stroke="#0878b9" stroke-width="2"/><rect x="620.0" y="917.0" width="8" height="82.0" rx="4" fill="#0878b9"/><g class="device-icon device-icon-core-switch" transform="translate(660.0 958.0)" stroke="#0878b9" fill="none" stroke-width="1.6" stroke-linecap="round" stroke-linejoin="round"><path d="M-28 -9 -9 -20 28 -9 9 2Z" fill="#0878b9" fill-opacity=".14"/><path d="M-28 -9 9 2 28 -9v12L9 15-28 4Z" fill="#0878b9" fill-opacity=".07"/><path d="M-28 -9 -9 -20 28 -9 9 2Z"/><path d="M-28 -9v13L9 15 28 3v-12M9 2v13"/><path d="M-19 -4 3 3M-19 1 3 8"/><rect x="-15.5" y="-4.5" width="3.5" height="2.7" rx=".5"/><rect x="-10" y="-2.8" width="3.5" height="2.7" rx=".5"/><rect x="-4.5" y="-1.1" width="3.5" height="2.7" rx=".5"/><rect x="1" y=".6" width="3.5" height="2.7" rx=".5"/><circle cx="-20" cy="1.5" r="1.4"/><circle cx="-15" cy="3.2" r="1.4"/><circle cx="-10" cy="4.9" r="1.4"/><path d="M11 -10h9M12 -6h6"/></g><text class="node-title" x="698.0" y="951.0" fill="#0f172a" font-family="Inter,Segoe UI,Arial,sans-serif" font-size="15" font-weight="700">London Metro Ring</text><text x="698.0" y="972.0" fill="#64748b" font-family="ui-monospace,SFMono-Regular,monospace" font-size="11">ACCESS-SWITCH</text></g><g id="london-pe" data-netdiag-kind="node" filter="url(#shadow)"><rect x="630.0" y="597.0" width="280.0" height="82.0" rx="14" fill="#fffbeb" stroke="#d97706" stroke-width="2"/><rect x="630.0" y="597.0" width="8" height="82.0" rx="4" fill="#d97706"/><g class="device-icon device-icon-router" transform="translate(670.0 638.0)" stroke="#d97706" fill="none" stroke-width="1.6" stroke-linecap="round" stroke-linejoin="round"><ellipse cx="0" cy="0" rx="27" ry="18" fill="#d97706" fill-opacity=".12"/><ellipse cx="0" cy="0" rx="27" ry="18"/><path d="M-14 0h28M8-6l6 6-6 6M14 0H-14M-8-6l-6 6 6 6"/><path d="M0-13v26M-6-7l6-6 6 6M-6 7l6 6 6-6"/></g><text class="node-title" x="708.0" y="631.0" fill="#0f172a" font-family="Inter,Segoe UI,Arial,sans-serif" font-size="15" font-weight="700">London PE Router</text><text x="708.0" y="652.0" fill="#64748b" font-family="ui-monospace,SFMono-Regular,monospace" font-size="11">EDGE-ROUTER</text></g><g id="london-sites" data-netdiag-kind="node" filter="url(#shadow)"><rect x="650.0" y="1237.0" width="240.0" height="82.0" rx="14" fill="#ffffff" stroke="#475569" stroke-width="2"/><rect x="650.0" y="1237.0" width="8" height="82.0" rx="4" fill="#475569"/><g class="device-icon device-icon-users" transform="translate(690.0 1278.0)" stroke="#475569" fill="none" stroke-width="1.6" stroke-linecap="round" stroke-linejoin="round"><rect x="-25" y="-18" width="50" height="32" rx="4" fill="#475569" fill-opacity=".08"/><rect x="-25" y="-18" width="50" height="32" rx="4"/><path d="M-12 21h24M0 14v7"/></g><text class="node-title" x="728.0" y="1271.0" fill="#0f172a" font-family="Inter,Segoe UI,Arial,sans-serif" font-size="15" font-weight="700">London Sites</text><text x="728.0" y="1292.0" fill="#64748b" font-family="ui-monospace,SFMono-Regular,monospace" font-size="11">ENDPOINT</text></g><g id="madrid-metro" data-netdiag-kind="node" filter="url(#shadow)"><rect x="2420.0" y="917.0" width="300.0" height="82.0" rx="14" fill="#ffffff" stroke="#0878b9" stroke-width="2"/><rect x="2420.0" y="917.0" width="8" height="82.0" rx="4" fill="#0878b9"/><g class="device-icon device-icon-core-switch" transform="translate(2460.0 958.0)" stroke="#0878b9" fill="none" stroke-width="1.6" stroke-linecap="round" stroke-linejoin="round"><path d="M-28 -9 -9 -20 28 -9 9 2Z" fill="#0878b9" fill-opacity=".14"/><path d="M-28 -9 9 2 28 -9v12L9 15-28 4Z" fill="#0878b9" fill-opacity=".07"/><path d="M-28 -9 -9 -20 28 -9 9 2Z"/><path d="M-28 -9v13L9 15 28 3v-12M9 2v13"/><path d="M-19 -4 3 3M-19 1 3 8"/><rect x="-15.5" y="-4.5" width="3.5" height="2.7" rx=".5"/><rect x="-10" y="-2.8" width="3.5" height="2.7" rx=".5"/><rect x="-4.5" y="-1.1" width="3.5" height="2.7" rx=".5"/><rect x="1" y=".6" width="3.5" height="2.7" rx=".5"/><circle cx="-20" cy="1.5" r="1.4"/><circle cx="-15" cy="3.2" r="1.4"/><circle cx="-10" cy="4.9" r="1.4"/><path d="M11 -10h9M12 -6h6"/></g><text class="node-title" x="2498.0" y="951.0" fill="#0f172a" font-family="Inter,Segoe UI,Arial,sans-serif" font-size="15" font-weight="700">Madrid Metro Ring</text><text x="2498.0" y="972.0" fill="#64748b" font-family="ui-monospace,SFMono-Regular,monospace" font-size="11">ACCESS-SWITCH</text></g><g id="madrid-pe" data-netdiag-kind="node" filter="url(#shadow)"><rect x="2430.0" y="597.0" width="280.0" height="82.0" rx="14" fill="#fffbeb" stroke="#d97706" stroke-width="2"/><rect x="2430.0" y="597.0" width="8" height="82.0" rx="4" fill="#d97706"/><g class="device-icon device-icon-router" transform="translate(2470.0 638.0)" stroke="#d97706" fill="none" stroke-width="1.6" stroke-linecap="round" stroke-linejoin="round"><ellipse cx="0" cy="0" rx="27" ry="18" fill="#d97706" fill-opacity=".12"/><ellipse cx="0" cy="0" rx="27" ry="18"/><path d="M-14 0h28M8-6l6 6-6 6M14 0H-14M-8-6l-6 6 6 6"/><path d="M0-13v26M-6-7l6-6 6 6M-6 7l6 6 6-6"/></g><text class="node-title" x="2508.0" y="631.0" fill="#0f172a" font-family="Inter,Segoe UI,Arial,sans-serif" font-size="15" font-weight="700">Madrid PE Router</text><text x="2508.0" y="652.0" fill="#64748b" font-family="ui-monospace,SFMono-Regular,monospace" font-size="11">EDGE-ROUTER</text></g><g id="madrid-sites" data-netdiag-kind="node" filter="url(#shadow)"><rect x="2450.0" y="1237.0" width="240.0" height="82.0" rx="14" fill="#ffffff" stroke="#475569" stroke-width="2"/><rect x="2450.0" y="1237.0" width="8" height="82.0" rx="4" fill="#475569"/><g class="device-icon device-icon-users" transform="translate(2490.0 1278.0)" stroke="#475569" fill="none" stroke-width="1.6" stroke-linecap="round" stroke-linejoin="round"><rect x="-25" y="-18" width="50" height="32" rx="4" fill="#475569" fill-opacity=".08"/><rect x="-25" y="-18" width="50" height="32" rx="4"/><path d="M-12 21h24M0 14v7"/></g><text class="node-title" x="2528.0" y="1271.0" fill="#0f172a" font-family="Inter,Segoe UI,Arial,sans-serif" font-size="15" font-weight="700">Madrid Sites</text><text x="2528.0" y="1292.0" fill="#64748b" font-family="ui-monospace,SFMono-Regular,monospace" font-size="11">ENDPOINT</text></g><g id="mpls-core" data-netdiag-kind="node" filter="url(#shadow)"><rect x="1530.0" y="277.0" width="280.0" height="82.0" rx="14" fill="#ffffff" stroke="#64748b" stroke-width="2"/><rect x="1530.0" y="277.0" width="8" height="82.0" rx="4" fill="#64748b"/><g class="device-icon device-icon-wan-cloud" transform="translate(1570.0 318.0)" stroke="#64748b" fill="none" stroke-width="1.6" stroke-linecap="round" stroke-linejoin="round"><path d="M-24 13c-8 0-10-12-3-16 1-11 15-15 22-8 8-9 25-4 25 8 10 1 11 16 1 16Z" fill="#64748b" fill-opacity=".13" stroke="#64748b"/><path d="M-18 4h36M-10-3h20"/></g><text class="node-title" x="1608.0" y="311.0" fill="#0f172a" font-family="Inter,Segoe UI,Arial,sans-serif" font-size="15" font-weight="700">Provider MPLS Core</text><text x="1608.0" y="332.0" fill="#64748b" font-family="ui-monospace,SFMono-Regular,monospace" font-size="11">WAN-CLOUD</text></g><g id="paris-metro" data-netdiag-kind="node" filter="url(#shadow)"><rect x="1820.0" y="917.0" width="300.0" height="82.0" rx="14" fill="#ffffff" stroke="#0878b9" stroke-width="2"/><rect x="1820.0" y="917.0" width="8" height="82.0" rx="4" fill="#0878b9"/><g class="device-icon device-icon-core-switch" transform="translate(1860.0 958.0)" stroke="#0878b9" fill="none" stroke-width="1.6" stroke-linecap="round" stroke-linejoin="round"><path d="M-28 -9 -9 -20 28 -9 9 2Z" fill="#0878b9" fill-opacity=".14"/><path d="M-28 -9 9 2 28 -9v12L9 15-28 4Z" fill="#0878b9" fill-opacity=".07"/><path d="M-28 -9 -9 -20 28 -9 9 2Z"/><path d="M-28 -9v13L9 15 28 3v-12M9 2v13"/><path d="M-19 -4 3 3M-19 1 3 8"/><rect x="-15.5" y="-4.5" width="3.5" height="2.7" rx=".5"/><rect x="-10" y="-2.8" width="3.5" height="2.7" rx=".5"/><rect x="-4.5" y="-1.1" width="3.5" height="2.7" rx=".5"/><rect x="1" y=".6" width="3.5" height="2.7" rx=".5"/><circle cx="-20" cy="1.5" r="1.4"/><circle cx="-15" cy="3.2" r="1.4"/><circle cx="-10" cy="4.9" r="1.4"/><path d="M11 -10h9M12 -6h6"/></g><text class="node-title" x="1898.0" y="951.0" fill="#0f172a" font-family="Inter,Segoe UI,Arial,sans-serif" font-size="15" font-weight="700">Paris Metro Ring</text><text x="1898.0" y="972.0" fill="#64748b" font-family="ui-monospace,SFMono-Regular,monospace" font-size="11">ACCESS-SWITCH</text></g><g id="paris-pe" data-netdiag-kind="node" filter="url(#shadow)"><rect x="1830.0" y="597.0" width="280.0" height="82.0" rx="14" fill="#fffbeb" stroke="#d97706" stroke-width="2"/><rect x="1830.0" y="597.0" width="8" height="82.0" rx="4" fill="#d97706"/><g class="device-icon device-icon-router" transform="translate(1870.0 638.0)" stroke="#d97706" fill="none" stroke-width="1.6" stroke-linecap="round" stroke-linejoin="round"><ellipse cx="0" cy="0" rx="27" ry="18" fill="#d97706" fill-opacity=".12"/><ellipse cx="0" cy="0" rx="27" ry="18"/><path d="M-14 0h28M8-6l6 6-6 6M14 0H-14M-8-6l-6 6 6 6"/><path d="M0-13v26M-6-7l6-6 6 6M-6 7l6 6 6-6"/></g><text class="node-title" x="1908.0" y="631.0" fill="#0f172a" font-family="Inter,Segoe UI,Arial,sans-serif" font-size="15" font-weight="700">Paris PE Router</text><text x="1908.0" y="652.0" fill="#64748b" font-family="ui-monospace,SFMono-Regular,monospace" font-size="11">EDGE-ROUTER</text></g><g id="paris-sites" data-netdiag-kind="node" filter="url(#shadow)"><rect x="1850.0" y="1237.0" width="240.0" height="82.0" rx="14" fill="#ffffff" stroke="#475569" stroke-width="2"/><rect x="1850.0" y="1237.0" width="8" height="82.0" rx="4" fill="#475569"/><g class="device-icon device-icon-users" transform="translate(1890.0 1278.0)" stroke="#475569" fill="none" stroke-width="1.6" stroke-linecap="round" stroke-linejoin="round"><rect x="-25" y="-18" width="50" height="32" rx="4" fill="#475569" fill-opacity=".08"/><rect x="-25" y="-18" width="50" height="32" rx="4"/><path d="M-12 21h24M0 14v7"/></g><text class="node-title" x="1928.0" y="1271.0" fill="#0f172a" font-family="Inter,Segoe UI,Arial,sans-serif" font-size="15" font-weight="700">Paris Sites</text><text x="1928.0" y="1292.0" fill="#64748b" font-family="ui-monospace,SFMono-Regular,monospace" font-size="11">ENDPOINT</text></g></g><g id="link-annotations" pointer-events="none"><g id="link-annotation-1" class="link-annotation"><rect class="interface-label-badge" x="1426.0" y="356.7" width="38.1" height="21.0" rx="5.0" fill="#ffffff" stroke="#cbd5e1" stroke-width="1"/><text class="interface-label-text" x="1445.1" y="372.7" text-anchor="middle" fill="#334155" font-family="ui-monospace,SFMono-Regular,monospace" font-size="11" font-weight="650">PE1</text><rect class="interface-label-badge" x="840.6" y="532.8" width="51.5" height="21.0" rx="5.0" fill="#ffffff" stroke="#cbd5e1" stroke-width="1"/><text class="interface-label-text" x="866.4" y="548.8" text-anchor="middle" fill="#334155" font-family="ui-monospace,SFMono-Regular,monospace" font-size="11" font-weight="650">Hu0/0</text><rect class="label-mask" x="1147.5" y="434.0" width="152.2" height="23" rx="5" fill="#f8fafc" stroke="#f8fafc" stroke-width="4"/><text x="1223.6" y="450.0" text-anchor="middle" fill="#7c3aed" font-family="ui-monospace,SFMono-Regular,monospace" font-size="11" font-weight="500">L3VPN · RT 65000:101</text></g><g id="link-annotation-2" class="link-annotation"><rect class="interface-label-badge" x="1565.6" y="360.6" width="38.1" height="21.0" rx="5.0" fill="#ffffff" stroke="#cbd5e1" stroke-width="1"/><text class="interface-label-text" x="1584.6" y="376.6" text-anchor="middle" fill="#334155" font-family="ui-monospace,SFMono-Regular,monospace" font-size="11" font-weight="650">PE2</text><rect class="interface-label-badge" x="1366.0" y="536.8" width="51.5" height="21.0" rx="5.0" fill="#ffffff" stroke="#cbd5e1" stroke-width="1"/><text class="interface-label-text" x="1391.7" y="552.8" text-anchor="middle" fill="#334155" font-family="ui-monospace,SFMono-Regular,monospace" font-size="11" font-weight="650">Hu0/0</text><rect class="label-mask" x="1424.2" y="453.0" width="152.2" height="23" rx="5" fill="#f8fafc" stroke="#f8fafc" stroke-width="4"/><text x="1500.3" y="469.0" text-anchor="middle" fill="#7c3aed" font-family="ui-monospace,SFMono-Regular,monospace" font-size="11" font-weight="500">L3VPN · RT 65000:102</text></g><g id="link-annotation-3" class="link-annotation"><rect class="interface-label-badge" x="1712.0" y="387.2" width="38.1" height="21.0" rx="5.0" fill="#ffffff" stroke="#cbd5e1" stroke-width="1"/><text class="interface-label-text" x="1731.1" y="403.2" text-anchor="middle" fill="#334155" font-family="ui-monospace,SFMono-Regular,monospace" font-size="11" font-weight="650">PE3</text><rect class="interface-label-badge" x="1898.2" y="563.4" width="51.5" height="21.0" rx="5.0" fill="#ffffff" stroke="#cbd5e1" stroke-width="1"/><text class="interface-label-text" x="1924.0" y="579.4" text-anchor="middle" fill="#334155" font-family="ui-monospace,SFMono-Regular,monospace" font-size="11" font-weight="650">Hu0/0</text><rect class="label-mask" x="1784.4" y="472.0" width="152.2" height="23" rx="5" fill="#f8fafc" stroke="#f8fafc" stroke-width="4"/><text x="1860.5" y="488.0" text-anchor="middle" fill="#7c3aed" font-family="ui-monospace,SFMono-Regular,monospace" font-size="11" font-weight="500">L3VPN · RT 65000:103</text></g><g id="link-annotation-4" class="link-annotation"><rect class="interface-label-badge" x="1865.4" y="391.2" width="38.1" height="21.0" rx="5.0" fill="#ffffff" stroke="#cbd5e1" stroke-width="1"/><text class="interface-label-text" x="1884.4" y="407.2" text-anchor="middle" fill="#334155" font-family="ui-monospace,SFMono-Regular,monospace" font-size="11" font-weight="650">PE4</text><rect class="interface-label-badge" x="2437.3" y="567.3" width="51.5" height="21.0" rx="5.0" fill="#ffffff" stroke="#cbd5e1" stroke-width="1"/><text class="interface-label-text" x="2463.1" y="583.3" text-anchor="middle" fill="#334155" font-family="ui-monospace,SFMono-Regular,monospace" font-size="11" font-weight="650">Hu0/0</text><rect class="label-mask" x="2040.3" y="434.0" width="152.2" height="23" rx="5" fill="#f8fafc" stroke="#f8fafc" stroke-width="4"/><text x="2116.4" y="450.0" text-anchor="middle" fill="#7c3aed" font-family="ui-monospace,SFMono-Regular,monospace" font-size="11" font-weight="500">L3VPN · RT 65000:104</text></g><g id="link-annotation-5" class="link-annotation"><rect class="interface-label-badge" x="726.2" y="693.9" width="51.5" height="21.0" rx="5.0" fill="#ffffff" stroke="#cbd5e1" stroke-width="1"/><text class="interface-label-text" x="752.0" y="709.9" text-anchor="middle" fill="#334155" font-family="ui-monospace,SFMono-Regular,monospace" font-size="11" font-weight="650">Te0/1</text><rect class="interface-label-badge" x="719.5" y="870.1" width="65.0" height="21.0" rx="5.0" fill="#ffffff" stroke="#cbd5e1" stroke-width="1"/><text class="interface-label-text" x="752.0" y="886.1" text-anchor="middle" fill="#334155" font-family="ui-monospace,SFMono-Regular,monospace" font-size="11" font-weight="650">Eth1/49</text><rect class="label-mask" x="697.3" y="773.0" width="145.5" height="23" rx="5" fill="#f8fafc" stroke="#f8fafc" stroke-width="4"/><text x="770.0" y="789.0" text-anchor="middle" fill="#0f766e" font-family="ui-monospace,SFMono-Regular,monospace" font-size="11" font-weight="500">EVPN · Metro London</text></g><g id="link-annotation-6" class="link-annotation"><rect class="interface-label-badge" x="1326.2" y="693.9" width="51.5" height="21.0" rx="5.0" fill="#ffffff" stroke="#cbd5e1" stroke-width="1"/><text class="interface-label-text" x="1352.0" y="709.9" text-anchor="middle" fill="#334155" font-family="ui-monospace,SFMono-Regular,monospace" font-size="11" font-weight="650">Te0/1</text><rect class="interface-label-badge" x="1319.5" y="870.1" width="65.0" height="21.0" rx="5.0" fill="#ffffff" stroke="#cbd5e1" stroke-width="1"/><text class="interface-label-text" x="1352.0" y="886.1" text-anchor="middle" fill="#334155" font-family="ui-monospace,SFMono-Regular,monospace" font-size="11" font-weight="650">Eth1/49</text><rect class="label-mask" x="1297.3" y="792.0" width="145.5" height="23" rx="5" fill="#f8fafc" stroke="#f8fafc" stroke-width="4"/><text x="1370.0" y="808.0" text-anchor="middle" fill="#0f766e" font-family="ui-monospace,SFMono-Regular,monospace" font-size="11" font-weight="500">EVPN · Metro Berlin</text></g><g id="link-annotation-7" class="link-annotation"><rect class="interface-label-badge" x="1926.2" y="693.9" width="51.5" height="21.0" rx="5.0" fill="#ffffff" stroke="#cbd5e1" stroke-width="1"/><text class="interface-label-text" x="1952.0" y="709.9" text-anchor="middle" fill="#334155" font-family="ui-monospace,SFMono-Regular,monospace" font-size="11" font-weight="650">Te0/1</text><rect class="interface-label-badge" x="1919.5" y="870.1" width="65.0" height="21.0" rx="5.0" fill="#ffffff" stroke="#cbd5e1" stroke-width="1"/><text class="interface-label-text" x="1952.0" y="886.1" text-anchor="middle" fill="#334155" font-family="ui-monospace,SFMono-Regular,monospace" font-size="11" font-weight="650">Eth1/49</text><rect class="label-mask" x="1900.6" y="754.0" width="138.8" height="23" rx="5" fill="#f8fafc" stroke="#f8fafc" stroke-width="4"/><text x="1970.0" y="770.0" text-anchor="middle" fill="#0f766e" font-family="ui-monospace,SFMono-Regular,monospace" font-size="11" font-weight="500">EVPN · Metro Paris</text></g><g id="link-annotation-8" class="link-annotation"><rect class="interface-label-badge" x="2526.2" y="693.9" width="51.5" height="21.0" rx="5.0" fill="#ffffff" stroke="#cbd5e1" stroke-width="1"/><text class="interface-label-text" x="2552.0" y="709.9" text-anchor="middle" fill="#334155" font-family="ui-monospace,SFMono-Regular,monospace" font-size="11" font-weight="650">Te0/1</text><rect class="interface-label-badge" x="2519.5" y="870.1" width="65.0" height="21.0" rx="5.0" fill="#ffffff" stroke="#cbd5e1" stroke-width="1"/><text class="interface-label-text" x="2552.0" y="886.1" text-anchor="middle" fill="#334155" font-family="ui-monospace,SFMono-Regular,monospace" font-size="11" font-weight="650">Eth1/49</text><rect class="label-mask" x="2497.3" y="773.0" width="145.5" height="23" rx="5" fill="#f8fafc" stroke="#f8fafc" stroke-width="4"/><text x="2570.0" y="789.0" text-anchor="middle" fill="#0f766e" font-family="ui-monospace,SFMono-Regular,monospace" font-size="11" font-weight="500">EVPN · Metro Madrid</text></g><g id="link-annotation-9" class="link-annotation"><rect class="interface-label-badge" x="722.9" y="1013.9" width="58.3" height="21.0" rx="5.0" fill="#ffffff" stroke="#cbd5e1" stroke-width="1"/><text class="interface-label-text" x="752.0" y="1029.9" text-anchor="middle" fill="#334155" font-family="ui-monospace,SFMono-Regular,monospace" font-size="11" font-weight="650">Eth1/1</text><rect class="interface-label-badge" x="722.9" y="1190.1" width="58.3" height="21.0" rx="5.0" fill="#ffffff" stroke="#cbd5e1" stroke-width="1"/><text class="interface-label-text" x="752.0" y="1206.1" text-anchor="middle" fill="#334155" font-family="ui-monospace,SFMono-Regular,monospace" font-size="11" font-weight="650">Eth0/0</text><rect class="label-mask" x="667.1" y="1112.0" width="205.9" height="23" rx="5" fill="#f8fafc" stroke="#f8fafc" stroke-width="4"/><text x="770.0" y="1128.0" text-anchor="middle" fill="#334155" font-family="ui-monospace,SFMono-Regular,monospace" font-size="11" font-weight="500">Business Services · VLAN 101</text></g><g id="link-annotation-10" class="link-annotation"><rect class="interface-label-badge" x="1322.9" y="1013.9" width="58.3" height="21.0" rx="5.0" fill="#ffffff" stroke="#cbd5e1" stroke-width="1"/><text class="interface-label-text" x="1352.0" y="1029.9" text-anchor="middle" fill="#334155" font-family="ui-monospace,SFMono-Regular,monospace" font-size="11" font-weight="650">Eth1/1</text><rect class="interface-label-badge" x="1322.9" y="1190.1" width="58.3" height="21.0" rx="5.0" fill="#ffffff" stroke="#cbd5e1" stroke-width="1"/><text class="interface-label-text" x="1352.0" y="1206.1" text-anchor="middle" fill="#334155" font-family="ui-monospace,SFMono-Regular,monospace" font-size="11" font-weight="650">Eth0/0</text><rect class="label-mask" x="1267.1" y="1074.0" width="205.9" height="23" rx="5" fill="#f8fafc" stroke="#f8fafc" stroke-width="4"/><text x="1370.0" y="1090.0" text-anchor="middle" fill="#334155" font-family="ui-monospace,SFMono-Regular,monospace" font-size="11" font-weight="500">Business Services · VLAN 102</text></g><g id="link-annotation-11" class="link-annotation"><rect class="interface-label-badge" x="1922.9" y="1013.9" width="58.3" height="21.0" rx="5.0" fill="#ffffff" stroke="#cbd5e1" stroke-width="1"/><text class="interface-label-text" x="1952.0" y="1029.9" text-anchor="middle" fill="#334155" font-family="ui-monospace,SFMono-Regular,monospace" font-size="11" font-weight="650">Eth1/1</text><rect class="interface-label-badge" x="1922.9" y="1190.1" width="58.3" height="21.0" rx="5.0" fill="#ffffff" stroke="#cbd5e1" stroke-width="1"/><text class="interface-label-text" x="1952.0" y="1206.1" text-anchor="middle" fill="#334155" font-family="ui-monospace,SFMono-Regular,monospace" font-size="11" font-weight="650">Eth0/0</text><rect class="label-mask" x="1867.1" y="1093.0" width="205.9" height="23" rx="5" fill="#f8fafc" stroke="#f8fafc" stroke-width="4"/><text x="1970.0" y="1109.0" text-anchor="middle" fill="#334155" font-family="ui-monospace,SFMono-Regular,monospace" font-size="11" font-weight="500">Business Services · VLAN 103</text></g><g id="link-annotation-12" class="link-annotation"><rect class="interface-label-badge" x="2522.9" y="1013.9" width="58.3" height="21.0" rx="5.0" fill="#ffffff" stroke="#cbd5e1" stroke-width="1"/><text class="interface-label-text" x="2552.0" y="1029.9" text-anchor="middle" fill="#334155" font-family="ui-monospace,SFMono-Regular,monospace" font-size="11" font-weight="650">Eth1/1</text><rect class="interface-label-badge" x="2522.9" y="1190.1" width="58.3" height="21.0" rx="5.0" fill="#ffffff" stroke="#cbd5e1" stroke-width="1"/><text class="interface-label-text" x="2552.0" y="1206.1" text-anchor="middle" fill="#334155" font-family="ui-monospace,SFMono-Regular,monospace" font-size="11" font-weight="650">Eth0/0</text><rect class="label-mask" x="2467.1" y="1112.0" width="205.9" height="23" rx="5" fill="#f8fafc" stroke="#f8fafc" stroke-width="4"/><text x="2570.0" y="1128.0" text-anchor="middle" fill="#334155" font-family="ui-monospace,SFMono-Regular,monospace" font-size="11" font-weight="500">Business Services · VLAN 104</text></g></g></svg>