<svg xmlns="http://www.w3.org/2000/svg" width="2400" height="1545" viewBox="0 0 2400 1545" role="img"><defs><filter id="shadow" x="-20%" y="-20%" width="140%" height="150%"><feDropShadow dx="0" dy="4" stdDeviation="6" flood-color="#0f172a" flood-opacity=".14"/></filter></defs><rect width="100%" height="100%" fill="#f8fafc"/><rect x="0" y="0" width="2400" height="112" fill="#0f172a"/><text x="70" y="56" fill="#f8fafc" font-family="Inter,Segoe UI,sans-serif" font-size="30" font-weight="700">Multi-Metro MPLS Core</text><text x="70" y="84" fill="#94a3b8" font-family="Inter,Segoe UI,sans-serif" font-size="15">Regional metro networks connected through a provider MPLS core</text><text x="2330" y="66" text-anchor="end" fill="#38bdf8" font-family="ui-monospace,SFMono-Regular,monospace" font-size="14">MPLS METRO WAN</text><rect x="42" y="197.0" width="2316.0" height="250.0" rx="20" fill="#f1f5f9" stroke="#e2e8f0"/><rect x="42" y="517.0" width="2316.0" height="250.0" rx="20" fill="#eff6ff" stroke="#e2e8f0"/><rect x="42" y="837.0" width="2316.0" height="250.0" rx="20" fill="#eff6ff" stroke="#e2e8f0"/><rect x="42" y="1157.0" width="2316.0" height="250.0" rx="20" fill="#f8fafc" stroke="#e2e8f0"/><g id="row-headings"><g class="row-heading row-heading-wan-cloud"><path d="M78 250.0 H410" stroke="#cbd5e1" stroke-width="1"/><text x="78" y="235.0" fill="#64748b" font-family="Inter,Segoe UI,sans-serif" font-size="12" font-weight="700" letter-spacing="1.8">WAN CLOUD LAYER · 1 DEVICES</text></g><g class="row-heading row-heading-edge-router"><path d="M78 570.0 H410" stroke="#cbd5e1" stroke-width="1"/><text x="78" y="555.0" fill="#64748b" font-family="Inter,Segoe UI,sans-serif" font-size="12" font-weight="700" letter-spacing="1.8">EDGE ROUTER LAYER · 4 DEVICES</text></g><g class="row-heading row-heading-access-switch"><path d="M78 890.0 H410" stroke="#cbd5e1" stroke-width="1"/><text x="78" y="875.0" fill="#64748b" font-family="Inter,Segoe UI,sans-serif" font-size="12" font-weight="700" letter-spacing="1.8">ACCESS SWITCH LAYER · 4 DEVICES</text></g><g class="row-heading row-heading-endpoint"><path d="M78 1210.0 H410" stroke="#cbd5e1" stroke-width="1"/><text x="78" y="1195.0" fill="#64748b" font-family="Inter,Segoe UI,sans-serif" font-size="12" font-weight="700" letter-spacing="1.8">ENDPOINT LAYER · 4 DEVICES</text></g></g><g id="links"><path id="link-1" d="M 1244.5 359.0 V 411.4 L 693.1 544.6 V 597.0" fill="none" stroke="#7c3aed" stroke-width="2.2" stroke-linecap="round" stroke-linejoin="round"  opacity=".86"/><circle cx="1244.5" cy="359.0" r="3.2" fill="#ffffff" stroke="#7c3aed" stroke-width="2"/><circle cx="693.1" cy="597.0" r="3.2" fill="#ffffff" stroke="#7c3aed" stroke-width="2"/><rect x="1227.5" y="370.0" width="34.0" height="19" rx="5" fill="#f8fafc" fill-opacity=".96"/><text x="1244.5" y="384.0" text-anchor="middle" fill="#7c3aed" font-family="ui-monospace,SFMono-Regular,monospace" font-size="11" font-weight="650">PE1</text><rect x="670.4" y="571.0" width="45.5" height="19" rx="5" fill="#f8fafc" fill-opacity=".96"/><text x="693.1" y="585.0" text-anchor="middle" fill="#7c3aed" font-family="ui-monospace,SFMono-Regular,monospace" font-size="11" font-weight="650">Hu0/0</text><rect x="939.8" y="436.0" width="146.2" height="19" rx="5" fill="#f8fafc" fill-opacity=".96"/><text x="1012.9" y="450.0" text-anchor="middle" fill="#7c3aed" font-family="ui-monospace,SFMono-Regular,monospace" font-size="11" font-weight="500">L3VPN · RT 65000:101</text><path id="link-2" d="M 1323.2 359.0 V 411.4 L 1139.4 544.6 V 597.0" fill="none" stroke="#7c3aed" stroke-width="2.2" stroke-linecap="round" stroke-linejoin="round"  opacity=".86"/><circle cx="1323.2" cy="359.0" r="3.2" fill="#ffffff" stroke="#7c3aed" stroke-width="2"/><circle cx="1139.4" cy="597.0" r="3.2" fill="#ffffff" stroke="#7c3aed" stroke-width="2"/><rect x="1306.2" y="370.0" width="34.0" height="19" rx="5" fill="#f8fafc" fill-opacity=".96"/><text x="1323.2" y="384.0" text-anchor="middle" fill="#7c3aed" font-family="ui-monospace,SFMono-Regular,monospace" font-size="11" font-weight="650">PE2</text><rect x="1116.6" y="571.0" width="45.5" height="19" rx="5" fill="#f8fafc" fill-opacity=".96"/><text x="1139.4" y="585.0" text-anchor="middle" fill="#7c3aed" font-family="ui-monospace,SFMono-Regular,monospace" font-size="11" font-weight="650">Hu0/0</text><rect x="1158.2" y="455.0" width="146.2" height="19" rx="5" fill="#f8fafc" fill-opacity=".96"/><text x="1231.3" y="469.0" text-anchor="middle" fill="#7c3aed" font-family="ui-monospace,SFMono-Regular,monospace" font-size="11" font-weight="500">L3VPN · RT 65000:102</text><path id="link-3" d="M 1401.8 359.0 V 411.4 L 1585.6 544.6 V 597.0" fill="none" stroke="#7c3aed" stroke-width="2.2" stroke-linecap="round" stroke-linejoin="round"  opacity=".86"/><circle cx="1401.8" cy="359.0" r="3.2" fill="#ffffff" stroke="#7c3aed" stroke-width="2"/><circle cx="1585.6" cy="597.0" r="3.2" fill="#ffffff" stroke="#7c3aed" stroke-width="2"/><rect x="1384.8" y="370.0" width="34.0" height="19" rx="5" fill="#f8fafc" fill-opacity=".96"/><text x="1401.8" y="384.0" text-anchor="middle" fill="#7c3aed" font-family="ui-monospace,SFMono-Regular,monospace" font-size="11" font-weight="650">PE3</text><rect x="1562.8" y="571.0" width="45.5" height="19" rx="5" fill="#f8fafc" fill-opacity=".96"/><text x="1585.6" y="585.0" text-anchor="middle" fill="#7c3aed" font-family="ui-monospace,SFMono-Regular,monospace" font-size="11" font-weight="650">Hu0/0</text><rect x="1435.3" y="474.0" width="146.2" height="19" rx="5" fill="#f8fafc" fill-opacity=".96"/><text x="1508.4" y="488.0" text-anchor="middle" fill="#7c3aed" font-family="ui-monospace,SFMono-Regular,monospace" font-size="11" font-weight="500">L3VPN · RT 65000:103</text><path id="link-4" d="M 1480.5 359.0 V 411.4 L 2031.9 544.6 V 597.0" fill="none" stroke="#7c3aed" stroke-width="2.2" stroke-linecap="round" stroke-linejoin="round"  opacity=".86"/><circle cx="1480.5" cy="359.0" r="3.2" fill="#ffffff" stroke="#7c3aed" stroke-width="2"/><circle cx="2031.9" cy="597.0" r="3.2" fill="#ffffff" stroke="#7c3aed" stroke-width="2"/><rect x="1463.5" y="370.0" width="34.0" height="19" rx="5" fill="#f8fafc" fill-opacity=".96"/><text x="1480.5" y="384.0" text-anchor="middle" fill="#7c3aed" font-family="ui-monospace,SFMono-Regular,monospace" font-size="11" font-weight="650">PE4</text><rect x="2009.1" y="571.0" width="45.5" height="19" rx="5" fill="#f8fafc" fill-opacity=".96"/><text x="2031.9" y="585.0" text-anchor="middle" fill="#7c3aed" font-family="ui-monospace,SFMono-Regular,monospace" font-size="11" font-weight="650">Hu0/0</text><rect x="1639.0" y="436.0" width="146.2" height="19" rx="5" fill="#f8fafc" fill-opacity=".96"/><text x="1712.1" y="450.0" text-anchor="middle" fill="#7c3aed" font-family="ui-monospace,SFMono-Regular,monospace" font-size="11" font-weight="500">L3VPN · RT 65000:104</text><path id="link-5" d="M 693.1 679.0 V 731.4 L 693.1 864.6 V 917.0" fill="none" stroke="#0f766e" stroke-width="2.2" stroke-linecap="round" stroke-linejoin="round"  opacity=".86"/><circle cx="693.1" cy="679.0" r="3.2" fill="#ffffff" stroke="#0f766e" stroke-width="2"/><circle cx="693.1" cy="917.0" r="3.2" fill="#ffffff" stroke="#0f766e" stroke-width="2"/><rect x="670.4" y="690.0" width="45.5" height="19" rx="5" fill="#f8fafc" fill-opacity=".96"/><text x="693.1" y="704.0" text-anchor="middle" fill="#0f766e" font-family="ui-monospace,SFMono-Regular,monospace" font-size="11" font-weight="650">Te0/1</text><rect x="663.6" y="891.0" width="59.0" height="19" rx="5" fill="#f8fafc" fill-opacity=".96"/><text x="693.1" y="905.0" text-anchor="middle" fill="#0f766e" font-family="ui-monospace,SFMono-Regular,monospace" font-size="11" font-weight="650">Eth1/49</text><rect x="623.4" y="775.0" width="139.5" height="19" rx="5" fill="#f8fafc" fill-opacity=".96"/><text x="693.1" y="789.0" text-anchor="middle" fill="#0f766e" font-family="ui-monospace,SFMono-Regular,monospace" font-size="11" font-weight="500">EVPN · Metro London</text><path id="link-6" d="M 1139.4 679.0 V 731.4 L 1139.4 864.6 V 917.0" fill="none" stroke="#0f766e" stroke-width="2.2" stroke-linecap="round" stroke-linejoin="round"  opacity=".86"/><circle cx="1139.4" cy="679.0" r="3.2" fill="#ffffff" stroke="#0f766e" stroke-width="2"/><circle cx="1139.4" cy="917.0" r="3.2" fill="#ffffff" stroke="#0f766e" stroke-width="2"/><rect x="1116.6" y="690.0" width="45.5" height="19" rx="5" fill="#f8fafc" fill-opacity=".96"/><text x="1139.4" y="704.0" text-anchor="middle" fill="#0f766e" font-family="ui-monospace,SFMono-Regular,monospace" font-size="11" font-weight="650">Te0/1</text><rect x="1109.9" y="891.0" width="59.0" height="19" rx="5" fill="#f8fafc" fill-opacity=".96"/><text x="1139.4" y="905.0" text-anchor="middle" fill="#0f766e" font-family="ui-monospace,SFMono-Regular,monospace" font-size="11" font-weight="650">Eth1/49</text><rect x="1069.6" y="794.0" width="139.5" height="19" rx="5" fill="#f8fafc" fill-opacity=".96"/><text x="1139.4" y="808.0" text-anchor="middle" fill="#0f766e" font-family="ui-monospace,SFMono-Regular,monospace" font-size="11" font-weight="500">EVPN · Metro Berlin</text><path id="link-7" d="M 1585.6 679.0 V 731.4 L 1585.6 864.6 V 917.0" fill="none" stroke="#0f766e" stroke-width="2.2" stroke-linecap="round" stroke-linejoin="round"  opacity=".86"/><circle cx="1585.6" cy="679.0" r="3.2" fill="#ffffff" stroke="#0f766e" stroke-width="2"/><circle cx="1585.6" cy="917.0" r="3.2" fill="#ffffff" stroke="#0f766e" stroke-width="2"/><rect x="1562.8" y="690.0" width="45.5" height="19" rx="5" fill="#f8fafc" fill-opacity=".96"/><text x="1585.6" y="704.0" text-anchor="middle" fill="#0f766e" font-family="ui-monospace,SFMono-Regular,monospace" font-size="11" font-weight="650">Te0/1</text><rect x="1556.1" y="891.0" width="59.0" height="19" rx="5" fill="#f8fafc" fill-opacity=".96"/><text x="1585.6" y="905.0" text-anchor="middle" fill="#0f766e" font-family="ui-monospace,SFMono-Regular,monospace" font-size="11" font-weight="650">Eth1/49</text><rect x="1519.2" y="756.0" width="132.8" height="19" rx="5" fill="#f8fafc" fill-opacity=".96"/><text x="1585.6" y="770.0" text-anchor="middle" fill="#0f766e" font-family="ui-monospace,SFMono-Regular,monospace" font-size="11" font-weight="500">EVPN · Metro Paris</text><path id="link-8" d="M 2031.9 679.0 V 731.4 L 2031.9 864.6 V 917.0" fill="none" stroke="#0f766e" stroke-width="2.2" stroke-linecap="round" stroke-linejoin="round"  opacity=".86"/><circle cx="2031.9" cy="679.0" r="3.2" fill="#ffffff" stroke="#0f766e" stroke-width="2"/><circle cx="2031.9" cy="917.0" r="3.2" fill="#ffffff" stroke="#0f766e" stroke-width="2"/><rect x="2009.1" y="690.0" width="45.5" height="19" rx="5" fill="#f8fafc" fill-opacity=".96"/><text x="2031.9" y="704.0" text-anchor="middle" fill="#0f766e" font-family="ui-monospace,SFMono-Regular,monospace" font-size="11" font-weight="650">Te0/1</text><rect x="2002.4" y="891.0" width="59.0" height="19" rx="5" fill="#f8fafc" fill-opacity=".96"/><text x="2031.9" y="905.0" text-anchor="middle" fill="#0f766e" font-family="ui-monospace,SFMono-Regular,monospace" font-size="11" font-weight="650">Eth1/49</text><rect x="1962.1" y="775.0" width="139.5" height="19" rx="5" fill="#f8fafc" fill-opacity=".96"/><text x="2031.9" y="789.0" text-anchor="middle" fill="#0f766e" font-family="ui-monospace,SFMono-Regular,monospace" font-size="11" font-weight="500">EVPN · Metro Madrid</text><path id="link-9" d="M 693.1 999.0 V 1051.4 L 693.1 1184.6 V 1237.0" fill="none" stroke="#334155" stroke-width="2.2" stroke-linecap="round" stroke-linejoin="round"  opacity=".86"/><circle cx="693.1" cy="999.0" r="3.2" fill="#ffffff" stroke="#334155" stroke-width="2"/><circle cx="693.1" cy="1237.0" r="3.2" fill="#ffffff" stroke="#334155" stroke-width="2"/><rect x="667.0" y="1010.0" width="52.3" height="19" rx="5" fill="#f8fafc" fill-opacity=".96"/><text x="693.1" y="1024.0" text-anchor="middle" fill="#334155" font-family="ui-monospace,SFMono-Regular,monospace" font-size="11" font-weight="650">Eth1/1</text><rect x="667.0" y="1211.0" width="52.3" height="19" rx="5" fill="#f8fafc" fill-opacity=".96"/><text x="693.1" y="1225.0" text-anchor="middle" fill="#334155" font-family="ui-monospace,SFMono-Regular,monospace" font-size="11" font-weight="650">Eth0/0</text><rect x="593.2" y="1114.0" width="199.9" height="19" rx="5" fill="#f8fafc" fill-opacity=".96"/><text x="693.1" y="1128.0" text-anchor="middle" fill="#334155" font-family="ui-monospace,SFMono-Regular,monospace" font-size="11" font-weight="500">Business Services · VLAN 101</text><path id="link-10" d="M 1139.4 999.0 V 1051.4 L 1139.4 1184.6 V 1237.0" fill="none" stroke="#334155" stroke-width="2.2" stroke-linecap="round" stroke-linejoin="round"  opacity=".86"/><circle cx="1139.4" cy="999.0" r="3.2" fill="#ffffff" stroke="#334155" stroke-width="2"/><circle cx="1139.4" cy="1237.0" r="3.2" fill="#ffffff" stroke="#334155" stroke-width="2"/><rect x="1113.2" y="1010.0" width="52.3" height="19" rx="5" fill="#f8fafc" fill-opacity=".96"/><text x="1139.4" y="1024.0" text-anchor="middle" fill="#334155" font-family="ui-monospace,SFMono-Regular,monospace" font-size="11" font-weight="650">Eth1/1</text><rect x="1113.2" y="1211.0" width="52.3" height="19" rx="5" fill="#f8fafc" fill-opacity=".96"/><text x="1139.4" y="1225.0" text-anchor="middle" fill="#334155" font-family="ui-monospace,SFMono-Regular,monospace" font-size="11" font-weight="650">Eth0/0</text><rect x="1039.4" y="1076.0" width="199.9" height="19" rx="5" fill="#f8fafc" fill-opacity=".96"/><text x="1139.4" y="1090.0" text-anchor="middle" fill="#334155" font-family="ui-monospace,SFMono-Regular,monospace" font-size="11" font-weight="500">Business Services · VLAN 102</text><path id="link-11" d="M 1585.6 999.0 V 1051.4 L 1585.6 1184.6 V 1237.0" fill="none" stroke="#334155" stroke-width="2.2" stroke-linecap="round" stroke-linejoin="round"  opacity=".86"/><circle cx="1585.6" cy="999.0" r="3.2" fill="#ffffff" stroke="#334155" stroke-width="2"/><circle cx="1585.6" cy="1237.0" r="3.2" fill="#ffffff" stroke="#334155" stroke-width="2"/><rect x="1559.5" y="1010.0" width="52.3" height="19" rx="5" fill="#f8fafc" fill-opacity=".96"/><text x="1585.6" y="1024.0" text-anchor="middle" fill="#334155" font-family="ui-monospace,SFMono-Regular,monospace" font-size="11" font-weight="650">Eth1/1</text><rect x="1559.5" y="1211.0" width="52.3" height="19" rx="5" fill="#f8fafc" fill-opacity=".96"/><text x="1585.6" y="1225.0" text-anchor="middle" fill="#334155" font-family="ui-monospace,SFMono-Regular,monospace" font-size="11" font-weight="650">Eth0/0</text><rect x="1485.7" y="1095.0" width="199.9" height="19" rx="5" fill="#f8fafc" fill-opacity=".96"/><text x="1585.6" y="1109.0" text-anchor="middle" fill="#334155" font-family="ui-monospace,SFMono-Regular,monospace" font-size="11" font-weight="500">Business Services · VLAN 103</text><path id="link-12" d="M 2031.9 999.0 V 1051.4 L 2031.9 1184.6 V 1237.0" fill="none" stroke="#334155" stroke-width="2.2" stroke-linecap="round" stroke-linejoin="round"  opacity=".86"/><circle cx="2031.9" cy="999.0" r="3.2" fill="#ffffff" stroke="#334155" stroke-width="2"/><circle cx="2031.9" cy="1237.0" r="3.2" fill="#ffffff" stroke="#334155" stroke-width="2"/><rect x="2005.7" y="1010.0" width="52.3" height="19" rx="5" fill="#f8fafc" fill-opacity=".96"/><text x="2031.9" y="1024.0" text-anchor="middle" fill="#334155" font-family="ui-monospace,SFMono-Regular,monospace" font-size="11" font-weight="650">Eth1/1</text><rect x="2005.7" y="1211.0" width="52.3" height="19" rx="5" fill="#f8fafc" fill-opacity=".96"/><text x="2031.9" y="1225.0" text-anchor="middle" fill="#334155" font-family="ui-monospace,SFMono-Regular,monospace" font-size="11" font-weight="650">Eth0/0</text><rect x="1931.9" y="1114.0" width="199.9" height="19" rx="5" fill="#f8fafc" fill-opacity=".96"/><text x="2031.9" y="1128.0" text-anchor="middle" fill="#334155" font-family="ui-monospace,SFMono-Regular,monospace" font-size="11" font-weight="500">Business Services · VLAN 104</text></g><g id="nodes"><g id="berlin-metro" filter="url(#shadow)"><rect x="989.4" y="917.0" width="300.0" height="82.0" rx="14" fill="#ffffff" stroke="#0878b9" stroke-width="2"/><rect x="989.4" y="917.0" width="8" height="82.0" rx="4" fill="#0878b9"/><g class="device-icon device-icon-core-switch" transform="translate(1029.4 958.0)" stroke="#0878b9" fill="none" stroke-width="1.6" stroke-linecap="round" stroke-linejoin="round"><path d="M-28 -9 -9 -20 28 -9 9 2Z" fill="#0878b9" fill-opacity=".14"/><path d="M-28 -9 9 2 28 -9v12L9 15-28 4Z" fill="#0878b9" fill-opacity=".07"/><path d="M-28 -9 -9 -20 28 -9 9 2Z"/><path d="M-28 -9v13L9 15 28 3v-12M9 2v13"/><path d="M-19 -4 3 3M-19 1 3 8"/><rect x="-15.5" y="-4.5" width="3.5" height="2.7" rx=".5"/><rect x="-10" y="-2.8" width="3.5" height="2.7" rx=".5"/><rect x="-4.5" y="-1.1" width="3.5" height="2.7" rx=".5"/><rect x="1" y=".6" width="3.5" height="2.7" rx=".5"/><circle cx="-20" cy="1.5" r="1.4"/><circle cx="-15" cy="3.2" r="1.4"/><circle cx="-10" cy="4.9" r="1.4"/><path d="M11 -10h9M12 -6h6"/></g><text x="1067.4" y="951.0" fill="#0f172a" font-family="Inter,Segoe UI,sans-serif" font-size="15" font-weight="700">Berlin Metro Ring</text><text x="1067.4" y="972.0" fill="#64748b" font-family="ui-monospace,SFMono-Regular,monospace" font-size="11">ACCESS-SWITCH</text></g><g id="berlin-pe" filter="url(#shadow)"><rect x="999.4" y="597.0" width="280.0" height="82.0" rx="14" fill="#ffffff" stroke="#0878b9" stroke-width="2"/><rect x="999.4" y="597.0" width="8" height="82.0" rx="4" fill="#0878b9"/><g class="device-icon device-icon-router" transform="translate(1039.4 638.0)" stroke="#0878b9" fill="none" stroke-width="1.6" stroke-linecap="round" stroke-linejoin="round"><ellipse cx="0" cy="0" rx="27" ry="18" fill="#0878b9" fill-opacity=".12"/><ellipse cx="0" cy="0" rx="27" ry="18"/><path d="M-14 0h28M8-6l6 6-6 6M14 0H-14M-8-6l-6 6 6 6"/><path d="M0-13v26M-6-7l6-6 6 6M-6 7l6 6 6-6"/></g><text x="1077.4" y="631.0" fill="#0f172a" font-family="Inter,Segoe UI,sans-serif" font-size="15" font-weight="700">Berlin PE Router</text><text x="1077.4" y="652.0" fill="#64748b" font-family="ui-monospace,SFMono-Regular,monospace" font-size="11">EDGE-ROUTER</text></g><g id="berlin-sites" filter="url(#shadow)"><rect x="1019.4" y="1237.0" width="240.0" height="82.0" rx="14" fill="#ffffff" stroke="#475569" stroke-width="2"/><rect x="1019.4" y="1237.0" width="8" height="82.0" rx="4" fill="#475569"/><g class="device-icon device-icon-users" transform="translate(1059.4 1278.0)" stroke="#475569" fill="none" stroke-width="1.6" stroke-linecap="round" stroke-linejoin="round"><rect x="-25" y="-18" width="50" height="32" rx="4" fill="#475569" fill-opacity=".08"/><rect x="-25" y="-18" width="50" height="32" rx="4"/><path d="M-12 21h24M0 14v7"/></g><text x="1097.4" y="1271.0" fill="#0f172a" font-family="Inter,Segoe UI,sans-serif" font-size="15" font-weight="700">Berlin Sites</text><text x="1097.4" y="1292.0" fill="#64748b" font-family="ui-monospace,SFMono-Regular,monospace" font-size="11">ENDPOINT</text></g><g id="london-metro" filter="url(#shadow)"><rect x="543.1" y="917.0" width="300.0" height="82.0" rx="14" fill="#ffffff" stroke="#0878b9" stroke-width="2"/><rect x="543.1" y="917.0" width="8" height="82.0" rx="4" fill="#0878b9"/><g class="device-icon device-icon-core-switch" transform="translate(583.1 958.0)" stroke="#0878b9" fill="none" stroke-width="1.6" stroke-linecap="round" stroke-linejoin="round"><path d="M-28 -9 -9 -20 28 -9 9 2Z" fill="#0878b9" fill-opacity=".14"/><path d="M-28 -9 9 2 28 -9v12L9 15-28 4Z" fill="#0878b9" fill-opacity=".07"/><path d="M-28 -9 -9 -20 28 -9 9 2Z"/><path d="M-28 -9v13L9 15 28 3v-12M9 2v13"/><path d="M-19 -4 3 3M-19 1 3 8"/><rect x="-15.5" y="-4.5" width="3.5" height="2.7" rx=".5"/><rect x="-10" y="-2.8" width="3.5" height="2.7" rx=".5"/><rect x="-4.5" y="-1.1" width="3.5" height="2.7" rx=".5"/><rect x="1" y=".6" width="3.5" height="2.7" rx=".5"/><circle cx="-20" cy="1.5" r="1.4"/><circle cx="-15" cy="3.2" r="1.4"/><circle cx="-10" cy="4.9" r="1.4"/><path d="M11 -10h9M12 -6h6"/></g><text x="621.1" y="951.0" fill="#0f172a" font-family="Inter,Segoe UI,sans-serif" font-size="15" font-weight="700">London Metro Ring</text><text x="621.1" y="972.0" fill="#64748b" font-family="ui-monospace,SFMono-Regular,monospace" font-size="11">ACCESS-SWITCH</text></g><g id="london-pe" filter="url(#shadow)"><rect x="553.1" y="597.0" width="280.0" height="82.0" rx="14" fill="#ffffff" stroke="#0878b9" stroke-width="2"/><rect x="553.1" y="597.0" width="8" height="82.0" rx="4" fill="#0878b9"/><g class="device-icon device-icon-router" transform="translate(593.1 638.0)" stroke="#0878b9" fill="none" stroke-width="1.6" stroke-linecap="round" stroke-linejoin="round"><ellipse cx="0" cy="0" rx="27" ry="18" fill="#0878b9" fill-opacity=".12"/><ellipse cx="0" cy="0" rx="27" ry="18"/><path d="M-14 0h28M8-6l6 6-6 6M14 0H-14M-8-6l-6 6 6 6"/><path d="M0-13v26M-6-7l6-6 6 6M-6 7l6 6 6-6"/></g><text x="631.1" y="631.0" fill="#0f172a" font-family="Inter,Segoe UI,sans-serif" font-size="15" font-weight="700">London PE Router</text><text x="631.1" y="652.0" fill="#64748b" font-family="ui-monospace,SFMono-Regular,monospace" font-size="11">EDGE-ROUTER</text></g><g id="london-sites" filter="url(#shadow)"><rect x="573.1" y="1237.0" width="240.0" height="82.0" rx="14" fill="#ffffff" stroke="#475569" stroke-width="2"/><rect x="573.1" y="1237.0" width="8" height="82.0" rx="4" fill="#475569"/><g class="device-icon device-icon-users" transform="translate(613.1 1278.0)" stroke="#475569" fill="none" stroke-width="1.6" stroke-linecap="round" stroke-linejoin="round"><rect x="-25" y="-18" width="50" height="32" rx="4" fill="#475569" fill-opacity=".08"/><rect x="-25" y="-18" width="50" height="32" rx="4"/><path d="M-12 21h24M0 14v7"/></g><text x="651.1" y="1271.0" fill="#0f172a" font-family="Inter,Segoe UI,sans-serif" font-size="15" font-weight="700">London Sites</text><text x="651.1" y="1292.0" fill="#64748b" font-family="ui-monospace,SFMono-Regular,monospace" font-size="11">ENDPOINT</text></g><g id="madrid-metro" filter="url(#shadow)"><rect x="1881.9" y="917.0" width="300.0" height="82.0" rx="14" fill="#ffffff" stroke="#0878b9" stroke-width="2"/><rect x="1881.9" y="917.0" width="8" height="82.0" rx="4" fill="#0878b9"/><g class="device-icon device-icon-core-switch" transform="translate(1921.9 958.0)" stroke="#0878b9" fill="none" stroke-width="1.6" stroke-linecap="round" stroke-linejoin="round"><path d="M-28 -9 -9 -20 28 -9 9 2Z" fill="#0878b9" fill-opacity=".14"/><path d="M-28 -9 9 2 28 -9v12L9 15-28 4Z" fill="#0878b9" fill-opacity=".07"/><path d="M-28 -9 -9 -20 28 -9 9 2Z"/><path d="M-28 -9v13L9 15 28 3v-12M9 2v13"/><path d="M-19 -4 3 3M-19 1 3 8"/><rect x="-15.5" y="-4.5" width="3.5" height="2.7" rx=".5"/><rect x="-10" y="-2.8" width="3.5" height="2.7" rx=".5"/><rect x="-4.5" y="-1.1" width="3.5" height="2.7" rx=".5"/><rect x="1" y=".6" width="3.5" height="2.7" rx=".5"/><circle cx="-20" cy="1.5" r="1.4"/><circle cx="-15" cy="3.2" r="1.4"/><circle cx="-10" cy="4.9" r="1.4"/><path d="M11 -10h9M12 -6h6"/></g><text x="1959.9" y="951.0" fill="#0f172a" font-family="Inter,Segoe UI,sans-serif" font-size="15" font-weight="700">Madrid Metro Ring</text><text x="1959.9" y="972.0" fill="#64748b" font-family="ui-monospace,SFMono-Regular,monospace" font-size="11">ACCESS-SWITCH</text></g><g id="madrid-pe" filter="url(#shadow)"><rect x="1891.9" y="597.0" width="280.0" height="82.0" rx="14" fill="#ffffff" stroke="#0878b9" stroke-width="2"/><rect x="1891.9" y="597.0" width="8" height="82.0" rx="4" fill="#0878b9"/><g class="device-icon device-icon-router" transform="translate(1931.9 638.0)" stroke="#0878b9" fill="none" stroke-width="1.6" stroke-linecap="round" stroke-linejoin="round"><ellipse cx="0" cy="0" rx="27" ry="18" fill="#0878b9" fill-opacity=".12"/><ellipse cx="0" cy="0" rx="27" ry="18"/><path d="M-14 0h28M8-6l6 6-6 6M14 0H-14M-8-6l-6 6 6 6"/><path d="M0-13v26M-6-7l6-6 6 6M-6 7l6 6 6-6"/></g><text x="1969.9" y="631.0" fill="#0f172a" font-family="Inter,Segoe UI,sans-serif" font-size="15" font-weight="700">Madrid PE Router</text><text x="1969.9" y="652.0" fill="#64748b" font-family="ui-monospace,SFMono-Regular,monospace" font-size="11">EDGE-ROUTER</text></g><g id="madrid-sites" filter="url(#shadow)"><rect x="1911.9" y="1237.0" width="240.0" height="82.0" rx="14" fill="#ffffff" stroke="#475569" stroke-width="2"/><rect x="1911.9" y="1237.0" width="8" height="82.0" rx="4" fill="#475569"/><g class="device-icon device-icon-users" transform="translate(1951.9 1278.0)" stroke="#475569" fill="none" stroke-width="1.6" stroke-linecap="round" stroke-linejoin="round"><rect x="-25" y="-18" width="50" height="32" rx="4" fill="#475569" fill-opacity=".08"/><rect x="-25" y="-18" width="50" height="32" rx="4"/><path d="M-12 21h24M0 14v7"/></g><text x="1989.9" y="1271.0" fill="#0f172a" font-family="Inter,Segoe UI,sans-serif" font-size="15" font-weight="700">Madrid Sites</text><text x="1989.9" y="1292.0" fill="#64748b" font-family="ui-monospace,SFMono-Regular,monospace" font-size="11">ENDPOINT</text></g><g id="mpls-core" filter="url(#shadow)"><rect x="1222.5" y="277.0" width="280.0" height="82.0" rx="14" fill="#ffffff" stroke="#64748b" stroke-width="2"/><rect x="1222.5" y="277.0" width="8" height="82.0" rx="4" fill="#64748b"/><g class="device-icon device-icon-wan-cloud" transform="translate(1262.5 318.0)" stroke="#64748b" fill="none" stroke-width="1.6" stroke-linecap="round" stroke-linejoin="round"><path d="M-24 13c-8 0-10-12-3-16 1-11 15-15 22-8 8-9 25-4 25 8 10 1 11 16 1 16Z" fill="#64748b" fill-opacity=".13" stroke="#64748b"/><path d="M-18 4h36M-10-3h20"/></g><text x="1300.5" y="311.0" fill="#0f172a" font-family="Inter,Segoe UI,sans-serif" font-size="15" font-weight="700">Provider MPLS Core</text><text x="1300.5" y="332.0" fill="#64748b" font-family="ui-monospace,SFMono-Regular,monospace" font-size="11">WAN-CLOUD</text></g><g id="paris-metro" filter="url(#shadow)"><rect x="1435.6" y="917.0" width="300.0" height="82.0" rx="14" fill="#ffffff" stroke="#0878b9" stroke-width="2"/><rect x="1435.6" y="917.0" width="8" height="82.0" rx="4" fill="#0878b9"/><g class="device-icon device-icon-core-switch" transform="translate(1475.6 958.0)" stroke="#0878b9" fill="none" stroke-width="1.6" stroke-linecap="round" stroke-linejoin="round"><path d="M-28 -9 -9 -20 28 -9 9 2Z" fill="#0878b9" fill-opacity=".14"/><path d="M-28 -9 9 2 28 -9v12L9 15-28 4Z" fill="#0878b9" fill-opacity=".07"/><path d="M-28 -9 -9 -20 28 -9 9 2Z"/><path d="M-28 -9v13L9 15 28 3v-12M9 2v13"/><path d="M-19 -4 3 3M-19 1 3 8"/><rect x="-15.5" y="-4.5" width="3.5" height="2.7" rx=".5"/><rect x="-10" y="-2.8" width="3.5" height="2.7" rx=".5"/><rect x="-4.5" y="-1.1" width="3.5" height="2.7" rx=".5"/><rect x="1" y=".6" width="3.5" height="2.7" rx=".5"/><circle cx="-20" cy="1.5" r="1.4"/><circle cx="-15" cy="3.2" r="1.4"/><circle cx="-10" cy="4.9" r="1.4"/><path d="M11 -10h9M12 -6h6"/></g><text x="1513.6" y="951.0" fill="#0f172a" font-family="Inter,Segoe UI,sans-serif" font-size="15" font-weight="700">Paris Metro Ring</text><text x="1513.6" y="972.0" fill="#64748b" font-family="ui-monospace,SFMono-Regular,monospace" font-size="11">ACCESS-SWITCH</text></g><g id="paris-pe" filter="url(#shadow)"><rect x="1445.6" y="597.0" width="280.0" height="82.0" rx="14" fill="#ffffff" stroke="#0878b9" stroke-width="2"/><rect x="1445.6" y="597.0" width="8" height="82.0" rx="4" fill="#0878b9"/><g class="device-icon device-icon-router" transform="translate(1485.6 638.0)" stroke="#0878b9" fill="none" stroke-width="1.6" stroke-linecap="round" stroke-linejoin="round"><ellipse cx="0" cy="0" rx="27" ry="18" fill="#0878b9" fill-opacity=".12"/><ellipse cx="0" cy="0" rx="27" ry="18"/><path d="M-14 0h28M8-6l6 6-6 6M14 0H-14M-8-6l-6 6 6 6"/><path d="M0-13v26M-6-7l6-6 6 6M-6 7l6 6 6-6"/></g><text x="1523.6" y="631.0" fill="#0f172a" font-family="Inter,Segoe UI,sans-serif" font-size="15" font-weight="700">Paris PE Router</text><text x="1523.6" y="652.0" fill="#64748b" font-family="ui-monospace,SFMono-Regular,monospace" font-size="11">EDGE-ROUTER</text></g><g id="paris-sites" filter="url(#shadow)"><rect x="1465.6" y="1237.0" width="240.0" height="82.0" rx="14" fill="#ffffff" stroke="#475569" stroke-width="2"/><rect x="1465.6" y="1237.0" width="8" height="82.0" rx="4" fill="#475569"/><g class="device-icon device-icon-users" transform="translate(1505.6 1278.0)" stroke="#475569" fill="none" stroke-width="1.6" stroke-linecap="round" stroke-linejoin="round"><rect x="-25" y="-18" width="50" height="32" rx="4" fill="#475569" fill-opacity=".08"/><rect x="-25" y="-18" width="50" height="32" rx="4"/><path d="M-12 21h24M0 14v7"/></g><text x="1543.6" y="1271.0" fill="#0f172a" font-family="Inter,Segoe UI,sans-serif" font-size="15" font-weight="700">Paris Sites</text><text x="1543.6" y="1292.0" fill="#64748b" font-family="ui-monospace,SFMono-Regular,monospace" font-size="11">ENDPOINT</text></g></g></svg>