<svg class="theme-light" xmlns="http://www.w3.org/2000/svg" width="2688" height="1457" viewBox="0 0 2688 1457" role="img" shape-rendering="geometricPrecision"><defs><filter id="shadow" x="-20%" y="-20%" width="140%" height="150%"><feDropShadow dx="0" dy="4" stdDeviation="6" flood-color="#0f172a" flood-opacity=".14"/></filter></defs><rect width="100%" height="100%" fill="#f8fafc"/><rect x="0" y="0" width="2688" height="112" fill="#0f172a"/><text x="70" y="56" fill="#f8fafc" font-family="Inter,Segoe UI,sans-serif" font-size="30" font-weight="700">Site-Aware Enterprise WAN</text><text x="70" y="84" fill="#94a3b8" font-family="Inter,Segoe UI,sans-serif" font-size="15">Native site containment with obstacle-aware orthogonal routing</text><text x="2618" y="66" text-anchor="end" fill="#38bdf8" font-family="ui-monospace,SFMono-Regular,monospace" font-size="14">SITE-AWARE NATIVE</text><g id="site-backgrounds"><g id="group-london" class="site site-london" data-netdiag-kind="group"><rect x="70.0" y="220.0" width="520.0" height="1157.0" rx="24" fill="#eff6ff" stroke="#93c5fd" stroke-width="2"/><rect x="70.0" y="220.0" width="520.0" height="58" rx="24" fill="#dbeafe"/><text x="96.0" y="255.0" fill="#1e3a8a" font-family="Inter,Segoe UI,sans-serif" font-size="16" font-weight="800">London Headquarters</text><text x="566.0" y="254.0" text-anchor="end" fill="#64748b" font-family="ui-monospace,SFMono-Regular,monospace" font-size="10" font-weight="700">SITE</text></g><g id="group-mpls-core" class="site site-mpls-core" data-netdiag-kind="group"><rect x="680.0" y="220.0" width="1328.0" height="337.0" rx="24" fill="#eff6ff" stroke="#93c5fd" stroke-width="2"/><rect x="680.0" y="220.0" width="1328.0" height="58" rx="24" fill="#dbeafe"/><text x="706.0" y="255.0" fill="#1e3a8a" font-family="Inter,Segoe UI,sans-serif" font-size="16" font-weight="800">MPLS Core</text><text x="1984.0" y="254.0" text-anchor="end" fill="#64748b" font-family="ui-monospace,SFMono-Regular,monospace" font-size="10" font-weight="700">CORE</text></g><g id="group-manchester" class="site site-manchester" data-netdiag-kind="group"><rect x="2098.0" y="220.0" width="520.0" height="952.0" rx="24" fill="#eff6ff" stroke="#93c5fd" stroke-width="2"/><rect x="2098.0" y="220.0" width="520.0" height="58" rx="24" fill="#dbeafe"/><text x="2124.0" y="255.0" fill="#1e3a8a" font-family="Inter,Segoe UI,sans-serif" font-size="16" font-weight="800">Manchester Branch</text><text x="2594.0" y="254.0" text-anchor="end" fill="#64748b" font-family="ui-monospace,SFMono-Regular,monospace" font-size="10" font-weight="700">SITE</text></g><g id="group-london-lan" class="site-subgroup site-subgroup-london-lan" data-netdiag-kind="group"><rect x="156.0" y="718.0" width="348.0" height="548.0" rx="14" fill="#ffffff" fill-opacity=".28" stroke="#94a3b8" stroke-dasharray="7 6"/><text x="170.0" y="736.0" fill="#475569" font-family="ui-monospace,SFMono-Regular,monospace" font-size="10" font-weight="750">CAMPUS LAN</text></g><g id="group-manchester-lan" class="site-subgroup site-subgroup-manchester-lan" data-netdiag-kind="group"><rect x="2184.0" y="718.0" width="348.0" height="343.0" rx="14" fill="#ffffff" fill-opacity=".28" stroke="#94a3b8" stroke-dasharray="7 6"/><text x="2198.0" y="736.0" fill="#475569" font-family="ui-monospace,SFMono-Regular,monospace" font-size="10" font-weight="750">BRANCH LAN</text></g></g><g id="links"><g id="link-1" data-netdiag-kind="link"><path d="M 470.0 381.0 H 954.0" fill="none" stroke="#7c3aed" stroke-width="2.2" stroke-linecap="round" stroke-linejoin="round"  opacity=".86"/><circle cx="470.0" cy="381.0" r="3.2" fill="#ffffff" stroke="#7c3aed" stroke-width="2"/><circle cx="954.0" cy="381.0" r="3.2" fill="#ffffff" stroke="#7c3aed" stroke-width="2"/></g><g id="link-2" data-netdiag-kind="link"><path d="M 330.0 340.0 V 288.0 H 1594.0 V 422.0" fill="none" stroke="#7c3aed" stroke-width="2.2" stroke-linecap="round" stroke-linejoin="round"  opacity=".86"/><circle cx="330.0" cy="340.0" r="3.2" fill="#ffffff" stroke="#7c3aed" stroke-width="2"/><circle cx="1594.0" cy="422.0" r="3.2" fill="#ffffff" stroke="#7c3aed" stroke-width="2"/></g><g id="link-3" data-netdiag-kind="link"><path d="M 1234.0 358.0 H 1300.0 V 270.0 H 2152.0 V 358.0 H 2218.0" fill="none" stroke="#7c3aed" stroke-width="2.2" stroke-linecap="round" stroke-linejoin="round"  opacity=".86"/><circle cx="1234.0" cy="358.0" r="3.2" fill="#ffffff" stroke="#7c3aed" stroke-width="2"/><circle cx="2218.0" cy="358.0" r="3.2" fill="#ffffff" stroke="#7c3aed" stroke-width="2"/></g><g id="link-4" data-netdiag-kind="link"><path d="M 1734.0 381.0 H 2140.0 V 404.0 H 2218.0" fill="none" stroke="#7c3aed" stroke-width="2.2" stroke-linecap="round" stroke-linejoin="round"  opacity=".86"/><circle cx="1734.0" cy="381.0" r="3.2" fill="#ffffff" stroke="#7c3aed" stroke-width="2"/><circle cx="2218.0" cy="404.0" r="3.2" fill="#ffffff" stroke="#7c3aed" stroke-width="2"/></g><g id="link-5" data-netdiag-kind="link"><path d="M 1234.0 404.0 H 1412.0 V 381.0 H 1454.0" fill="none" stroke="#7c3aed" stroke-width="2.2" stroke-linecap="round" stroke-linejoin="round"  opacity=".86"/><circle cx="1234.0" cy="404.0" r="3.2" fill="#ffffff" stroke="#7c3aed" stroke-width="2"/><circle cx="1454.0" cy="381.0" r="3.2" fill="#ffffff" stroke="#7c3aed" stroke-width="2"/></g><g id="link-6" data-netdiag-kind="link"><path d="M 330.0 422.0 V 545.0" fill="none" stroke="#dc2626" stroke-width="2.2" stroke-linecap="round" stroke-linejoin="round"  opacity=".86"/><circle cx="330.0" cy="422.0" r="3.2" fill="#ffffff" stroke="#dc2626" stroke-width="2"/><circle cx="330.0" cy="545.0" r="3.2" fill="#ffffff" stroke="#dc2626" stroke-width="2"/></g><g id="link-7" data-netdiag-kind="link"><path d="M 330.0 627.0 V 750.0" fill="none" stroke="#dc2626" stroke-width="2.2" stroke-linecap="round" stroke-linejoin="round"  opacity=".86"/><circle cx="330.0" cy="627.0" r="3.2" fill="#ffffff" stroke="#dc2626" stroke-width="2"/><circle cx="330.0" cy="750.0" r="3.2" fill="#ffffff" stroke="#dc2626" stroke-width="2"/></g><g id="link-8" data-netdiag-kind="link"><path d="M 330.0 832.0 V 955.0" fill="none" stroke="#334155" stroke-width="2.2" stroke-linecap="round" stroke-linejoin="round"  opacity=".86"/><circle cx="330.0" cy="832.0" r="3.2" fill="#ffffff" stroke="#334155" stroke-width="2"/><circle cx="330.0" cy="955.0" r="3.2" fill="#ffffff" stroke="#334155" stroke-width="2"/></g><g id="link-9" data-netdiag-kind="link"><path d="M 330.0 1037.0 V 1160.0" fill="none" stroke="#334155" stroke-width="2.2" stroke-linecap="round" stroke-linejoin="round"  opacity=".86"/><circle cx="330.0" cy="1037.0" r="3.2" fill="#ffffff" stroke="#334155" stroke-width="2"/><circle cx="330.0" cy="1160.0" r="3.2" fill="#ffffff" stroke="#334155" stroke-width="2"/></g><g id="link-10" data-netdiag-kind="link"><path d="M 2358.0 422.0 V 545.0" fill="none" stroke="#dc2626" stroke-width="2.2" stroke-linecap="round" stroke-linejoin="round"  opacity=".86"/><circle cx="2358.0" cy="422.0" r="3.2" fill="#ffffff" stroke="#dc2626" stroke-width="2"/><circle cx="2358.0" cy="545.0" r="3.2" fill="#ffffff" stroke="#dc2626" stroke-width="2"/></g><g id="link-11" data-netdiag-kind="link"><path d="M 2358.0 627.0 V 750.0" fill="none" stroke="#dc2626" stroke-width="2.2" stroke-linecap="round" stroke-linejoin="round"  opacity=".86"/><circle cx="2358.0" cy="627.0" r="3.2" fill="#ffffff" stroke="#dc2626" stroke-width="2"/><circle cx="2358.0" cy="750.0" r="3.2" fill="#ffffff" stroke="#dc2626" stroke-width="2"/></g><g id="link-12" data-netdiag-kind="link"><path d="M 2358.0 832.0 V 955.0" fill="none" stroke="#334155" stroke-width="2.2" stroke-linecap="round" stroke-linejoin="round"  opacity=".86"/><circle cx="2358.0" cy="832.0" r="3.2" fill="#ffffff" stroke="#334155" stroke-width="2"/><circle cx="2358.0" cy="955.0" r="3.2" fill="#ffffff" stroke="#334155" stroke-width="2"/></g></g><g id="nodes"><g id="london-access" data-netdiag-kind="node" filter="url(#shadow)"><rect x="180.0" y="955.0" width="300.0" height="82.0" rx="14" fill="#ffffff" stroke="#0878b9" stroke-width="2"/><rect x="180.0" y="955.0" width="8" height="82.0" rx="4" fill="#0878b9"/><g class="device-icon device-icon-access-switch" transform="translate(220.0 996.0)" stroke="#0878b9" fill="none" stroke-width="1.6" stroke-linecap="round" stroke-linejoin="round"><path d="M-28 -9 -9 -20 28 -9 9 2Z" fill="#0878b9" fill-opacity=".14"/><path d="M-28 -9 9 2 28 -9v12L9 15-28 4Z" fill="#0878b9" fill-opacity=".07"/><path d="M-28 -9 -9 -20 28 -9 9 2Z"/><path d="M-28 -9v13L9 15 28 3v-12M9 2v13"/><path d="M-19 -4 3 3M-19 1 3 8"/><rect x="-15.5" y="-4.5" width="3.5" height="2.7" rx=".5"/><rect x="-10" y="-2.8" width="3.5" height="2.7" rx=".5"/><rect x="-4.5" y="-1.1" width="3.5" height="2.7" rx=".5"/><rect x="1" y=".6" width="3.5" height="2.7" rx=".5"/><circle cx="-20" cy="1.5" r="1.4"/><circle cx="-15" cy="3.2" r="1.4"/><circle cx="-10" cy="4.9" r="1.4"/><path d="M11 -10h9M12 -6h6"/></g><text class="node-title" x="258.0" y="989.0" fill="#0f172a" font-family="Inter,Segoe UI,Arial,sans-serif" font-size="15" font-weight="700">London Access</text><text x="258.0" y="1010.0" fill="#64748b" font-family="ui-monospace,SFMono-Regular,monospace" font-size="11">ACCESS-SWITCH</text></g><g id="london-core" data-netdiag-kind="node" filter="url(#shadow)"><rect x="180.0" y="750.0" width="300.0" height="82.0" rx="14" fill="#ffffff" stroke="#0878b9" stroke-width="2"/><rect x="180.0" y="750.0" width="8" height="82.0" rx="4" fill="#0878b9"/><g class="device-icon device-icon-core-switch" transform="translate(220.0 791.0)" stroke="#0878b9" fill="none" stroke-width="1.6" stroke-linecap="round" stroke-linejoin="round"><path d="M-28 -9 -9 -20 28 -9 9 2Z" fill="#0878b9" fill-opacity=".14"/><path d="M-28 -9 9 2 28 -9v12L9 15-28 4Z" fill="#0878b9" fill-opacity=".07"/><path d="M-28 -9 -9 -20 28 -9 9 2Z"/><path d="M-28 -9v13L9 15 28 3v-12M9 2v13"/><path d="M-19 -4 3 3M-19 1 3 8"/><rect x="-15.5" y="-4.5" width="3.5" height="2.7" rx=".5"/><rect x="-10" y="-2.8" width="3.5" height="2.7" rx=".5"/><rect x="-4.5" y="-1.1" width="3.5" height="2.7" rx=".5"/><rect x="1" y=".6" width="3.5" height="2.7" rx=".5"/><circle cx="-20" cy="1.5" r="1.4"/><circle cx="-15" cy="3.2" r="1.4"/><circle cx="-10" cy="4.9" r="1.4"/><path d="M11 -10h9M12 -6h6"/></g><text class="node-title" x="258.0" y="784.0" fill="#0f172a" font-family="Inter,Segoe UI,Arial,sans-serif" font-size="15" font-weight="700">London Core</text><text x="258.0" y="805.0" fill="#64748b" font-family="ui-monospace,SFMono-Regular,monospace" font-size="11">CORE-SWITCH</text></g><g id="london-fw" data-netdiag-kind="node" filter="url(#shadow)"><rect x="190.0" y="545.0" width="280.0" height="82.0" rx="14" fill="#ffffff" stroke="#dc2626" stroke-width="2"/><rect x="190.0" y="545.0" width="8" height="82.0" rx="4" fill="#dc2626"/><g class="device-icon device-icon-firewall" transform="translate(230.0 586.0)" stroke="#dc2626" fill="none" stroke-width="1.6" stroke-linecap="round" stroke-linejoin="round"><g stroke="#dc2626"><rect x="-27" y="-21" width="54" height="42" rx="4" fill="#dc2626" fill-opacity=".10"/><path d="M-27-7h54M-27 7h54M-16-21v14M7-21v14M-5-7V7M18-7V7M-16 7v14M7 7v14"/></g></g><text class="node-title" x="268.0" y="579.0" fill="#0f172a" font-family="Inter,Segoe UI,Arial,sans-serif" font-size="15" font-weight="700">London Firewall</text><text x="268.0" y="600.0" fill="#64748b" font-family="ui-monospace,SFMono-Regular,monospace" font-size="11">FIREWALL</text></g><g id="london-pe" data-netdiag-kind="node" filter="url(#shadow)"><rect x="190.0" y="340.0" width="280.0" height="82.0" rx="14" fill="#fffbeb" stroke="#d97706" stroke-width="2"/><rect x="190.0" y="340.0" width="8" height="82.0" rx="4" fill="#d97706"/><g class="device-icon device-icon-router" transform="translate(230.0 381.0)" stroke="#d97706" fill="none" stroke-width="1.6" stroke-linecap="round" stroke-linejoin="round"><ellipse cx="0" cy="0" rx="27" ry="18" fill="#d97706" fill-opacity=".12"/><ellipse cx="0" cy="0" rx="27" ry="18"/><path d="M-14 0h28M8-6l6 6-6 6M14 0H-14M-8-6l-6 6 6 6"/><path d="M0-13v26M-6-7l6-6 6 6M-6 7l6 6 6-6"/></g><text class="node-title" x="268.0" y="374.0" fill="#0f172a" font-family="Inter,Segoe UI,Arial,sans-serif" font-size="15" font-weight="700">London PE</text><text x="268.0" y="395.0" fill="#64748b" font-family="ui-monospace,SFMono-Regular,monospace" font-size="11">EDGE-ROUTER</text></g><g id="london-users" data-netdiag-kind="node" filter="url(#shadow)"><rect x="210.0" y="1160.0" width="240.0" height="82.0" rx="14" fill="#ffffff" stroke="#475569" stroke-width="2"/><rect x="210.0" y="1160.0" width="8" height="82.0" rx="4" fill="#475569"/><g class="device-icon device-icon-users" transform="translate(250.0 1201.0)" stroke="#475569" fill="none" stroke-width="1.6" stroke-linecap="round" stroke-linejoin="round"><rect x="-25" y="-18" width="50" height="32" rx="4" fill="#475569" fill-opacity=".08"/><rect x="-25" y="-18" width="50" height="32" rx="4"/><path d="M-12 21h24M0 14v7"/></g><text class="node-title" x="288.0" y="1194.0" fill="#0f172a" font-family="Inter,Segoe UI,Arial,sans-serif" font-size="15" font-weight="700">London Users</text><text x="288.0" y="1215.0" fill="#64748b" font-family="ui-monospace,SFMono-Regular,monospace" font-size="11">ENDPOINT</text></g><g id="manchester-access" data-netdiag-kind="node" filter="url(#shadow)"><rect x="2208.0" y="750.0" width="300.0" height="82.0" rx="14" fill="#ffffff" stroke="#0878b9" stroke-width="2"/><rect x="2208.0" y="750.0" width="8" height="82.0" rx="4" fill="#0878b9"/><g class="device-icon device-icon-access-switch" transform="translate(2248.0 791.0)" stroke="#0878b9" fill="none" stroke-width="1.6" stroke-linecap="round" stroke-linejoin="round"><path d="M-28 -9 -9 -20 28 -9 9 2Z" fill="#0878b9" fill-opacity=".14"/><path d="M-28 -9 9 2 28 -9v12L9 15-28 4Z" fill="#0878b9" fill-opacity=".07"/><path d="M-28 -9 -9 -20 28 -9 9 2Z"/><path d="M-28 -9v13L9 15 28 3v-12M9 2v13"/><path d="M-19 -4 3 3M-19 1 3 8"/><rect x="-15.5" y="-4.5" width="3.5" height="2.7" rx=".5"/><rect x="-10" y="-2.8" width="3.5" height="2.7" rx=".5"/><rect x="-4.5" y="-1.1" width="3.5" height="2.7" rx=".5"/><rect x="1" y=".6" width="3.5" height="2.7" rx=".5"/><circle cx="-20" cy="1.5" r="1.4"/><circle cx="-15" cy="3.2" r="1.4"/><circle cx="-10" cy="4.9" r="1.4"/><path d="M11 -10h9M12 -6h6"/></g><text class="node-title" x="2286.0" y="784.0" fill="#0f172a" font-family="Inter,Segoe UI,Arial,sans-serif" font-size="15" font-weight="700">Manchester Access</text><text x="2286.0" y="805.0" fill="#64748b" font-family="ui-monospace,SFMono-Regular,monospace" font-size="11">ACCESS-SWITCH</text></g><g id="manchester-fw" data-netdiag-kind="node" filter="url(#shadow)"><rect x="2218.0" y="545.0" width="280.0" height="82.0" rx="14" fill="#ffffff" stroke="#dc2626" stroke-width="2"/><rect x="2218.0" y="545.0" width="8" height="82.0" rx="4" fill="#dc2626"/><g class="device-icon device-icon-firewall" transform="translate(2258.0 586.0)" stroke="#dc2626" fill="none" stroke-width="1.6" stroke-linecap="round" stroke-linejoin="round"><g stroke="#dc2626"><rect x="-27" y="-21" width="54" height="42" rx="4" fill="#dc2626" fill-opacity=".10"/><path d="M-27-7h54M-27 7h54M-16-21v14M7-21v14M-5-7V7M18-7V7M-16 7v14M7 7v14"/></g></g><text class="node-title" x="2296.0" y="579.0" fill="#0f172a" font-family="Inter,Segoe UI,Arial,sans-serif" font-size="15" font-weight="700">Manchester Firewall</text><text x="2296.0" y="600.0" fill="#64748b" font-family="ui-monospace,SFMono-Regular,monospace" font-size="11">FIREWALL</text></g><g id="manchester-pe" data-netdiag-kind="node" filter="url(#shadow)"><rect x="2218.0" y="340.0" width="280.0" height="82.0" rx="14" fill="#fffbeb" stroke="#d97706" stroke-width="2"/><rect x="2218.0" y="340.0" width="8" height="82.0" rx="4" fill="#d97706"/><g class="device-icon device-icon-router" transform="translate(2258.0 381.0)" stroke="#d97706" fill="none" stroke-width="1.6" stroke-linecap="round" stroke-linejoin="round"><ellipse cx="0" cy="0" rx="27" ry="18" fill="#d97706" fill-opacity=".12"/><ellipse cx="0" cy="0" rx="27" ry="18"/><path d="M-14 0h28M8-6l6 6-6 6M14 0H-14M-8-6l-6 6 6 6"/><path d="M0-13v26M-6-7l6-6 6 6M-6 7l6 6 6-6"/></g><text class="node-title" x="2296.0" y="374.0" fill="#0f172a" font-family="Inter,Segoe UI,Arial,sans-serif" font-size="15" font-weight="700">Manchester PE</text><text x="2296.0" y="395.0" fill="#64748b" font-family="ui-monospace,SFMono-Regular,monospace" font-size="11">EDGE-ROUTER</text></g><g id="manchester-users" data-netdiag-kind="node" filter="url(#shadow)"><rect x="2238.0" y="955.0" width="240.0" height="82.0" rx="14" fill="#ffffff" stroke="#475569" stroke-width="2"/><rect x="2238.0" y="955.0" width="8" height="82.0" rx="4" fill="#475569"/><g class="device-icon device-icon-users" transform="translate(2278.0 996.0)" stroke="#475569" fill="none" stroke-width="1.6" stroke-linecap="round" stroke-linejoin="round"><rect x="-25" y="-18" width="50" height="32" rx="4" fill="#475569" fill-opacity=".08"/><rect x="-25" y="-18" width="50" height="32" rx="4"/><path d="M-12 21h24M0 14v7"/></g><text class="node-title" x="2316.0" y="989.0" fill="#0f172a" font-family="Inter,Segoe UI,Arial,sans-serif" font-size="15" font-weight="700">Manchester Users</text><text x="2316.0" y="1010.0" fill="#64748b" font-family="ui-monospace,SFMono-Regular,monospace" font-size="11">ENDPOINT</text></g><g id="p-01" data-netdiag-kind="node" filter="url(#shadow)"><rect x="954.0" y="340.0" width="280.0" height="82.0" rx="14" fill="#ffffff" stroke="#0878b9" stroke-width="2"/><rect x="954.0" y="340.0" width="8" height="82.0" rx="4" fill="#0878b9"/><g class="device-icon device-icon-router" transform="translate(994.0 381.0)" stroke="#0878b9" fill="none" stroke-width="1.6" stroke-linecap="round" stroke-linejoin="round"><ellipse cx="0" cy="0" rx="27" ry="18" fill="#0878b9" fill-opacity=".12"/><ellipse cx="0" cy="0" rx="27" ry="18"/><path d="M-14 0h28M8-6l6 6-6 6M14 0H-14M-8-6l-6 6 6 6"/><path d="M0-13v26M-6-7l6-6 6 6M-6 7l6 6 6-6"/></g><text class="node-title" x="1032.0" y="374.0" fill="#0f172a" font-family="Inter,Segoe UI,Arial,sans-serif" font-size="15" font-weight="700">MPLS P01</text><text x="1032.0" y="395.0" fill="#64748b" font-family="ui-monospace,SFMono-Regular,monospace" font-size="11">ROUTER</text></g><g id="p-02" data-netdiag-kind="node" filter="url(#shadow)"><rect x="1454.0" y="340.0" width="280.0" height="82.0" rx="14" fill="#ffffff" stroke="#0878b9" stroke-width="2"/><rect x="1454.0" y="340.0" width="8" height="82.0" rx="4" fill="#0878b9"/><g class="device-icon device-icon-router" transform="translate(1494.0 381.0)" stroke="#0878b9" fill="none" stroke-width="1.6" stroke-linecap="round" stroke-linejoin="round"><ellipse cx="0" cy="0" rx="27" ry="18" fill="#0878b9" fill-opacity=".12"/><ellipse cx="0" cy="0" rx="27" ry="18"/><path d="M-14 0h28M8-6l6 6-6 6M14 0H-14M-8-6l-6 6 6 6"/><path d="M0-13v26M-6-7l6-6 6 6M-6 7l6 6 6-6"/></g><text class="node-title" x="1532.0" y="374.0" fill="#0f172a" font-family="Inter,Segoe UI,Arial,sans-serif" font-size="15" font-weight="700">MPLS P02</text><text x="1532.0" y="395.0" fill="#64748b" font-family="ui-monospace,SFMono-Regular,monospace" font-size="11">ROUTER</text></g></g><g id="link-annotations" pointer-events="none"><g id="link-annotation-1" class="link-annotation"><rect class="interface-label-badge" x="507.1" y="383.0" width="51.5" height="21.0" rx="5.0" fill="#ffffff" stroke="#cbd5e1" stroke-width="1"/><text class="interface-label-text" x="532.9" y="399.0" text-anchor="middle" fill="#334155" font-family="ui-monospace,SFMono-Regular,monospace" font-size="11" font-weight="650">Hu0/0</text><rect class="interface-label-badge" x="865.3" y="383.0" width="51.5" height="21.0" rx="5.0" fill="#ffffff" stroke="#cbd5e1" stroke-width="1"/><text class="interface-label-text" x="891.1" y="399.0" text-anchor="middle" fill="#334155" font-family="ui-monospace,SFMono-Regular,monospace" font-size="11" font-weight="650">Hu0/0</text><rect class="label-mask" x="482.4" y="383.0" width="85.1" height="22" rx="5" fill="#f8fafc" stroke="#f8fafc" stroke-width="4"/><text x="525.0" y="398.0" text-anchor="middle" fill="#7c3aed" font-family="ui-monospace,SFMono-Regular,monospace" font-size="10" font-weight="500">10.0.0.1/30</text><rect class="label-mask" x="856.5" y="383.0" width="85.1" height="22" rx="5" fill="#f8fafc" stroke="#f8fafc" stroke-width="4"/><text x="899.0" y="398.0" text-anchor="middle" fill="#7c3aed" font-family="ui-monospace,SFMono-Regular,monospace" font-size="10" font-weight="500">10.0.0.2/30</text><rect class="label-mask" x="656.0" y="347.0" width="111.9" height="23" rx="5" fill="#f8fafc" stroke="#f8fafc" stroke-width="4"/><text x="712.0" y="363.0" text-anchor="middle" fill="#7c3aed" font-family="ui-monospace,SFMono-Regular,monospace" font-size="11" font-weight="500">LON-P01 · 100G</text></g><g id="link-annotation-2" class="link-annotation"><rect class="interface-label-badge" x="467.4" y="352.6" width="51.5" height="21.0" rx="5.0" fill="#ffffff" stroke="#cbd5e1" stroke-width="1"/><text class="interface-label-text" x="493.2" y="368.6" text-anchor="middle" fill="#334155" font-family="ui-monospace,SFMono-Regular,monospace" font-size="11" font-weight="650">Hu0/1</text><rect class="interface-label-badge" x="1402.7" y="413.3" width="51.5" height="21.0" rx="5.0" fill="#ffffff" stroke="#cbd5e1" stroke-width="1"/><text class="interface-label-text" x="1428.5" y="429.3" text-anchor="middle" fill="#334155" font-family="ui-monospace,SFMono-Regular,monospace" font-size="11" font-weight="650">Hu0/0</text><rect class="label-mask" x="287.4" y="292.0" width="85.1" height="22" rx="5" fill="#f8fafc" stroke="#f8fafc" stroke-width="4"/><text x="330.0" y="307.0" text-anchor="middle" fill="#7c3aed" font-family="ui-monospace,SFMono-Regular,monospace" font-size="10" font-weight="500">10.0.0.5/30</text><rect class="label-mask" x="1551.5" y="453.0" width="85.1" height="22" rx="5" fill="#f8fafc" stroke="#f8fafc" stroke-width="4"/><text x="1594.0" y="468.0" text-anchor="middle" fill="#7c3aed" font-family="ui-monospace,SFMono-Regular,monospace" font-size="10" font-weight="500">10.0.0.6/30</text><rect class="label-mask" x="906.0" y="236.0" width="111.9" height="23" rx="5" fill="#f8fafc" stroke="#f8fafc" stroke-width="4"/><text x="962.0" y="252.0" text-anchor="middle" fill="#7c3aed" font-family="ui-monospace,SFMono-Regular,monospace" font-size="11" font-weight="500">LON-P02 · 100G</text></g><g id="link-annotation-3" class="link-annotation"><rect class="interface-label-badge" x="1336.1" y="360.0" width="51.5" height="21.0" rx="5.0" fill="#ffffff" stroke="#cbd5e1" stroke-width="1"/><text class="interface-label-text" x="1361.9" y="376.0" text-anchor="middle" fill="#334155" font-family="ui-monospace,SFMono-Regular,monospace" font-size="11" font-weight="650">Hu0/1</text><rect class="interface-label-badge" x="2064.3" y="360.0" width="51.5" height="21.0" rx="5.0" fill="#ffffff" stroke="#cbd5e1" stroke-width="1"/><text class="interface-label-text" x="2090.1" y="376.0" text-anchor="middle" fill="#334155" font-family="ui-monospace,SFMono-Regular,monospace" font-size="11" font-weight="650">Hu0/0</text><rect class="label-mask" x="1246.5" y="360.0" width="85.1" height="22" rx="5" fill="#f8fafc" stroke="#f8fafc" stroke-width="4"/><text x="1289.0" y="375.0" text-anchor="middle" fill="#7c3aed" font-family="ui-monospace,SFMono-Regular,monospace" font-size="10" font-weight="500">10.0.0.9/30</text><rect class="label-mask" x="2117.4" y="360.0" width="91.2" height="22" rx="5" fill="#f8fafc" stroke="#f8fafc" stroke-width="4"/><text x="2163.0" y="375.0" text-anchor="middle" fill="#7c3aed" font-family="ui-monospace,SFMono-Regular,monospace" font-size="10" font-weight="500">10.0.0.10/30</text><rect class="label-mask" x="1670.0" y="272.0" width="111.9" height="23" rx="5" fill="#f8fafc" stroke="#f8fafc" stroke-width="4"/><text x="1726.0" y="288.0" text-anchor="middle" fill="#7c3aed" font-family="ui-monospace,SFMono-Regular,monospace" font-size="11" font-weight="500">P01-MAN · 100G</text></g><g id="link-annotation-4" class="link-annotation"><rect class="interface-label-badge" x="1770.3" y="386.0" width="51.5" height="21.0" rx="5.0" fill="#ffffff" stroke="#cbd5e1" stroke-width="1"/><text class="interface-label-text" x="1796.1" y="402.0" text-anchor="middle" fill="#334155" font-family="ui-monospace,SFMono-Regular,monospace" font-size="11" font-weight="650">Hu0/1</text><rect class="interface-label-badge" x="2116.4" y="402.4" width="51.5" height="21.0" rx="5.0" fill="#ffffff" stroke="#cbd5e1" stroke-width="1"/><text class="interface-label-text" x="2142.1" y="418.4" text-anchor="middle" fill="#334155" font-family="ui-monospace,SFMono-Regular,monospace" font-size="11" font-weight="650">Hu0/1</text><rect class="label-mask" x="1743.4" y="383.0" width="91.2" height="22" rx="5" fill="#f8fafc" stroke="#f8fafc" stroke-width="4"/><text x="1789.0" y="398.0" text-anchor="middle" fill="#7c3aed" font-family="ui-monospace,SFMono-Regular,monospace" font-size="10" font-weight="500">10.0.0.13/30</text><rect class="label-mask" x="2117.4" y="406.0" width="91.2" height="22" rx="5" fill="#f8fafc" stroke="#f8fafc" stroke-width="4"/><text x="2163.0" y="421.0" text-anchor="middle" fill="#7c3aed" font-family="ui-monospace,SFMono-Regular,monospace" font-size="10" font-weight="500">10.0.0.14/30</text><rect class="label-mask" x="1881.0" y="347.0" width="111.9" height="23" rx="5" fill="#f8fafc" stroke="#f8fafc" stroke-width="4"/><text x="1937.0" y="363.0" text-anchor="middle" fill="#7c3aed" font-family="ui-monospace,SFMono-Regular,monospace" font-size="11" font-weight="500">P02-MAN · 100G</text></g><g id="link-annotation-5" class="link-annotation"><rect class="interface-label-badge" x="1244.2" y="402.3" width="51.5" height="21.0" rx="5.0" fill="#ffffff" stroke="#cbd5e1" stroke-width="1"/><text class="interface-label-text" x="1270.0" y="418.3" text-anchor="middle" fill="#334155" font-family="ui-monospace,SFMono-Regular,monospace" font-size="11" font-weight="650">Hu0/2</text><rect class="interface-label-badge" x="1401.5" y="385.9" width="51.5" height="21.0" rx="5.0" fill="#ffffff" stroke="#cbd5e1" stroke-width="1"/><text class="interface-label-text" x="1427.3" y="401.9" text-anchor="middle" fill="#334155" font-family="ui-monospace,SFMono-Regular,monospace" font-size="11" font-weight="650">Hu0/2</text><rect class="label-mask" x="1277.1" y="352.0" width="91.8" height="23" rx="5" fill="#f8fafc" stroke="#f8fafc" stroke-width="4"/><text x="1323.0" y="368.0" text-anchor="middle" fill="#7c3aed" font-family="ui-monospace,SFMono-Regular,monospace" font-size="11" font-weight="500">CORE · 100G</text></g><g id="link-annotation-6" class="link-annotation"><rect class="interface-label-badge" x="286.2" y="422.0" width="51.5" height="21.0" rx="5.0" fill="#ffffff" stroke="#cbd5e1" stroke-width="1"/><text class="interface-label-text" x="312.0" y="438.0" text-anchor="middle" fill="#334155" font-family="ui-monospace,SFMono-Regular,monospace" font-size="11" font-weight="650">Te0/0</text><rect class="interface-label-badge" x="286.2" y="513.0" width="51.5" height="21.0" rx="5.0" fill="#ffffff" stroke="#cbd5e1" stroke-width="1"/><text class="interface-label-text" x="312.0" y="529.0" text-anchor="middle" fill="#334155" font-family="ui-monospace,SFMono-Regular,monospace" font-size="11" font-weight="650">Te0/0</text><rect class="label-mask" x="318.9" y="467.5" width="58.3" height="23" rx="5" fill="#f8fafc" stroke="#f8fafc" stroke-width="4"/><text x="348.0" y="483.5" text-anchor="middle" fill="#dc2626" font-family="ui-monospace,SFMono-Regular,monospace" font-size="11" font-weight="500">INSIDE</text></g><g id="link-annotation-7" class="link-annotation"><rect class="interface-label-badge" x="286.2" y="627.0" width="51.5" height="21.0" rx="5.0" fill="#ffffff" stroke="#cbd5e1" stroke-width="1"/><text class="interface-label-text" x="312.0" y="643.0" text-anchor="middle" fill="#334155" font-family="ui-monospace,SFMono-Regular,monospace" font-size="11" font-weight="650">Te0/1</text><rect class="interface-label-badge" x="286.2" y="718.0" width="51.5" height="21.0" rx="5.0" fill="#ffffff" stroke="#cbd5e1" stroke-width="1"/><text class="interface-label-text" x="312.0" y="734.0" text-anchor="middle" fill="#334155" font-family="ui-monospace,SFMono-Regular,monospace" font-size="11" font-weight="650">Te0/1</text><rect class="label-mask" x="286.2" y="672.5" width="51.5" height="23" rx="5" fill="#f8fafc" stroke="#f8fafc" stroke-width="4"/><text x="312.0" y="688.5" text-anchor="middle" fill="#dc2626" font-family="ui-monospace,SFMono-Regular,monospace" font-size="11" font-weight="500">TRUST</text></g><g id="link-annotation-8" class="link-annotation"><rect class="interface-label-badge" x="282.9" y="832.0" width="58.3" height="21.0" rx="5.0" fill="#ffffff" stroke="#cbd5e1" stroke-width="1"/><text class="interface-label-text" x="312.0" y="848.0" text-anchor="middle" fill="#334155" font-family="ui-monospace,SFMono-Regular,monospace" font-size="11" font-weight="650">Eth1/1</text><rect class="interface-label-badge" x="279.5" y="923.0" width="65.0" height="21.0" rx="5.0" fill="#ffffff" stroke="#cbd5e1" stroke-width="1"/><text class="interface-label-text" x="312.0" y="939.0" text-anchor="middle" fill="#334155" font-family="ui-monospace,SFMono-Regular,monospace" font-size="11" font-weight="650">Eth1/49</text><rect class="label-mask" x="274.9" y="877.5" width="38.1" height="23" rx="5" fill="#f8fafc" stroke="#f8fafc" stroke-width="4"/><text x="294.0" y="893.5" text-anchor="middle" fill="#334155" font-family="ui-monospace,SFMono-Regular,monospace" font-size="11" font-weight="500">40G</text></g><g id="link-annotation-9" class="link-annotation"><rect class="interface-label-badge" x="282.9" y="1037.0" width="58.3" height="21.0" rx="5.0" fill="#ffffff" stroke="#cbd5e1" stroke-width="1"/><text class="interface-label-text" x="312.0" y="1053.0" text-anchor="middle" fill="#334155" font-family="ui-monospace,SFMono-Regular,monospace" font-size="11" font-weight="650">Eth1/1</text><rect class="interface-label-badge" x="282.9" y="1128.0" width="58.3" height="21.0" rx="5.0" fill="#ffffff" stroke="#cbd5e1" stroke-width="1"/><text class="interface-label-text" x="312.0" y="1144.0" text-anchor="middle" fill="#334155" font-family="ui-monospace,SFMono-Regular,monospace" font-size="11" font-weight="650">Eth0/0</text><rect class="label-mask" x="315.5" y="1082.5" width="65.0" height="23" rx="5" fill="#f8fafc" stroke="#f8fafc" stroke-width="4"/><text x="348.0" y="1098.5" text-anchor="middle" fill="#334155" font-family="ui-monospace,SFMono-Regular,monospace" font-size="11" font-weight="500">VLAN 10</text></g><g id="link-annotation-10" class="link-annotation"><rect class="interface-label-badge" x="2314.2" y="422.0" width="51.5" height="21.0" rx="5.0" fill="#ffffff" stroke="#cbd5e1" stroke-width="1"/><text class="interface-label-text" x="2340.0" y="438.0" text-anchor="middle" fill="#334155" font-family="ui-monospace,SFMono-Regular,monospace" font-size="11" font-weight="650">Te0/0</text><rect class="interface-label-badge" x="2314.2" y="513.0" width="51.5" height="21.0" rx="5.0" fill="#ffffff" stroke="#cbd5e1" stroke-width="1"/><text class="interface-label-text" x="2340.0" y="529.0" text-anchor="middle" fill="#334155" font-family="ui-monospace,SFMono-Regular,monospace" font-size="11" font-weight="650">Te0/0</text><rect class="label-mask" x="2310.9" y="467.5" width="58.3" height="23" rx="5" fill="#f8fafc" stroke="#f8fafc" stroke-width="4"/><text x="2340.0" y="483.5" text-anchor="middle" fill="#dc2626" font-family="ui-monospace,SFMono-Regular,monospace" font-size="11" font-weight="500">INSIDE</text></g><g id="link-annotation-11" class="link-annotation"><rect class="interface-label-badge" x="2314.2" y="627.0" width="51.5" height="21.0" rx="5.0" fill="#ffffff" stroke="#cbd5e1" stroke-width="1"/><text class="interface-label-text" x="2340.0" y="643.0" text-anchor="middle" fill="#334155" font-family="ui-monospace,SFMono-Regular,monospace" font-size="11" font-weight="650">Te0/1</text><rect class="interface-label-badge" x="2314.2" y="718.0" width="51.5" height="21.0" rx="5.0" fill="#ffffff" stroke="#cbd5e1" stroke-width="1"/><text class="interface-label-text" x="2340.0" y="734.0" text-anchor="middle" fill="#334155" font-family="ui-monospace,SFMono-Regular,monospace" font-size="11" font-weight="650">Te0/1</text><rect class="label-mask" x="2296.2" y="672.5" width="51.5" height="23" rx="5" fill="#f8fafc" stroke="#f8fafc" stroke-width="4"/><text x="2322.0" y="688.5" text-anchor="middle" fill="#dc2626" font-family="ui-monospace,SFMono-Regular,monospace" font-size="11" font-weight="500">TRUST</text></g><g id="link-annotation-12" class="link-annotation"><rect class="interface-label-badge" x="2310.9" y="832.0" width="58.3" height="21.0" rx="5.0" fill="#ffffff" stroke="#cbd5e1" stroke-width="1"/><text class="interface-label-text" x="2340.0" y="848.0" text-anchor="middle" fill="#334155" font-family="ui-monospace,SFMono-Regular,monospace" font-size="11" font-weight="650">Eth1/1</text><rect class="interface-label-badge" x="2310.9" y="923.0" width="58.3" height="21.0" rx="5.0" fill="#ffffff" stroke="#cbd5e1" stroke-width="1"/><text class="interface-label-text" x="2340.0" y="939.0" text-anchor="middle" fill="#334155" font-family="ui-monospace,SFMono-Regular,monospace" font-size="11" font-weight="650">Eth0/0</text><rect class="label-mask" x="2343.5" y="877.5" width="65.0" height="23" rx="5" fill="#f8fafc" stroke="#f8fafc" stroke-width="4"/><text x="2376.0" y="893.5" text-anchor="middle" fill="#334155" font-family="ui-monospace,SFMono-Regular,monospace" font-size="11" font-weight="500">VLAN 20</text></g></g></svg>