<svg class="theme-nord" xmlns="http://www.w3.org/2000/svg" width="2400" height="905" viewBox="0 0 2400 905" role="img" shape-rendering="geometricPrecision"><defs><filter id="shadow" x="-20%" y="-20%" width="140%" height="150%"><feDropShadow dx="0" dy="4" stdDeviation="6" flood-color="#0f172a" flood-opacity=".14"/></filter><style>.theme-nord [fill="#f8fafc"],.theme-nord [fill="#ffffff"]{fill:#3b4252!important}.theme-nord [fill="#eff6ff"],.theme-nord [fill="#f1f5f9"],.theme-nord [fill="#f5f3ff"],.theme-nord [fill="#ecfeff"],.theme-nord [fill="#f0fdf4"]{fill:#434c5e!important}.theme-nord [fill="#0f172a"]{fill:#2e3440!important}.theme-nord [fill="#334155"],.theme-nord [fill="#475569"],.theme-nord [fill="#64748b"]{fill:#d8dee9!important}.theme-nord [stroke="#e2e8f0"],.theme-nord [stroke="#cbd5e1"],.theme-nord [stroke="#dbeafe"]{stroke:#4c566a!important}.theme-nord text{fill:#eceff4}.theme-nord .label-mask{fill:#3b4252!important;stroke:#3b4252!important}</style></defs><rect width="100%" height="100%" fill="#f8fafc"/><rect x="0" y="0" width="2400" height="112" fill="#0f172a"/><text x="70" y="56" fill="#f8fafc" font-family="Inter,Segoe UI,sans-serif" font-size="30" font-weight="700">Themed Link Status</text><text x="70" y="84" fill="#94a3b8" font-family="Inter,Segoe UI,sans-serif" font-size="15">Protocol colors with operational-state overrides</text><text x="2330" y="66" text-anchor="end" fill="#38bdf8" font-family="ui-monospace,SFMono-Regular,monospace" font-size="14">NETWORK DIAGRAM</text><rect x="42" y="197.0" width="2316.0" height="250.0" rx="20" fill="#eff6ff" stroke="#e2e8f0"/><rect x="42" y="517.0" width="2316.0" height="250.0" rx="20" fill="#eff6ff" stroke="#e2e8f0"/><g id="row-headings"><g class="row-heading row-heading-router"><path d="M78 250.0 H410" stroke="#cbd5e1" stroke-width="1"/><text x="78" y="235.0" fill="#64748b" font-family="Inter,Segoe UI,sans-serif" font-size="12" font-weight="700" letter-spacing="1.8">ROUTER LAYER · 1 DEVICES</text></g><g class="row-heading row-heading-core-router"><path d="M78 570.0 H410" stroke="#cbd5e1" stroke-width="1"/><text x="78" y="555.0" fill="#64748b" font-family="Inter,Segoe UI,sans-serif" font-size="12" font-weight="700" letter-spacing="1.8">CORE ROUTER LAYER · 2 DEVICES</text></g></g><g id="links"><g id="link-1" data-netdiag-kind="link"><path d="M 1056.2 638.0 H 1110.2 L 1614.8 638.0 H 1668.8" fill="none" stroke="#a3be8c" stroke-width="3.0" stroke-linecap="round" stroke-linejoin="round"  opacity=".86"/><circle cx="1056.2" cy="638.0" r="3.2" fill="#ffffff" stroke="#a3be8c" stroke-width="2"/><circle cx="1668.8" cy="638.0" r="3.2" fill="#ffffff" stroke="#a3be8c" stroke-width="2"/></g><g id="link-2" data-netdiag-kind="link"><path d="M 916.2 597.0 V 544.6 L 1362.5 411.4 V 359.0" fill="none" stroke="#7b8496" stroke-width="3.0" stroke-linecap="round" stroke-linejoin="round" stroke-dasharray="8 5" opacity=".86"/><circle cx="916.2" cy="597.0" r="3.2" fill="#ffffff" stroke="#7b8496" stroke-width="2"/><circle cx="1362.5" cy="359.0" r="3.2" fill="#ffffff" stroke="#7b8496" stroke-width="2"/></g></g><g id="nodes"><g id="backup-01" data-netdiag-kind="node" filter="url(#shadow)"><rect x="1222.5" y="277.0" width="280.0" height="82.0" rx="14" fill="#ffffff" stroke="#0878b9" stroke-width="2"/><rect x="1222.5" y="277.0" width="8" height="82.0" rx="4" fill="#0878b9"/><g class="device-icon device-icon-router" transform="translate(1262.5 318.0)" stroke="#0878b9" fill="none" stroke-width="1.6" stroke-linecap="round" stroke-linejoin="round"><ellipse cx="0" cy="0" rx="27" ry="18" fill="#0878b9" fill-opacity=".12"/><ellipse cx="0" cy="0" rx="27" ry="18"/><path d="M-14 0h28M8-6l6 6-6 6M14 0H-14M-8-6l-6 6 6 6"/><path d="M0-13v26M-6-7l6-6 6 6M-6 7l6 6 6-6"/></g><text class="node-title" x="1300.5" y="311.0" fill="#0f172a" font-family="Inter,Segoe UI,Arial,sans-serif" font-size="15" font-weight="700">backup-01</text><text x="1300.5" y="332.0" fill="#64748b" font-family="ui-monospace,SFMono-Regular,monospace" font-size="11">ROUTER</text></g><g id="core-01" data-netdiag-kind="node" filter="url(#shadow)"><rect x="776.2" y="597.0" width="280.0" height="82.0" rx="14" fill="#f5f3ff" stroke="#7c3aed" stroke-width="2"/><rect x="776.2" y="597.0" width="8" height="82.0" rx="4" fill="#7c3aed"/><g class="device-icon device-icon-core-router" transform="translate(816.2 638.0)" stroke="#7c3aed" fill="none" stroke-width="1.6" stroke-linecap="round" stroke-linejoin="round"><ellipse cx="0" cy="0" rx="27" ry="18" fill="#7c3aed" fill-opacity=".12"/><ellipse cx="0" cy="0" rx="27" ry="18"/><path d="M-14 0h28M8-6l6 6-6 6M14 0H-14M-8-6l-6 6 6 6"/><path d="M0-13v26M-6-7l6-6 6 6M-6 7l6 6 6-6"/></g><text class="node-title" x="854.2" y="631.0" fill="#0f172a" font-family="Inter,Segoe UI,Arial,sans-serif" font-size="15" font-weight="700">core-01</text><text x="854.2" y="652.0" fill="#64748b" font-family="ui-monospace,SFMono-Regular,monospace" font-size="11">CORE-ROUTER</text></g><g id="core-02" data-netdiag-kind="node" filter="url(#shadow)"><rect x="1668.8" y="597.0" width="280.0" height="82.0" rx="14" fill="#f5f3ff" stroke="#7c3aed" stroke-width="2"/><rect x="1668.8" y="597.0" width="8" height="82.0" rx="4" fill="#7c3aed"/><g class="device-icon device-icon-core-router" transform="translate(1708.8 638.0)" stroke="#7c3aed" fill="none" stroke-width="1.6" stroke-linecap="round" stroke-linejoin="round"><ellipse cx="0" cy="0" rx="27" ry="18" fill="#7c3aed" fill-opacity=".12"/><ellipse cx="0" cy="0" rx="27" ry="18"/><path d="M-14 0h28M8-6l6 6-6 6M14 0H-14M-8-6l-6 6 6 6"/><path d="M0-13v26M-6-7l6-6 6 6M-6 7l6 6 6-6"/></g><text class="node-title" x="1746.8" y="631.0" fill="#0f172a" font-family="Inter,Segoe UI,Arial,sans-serif" font-size="15" font-weight="700">core-02</text><text x="1746.8" y="652.0" fill="#64748b" font-family="ui-monospace,SFMono-Regular,monospace" font-size="11">CORE-ROUTER</text></g></g><g id="link-annotations" pointer-events="none"><g id="link-annotation-1" class="link-annotation"><rect class="interface-label-badge" x="1106.7" y="640.0" width="58.3" height="21.0" rx="5.0" fill="#ffffff" stroke="#cbd5e1" stroke-width="1"/><text class="interface-label-text" x="1135.9" y="656.0" text-anchor="middle" fill="#334155" font-family="ui-monospace,SFMono-Regular,monospace" font-size="11" font-weight="650">Eth0/0</text><rect class="interface-label-badge" x="1560.0" y="640.0" width="58.3" height="21.0" rx="5.0" fill="#ffffff" stroke="#cbd5e1" stroke-width="1"/><text class="interface-label-text" x="1589.1" y="656.0" text-anchor="middle" fill="#334155" font-family="ui-monospace,SFMono-Regular,monospace" font-size="11" font-weight="650">Eth0/0</text><rect class="label-mask" x="1267.6" y="653.0" width="91.8" height="23" rx="5" fill="#f8fafc" stroke="#f8fafc" stroke-width="4"/><text x="1313.5" y="669.0" text-anchor="middle" fill="#a3be8c" font-family="ui-monospace,SFMono-Regular,monospace" font-size="11" font-weight="500">Active OSPF</text></g><g id="link-annotation-2" class="link-annotation"><rect class="interface-label-badge" x="913.2" y="539.6" width="58.3" height="21.0" rx="5.0" fill="#ffffff" stroke="#cbd5e1" stroke-width="1"/><text class="interface-label-text" x="942.3" y="555.6" text-anchor="middle" fill="#334155" font-family="ui-monospace,SFMono-Regular,monospace" font-size="11" font-weight="650">Eth0/1</text><rect class="interface-label-badge" x="1317.6" y="418.8" width="58.3" height="21.0" rx="5.0" fill="#ffffff" stroke="#cbd5e1" stroke-width="1"/><text class="interface-label-text" x="1346.8" y="434.8" text-anchor="middle" fill="#334155" font-family="ui-monospace,SFMono-Regular,monospace" font-size="11" font-weight="650">Eth0/0</text><rect class="label-mask" x="1080.0" y="453.0" width="118.6" height="23" rx="5" fill="#f8fafc" stroke="#f8fafc" stroke-width="4"/><text x="1139.4" y="469.0" text-anchor="middle" fill="#7b8496" font-family="ui-monospace,SFMono-Regular,monospace" font-size="11" font-weight="500">Inactive backup</text></g></g></svg>