<svg xmlns="http://www.w3.org/2000/svg" width="2400" height="1225" viewBox="0 0 2400 1225" role="img"><defs><filter id="shadow" x="-20%" y="-20%" width="140%" height="150%"><feDropShadow dx="0" dy="4" stdDeviation="6" flood-color="#0f172a" flood-opacity=".14"/></filter></defs><rect width="100%" height="100%" fill="#f8fafc"/><rect x="0" y="0" width="2400" height="112" fill="#0f172a"/><text x="70" y="56" fill="#f8fafc" font-family="Inter,Segoe UI,sans-serif" font-size="30" font-weight="700">Production Data Center Fabric</text><text x="70" y="84" fill="#94a3b8" font-family="Inter,Segoe UI,sans-serif" font-size="15">Two-spine, four-leaf Clos topology with dual-homed application servers</text><text x="2330" y="66" text-anchor="end" fill="#38bdf8" font-family="ui-monospace,SFMono-Regular,monospace" font-size="14">SPINE-LEAF FABRIC</text><rect x="42" y="197.0" width="2316.0" height="250.0" rx="20" fill="#eff6ff" stroke="#e2e8f0"/><rect x="42" y="517.0" width="2316.0" height="250.0" rx="20" fill="#ecfeff" stroke="#e2e8f0"/><rect x="42" y="837.0" width="2316.0" height="250.0" rx="20" fill="#f0fdf4" stroke="#e2e8f0"/><g id="row-headings"><g class="row-heading row-heading-spine"><path d="M78 250.0 H410" stroke="#cbd5e1" stroke-width="1"/><text x="78" y="235.0" fill="#64748b" font-family="Inter,Segoe UI,sans-serif" font-size="12" font-weight="700" letter-spacing="1.8">SPINE LAYER · 2 DEVICES</text></g><g class="row-heading row-heading-leaf"><path d="M78 570.0 H410" stroke="#cbd5e1" stroke-width="1"/><text x="78" y="555.0" fill="#64748b" font-family="Inter,Segoe UI,sans-serif" font-size="12" font-weight="700" letter-spacing="1.8">LEAF LAYER · 4 DEVICES</text></g><g class="row-heading row-heading-server"><path d="M78 890.0 H410" stroke="#cbd5e1" stroke-width="1"/><text x="78" y="875.0" fill="#64748b" font-family="Inter,Segoe UI,sans-serif" font-size="12" font-weight="700" letter-spacing="1.8">SERVER LAYER · 4 DEVICES</text></g></g><g id="links"><path id="link-1" d="M 748.2 359.0 V 411.4 L 565.1 544.6 V 597.0" fill="none" stroke="#334155" stroke-width="2.2" stroke-linecap="round" stroke-linejoin="round"  opacity=".86"/><circle cx="748.2" cy="359.0" r="3.2" fill="#ffffff" stroke="#334155" stroke-width="2"/><circle cx="565.1" cy="597.0" r="3.2" fill="#ffffff" stroke="#334155" stroke-width="2"/><rect x="722.1" y="370.0" width="52.3" height="19" rx="5" fill="#f8fafc" fill-opacity=".96"/><text x="748.2" y="384.0" text-anchor="middle" fill="#334155" font-family="ui-monospace,SFMono-Regular,monospace" font-size="11" font-weight="650">Eth1/1</text><rect x="535.6" y="571.0" width="59.0" height="19" rx="5" fill="#f8fafc" fill-opacity=".96"/><text x="565.1" y="585.0" text-anchor="middle" fill="#334155" font-family="ui-monospace,SFMono-Regular,monospace" font-size="11" font-weight="650">Eth1/49</text><rect x="651.9" y="436.0" width="38.8" height="19" rx="5" fill="#f8fafc" fill-opacity=".96"/><text x="671.3" y="450.0" text-anchor="middle" fill="#334155" font-family="ui-monospace,SFMono-Regular,monospace" font-size="11" font-weight="500">100G</text><path id="link-2" d="M 860.2 359.0 V 411.4 L 1011.4 544.6 V 597.0" fill="none" stroke="#334155" stroke-width="2.2" stroke-linecap="round" stroke-linejoin="round"  opacity=".86"/><circle cx="860.2" cy="359.0" r="3.2" fill="#ffffff" stroke="#334155" stroke-width="2"/><circle cx="1011.4" cy="597.0" r="3.2" fill="#ffffff" stroke="#334155" stroke-width="2"/><rect x="834.1" y="370.0" width="52.3" height="19" rx="5" fill="#f8fafc" fill-opacity=".96"/><text x="860.2" y="384.0" text-anchor="middle" fill="#334155" font-family="ui-monospace,SFMono-Regular,monospace" font-size="11" font-weight="650">Eth1/2</text><rect x="981.9" y="571.0" width="59.0" height="19" rx="5" fill="#f8fafc" fill-opacity=".96"/><text x="1011.4" y="585.0" text-anchor="middle" fill="#334155" font-family="ui-monospace,SFMono-Regular,monospace" font-size="11" font-weight="650">Eth1/49</text><rect x="916.4" y="455.0" width="38.8" height="19" rx="5" fill="#f8fafc" fill-opacity=".96"/><text x="935.8" y="469.0" text-anchor="middle" fill="#334155" font-family="ui-monospace,SFMono-Regular,monospace" font-size="11" font-weight="500">100G</text><path id="link-3" d="M 972.2 359.0 V 411.4 L 1457.6 544.6 V 597.0" fill="none" stroke="#334155" stroke-width="2.2" stroke-linecap="round" stroke-linejoin="round"  opacity=".86"/><circle cx="972.2" cy="359.0" r="3.2" fill="#ffffff" stroke="#334155" stroke-width="2"/><circle cx="1457.6" cy="597.0" r="3.2" fill="#ffffff" stroke="#334155" stroke-width="2"/><rect x="946.1" y="370.0" width="52.3" height="19" rx="5" fill="#f8fafc" fill-opacity=".96"/><text x="972.2" y="384.0" text-anchor="middle" fill="#334155" font-family="ui-monospace,SFMono-Regular,monospace" font-size="11" font-weight="650">Eth1/3</text><rect x="1428.1" y="571.0" width="59.0" height="19" rx="5" fill="#f8fafc" fill-opacity=".96"/><text x="1457.6" y="585.0" text-anchor="middle" fill="#334155" font-family="ui-monospace,SFMono-Regular,monospace" font-size="11" font-weight="650">Eth1/49</text><rect x="1234.3" y="474.0" width="38.8" height="19" rx="5" fill="#f8fafc" fill-opacity=".96"/><text x="1253.8" y="488.0" text-anchor="middle" fill="#334155" font-family="ui-monospace,SFMono-Regular,monospace" font-size="11" font-weight="500">100G</text><path id="link-4" d="M 1084.2 359.0 V 411.4 L 1903.9 544.6 V 597.0" fill="none" stroke="#334155" stroke-width="2.2" stroke-linecap="round" stroke-linejoin="round"  opacity=".86"/><circle cx="1084.2" cy="359.0" r="3.2" fill="#ffffff" stroke="#334155" stroke-width="2"/><circle cx="1903.9" cy="597.0" r="3.2" fill="#ffffff" stroke="#334155" stroke-width="2"/><rect x="1058.1" y="370.0" width="52.3" height="19" rx="5" fill="#f8fafc" fill-opacity=".96"/><text x="1084.2" y="384.0" text-anchor="middle" fill="#334155" font-family="ui-monospace,SFMono-Regular,monospace" font-size="11" font-weight="650">Eth1/4</text><rect x="1874.4" y="571.0" width="59.0" height="19" rx="5" fill="#f8fafc" fill-opacity=".96"/><text x="1903.9" y="585.0" text-anchor="middle" fill="#334155" font-family="ui-monospace,SFMono-Regular,monospace" font-size="11" font-weight="650">Eth1/49</text><rect x="1409.1" y="436.0" width="38.8" height="19" rx="5" fill="#f8fafc" fill-opacity=".96"/><text x="1428.5" y="450.0" text-anchor="middle" fill="#334155" font-family="ui-monospace,SFMono-Regular,monospace" font-size="11" font-weight="500">100G</text><path id="link-5" d="M 1640.8 359.0 V 411.4 L 821.1 544.6 V 597.0" fill="none" stroke="#334155" stroke-width="2.2" stroke-linecap="round" stroke-linejoin="round"  opacity=".86"/><circle cx="1640.8" cy="359.0" r="3.2" fill="#ffffff" stroke="#334155" stroke-width="2"/><circle cx="821.1" cy="597.0" r="3.2" fill="#ffffff" stroke="#334155" stroke-width="2"/><rect x="1614.6" y="370.0" width="52.3" height="19" rx="5" fill="#f8fafc" fill-opacity=".96"/><text x="1640.8" y="384.0" text-anchor="middle" fill="#334155" font-family="ui-monospace,SFMono-Regular,monospace" font-size="11" font-weight="650">Eth1/1</text><rect x="791.6" y="571.0" width="59.0" height="19" rx="5" fill="#f8fafc" fill-opacity=".96"/><text x="821.1" y="585.0" text-anchor="middle" fill="#334155" font-family="ui-monospace,SFMono-Regular,monospace" font-size="11" font-weight="650">Eth1/50</text><rect x="1211.5" y="455.0" width="38.8" height="19" rx="5" fill="#f8fafc" fill-opacity=".96"/><text x="1230.9" y="469.0" text-anchor="middle" fill="#334155" font-family="ui-monospace,SFMono-Regular,monospace" font-size="11" font-weight="500">100G</text><path id="link-6" d="M 1752.8 359.0 V 411.4 L 1267.4 544.6 V 597.0" fill="none" stroke="#334155" stroke-width="2.2" stroke-linecap="round" stroke-linejoin="round"  opacity=".86"/><circle cx="1752.8" cy="359.0" r="3.2" fill="#ffffff" stroke="#334155" stroke-width="2"/><circle cx="1267.4" cy="597.0" r="3.2" fill="#ffffff" stroke="#334155" stroke-width="2"/><rect x="1726.6" y="370.0" width="52.3" height="19" rx="5" fill="#f8fafc" fill-opacity=".96"/><text x="1752.8" y="384.0" text-anchor="middle" fill="#334155" font-family="ui-monospace,SFMono-Regular,monospace" font-size="11" font-weight="650">Eth1/2</text><rect x="1237.9" y="571.0" width="59.0" height="19" rx="5" fill="#f8fafc" fill-opacity=".96"/><text x="1267.4" y="585.0" text-anchor="middle" fill="#334155" font-family="ui-monospace,SFMono-Regular,monospace" font-size="11" font-weight="650">Eth1/50</text><rect x="1451.8" y="474.0" width="38.8" height="19" rx="5" fill="#f8fafc" fill-opacity=".96"/><text x="1471.2" y="488.0" text-anchor="middle" fill="#334155" font-family="ui-monospace,SFMono-Regular,monospace" font-size="11" font-weight="500">100G</text><path id="link-7" d="M 1864.8 359.0 V 411.4 L 1713.6 544.6 V 597.0" fill="none" stroke="#334155" stroke-width="2.2" stroke-linecap="round" stroke-linejoin="round"  opacity=".86"/><circle cx="1864.8" cy="359.0" r="3.2" fill="#ffffff" stroke="#334155" stroke-width="2"/><circle cx="1713.6" cy="597.0" r="3.2" fill="#ffffff" stroke="#334155" stroke-width="2"/><rect x="1838.6" y="370.0" width="52.3" height="19" rx="5" fill="#f8fafc" fill-opacity=".96"/><text x="1864.8" y="384.0" text-anchor="middle" fill="#334155" font-family="ui-monospace,SFMono-Regular,monospace" font-size="11" font-weight="650">Eth1/3</text><rect x="1684.1" y="571.0" width="59.0" height="19" rx="5" fill="#f8fafc" fill-opacity=".96"/><text x="1713.6" y="585.0" text-anchor="middle" fill="#334155" font-family="ui-monospace,SFMono-Regular,monospace" font-size="11" font-weight="650">Eth1/50</text><rect x="1781.9" y="436.0" width="38.8" height="19" rx="5" fill="#f8fafc" fill-opacity=".96"/><text x="1801.3" y="450.0" text-anchor="middle" fill="#334155" font-family="ui-monospace,SFMono-Regular,monospace" font-size="11" font-weight="500">100G</text><path id="link-8" d="M 1976.8 359.0 V 411.4 L 2159.9 544.6 V 597.0" fill="none" stroke="#334155" stroke-width="2.2" stroke-linecap="round" stroke-linejoin="round"  opacity=".86"/><circle cx="1976.8" cy="359.0" r="3.2" fill="#ffffff" stroke="#334155" stroke-width="2"/><circle cx="2159.9" cy="597.0" r="3.2" fill="#ffffff" stroke="#334155" stroke-width="2"/><rect x="1950.6" y="370.0" width="52.3" height="19" rx="5" fill="#f8fafc" fill-opacity=".96"/><text x="1976.8" y="384.0" text-anchor="middle" fill="#334155" font-family="ui-monospace,SFMono-Regular,monospace" font-size="11" font-weight="650">Eth1/4</text><rect x="2130.4" y="571.0" width="59.0" height="19" rx="5" fill="#f8fafc" fill-opacity=".96"/><text x="2159.9" y="585.0" text-anchor="middle" fill="#334155" font-family="ui-monospace,SFMono-Regular,monospace" font-size="11" font-weight="650">Eth1/50</text><rect x="2048.9" y="455.0" width="38.8" height="19" rx="5" fill="#f8fafc" fill-opacity=".96"/><text x="2068.3" y="469.0" text-anchor="middle" fill="#334155" font-family="ui-monospace,SFMono-Regular,monospace" font-size="11" font-weight="500">100G</text><path id="link-9" d="M 565.1 679.0 V 721.8 L 740.7 798.0 L 575.1 874.2 V 917.0" fill="none" stroke="#16a34a" stroke-width="3.0" stroke-linecap="round" stroke-linejoin="round"  opacity=".86"/><circle cx="565.1" cy="679.0" r="3.2" fill="#ffffff" stroke="#16a34a" stroke-width="2"/><circle cx="575.1" cy="917.0" r="3.2" fill="#ffffff" stroke="#16a34a" stroke-width="2"/><rect x="539.0" y="690.0" width="52.3" height="19" rx="5" fill="#f8fafc" fill-opacity=".96"/><text x="565.1" y="704.0" text-anchor="middle" fill="#16a34a" font-family="ui-monospace,SFMono-Regular,monospace" font-size="11" font-weight="650">Eth1/1</text><rect x="549.0" y="891.0" width="52.3" height="19" rx="5" fill="#f8fafc" fill-opacity=".96"/><text x="575.1" y="905.0" text-anchor="middle" fill="#16a34a" font-family="ui-monospace,SFMono-Regular,monospace" font-size="11" font-weight="650">Eth0/0</text><path id="link-10" d="M 1011.4 679.0 V 721.8 L 740.7 798.0 L 811.1 874.2 V 917.0" fill="none" stroke="#16a34a" stroke-width="3.0" stroke-linecap="round" stroke-linejoin="round"  opacity=".86"/><circle cx="1011.4" cy="679.0" r="3.2" fill="#ffffff" stroke="#16a34a" stroke-width="2"/><circle cx="811.1" cy="917.0" r="3.2" fill="#ffffff" stroke="#16a34a" stroke-width="2"/><rect x="985.2" y="690.0" width="52.3" height="19" rx="5" fill="#f8fafc" fill-opacity=".96"/><text x="1011.4" y="704.0" text-anchor="middle" fill="#16a34a" font-family="ui-monospace,SFMono-Regular,monospace" font-size="11" font-weight="650">Eth1/1</text><rect x="785.0" y="891.0" width="52.3" height="19" rx="5" fill="#f8fafc" fill-opacity=".96"/><text x="811.1" y="905.0" text-anchor="middle" fill="#16a34a" font-family="ui-monospace,SFMono-Regular,monospace" font-size="11" font-weight="650">Eth0/1</text><path id="link-11" d="M 821.1 679.0 V 721.8 L 1091.8 798.0 L 1021.4 874.2 V 917.0" fill="none" stroke="#16a34a" stroke-width="3.0" stroke-linecap="round" stroke-linejoin="round"  opacity=".86"/><circle cx="821.1" cy="679.0" r="3.2" fill="#ffffff" stroke="#16a34a" stroke-width="2"/><circle cx="1021.4" cy="917.0" r="3.2" fill="#ffffff" stroke="#16a34a" stroke-width="2"/><rect x="795.0" y="690.0" width="52.3" height="19" rx="5" fill="#f8fafc" fill-opacity=".96"/><text x="821.1" y="704.0" text-anchor="middle" fill="#16a34a" font-family="ui-monospace,SFMono-Regular,monospace" font-size="11" font-weight="650">Eth1/2</text><rect x="995.2" y="891.0" width="52.3" height="19" rx="5" fill="#f8fafc" fill-opacity=".96"/><text x="1021.4" y="905.0" text-anchor="middle" fill="#16a34a" font-family="ui-monospace,SFMono-Regular,monospace" font-size="11" font-weight="650">Eth0/0</text><path id="link-12" d="M 1267.4 679.0 V 721.8 L 1091.8 798.0 L 1257.4 874.2 V 917.0" fill="none" stroke="#16a34a" stroke-width="3.0" stroke-linecap="round" stroke-linejoin="round"  opacity=".86"/><circle cx="1267.4" cy="679.0" r="3.2" fill="#ffffff" stroke="#16a34a" stroke-width="2"/><circle cx="1257.4" cy="917.0" r="3.2" fill="#ffffff" stroke="#16a34a" stroke-width="2"/><rect x="1241.2" y="690.0" width="52.3" height="19" rx="5" fill="#f8fafc" fill-opacity=".96"/><text x="1267.4" y="704.0" text-anchor="middle" fill="#16a34a" font-family="ui-monospace,SFMono-Regular,monospace" font-size="11" font-weight="650">Eth1/2</text><rect x="1231.2" y="891.0" width="52.3" height="19" rx="5" fill="#f8fafc" fill-opacity=".96"/><text x="1257.4" y="905.0" text-anchor="middle" fill="#16a34a" font-family="ui-monospace,SFMono-Regular,monospace" font-size="11" font-weight="650">Eth0/1</text><path id="link-13" d="M 1457.6 679.0 V 721.8 L 1633.2 798.0 L 1467.6 874.2 V 917.0" fill="none" stroke="#16a34a" stroke-width="3.0" stroke-linecap="round" stroke-linejoin="round"  opacity=".86"/><circle cx="1457.6" cy="679.0" r="3.2" fill="#ffffff" stroke="#16a34a" stroke-width="2"/><circle cx="1467.6" cy="917.0" r="3.2" fill="#ffffff" stroke="#16a34a" stroke-width="2"/><rect x="1431.5" y="690.0" width="52.3" height="19" rx="5" fill="#f8fafc" fill-opacity=".96"/><text x="1457.6" y="704.0" text-anchor="middle" fill="#16a34a" font-family="ui-monospace,SFMono-Regular,monospace" font-size="11" font-weight="650">Eth1/1</text><rect x="1441.5" y="891.0" width="52.3" height="19" rx="5" fill="#f8fafc" fill-opacity=".96"/><text x="1467.6" y="905.0" text-anchor="middle" fill="#16a34a" font-family="ui-monospace,SFMono-Regular,monospace" font-size="11" font-weight="650">Eth0/0</text><path id="link-14" d="M 1903.9 679.0 V 721.8 L 1633.2 798.0 L 1703.6 874.2 V 917.0" fill="none" stroke="#16a34a" stroke-width="3.0" stroke-linecap="round" stroke-linejoin="round"  opacity=".86"/><circle cx="1903.9" cy="679.0" r="3.2" fill="#ffffff" stroke="#16a34a" stroke-width="2"/><circle cx="1703.6" cy="917.0" r="3.2" fill="#ffffff" stroke="#16a34a" stroke-width="2"/><rect x="1877.7" y="690.0" width="52.3" height="19" rx="5" fill="#f8fafc" fill-opacity=".96"/><text x="1903.9" y="704.0" text-anchor="middle" fill="#16a34a" font-family="ui-monospace,SFMono-Regular,monospace" font-size="11" font-weight="650">Eth1/1</text><rect x="1677.5" y="891.0" width="52.3" height="19" rx="5" fill="#f8fafc" fill-opacity=".96"/><text x="1703.6" y="905.0" text-anchor="middle" fill="#16a34a" font-family="ui-monospace,SFMono-Regular,monospace" font-size="11" font-weight="650">Eth0/1</text><path id="link-15" d="M 1713.6 679.0 V 721.8 L 1984.3 798.0 L 1913.9 874.2 V 917.0" fill="none" stroke="#16a34a" stroke-width="3.0" stroke-linecap="round" stroke-linejoin="round"  opacity=".86"/><circle cx="1713.6" cy="679.0" r="3.2" fill="#ffffff" stroke="#16a34a" stroke-width="2"/><circle cx="1913.9" cy="917.0" r="3.2" fill="#ffffff" stroke="#16a34a" stroke-width="2"/><rect x="1687.5" y="690.0" width="52.3" height="19" rx="5" fill="#f8fafc" fill-opacity=".96"/><text x="1713.6" y="704.0" text-anchor="middle" fill="#16a34a" font-family="ui-monospace,SFMono-Regular,monospace" font-size="11" font-weight="650">Eth1/2</text><rect x="1887.7" y="891.0" width="52.3" height="19" rx="5" fill="#f8fafc" fill-opacity=".96"/><text x="1913.9" y="905.0" text-anchor="middle" fill="#16a34a" font-family="ui-monospace,SFMono-Regular,monospace" font-size="11" font-weight="650">Eth0/0</text><path id="link-16" d="M 2159.9 679.0 V 721.8 L 1984.3 798.0 L 2149.9 874.2 V 917.0" fill="none" stroke="#16a34a" stroke-width="3.0" stroke-linecap="round" stroke-linejoin="round"  opacity=".86"/><circle cx="2159.9" cy="679.0" r="3.2" fill="#ffffff" stroke="#16a34a" stroke-width="2"/><circle cx="2149.9" cy="917.0" r="3.2" fill="#ffffff" stroke="#16a34a" stroke-width="2"/><rect x="2133.7" y="690.0" width="52.3" height="19" rx="5" fill="#f8fafc" fill-opacity=".96"/><text x="2159.9" y="704.0" text-anchor="middle" fill="#16a34a" font-family="ui-monospace,SFMono-Regular,monospace" font-size="11" font-weight="650">Eth1/2</text><rect x="2123.7" y="891.0" width="52.3" height="19" rx="5" fill="#f8fafc" fill-opacity=".96"/><text x="2149.9" y="905.0" text-anchor="middle" fill="#16a34a" font-family="ui-monospace,SFMono-Regular,monospace" font-size="11" font-weight="650">Eth0/1</text><g class="bundle-marker" filter="url(#shadow)"><circle cx="740.7" cy="798.0" r="22" fill="#ffffff" stroke="#16a34a" stroke-width="3"/><circle cx="740.7" cy="798.0" r="14" fill="#16a34a" fill-opacity=".13"/><text x="740.7" y="801.5" text-anchor="middle" fill="#16a34a" font-family="ui-monospace,SFMono-Regular,monospace" font-size="10" font-weight="800">Po10</text></g><g class="bundle-marker" filter="url(#shadow)"><circle cx="1091.8" cy="798.0" r="22" fill="#ffffff" stroke="#16a34a" stroke-width="3"/><circle cx="1091.8" cy="798.0" r="14" fill="#16a34a" fill-opacity=".13"/><text x="1091.8" y="801.5" text-anchor="middle" fill="#16a34a" font-family="ui-monospace,SFMono-Regular,monospace" font-size="10" font-weight="800">Po20</text></g><g class="bundle-marker" filter="url(#shadow)"><circle cx="1633.2" cy="798.0" r="22" fill="#ffffff" stroke="#16a34a" stroke-width="3"/><circle cx="1633.2" cy="798.0" r="14" fill="#16a34a" fill-opacity=".13"/><text x="1633.2" y="801.5" text-anchor="middle" fill="#16a34a" font-family="ui-monospace,SFMono-Regular,monospace" font-size="10" font-weight="800">Po30</text></g><g class="bundle-marker" filter="url(#shadow)"><circle cx="1984.3" cy="798.0" r="22" fill="#ffffff" stroke="#16a34a" stroke-width="3"/><circle cx="1984.3" cy="798.0" r="14" fill="#16a34a" fill-opacity=".13"/><text x="1984.3" y="801.5" text-anchor="middle" fill="#16a34a" font-family="ui-monospace,SFMono-Regular,monospace" font-size="10" font-weight="800">Po40</text></g></g><g id="bundle-legend"><text x="78.0" y="1010.0" fill="#475569" font-family="Inter,Segoe UI,sans-serif" font-size="11" font-weight="800" letter-spacing="1.5">BUNDLE DETAILS</text><path d="M78.0 1022.0 H410.0" stroke="#cbd5e1"/><text x="78.0" y="1044.0" fill="#15803d" font-family="ui-monospace,SFMono-Regular,monospace" font-size="11" font-weight="800">Po10</text><text x="126.0" y="1044.0" fill="#334155" font-family="ui-monospace,SFMono-Regular,monospace" font-size="8.5" font-weight="650">2x25G · MC-LAG · LACP · TRUNK · DOT1Q</text><text x="126.0" y="1059.0" fill="#64748b" font-family="ui-monospace,SFMono-Regular,monospace" font-size="8.5" font-weight="600">VLAN 10,20,100-120</text><text x="78.0" y="1091.0" fill="#15803d" font-family="ui-monospace,SFMono-Regular,monospace" font-size="11" font-weight="800">Po20</text><text x="126.0" y="1091.0" fill="#334155" font-family="ui-monospace,SFMono-Regular,monospace" font-size="8.5" font-weight="650">2x25G · MC-LAG · LACP · TRUNK · DOT1Q</text><text x="126.0" y="1106.0" fill="#64748b" font-family="ui-monospace,SFMono-Regular,monospace" font-size="8.5" font-weight="600">VLAN 10,30,200-220</text><text x="78.0" y="1138.0" fill="#15803d" font-family="ui-monospace,SFMono-Regular,monospace" font-size="11" font-weight="800">Po30</text><text x="126.0" y="1138.0" fill="#334155" font-family="ui-monospace,SFMono-Regular,monospace" font-size="8.5" font-weight="650">2x25G · MC-LAG · LACP · TRUNK · DOT1Q</text><text x="126.0" y="1153.0" fill="#64748b" font-family="ui-monospace,SFMono-Regular,monospace" font-size="8.5" font-weight="600">VLAN 10,40,300-320</text><text x="78.0" y="1185.0" fill="#15803d" font-family="ui-monospace,SFMono-Regular,monospace" font-size="11" font-weight="800">Po40</text><text x="126.0" y="1185.0" fill="#334155" font-family="ui-monospace,SFMono-Regular,monospace" font-size="8.5" font-weight="650">2x25G · MC-LAG · LACP · TRUNK · DOT1Q</text><text x="126.0" y="1200.0" fill="#64748b" font-family="ui-monospace,SFMono-Regular,monospace" font-size="8.5" font-weight="600">VLAN 10,50,400-420</text></g><g id="nodes"><g id="app-01" filter="url(#shadow)"><rect x="553.1" y="917.0" width="280.0" height="82.0" rx="14" fill="#ffffff" stroke="#16a34a" stroke-width="2"/><rect x="553.1" y="917.0" width="8" height="82.0" rx="4" fill="#16a34a"/><g class="device-icon device-icon-server" transform="translate(593.1 958.0)" stroke="#16a34a" fill="none" stroke-width="1.6" stroke-linecap="round" stroke-linejoin="round"><rect x="-17" y="-23" width="34" height="46" rx="5" fill="#16a34a" fill-opacity=".08"/><rect x="-17" y="-23" width="34" height="46" rx="5"/><path d="M-10 -13h20M-10 -3h20M-10 7h20M-10 17h12"/><circle cx="11" cy="17" r="2"/></g><text x="631.1" y="951.0" fill="#0f172a" font-family="Inter,Segoe UI,sans-serif" font-size="15" font-weight="700">App 01</text><text x="631.1" y="972.0" fill="#64748b" font-family="ui-monospace,SFMono-Regular,monospace" font-size="11">SERVER</text></g><g id="app-02" filter="url(#shadow)"><rect x="999.4" y="917.0" width="280.0" height="82.0" rx="14" fill="#ffffff" stroke="#16a34a" stroke-width="2"/><rect x="999.4" y="917.0" width="8" height="82.0" rx="4" fill="#16a34a"/><g class="device-icon device-icon-server" transform="translate(1039.4 958.0)" stroke="#16a34a" fill="none" stroke-width="1.6" stroke-linecap="round" stroke-linejoin="round"><rect x="-17" y="-23" width="34" height="46" rx="5" fill="#16a34a" fill-opacity=".08"/><rect x="-17" y="-23" width="34" height="46" rx="5"/><path d="M-10 -13h20M-10 -3h20M-10 7h20M-10 17h12"/><circle cx="11" cy="17" r="2"/></g><text x="1077.4" y="951.0" fill="#0f172a" font-family="Inter,Segoe UI,sans-serif" font-size="15" font-weight="700">App 02</text><text x="1077.4" y="972.0" fill="#64748b" font-family="ui-monospace,SFMono-Regular,monospace" font-size="11">SERVER</text></g><g id="app-03" filter="url(#shadow)"><rect x="1445.6" y="917.0" width="280.0" height="82.0" rx="14" fill="#ffffff" stroke="#16a34a" stroke-width="2"/><rect x="1445.6" y="917.0" width="8" height="82.0" rx="4" fill="#16a34a"/><g class="device-icon device-icon-server" transform="translate(1485.6 958.0)" stroke="#16a34a" fill="none" stroke-width="1.6" stroke-linecap="round" stroke-linejoin="round"><rect x="-17" y="-23" width="34" height="46" rx="5" fill="#16a34a" fill-opacity=".08"/><rect x="-17" y="-23" width="34" height="46" rx="5"/><path d="M-10 -13h20M-10 -3h20M-10 7h20M-10 17h12"/><circle cx="11" cy="17" r="2"/></g><text x="1523.6" y="951.0" fill="#0f172a" font-family="Inter,Segoe UI,sans-serif" font-size="15" font-weight="700">App 03</text><text x="1523.6" y="972.0" fill="#64748b" font-family="ui-monospace,SFMono-Regular,monospace" font-size="11">SERVER</text></g><g id="app-04" filter="url(#shadow)"><rect x="1891.9" y="917.0" width="280.0" height="82.0" rx="14" fill="#ffffff" stroke="#16a34a" stroke-width="2"/><rect x="1891.9" y="917.0" width="8" height="82.0" rx="4" fill="#16a34a"/><g class="device-icon device-icon-server" transform="translate(1931.9 958.0)" stroke="#16a34a" fill="none" stroke-width="1.6" stroke-linecap="round" stroke-linejoin="round"><rect x="-17" y="-23" width="34" height="46" rx="5" fill="#16a34a" fill-opacity=".08"/><rect x="-17" y="-23" width="34" height="46" rx="5"/><path d="M-10 -13h20M-10 -3h20M-10 7h20M-10 17h12"/><circle cx="11" cy="17" r="2"/></g><text x="1969.9" y="951.0" fill="#0f172a" font-family="Inter,Segoe UI,sans-serif" font-size="15" font-weight="700">App 04</text><text x="1969.9" y="972.0" fill="#64748b" font-family="ui-monospace,SFMono-Regular,monospace" font-size="11">SERVER</text></g><g id="leaf-01" filter="url(#shadow)"><rect x="543.1" y="597.0" width="300.0" height="82.0" rx="14" fill="#ffffff" stroke="#0891b2" stroke-width="2"/><rect x="543.1" y="597.0" width="8" height="82.0" rx="4" fill="#0891b2"/><g class="device-icon device-icon-leaf" transform="translate(583.1 638.0)" stroke="#0878b9" fill="none" stroke-width="1.6" stroke-linecap="round" stroke-linejoin="round"><path d="M-28 -9 -9 -20 28 -9 9 2Z" fill="#0878b9" fill-opacity=".14"/><path d="M-28 -9 9 2 28 -9v12L9 15-28 4Z" fill="#0878b9" fill-opacity=".07"/><path d="M-28 -9 -9 -20 28 -9 9 2Z"/><path d="M-28 -9v13L9 15 28 3v-12M9 2v13"/><path d="M-19 -4 3 3M-19 1 3 8"/><rect x="-15.5" y="-4.5" width="3.5" height="2.7" rx=".5"/><rect x="-10" y="-2.8" width="3.5" height="2.7" rx=".5"/><rect x="-4.5" y="-1.1" width="3.5" height="2.7" rx=".5"/><rect x="1" y=".6" width="3.5" height="2.7" rx=".5"/><circle cx="-20" cy="1.5" r="1.4"/><circle cx="-15" cy="3.2" r="1.4"/><circle cx="-10" cy="4.9" r="1.4"/><path d="M11 -10h9M12 -6h6"/></g><text x="621.1" y="631.0" fill="#0f172a" font-family="Inter,Segoe UI,sans-serif" font-size="15" font-weight="700">Leaf 01</text><text x="621.1" y="652.0" fill="#64748b" font-family="ui-monospace,SFMono-Regular,monospace" font-size="11">LEAF</text></g><g id="leaf-02" filter="url(#shadow)"><rect x="989.4" y="597.0" width="300.0" height="82.0" rx="14" fill="#ffffff" stroke="#0891b2" stroke-width="2"/><rect x="989.4" y="597.0" width="8" height="82.0" rx="4" fill="#0891b2"/><g class="device-icon device-icon-leaf" transform="translate(1029.4 638.0)" stroke="#0878b9" fill="none" stroke-width="1.6" stroke-linecap="round" stroke-linejoin="round"><path d="M-28 -9 -9 -20 28 -9 9 2Z" fill="#0878b9" fill-opacity=".14"/><path d="M-28 -9 9 2 28 -9v12L9 15-28 4Z" fill="#0878b9" fill-opacity=".07"/><path d="M-28 -9 -9 -20 28 -9 9 2Z"/><path d="M-28 -9v13L9 15 28 3v-12M9 2v13"/><path d="M-19 -4 3 3M-19 1 3 8"/><rect x="-15.5" y="-4.5" width="3.5" height="2.7" rx=".5"/><rect x="-10" y="-2.8" width="3.5" height="2.7" rx=".5"/><rect x="-4.5" y="-1.1" width="3.5" height="2.7" rx=".5"/><rect x="1" y=".6" width="3.5" height="2.7" rx=".5"/><circle cx="-20" cy="1.5" r="1.4"/><circle cx="-15" cy="3.2" r="1.4"/><circle cx="-10" cy="4.9" r="1.4"/><path d="M11 -10h9M12 -6h6"/></g><text x="1067.4" y="631.0" fill="#0f172a" font-family="Inter,Segoe UI,sans-serif" font-size="15" font-weight="700">Leaf 02</text><text x="1067.4" y="652.0" fill="#64748b" font-family="ui-monospace,SFMono-Regular,monospace" font-size="11">LEAF</text></g><g id="leaf-03" filter="url(#shadow)"><rect x="1435.6" y="597.0" width="300.0" height="82.0" rx="14" fill="#ffffff" stroke="#0891b2" stroke-width="2"/><rect x="1435.6" y="597.0" width="8" height="82.0" rx="4" fill="#0891b2"/><g class="device-icon device-icon-leaf" transform="translate(1475.6 638.0)" stroke="#0878b9" fill="none" stroke-width="1.6" stroke-linecap="round" stroke-linejoin="round"><path d="M-28 -9 -9 -20 28 -9 9 2Z" fill="#0878b9" fill-opacity=".14"/><path d="M-28 -9 9 2 28 -9v12L9 15-28 4Z" fill="#0878b9" fill-opacity=".07"/><path d="M-28 -9 -9 -20 28 -9 9 2Z"/><path d="M-28 -9v13L9 15 28 3v-12M9 2v13"/><path d="M-19 -4 3 3M-19 1 3 8"/><rect x="-15.5" y="-4.5" width="3.5" height="2.7" rx=".5"/><rect x="-10" y="-2.8" width="3.5" height="2.7" rx=".5"/><rect x="-4.5" y="-1.1" width="3.5" height="2.7" rx=".5"/><rect x="1" y=".6" width="3.5" height="2.7" rx=".5"/><circle cx="-20" cy="1.5" r="1.4"/><circle cx="-15" cy="3.2" r="1.4"/><circle cx="-10" cy="4.9" r="1.4"/><path d="M11 -10h9M12 -6h6"/></g><text x="1513.6" y="631.0" fill="#0f172a" font-family="Inter,Segoe UI,sans-serif" font-size="15" font-weight="700">Leaf 03</text><text x="1513.6" y="652.0" fill="#64748b" font-family="ui-monospace,SFMono-Regular,monospace" font-size="11">LEAF</text></g><g id="leaf-04" filter="url(#shadow)"><rect x="1881.9" y="597.0" width="300.0" height="82.0" rx="14" fill="#ffffff" stroke="#0891b2" stroke-width="2"/><rect x="1881.9" y="597.0" width="8" height="82.0" rx="4" fill="#0891b2"/><g class="device-icon device-icon-leaf" transform="translate(1921.9 638.0)" stroke="#0878b9" fill="none" stroke-width="1.6" stroke-linecap="round" stroke-linejoin="round"><path d="M-28 -9 -9 -20 28 -9 9 2Z" fill="#0878b9" fill-opacity=".14"/><path d="M-28 -9 9 2 28 -9v12L9 15-28 4Z" fill="#0878b9" fill-opacity=".07"/><path d="M-28 -9 -9 -20 28 -9 9 2Z"/><path d="M-28 -9v13L9 15 28 3v-12M9 2v13"/><path d="M-19 -4 3 3M-19 1 3 8"/><rect x="-15.5" y="-4.5" width="3.5" height="2.7" rx=".5"/><rect x="-10" y="-2.8" width="3.5" height="2.7" rx=".5"/><rect x="-4.5" y="-1.1" width="3.5" height="2.7" rx=".5"/><rect x="1" y=".6" width="3.5" height="2.7" rx=".5"/><circle cx="-20" cy="1.5" r="1.4"/><circle cx="-15" cy="3.2" r="1.4"/><circle cx="-10" cy="4.9" r="1.4"/><path d="M11 -10h9M12 -6h6"/></g><text x="1959.9" y="631.0" fill="#0f172a" font-family="Inter,Segoe UI,sans-serif" font-size="15" font-weight="700">Leaf 04</text><text x="1959.9" y="652.0" fill="#64748b" font-family="ui-monospace,SFMono-Regular,monospace" font-size="11">LEAF</text></g><g id="spine-01" filter="url(#shadow)"><rect x="726.2" y="277.0" width="380.0" height="82.0" rx="14" fill="#ffffff" stroke="#2563eb" stroke-width="2"/><rect x="726.2" y="277.0" width="8" height="82.0" rx="4" fill="#2563eb"/><g class="device-icon device-icon-spine" transform="translate(766.2 318.0)" stroke="#0878b9" fill="none" stroke-width="1.6" stroke-linecap="round" stroke-linejoin="round"><path d="M-27 -10 -7 -23 27 -12 7 1Z" fill="#0878b9" fill-opacity=".16"/><path d="M-27 -10 7 1 27 -12v13L7 15-27 3Z" fill="#0878b9" fill-opacity=".08"/><path d="M-27 -10 -7 -23 27 -12 7 1Z"/><path d="M-27 -10v13L7 15 27 1v-13M7 1v14"/><path d="M-11 -12 8 -6M-2 -17 17 -11M-15 -5 4 1"/><path d="m6 -9 4 3-6 1M5 -14l4-2 1 5M-7 -7l-4-3 6-1M-6 -3l-4 2-1-5"/><circle cx="-19" cy="-1" r="1.5"/><circle cx="-14" cy=".7" r="1.5"/><circle cx="-9" cy="2.4" r="1.5"/></g><text x="804.2" y="311.0" fill="#0f172a" font-family="Inter,Segoe UI,sans-serif" font-size="15" font-weight="700">Spine 01</text><text x="804.2" y="332.0" fill="#64748b" font-family="ui-monospace,SFMono-Regular,monospace" font-size="11">SPINE</text></g><g id="spine-02" filter="url(#shadow)"><rect x="1618.8" y="277.0" width="380.0" height="82.0" rx="14" fill="#ffffff" stroke="#2563eb" stroke-width="2"/><rect x="1618.8" y="277.0" width="8" height="82.0" rx="4" fill="#2563eb"/><g class="device-icon device-icon-spine" transform="translate(1658.8 318.0)" stroke="#0878b9" fill="none" stroke-width="1.6" stroke-linecap="round" stroke-linejoin="round"><path d="M-27 -10 -7 -23 27 -12 7 1Z" fill="#0878b9" fill-opacity=".16"/><path d="M-27 -10 7 1 27 -12v13L7 15-27 3Z" fill="#0878b9" fill-opacity=".08"/><path d="M-27 -10 -7 -23 27 -12 7 1Z"/><path d="M-27 -10v13L7 15 27 1v-13M7 1v14"/><path d="M-11 -12 8 -6M-2 -17 17 -11M-15 -5 4 1"/><path d="m6 -9 4 3-6 1M5 -14l4-2 1 5M-7 -7l-4-3 6-1M-6 -3l-4 2-1-5"/><circle cx="-19" cy="-1" r="1.5"/><circle cx="-14" cy=".7" r="1.5"/><circle cx="-9" cy="2.4" r="1.5"/></g><text x="1696.8" y="311.0" fill="#0f172a" font-family="Inter,Segoe UI,sans-serif" font-size="15" font-weight="700">Spine 02</text><text x="1696.8" y="332.0" fill="#64748b" font-family="ui-monospace,SFMono-Regular,monospace" font-size="11">SPINE</text></g></g></svg>