<svg class="theme-light" xmlns="http://www.w3.org/2000/svg" width="3015" height="1225" viewBox="0 0 3015 1225" role="img" shape-rendering="geometricPrecision"><defs><filter id="shadow" x="-20%" y="-20%" width="140%" height="150%"><feDropShadow dx="0" dy="4" stdDeviation="6" flood-color="#0f172a" flood-opacity=".14"/></filter></defs><rect width="100%" height="100%" fill="#f8fafc"/><rect x="0" y="0" width="3015" height="112" fill="#0f172a"/><text x="70" y="56" fill="#f8fafc" font-family="Inter,Segoe UI,sans-serif" font-size="30" font-weight="700">Production Data Center Fabric</text><text x="70" y="84" fill="#94a3b8" font-family="Inter,Segoe UI,sans-serif" font-size="15">Two-spine, four-leaf Clos topology with dual-homed application servers</text><text x="2945" y="66" text-anchor="end" fill="#38bdf8" font-family="ui-monospace,SFMono-Regular,monospace" font-size="14">NETWORK DIAGRAM</text><rect x="42" y="197.0" width="2931.0" height="250.0" rx="20" fill="#eff6ff" stroke="#e2e8f0"/><rect x="42" y="517.0" width="2931.0" height="250.0" rx="20" fill="#ecfeff" stroke="#e2e8f0"/><rect x="42" y="837.0" width="2931.0" height="250.0" rx="20" fill="#f0fdf4" stroke="#e2e8f0"/><g id="row-headings"><g class="row-heading row-heading-spine"><path d="M78 250.0 H410" stroke="#cbd5e1" stroke-width="1"/><text x="78" y="235.0" fill="#64748b" font-family="Inter,Segoe UI,sans-serif" font-size="12" font-weight="700" letter-spacing="1.8">SPINE LAYER · 2 DEVICES</text></g><g class="row-heading row-heading-leaf"><path d="M78 570.0 H410" stroke="#cbd5e1" stroke-width="1"/><text x="78" y="555.0" fill="#64748b" font-family="Inter,Segoe UI,sans-serif" font-size="12" font-weight="700" letter-spacing="1.8">LEAF LAYER · 4 DEVICES</text></g><g class="row-heading row-heading-server"><path d="M78 890.0 H410" stroke="#cbd5e1" stroke-width="1"/><text x="78" y="875.0" fill="#64748b" font-family="Inter,Segoe UI,sans-serif" font-size="12" font-weight="700" letter-spacing="1.8">SERVER LAYER · 4 DEVICES</text></g></g><g id="links"><g id="link-1" data-netdiag-kind="link"><path d="M 902.0 359.0 V 411.4 L 642.0 544.6 V 597.0" fill="none" stroke="#334155" stroke-width="2.2" stroke-linecap="round" stroke-linejoin="round"  opacity=".86"/><circle cx="902.0" cy="359.0" r="3.2" fill="#ffffff" stroke="#334155" stroke-width="2"/><circle cx="642.0" cy="597.0" r="3.2" fill="#ffffff" stroke="#334155" stroke-width="2"/></g><g id="link-2" data-netdiag-kind="link"><path d="M 1014.0 359.0 V 411.4 L 1242.0 544.6 V 597.0" fill="none" stroke="#334155" stroke-width="2.2" stroke-linecap="round" stroke-linejoin="round"  opacity=".86"/><circle cx="1014.0" cy="359.0" r="3.2" fill="#ffffff" stroke="#334155" stroke-width="2"/><circle cx="1242.0" cy="597.0" r="3.2" fill="#ffffff" stroke="#334155" stroke-width="2"/></g><g id="link-3" data-netdiag-kind="link"><path d="M 1126.0 359.0 V 411.4 L 1842.0 544.6 V 597.0" fill="none" stroke="#334155" stroke-width="2.2" stroke-linecap="round" stroke-linejoin="round"  opacity=".86"/><circle cx="1126.0" cy="359.0" r="3.2" fill="#ffffff" stroke="#334155" stroke-width="2"/><circle cx="1842.0" cy="597.0" r="3.2" fill="#ffffff" stroke="#334155" stroke-width="2"/></g><g id="link-4" data-netdiag-kind="link"><path d="M 1238.0 359.0 V 411.4 L 2442.0 544.6 V 597.0" fill="none" stroke="#334155" stroke-width="2.2" stroke-linecap="round" stroke-linejoin="round"  opacity=".86"/><circle cx="1238.0" cy="359.0" r="3.2" fill="#ffffff" stroke="#334155" stroke-width="2"/><circle cx="2442.0" cy="597.0" r="3.2" fill="#ffffff" stroke="#334155" stroke-width="2"/></g><g id="link-5" data-netdiag-kind="link"><path d="M 2102.0 359.0 V 411.4 L 898.0 544.6 V 597.0" fill="none" stroke="#334155" stroke-width="2.2" stroke-linecap="round" stroke-linejoin="round"  opacity=".86"/><circle cx="2102.0" cy="359.0" r="3.2" fill="#ffffff" stroke="#334155" stroke-width="2"/><circle cx="898.0" cy="597.0" r="3.2" fill="#ffffff" stroke="#334155" stroke-width="2"/></g><g id="link-6" data-netdiag-kind="link"><path d="M 2214.0 359.0 V 411.4 L 1498.0 544.6 V 597.0" fill="none" stroke="#334155" stroke-width="2.2" stroke-linecap="round" stroke-linejoin="round"  opacity=".86"/><circle cx="2214.0" cy="359.0" r="3.2" fill="#ffffff" stroke="#334155" stroke-width="2"/><circle cx="1498.0" cy="597.0" r="3.2" fill="#ffffff" stroke="#334155" stroke-width="2"/></g><g id="link-7" data-netdiag-kind="link"><path d="M 2326.0 359.0 V 411.4 L 2098.0 544.6 V 597.0" fill="none" stroke="#334155" stroke-width="2.2" stroke-linecap="round" stroke-linejoin="round"  opacity=".86"/><circle cx="2326.0" cy="359.0" r="3.2" fill="#ffffff" stroke="#334155" stroke-width="2"/><circle cx="2098.0" cy="597.0" r="3.2" fill="#ffffff" stroke="#334155" stroke-width="2"/></g><g id="link-8" data-netdiag-kind="link"><path d="M 2438.0 359.0 V 411.4 L 2698.0 544.6 V 597.0" fill="none" stroke="#334155" stroke-width="2.2" stroke-linecap="round" stroke-linejoin="round"  opacity=".86"/><circle cx="2438.0" cy="359.0" r="3.2" fill="#ffffff" stroke="#334155" stroke-width="2"/><circle cx="2698.0" cy="597.0" r="3.2" fill="#ffffff" stroke="#334155" stroke-width="2"/></g><g id="link-9" data-netdiag-kind="link"><path d="M 642.0 679.0 V 721.8 L 856.0 798.0 L 652.0 874.2 V 917.0" fill="none" stroke="#16a34a" stroke-width="3.0" stroke-linecap="round" stroke-linejoin="round"  opacity=".86"/><circle cx="642.0" cy="679.0" r="3.2" fill="#ffffff" stroke="#16a34a" stroke-width="2"/><circle cx="652.0" cy="917.0" r="3.2" fill="#ffffff" stroke="#16a34a" stroke-width="2"/></g><g id="link-10" data-netdiag-kind="link"><path d="M 1242.0 679.0 V 721.8 L 856.0 798.0 L 888.0 874.2 V 917.0" fill="none" stroke="#16a34a" stroke-width="3.0" stroke-linecap="round" stroke-linejoin="round"  opacity=".86"/><circle cx="1242.0" cy="679.0" r="3.2" fill="#ffffff" stroke="#16a34a" stroke-width="2"/><circle cx="888.0" cy="917.0" r="3.2" fill="#ffffff" stroke="#16a34a" stroke-width="2"/></g><g id="link-11" data-netdiag-kind="link"><path d="M 898.0 679.0 V 721.8 L 1284.0 798.0 L 1252.0 874.2 V 917.0" fill="none" stroke="#16a34a" stroke-width="3.0" stroke-linecap="round" stroke-linejoin="round"  opacity=".86"/><circle cx="898.0" cy="679.0" r="3.2" fill="#ffffff" stroke="#16a34a" stroke-width="2"/><circle cx="1252.0" cy="917.0" r="3.2" fill="#ffffff" stroke="#16a34a" stroke-width="2"/></g><g id="link-12" data-netdiag-kind="link"><path d="M 1498.0 679.0 V 721.8 L 1284.0 798.0 L 1488.0 874.2 V 917.0" fill="none" stroke="#16a34a" stroke-width="3.0" stroke-linecap="round" stroke-linejoin="round"  opacity=".86"/><circle cx="1498.0" cy="679.0" r="3.2" fill="#ffffff" stroke="#16a34a" stroke-width="2"/><circle cx="1488.0" cy="917.0" r="3.2" fill="#ffffff" stroke="#16a34a" stroke-width="2"/></g><g id="link-13" data-netdiag-kind="link"><path d="M 1842.0 679.0 V 721.8 L 2056.0 798.0 L 1852.0 874.2 V 917.0" fill="none" stroke="#16a34a" stroke-width="3.0" stroke-linecap="round" stroke-linejoin="round"  opacity=".86"/><circle cx="1842.0" cy="679.0" r="3.2" fill="#ffffff" stroke="#16a34a" stroke-width="2"/><circle cx="1852.0" cy="917.0" r="3.2" fill="#ffffff" stroke="#16a34a" stroke-width="2"/></g><g id="link-14" data-netdiag-kind="link"><path d="M 2442.0 679.0 V 721.8 L 2056.0 798.0 L 2088.0 874.2 V 917.0" fill="none" stroke="#16a34a" stroke-width="3.0" stroke-linecap="round" stroke-linejoin="round"  opacity=".86"/><circle cx="2442.0" cy="679.0" r="3.2" fill="#ffffff" stroke="#16a34a" stroke-width="2"/><circle cx="2088.0" cy="917.0" r="3.2" fill="#ffffff" stroke="#16a34a" stroke-width="2"/></g><g id="link-15" data-netdiag-kind="link"><path d="M 2098.0 679.0 V 721.8 L 2484.0 798.0 L 2452.0 874.2 V 917.0" fill="none" stroke="#16a34a" stroke-width="3.0" stroke-linecap="round" stroke-linejoin="round"  opacity=".86"/><circle cx="2098.0" cy="679.0" r="3.2" fill="#ffffff" stroke="#16a34a" stroke-width="2"/><circle cx="2452.0" cy="917.0" r="3.2" fill="#ffffff" stroke="#16a34a" stroke-width="2"/></g><g id="link-16" data-netdiag-kind="link"><path d="M 2698.0 679.0 V 721.8 L 2484.0 798.0 L 2688.0 874.2 V 917.0" fill="none" stroke="#16a34a" stroke-width="3.0" stroke-linecap="round" stroke-linejoin="round"  opacity=".86"/><circle cx="2698.0" cy="679.0" r="3.2" fill="#ffffff" stroke="#16a34a" stroke-width="2"/><circle cx="2688.0" cy="917.0" r="3.2" fill="#ffffff" stroke="#16a34a" stroke-width="2"/></g></g><g id="nodes"><g id="app-01" data-netdiag-kind="node" filter="url(#shadow)"><rect x="630.0" y="917.0" width="280.0" height="82.0" rx="14" fill="#ffffff" stroke="#16a34a" stroke-width="2"/><rect x="630.0" y="917.0" width="8" height="82.0" rx="4" fill="#16a34a"/><g class="device-icon device-icon-server" transform="translate(670.0 958.0)" stroke="#16a34a" fill="none" stroke-width="1.6" stroke-linecap="round" stroke-linejoin="round"><rect x="-17" y="-23" width="34" height="46" rx="5" fill="#16a34a" fill-opacity=".08"/><rect x="-17" y="-23" width="34" height="46" rx="5"/><path d="M-10 -13h20M-10 -3h20M-10 7h20M-10 17h12"/><circle cx="11" cy="17" r="2"/></g><text class="node-title" x="708.0" y="951.0" fill="#0f172a" font-family="Inter,Segoe UI,Arial,sans-serif" font-size="15" font-weight="700">App 01</text><text x="708.0" y="972.0" fill="#64748b" font-family="ui-monospace,SFMono-Regular,monospace" font-size="11">SERVER</text></g><g id="app-02" data-netdiag-kind="node" filter="url(#shadow)"><rect x="1230.0" y="917.0" width="280.0" height="82.0" rx="14" fill="#ffffff" stroke="#16a34a" stroke-width="2"/><rect x="1230.0" y="917.0" width="8" height="82.0" rx="4" fill="#16a34a"/><g class="device-icon device-icon-server" transform="translate(1270.0 958.0)" stroke="#16a34a" fill="none" stroke-width="1.6" stroke-linecap="round" stroke-linejoin="round"><rect x="-17" y="-23" width="34" height="46" rx="5" fill="#16a34a" fill-opacity=".08"/><rect x="-17" y="-23" width="34" height="46" rx="5"/><path d="M-10 -13h20M-10 -3h20M-10 7h20M-10 17h12"/><circle cx="11" cy="17" r="2"/></g><text class="node-title" x="1308.0" y="951.0" fill="#0f172a" font-family="Inter,Segoe UI,Arial,sans-serif" font-size="15" font-weight="700">App 02</text><text x="1308.0" y="972.0" fill="#64748b" font-family="ui-monospace,SFMono-Regular,monospace" font-size="11">SERVER</text></g><g id="app-03" data-netdiag-kind="node" filter="url(#shadow)"><rect x="1830.0" y="917.0" width="280.0" height="82.0" rx="14" fill="#ffffff" stroke="#16a34a" stroke-width="2"/><rect x="1830.0" y="917.0" width="8" height="82.0" rx="4" fill="#16a34a"/><g class="device-icon device-icon-server" transform="translate(1870.0 958.0)" stroke="#16a34a" fill="none" stroke-width="1.6" stroke-linecap="round" stroke-linejoin="round"><rect x="-17" y="-23" width="34" height="46" rx="5" fill="#16a34a" fill-opacity=".08"/><rect x="-17" y="-23" width="34" height="46" rx="5"/><path d="M-10 -13h20M-10 -3h20M-10 7h20M-10 17h12"/><circle cx="11" cy="17" r="2"/></g><text class="node-title" x="1908.0" y="951.0" fill="#0f172a" font-family="Inter,Segoe UI,Arial,sans-serif" font-size="15" font-weight="700">App 03</text><text x="1908.0" y="972.0" fill="#64748b" font-family="ui-monospace,SFMono-Regular,monospace" font-size="11">SERVER</text></g><g id="app-04" data-netdiag-kind="node" filter="url(#shadow)"><rect x="2430.0" y="917.0" width="280.0" height="82.0" rx="14" fill="#ffffff" stroke="#16a34a" stroke-width="2"/><rect x="2430.0" y="917.0" width="8" height="82.0" rx="4" fill="#16a34a"/><g class="device-icon device-icon-server" transform="translate(2470.0 958.0)" stroke="#16a34a" fill="none" stroke-width="1.6" stroke-linecap="round" stroke-linejoin="round"><rect x="-17" y="-23" width="34" height="46" rx="5" fill="#16a34a" fill-opacity=".08"/><rect x="-17" y="-23" width="34" height="46" rx="5"/><path d="M-10 -13h20M-10 -3h20M-10 7h20M-10 17h12"/><circle cx="11" cy="17" r="2"/></g><text class="node-title" x="2508.0" y="951.0" fill="#0f172a" font-family="Inter,Segoe UI,Arial,sans-serif" font-size="15" font-weight="700">App 04</text><text x="2508.0" y="972.0" fill="#64748b" font-family="ui-monospace,SFMono-Regular,monospace" font-size="11">SERVER</text></g><g id="leaf-01" data-netdiag-kind="node" filter="url(#shadow)"><rect x="620.0" y="597.0" width="300.0" height="82.0" rx="14" fill="#ffffff" stroke="#0891b2" stroke-width="2"/><rect x="620.0" y="597.0" width="8" height="82.0" rx="4" fill="#0891b2"/><g class="device-icon device-icon-leaf" transform="translate(660.0 638.0)" stroke="#0891b2" fill="none" stroke-width="1.6" stroke-linecap="round" stroke-linejoin="round"><path d="M-28 -9 -9 -20 28 -9 9 2Z" fill="#0891b2" fill-opacity=".14"/><path d="M-28 -9 9 2 28 -9v12L9 15-28 4Z" fill="#0891b2" fill-opacity=".07"/><path d="M-28 -9 -9 -20 28 -9 9 2Z"/><path d="M-28 -9v13L9 15 28 3v-12M9 2v13"/><path d="M-19 -4 3 3M-19 1 3 8"/><rect x="-15.5" y="-4.5" width="3.5" height="2.7" rx=".5"/><rect x="-10" y="-2.8" width="3.5" height="2.7" rx=".5"/><rect x="-4.5" y="-1.1" width="3.5" height="2.7" rx=".5"/><rect x="1" y=".6" width="3.5" height="2.7" rx=".5"/><circle cx="-20" cy="1.5" r="1.4"/><circle cx="-15" cy="3.2" r="1.4"/><circle cx="-10" cy="4.9" r="1.4"/><path d="M11 -10h9M12 -6h6"/></g><text class="node-title" x="698.0" y="631.0" fill="#0f172a" font-family="Inter,Segoe UI,Arial,sans-serif" font-size="15" font-weight="700">Leaf 01</text><text x="698.0" y="652.0" fill="#64748b" font-family="ui-monospace,SFMono-Regular,monospace" font-size="11">LEAF</text></g><g id="leaf-02" data-netdiag-kind="node" filter="url(#shadow)"><rect x="1220.0" y="597.0" width="300.0" height="82.0" rx="14" fill="#ffffff" stroke="#0891b2" stroke-width="2"/><rect x="1220.0" y="597.0" width="8" height="82.0" rx="4" fill="#0891b2"/><g class="device-icon device-icon-leaf" transform="translate(1260.0 638.0)" stroke="#0891b2" fill="none" stroke-width="1.6" stroke-linecap="round" stroke-linejoin="round"><path d="M-28 -9 -9 -20 28 -9 9 2Z" fill="#0891b2" fill-opacity=".14"/><path d="M-28 -9 9 2 28 -9v12L9 15-28 4Z" fill="#0891b2" fill-opacity=".07"/><path d="M-28 -9 -9 -20 28 -9 9 2Z"/><path d="M-28 -9v13L9 15 28 3v-12M9 2v13"/><path d="M-19 -4 3 3M-19 1 3 8"/><rect x="-15.5" y="-4.5" width="3.5" height="2.7" rx=".5"/><rect x="-10" y="-2.8" width="3.5" height="2.7" rx=".5"/><rect x="-4.5" y="-1.1" width="3.5" height="2.7" rx=".5"/><rect x="1" y=".6" width="3.5" height="2.7" rx=".5"/><circle cx="-20" cy="1.5" r="1.4"/><circle cx="-15" cy="3.2" r="1.4"/><circle cx="-10" cy="4.9" r="1.4"/><path d="M11 -10h9M12 -6h6"/></g><text class="node-title" x="1298.0" y="631.0" fill="#0f172a" font-family="Inter,Segoe UI,Arial,sans-serif" font-size="15" font-weight="700">Leaf 02</text><text x="1298.0" y="652.0" fill="#64748b" font-family="ui-monospace,SFMono-Regular,monospace" font-size="11">LEAF</text></g><g id="leaf-03" data-netdiag-kind="node" filter="url(#shadow)"><rect x="1820.0" y="597.0" width="300.0" height="82.0" rx="14" fill="#ffffff" stroke="#0891b2" stroke-width="2"/><rect x="1820.0" y="597.0" width="8" height="82.0" rx="4" fill="#0891b2"/><g class="device-icon device-icon-leaf" transform="translate(1860.0 638.0)" stroke="#0891b2" fill="none" stroke-width="1.6" stroke-linecap="round" stroke-linejoin="round"><path d="M-28 -9 -9 -20 28 -9 9 2Z" fill="#0891b2" fill-opacity=".14"/><path d="M-28 -9 9 2 28 -9v12L9 15-28 4Z" fill="#0891b2" fill-opacity=".07"/><path d="M-28 -9 -9 -20 28 -9 9 2Z"/><path d="M-28 -9v13L9 15 28 3v-12M9 2v13"/><path d="M-19 -4 3 3M-19 1 3 8"/><rect x="-15.5" y="-4.5" width="3.5" height="2.7" rx=".5"/><rect x="-10" y="-2.8" width="3.5" height="2.7" rx=".5"/><rect x="-4.5" y="-1.1" width="3.5" height="2.7" rx=".5"/><rect x="1" y=".6" width="3.5" height="2.7" rx=".5"/><circle cx="-20" cy="1.5" r="1.4"/><circle cx="-15" cy="3.2" r="1.4"/><circle cx="-10" cy="4.9" r="1.4"/><path d="M11 -10h9M12 -6h6"/></g><text class="node-title" x="1898.0" y="631.0" fill="#0f172a" font-family="Inter,Segoe UI,Arial,sans-serif" font-size="15" font-weight="700">Leaf 03</text><text x="1898.0" y="652.0" fill="#64748b" font-family="ui-monospace,SFMono-Regular,monospace" font-size="11">LEAF</text></g><g id="leaf-04" data-netdiag-kind="node" filter="url(#shadow)"><rect x="2420.0" y="597.0" width="300.0" height="82.0" rx="14" fill="#ffffff" stroke="#0891b2" stroke-width="2"/><rect x="2420.0" y="597.0" width="8" height="82.0" rx="4" fill="#0891b2"/><g class="device-icon device-icon-leaf" transform="translate(2460.0 638.0)" stroke="#0891b2" fill="none" stroke-width="1.6" stroke-linecap="round" stroke-linejoin="round"><path d="M-28 -9 -9 -20 28 -9 9 2Z" fill="#0891b2" fill-opacity=".14"/><path d="M-28 -9 9 2 28 -9v12L9 15-28 4Z" fill="#0891b2" fill-opacity=".07"/><path d="M-28 -9 -9 -20 28 -9 9 2Z"/><path d="M-28 -9v13L9 15 28 3v-12M9 2v13"/><path d="M-19 -4 3 3M-19 1 3 8"/><rect x="-15.5" y="-4.5" width="3.5" height="2.7" rx=".5"/><rect x="-10" y="-2.8" width="3.5" height="2.7" rx=".5"/><rect x="-4.5" y="-1.1" width="3.5" height="2.7" rx=".5"/><rect x="1" y=".6" width="3.5" height="2.7" rx=".5"/><circle cx="-20" cy="1.5" r="1.4"/><circle cx="-15" cy="3.2" r="1.4"/><circle cx="-10" cy="4.9" r="1.4"/><path d="M11 -10h9M12 -6h6"/></g><text class="node-title" x="2498.0" y="631.0" fill="#0f172a" font-family="Inter,Segoe UI,Arial,sans-serif" font-size="15" font-weight="700">Leaf 04</text><text x="2498.0" y="652.0" fill="#64748b" font-family="ui-monospace,SFMono-Regular,monospace" font-size="11">LEAF</text></g><g id="spine-01" data-netdiag-kind="node" filter="url(#shadow)"><rect x="880.0" y="277.0" width="380.0" height="82.0" rx="14" fill="#ffffff" stroke="#2563eb" stroke-width="2"/><rect x="880.0" y="277.0" width="8" height="82.0" rx="4" fill="#2563eb"/><g class="device-icon device-icon-spine" transform="translate(920.0 318.0)" stroke="#2563eb" fill="none" stroke-width="1.6" stroke-linecap="round" stroke-linejoin="round"><path d="M-27 -10 -7 -23 27 -12 7 1Z" fill="#2563eb" fill-opacity=".16"/><path d="M-27 -10 7 1 27 -12v13L7 15-27 3Z" fill="#2563eb" fill-opacity=".08"/><path d="M-27 -10 -7 -23 27 -12 7 1Z"/><path d="M-27 -10v13L7 15 27 1v-13M7 1v14"/><path d="M-11 -12 8 -6M-2 -17 17 -11M-15 -5 4 1"/><path d="m6 -9 4 3-6 1M5 -14l4-2 1 5M-7 -7l-4-3 6-1M-6 -3l-4 2-1-5"/><circle cx="-19" cy="-1" r="1.5"/><circle cx="-14" cy=".7" r="1.5"/><circle cx="-9" cy="2.4" r="1.5"/></g><text class="node-title" x="958.0" y="311.0" fill="#0f172a" font-family="Inter,Segoe UI,Arial,sans-serif" font-size="15" font-weight="700">Spine 01</text><text x="958.0" y="332.0" fill="#64748b" font-family="ui-monospace,SFMono-Regular,monospace" font-size="11">SPINE</text></g><g id="spine-02" data-netdiag-kind="node" filter="url(#shadow)"><rect x="2080.0" y="277.0" width="380.0" height="82.0" rx="14" fill="#ffffff" stroke="#2563eb" stroke-width="2"/><rect x="2080.0" y="277.0" width="8" height="82.0" rx="4" fill="#2563eb"/><g class="device-icon device-icon-spine" transform="translate(2120.0 318.0)" stroke="#2563eb" fill="none" stroke-width="1.6" stroke-linecap="round" stroke-linejoin="round"><path d="M-27 -10 -7 -23 27 -12 7 1Z" fill="#2563eb" fill-opacity=".16"/><path d="M-27 -10 7 1 27 -12v13L7 15-27 3Z" fill="#2563eb" fill-opacity=".08"/><path d="M-27 -10 -7 -23 27 -12 7 1Z"/><path d="M-27 -10v13L7 15 27 1v-13M7 1v14"/><path d="M-11 -12 8 -6M-2 -17 17 -11M-15 -5 4 1"/><path d="m6 -9 4 3-6 1M5 -14l4-2 1 5M-7 -7l-4-3 6-1M-6 -3l-4 2-1-5"/><circle cx="-19" cy="-1" r="1.5"/><circle cx="-14" cy=".7" r="1.5"/><circle cx="-9" cy="2.4" r="1.5"/></g><text class="node-title" x="2158.0" y="311.0" fill="#0f172a" font-family="Inter,Segoe UI,Arial,sans-serif" font-size="15" font-weight="700">Spine 02</text><text x="2158.0" y="332.0" fill="#64748b" font-family="ui-monospace,SFMono-Regular,monospace" font-size="11">SPINE</text></g></g><g id="link-annotations" pointer-events="none"><g id="link-annotation-1" class="link-annotation"><rect class="interface-label-badge" x="856.5" y="387.1" width="58.3" height="21.0" rx="5.0" fill="#ffffff" stroke="#cbd5e1" stroke-width="1"/><text class="interface-label-text" x="885.6" y="403.1" text-anchor="middle" fill="#334155" font-family="ui-monospace,SFMono-Regular,monospace" font-size="11" font-weight="650">Eth1/1</text><rect class="interface-label-badge" x="593.2" y="521.9" width="65.0" height="21.0" rx="5.0" fill="#ffffff" stroke="#cbd5e1" stroke-width="1"/><text class="interface-label-text" x="625.6" y="537.9" text-anchor="middle" fill="#334155" font-family="ui-monospace,SFMono-Regular,monospace" font-size="11" font-weight="650">Eth1/49</text><rect class="label-mask" x="770.4" y="434.0" width="44.8" height="23" rx="5" fill="#f8fafc" stroke="#f8fafc" stroke-width="4"/><text x="792.8" y="450.0" text-anchor="middle" fill="#334155" font-family="ui-monospace,SFMono-Regular,monospace" font-size="11" font-weight="500">100G</text></g><g id="link-annotation-2" class="link-annotation"><rect class="interface-label-badge" x="966.9" y="390.9" width="58.3" height="21.0" rx="5.0" fill="#ffffff" stroke="#cbd5e1" stroke-width="1"/><text class="interface-label-text" x="996.0" y="406.9" text-anchor="middle" fill="#334155" font-family="ui-monospace,SFMono-Regular,monospace" font-size="11" font-weight="650">Eth1/2</text><rect class="interface-label-badge" x="1191.5" y="533.1" width="65.0" height="21.0" rx="5.0" fill="#ffffff" stroke="#cbd5e1" stroke-width="1"/><text class="interface-label-text" x="1224.0" y="549.1" text-anchor="middle" fill="#334155" font-family="ui-monospace,SFMono-Regular,monospace" font-size="11" font-weight="650">Eth1/49</text><rect class="label-mask" x="1105.6" y="453.0" width="44.8" height="23" rx="5" fill="#f8fafc" stroke="#f8fafc" stroke-width="4"/><text x="1128.0" y="469.0" text-anchor="middle" fill="#334155" font-family="ui-monospace,SFMono-Regular,monospace" font-size="11" font-weight="500">100G</text></g><g id="link-annotation-3" class="link-annotation"><rect class="interface-label-badge" x="1148.6" y="423.3" width="58.3" height="21.0" rx="5.0" fill="#ffffff" stroke="#cbd5e1" stroke-width="1"/><text class="interface-label-text" x="1177.7" y="439.3" text-anchor="middle" fill="#334155" font-family="ui-monospace,SFMono-Regular,monospace" font-size="11" font-weight="650">Eth1/3</text><rect class="interface-label-badge" x="1751.2" y="536.1" width="65.0" height="21.0" rx="5.0" fill="#ffffff" stroke="#cbd5e1" stroke-width="1"/><text class="interface-label-text" x="1783.7" y="552.1" text-anchor="middle" fill="#334155" font-family="ui-monospace,SFMono-Regular,monospace" font-size="11" font-weight="650">Eth1/49</text><rect class="label-mask" x="1518.9" y="472.0" width="44.8" height="23" rx="5" fill="#f8fafc" stroke="#f8fafc" stroke-width="4"/><text x="1541.3" y="488.0" text-anchor="middle" fill="#334155" font-family="ui-monospace,SFMono-Regular,monospace" font-size="11" font-weight="500">100G</text></g><g id="link-annotation-4" class="link-annotation"><rect class="interface-label-badge" x="1324.9" y="426.3" width="58.3" height="21.0" rx="5.0" fill="#ffffff" stroke="#cbd5e1" stroke-width="1"/><text class="interface-label-text" x="1354.0" y="442.3" text-anchor="middle" fill="#334155" font-family="ui-monospace,SFMono-Regular,monospace" font-size="11" font-weight="650">Eth1/4</text><rect class="interface-label-badge" x="2289.5" y="533.5" width="65.0" height="21.0" rx="5.0" fill="#ffffff" stroke="#cbd5e1" stroke-width="1"/><text class="interface-label-text" x="2322.0" y="549.5" text-anchor="middle" fill="#334155" font-family="ui-monospace,SFMono-Regular,monospace" font-size="11" font-weight="650">Eth1/49</text><rect class="label-mask" x="1721.3" y="434.0" width="44.8" height="23" rx="5" fill="#f8fafc" stroke="#f8fafc" stroke-width="4"/><text x="1743.7" y="450.0" text-anchor="middle" fill="#334155" font-family="ui-monospace,SFMono-Regular,monospace" font-size="11" font-weight="500">100G</text></g><g id="link-annotation-5" class="link-annotation"><rect class="interface-label-badge" x="1952.9" y="390.5" width="58.3" height="21.0" rx="5.0" fill="#ffffff" stroke="#cbd5e1" stroke-width="1"/><text class="interface-label-text" x="1982.0" y="406.5" text-anchor="middle" fill="#334155" font-family="ui-monospace,SFMono-Regular,monospace" font-size="11" font-weight="650">Eth1/1</text><rect class="interface-label-badge" x="981.5" y="497.7" width="65.0" height="21.0" rx="5.0" fill="#ffffff" stroke="#cbd5e1" stroke-width="1"/><text class="interface-label-text" x="1014.0" y="513.7" text-anchor="middle" fill="#334155" font-family="ui-monospace,SFMono-Regular,monospace" font-size="11" font-weight="650">Eth1/50</text><rect class="label-mask" x="1477.6" y="453.0" width="44.8" height="23" rx="5" fill="#f8fafc" stroke="#f8fafc" stroke-width="4"/><text x="1500.0" y="469.0" text-anchor="middle" fill="#334155" font-family="ui-monospace,SFMono-Regular,monospace" font-size="11" font-weight="500">100G</text></g><g id="link-annotation-6" class="link-annotation"><rect class="interface-label-badge" x="2126.6" y="387.9" width="58.3" height="21.0" rx="5.0" fill="#ffffff" stroke="#cbd5e1" stroke-width="1"/><text class="interface-label-text" x="2155.7" y="403.9" text-anchor="middle" fill="#334155" font-family="ui-monospace,SFMono-Regular,monospace" font-size="11" font-weight="650">Eth1/2</text><rect class="interface-label-badge" x="1517.2" y="500.7" width="65.0" height="21.0" rx="5.0" fill="#ffffff" stroke="#cbd5e1" stroke-width="1"/><text class="interface-label-text" x="1549.7" y="516.7" text-anchor="middle" fill="#334155" font-family="ui-monospace,SFMono-Regular,monospace" font-size="11" font-weight="650">Eth1/50</text><rect class="label-mask" x="1776.3" y="472.0" width="44.8" height="23" rx="5" fill="#f8fafc" stroke="#f8fafc" stroke-width="4"/><text x="1798.7" y="488.0" text-anchor="middle" fill="#334155" font-family="ui-monospace,SFMono-Regular,monospace" font-size="11" font-weight="500">100G</text></g><g id="link-annotation-7" class="link-annotation"><rect class="interface-label-badge" x="2278.9" y="390.9" width="58.3" height="21.0" rx="5.0" fill="#ffffff" stroke="#cbd5e1" stroke-width="1"/><text class="interface-label-text" x="2308.0" y="406.9" text-anchor="middle" fill="#334155" font-family="ui-monospace,SFMono-Regular,monospace" font-size="11" font-weight="650">Eth1/3</text><rect class="interface-label-badge" x="2047.5" y="533.1" width="65.0" height="21.0" rx="5.0" fill="#ffffff" stroke="#cbd5e1" stroke-width="1"/><text class="interface-label-text" x="2080.0" y="549.1" text-anchor="middle" fill="#334155" font-family="ui-monospace,SFMono-Regular,monospace" font-size="11" font-weight="650">Eth1/50</text><rect class="label-mask" x="2207.8" y="434.0" width="44.8" height="23" rx="5" fill="#f8fafc" stroke="#f8fafc" stroke-width="4"/><text x="2230.2" y="450.0" text-anchor="middle" fill="#334155" font-family="ui-monospace,SFMono-Regular,monospace" font-size="11" font-weight="500">100G</text></g><g id="link-annotation-8" class="link-annotation"><rect class="interface-label-badge" x="2392.5" y="402.1" width="58.3" height="21.0" rx="5.0" fill="#ffffff" stroke="#cbd5e1" stroke-width="1"/><text class="interface-label-text" x="2421.6" y="418.1" text-anchor="middle" fill="#334155" font-family="ui-monospace,SFMono-Regular,monospace" font-size="11" font-weight="650">Eth1/4</text><rect class="interface-label-badge" x="2649.2" y="536.9" width="65.0" height="21.0" rx="5.0" fill="#ffffff" stroke="#cbd5e1" stroke-width="1"/><text class="interface-label-text" x="2681.6" y="552.9" text-anchor="middle" fill="#334155" font-family="ui-monospace,SFMono-Regular,monospace" font-size="11" font-weight="650">Eth1/50</text><rect class="label-mask" x="2545.6" y="453.0" width="44.8" height="23" rx="5" fill="#f8fafc" stroke="#f8fafc" stroke-width="4"/><text x="2568.0" y="469.0" text-anchor="middle" fill="#334155" font-family="ui-monospace,SFMono-Regular,monospace" font-size="11" font-weight="500">100G</text></g><g id="link-annotation-9" class="link-annotation"><rect class="interface-label-badge" x="594.9" y="694.0" width="58.3" height="21.0" rx="5.0" fill="#ffffff" stroke="#cbd5e1" stroke-width="1"/><text class="interface-label-text" x="624.0" y="710.0" text-anchor="middle" fill="#334155" font-family="ui-monospace,SFMono-Regular,monospace" font-size="11" font-weight="650">Eth1/1</text><rect class="interface-label-badge" x="604.9" y="870.0" width="58.3" height="21.0" rx="5.0" fill="#ffffff" stroke="#cbd5e1" stroke-width="1"/><text class="interface-label-text" x="634.0" y="886.0" text-anchor="middle" fill="#334155" font-family="ui-monospace,SFMono-Regular,monospace" font-size="11" font-weight="650">Eth0/0</text></g><g id="link-annotation-10" class="link-annotation"><rect class="interface-label-badge" x="1196.8" y="702.2" width="58.3" height="21.0" rx="5.0" fill="#ffffff" stroke="#cbd5e1" stroke-width="1"/><text class="interface-label-text" x="1225.9" y="718.2" text-anchor="middle" fill="#334155" font-family="ui-monospace,SFMono-Regular,monospace" font-size="11" font-weight="650">Eth1/1</text><rect class="interface-label-badge" x="862.3" y="828.1" width="58.3" height="21.0" rx="5.0" fill="#ffffff" stroke="#cbd5e1" stroke-width="1"/><text class="interface-label-text" x="891.4" y="844.1" text-anchor="middle" fill="#334155" font-family="ui-monospace,SFMono-Regular,monospace" font-size="11" font-weight="650">Eth0/1</text></g><g id="link-annotation-11" class="link-annotation"><rect class="interface-label-badge" x="872.3" y="735.9" width="58.3" height="21.0" rx="5.0" fill="#ffffff" stroke="#cbd5e1" stroke-width="1"/><text class="interface-label-text" x="901.4" y="751.9" text-anchor="middle" fill="#334155" font-family="ui-monospace,SFMono-Regular,monospace" font-size="11" font-weight="650">Eth1/2</text><rect class="interface-label-badge" x="1206.8" y="861.8" width="58.3" height="21.0" rx="5.0" fill="#ffffff" stroke="#cbd5e1" stroke-width="1"/><text class="interface-label-text" x="1235.9" y="877.8" text-anchor="middle" fill="#334155" font-family="ui-monospace,SFMono-Regular,monospace" font-size="11" font-weight="650">Eth0/0</text></g><g id="link-annotation-12" class="link-annotation"><rect class="interface-label-badge" x="1450.9" y="694.0" width="58.3" height="21.0" rx="5.0" fill="#ffffff" stroke="#cbd5e1" stroke-width="1"/><text class="interface-label-text" x="1480.0" y="710.0" text-anchor="middle" fill="#334155" font-family="ui-monospace,SFMono-Regular,monospace" font-size="11" font-weight="650">Eth1/2</text><rect class="interface-label-badge" x="1440.9" y="870.0" width="58.3" height="21.0" rx="5.0" fill="#ffffff" stroke="#cbd5e1" stroke-width="1"/><text class="interface-label-text" x="1470.0" y="886.0" text-anchor="middle" fill="#334155" font-family="ui-monospace,SFMono-Regular,monospace" font-size="11" font-weight="650">Eth0/1</text></g><g id="link-annotation-13" class="link-annotation"><rect class="interface-label-badge" x="1794.9" y="694.0" width="58.3" height="21.0" rx="5.0" fill="#ffffff" stroke="#cbd5e1" stroke-width="1"/><text class="interface-label-text" x="1824.0" y="710.0" text-anchor="middle" fill="#334155" font-family="ui-monospace,SFMono-Regular,monospace" font-size="11" font-weight="650">Eth1/1</text><rect class="interface-label-badge" x="1804.9" y="870.0" width="58.3" height="21.0" rx="5.0" fill="#ffffff" stroke="#cbd5e1" stroke-width="1"/><text class="interface-label-text" x="1834.0" y="886.0" text-anchor="middle" fill="#334155" font-family="ui-monospace,SFMono-Regular,monospace" font-size="11" font-weight="650">Eth0/0</text></g><g id="link-annotation-14" class="link-annotation"><rect class="interface-label-badge" x="2396.8" y="702.2" width="58.3" height="21.0" rx="5.0" fill="#ffffff" stroke="#cbd5e1" stroke-width="1"/><text class="interface-label-text" x="2425.9" y="718.2" text-anchor="middle" fill="#334155" font-family="ui-monospace,SFMono-Regular,monospace" font-size="11" font-weight="650">Eth1/1</text><rect class="interface-label-badge" x="2062.3" y="828.1" width="58.3" height="21.0" rx="5.0" fill="#ffffff" stroke="#cbd5e1" stroke-width="1"/><text class="interface-label-text" x="2091.4" y="844.1" text-anchor="middle" fill="#334155" font-family="ui-monospace,SFMono-Regular,monospace" font-size="11" font-weight="650">Eth0/1</text></g><g id="link-annotation-15" class="link-annotation"><rect class="interface-label-badge" x="2072.3" y="735.9" width="58.3" height="21.0" rx="5.0" fill="#ffffff" stroke="#cbd5e1" stroke-width="1"/><text class="interface-label-text" x="2101.4" y="751.9" text-anchor="middle" fill="#334155" font-family="ui-monospace,SFMono-Regular,monospace" font-size="11" font-weight="650">Eth1/2</text><rect class="interface-label-badge" x="2406.8" y="861.8" width="58.3" height="21.0" rx="5.0" fill="#ffffff" stroke="#cbd5e1" stroke-width="1"/><text class="interface-label-text" x="2435.9" y="877.8" text-anchor="middle" fill="#334155" font-family="ui-monospace,SFMono-Regular,monospace" font-size="11" font-weight="650">Eth0/0</text></g><g id="link-annotation-16" class="link-annotation"><rect class="interface-label-badge" x="2650.9" y="694.0" width="58.3" height="21.0" rx="5.0" fill="#ffffff" stroke="#cbd5e1" stroke-width="1"/><text class="interface-label-text" x="2680.0" y="710.0" text-anchor="middle" fill="#334155" font-family="ui-monospace,SFMono-Regular,monospace" font-size="11" font-weight="650">Eth1/2</text><rect class="interface-label-badge" x="2640.9" y="870.0" width="58.3" height="21.0" rx="5.0" fill="#ffffff" stroke="#cbd5e1" stroke-width="1"/><text class="interface-label-text" x="2670.0" y="886.0" text-anchor="middle" fill="#334155" font-family="ui-monospace,SFMono-Regular,monospace" font-size="11" font-weight="650">Eth0/1</text></g><g class="bundle-marker" filter="url(#shadow)"><circle cx="856.0" cy="798.0" r="22" fill="#ffffff" stroke="#16a34a" stroke-width="3"/><circle cx="856.0" cy="798.0" r="14" fill="#16a34a" fill-opacity=".13"/><text x="856.0" y="801.5" text-anchor="middle" fill="#16a34a" font-family="ui-monospace,SFMono-Regular,monospace" font-size="10" font-weight="800">Po10</text></g><g class="bundle-marker" filter="url(#shadow)"><circle cx="1284.0" cy="798.0" r="22" fill="#ffffff" stroke="#16a34a" stroke-width="3"/><circle cx="1284.0" cy="798.0" r="14" fill="#16a34a" fill-opacity=".13"/><text x="1284.0" y="801.5" text-anchor="middle" fill="#16a34a" font-family="ui-monospace,SFMono-Regular,monospace" font-size="10" font-weight="800">Po20</text></g><g class="bundle-marker" filter="url(#shadow)"><circle cx="2056.0" cy="798.0" r="22" fill="#ffffff" stroke="#16a34a" stroke-width="3"/><circle cx="2056.0" cy="798.0" r="14" fill="#16a34a" fill-opacity=".13"/><text x="2056.0" y="801.5" text-anchor="middle" fill="#16a34a" font-family="ui-monospace,SFMono-Regular,monospace" font-size="10" font-weight="800">Po30</text></g><g class="bundle-marker" filter="url(#shadow)"><circle cx="2484.0" cy="798.0" r="22" fill="#ffffff" stroke="#16a34a" stroke-width="3"/><circle cx="2484.0" cy="798.0" r="14" fill="#16a34a" fill-opacity=".13"/><text x="2484.0" y="801.5" text-anchor="middle" fill="#16a34a" font-family="ui-monospace,SFMono-Regular,monospace" font-size="10" font-weight="800">Po40</text></g></g><g id="bundle-legend"><text x="78.0" y="1010.0" fill="#475569" font-family="Inter,Segoe UI,sans-serif" font-size="11" font-weight="800" letter-spacing="1.5">BUNDLE DETAILS</text><path d="M78.0 1022.0 H410.0" stroke="#cbd5e1"/><text x="78.0" y="1044.0" fill="#15803d" font-family="ui-monospace,SFMono-Regular,monospace" font-size="11" font-weight="800">Po10</text><text x="126.0" y="1044.0" fill="#334155" font-family="ui-monospace,SFMono-Regular,monospace" font-size="8.5" font-weight="650">2x25G · MC-LAG · LACP · TRUNK · DOT1Q</text><text x="126.0" y="1059.0" fill="#64748b" font-family="ui-monospace,SFMono-Regular,monospace" font-size="8.5" font-weight="600">VLAN 10,20,100-120</text><text x="78.0" y="1091.0" fill="#15803d" font-family="ui-monospace,SFMono-Regular,monospace" font-size="11" font-weight="800">Po20</text><text x="126.0" y="1091.0" fill="#334155" font-family="ui-monospace,SFMono-Regular,monospace" font-size="8.5" font-weight="650">2x25G · MC-LAG · LACP · TRUNK · DOT1Q</text><text x="126.0" y="1106.0" fill="#64748b" font-family="ui-monospace,SFMono-Regular,monospace" font-size="8.5" font-weight="600">VLAN 10,30,200-220</text><text x="78.0" y="1138.0" fill="#15803d" font-family="ui-monospace,SFMono-Regular,monospace" font-size="11" font-weight="800">Po30</text><text x="126.0" y="1138.0" fill="#334155" font-family="ui-monospace,SFMono-Regular,monospace" font-size="8.5" font-weight="650">2x25G · MC-LAG · LACP · TRUNK · DOT1Q</text><text x="126.0" y="1153.0" fill="#64748b" font-family="ui-monospace,SFMono-Regular,monospace" font-size="8.5" font-weight="600">VLAN 10,40,300-320</text><text x="78.0" y="1185.0" fill="#15803d" font-family="ui-monospace,SFMono-Regular,monospace" font-size="11" font-weight="800">Po40</text><text x="126.0" y="1185.0" fill="#334155" font-family="ui-monospace,SFMono-Regular,monospace" font-size="8.5" font-weight="650">2x25G · MC-LAG · LACP · TRUNK · DOT1Q</text><text x="126.0" y="1200.0" fill="#64748b" font-family="ui-monospace,SFMono-Regular,monospace" font-size="8.5" font-weight="600">VLAN 10,50,400-420</text></g></svg>