<svg xmlns="http://www.w3.org/2000/svg" viewBox="0 0 140 108">
  <defs>
    <linearGradient id="top" x1="0" y1="0" x2="1" y2="1">
      <stop offset="0" stop-color="#55bdff"/>
      <stop offset="1" stop-color="#0874df"/>
    </linearGradient>
    <linearGradient id="left" x1="0" y1="0" x2="0" y2="1">
      <stop offset="0" stop-color="#f8fafc"/>
      <stop offset="1" stop-color="#cbd5e1"/>
    </linearGradient>
    <linearGradient id="right" x1="0" y1="0" x2="0" y2="1">
      <stop offset="0" stop-color="#e2e8f0"/>
      <stop offset="1" stop-color="#94a3b8"/>
    </linearGradient>
  </defs>
  <ellipse cx="70" cy="99" rx="50" ry="6" fill="#0f172a" fill-opacity=".14"/>
  <path d="M8 38 70 72v27L12 67Q8 65 8 60Z" fill="url(#left)" stroke="#64748b" stroke-width="3" stroke-linejoin="round"/>
  <path d="M132 38 70 72v27l58-32q4-2 4-7Z" fill="url(#right)" stroke="#64748b" stroke-width="3" stroke-linejoin="round"/>
  <path d="M12 33 63 5q7-4 14 0l51 28q7 4 0 8L77 70q-7 4-14 0L12 41q-7-4 0-8Z" fill="url(#top)" stroke="#0757b5" stroke-width="3" stroke-linejoin="round"/>
  <circle cx="69" cy="42" r="4.5" fill="#fff"/>
  <path d="M69 39 69 25M73 42 94 36M65 45 53 51" fill="none" stroke="#fff" stroke-width="4.5" stroke-linecap="round"/>
  <path d="m69 17-8 11 8-3 8 3Zm35 16-13-4 4 7-1 8ZM45 55l13 1-5-5 1-8Z" fill="#fff"/>
</svg>
